<svg width="172" height="141" viewBox="0 0 172 141" fill="none" xmlns="http://www.w3.org/2000/svg">
<path d="M85.5971 141C132.871 141 171.194 138.763 171.194 136.003C171.194 133.243 132.871 131.005 85.5971 131.005C38.3231 131.005 0 133.243 0 136.003C0 138.763 38.3231 141 85.5971 141Z" fill="#F5F5F5"/>
<path d="M14.6877 124.599C14.6877 124.599 14.0785 120.109 11.2045 119.619C8.33054 119.129 9.19583 116.971 8.44974 116.114C7.70365 115.258 5.74793 117.752 7.42111 120.158C9.09429 122.564 7.72572 121.805 8.44974 124.039C9.17375 126.272 14.9615 128.325 14.6877 124.599Z" fill="#263238"/>
<path opacity="0.2" d="M14.6877 124.599C14.6877 124.599 14.0785 120.109 11.2045 119.619C8.33054 119.129 9.19583 116.971 8.44974 116.114C7.70365 115.258 5.74793 117.752 7.42111 120.158C9.09429 122.564 7.72572 121.805 8.44974 124.039C9.17375 126.272 14.9615 128.325 14.6877 124.599Z" fill="white"/>
<path d="M14.5686 127.716C14.531 127.717 14.4941 127.707 14.4621 127.687C14.4301 127.668 14.4042 127.639 14.3875 127.606C14.3875 127.557 12.1802 122.887 13.328 115.443C13.6997 113.314 14.2915 111.23 15.0939 109.223C16.4845 105.435 17.5794 102.442 15.0718 96.9765C14.2772 95.2459 13.4649 93.6346 12.6791 92.0762C9.73002 86.2222 7.40346 81.6 9.14727 76.916C9.16606 76.8669 9.20357 76.8272 9.25157 76.8057C9.29957 76.7842 9.35415 76.7826 9.40333 76.8012C9.42826 76.8091 9.4513 76.822 9.47101 76.8392C9.49072 76.8563 9.50667 76.8774 9.51786 76.901C9.52905 76.9246 9.53524 76.9503 9.53604 76.9765C9.53684 77.0026 9.53224 77.0286 9.52252 77.0529C7.84934 81.5735 10.145 86.1295 13.0543 91.8952C13.8401 93.458 14.6524 95.0738 15.4515 96.8087C18.0297 102.424 16.851 105.638 15.4868 109.36C14.6826 111.34 14.0907 113.4 13.7209 115.505C12.5863 122.816 14.7275 127.385 14.7496 127.425C14.7723 127.472 14.7754 127.527 14.758 127.576C14.7406 127.626 14.7042 127.667 14.6568 127.69C14.6297 127.705 14.5996 127.714 14.5686 127.716V127.716Z" fill="#263238"/>
<path d="M12.9131 126.626C12.9131 126.626 11.0545 123.827 13.7342 122.388C16.414 120.948 16.9525 122.109 18.5904 121.063C20.2283 120.017 21.5041 117.531 21.7867 119.125C22.0692 120.719 20.1576 121.646 20.8331 122.379C21.5085 123.112 16.3433 127.88 12.9131 126.626Z" fill="#263238"/>
<path d="M8.52924 79.322C8.52924 79.322 6.72362 73.8257 10.8381 73.7109C14.9527 73.5961 10.4143 78.7348 8.52924 79.322Z" fill="#263238"/>
<path d="M12.1052 83.5514C12.1052 83.5514 13.3325 78.5495 16.2506 79.6046C19.1687 80.6598 15.0145 83.6441 12.1052 83.5514Z" fill="#263238"/>
<path d="M7.15185 83.9841C7.15185 83.9841 7.59333 80.0109 4.50302 79.9137C1.41271 79.8166 2.77245 83.3616 7.15185 83.9841Z" fill="#263238"/>
<path d="M9.22235 92.1202C9.22235 92.1202 5.06369 88.4118 3.5671 91.171C2.0705 93.9302 6.69713 94.5042 9.22235 92.1202Z" fill="#263238"/>
<path d="M16.5685 91.4623C16.5685 91.4623 17.3499 85.2817 20.7095 87.2374C24.0691 89.1932 19.4954 92.0804 16.5685 91.4623Z" fill="#263238"/>
<path d="M19.5263 100.279C19.5263 100.279 17.0453 94.0584 21.6542 94.7603C26.2632 95.4623 22.78 98.7689 19.5263 100.279Z" fill="#263238"/>
<path d="M12.4539 102.499C12.4539 102.499 8.56455 97.9301 5.58902 99.3693C2.6135 100.809 5.04601 105.378 12.4539 102.499Z" fill="#263238"/>
<path d="M15.9857 112.658C15.9857 112.658 19.3012 105.294 22.2502 107.775C25.1992 110.256 20.3695 113.964 15.9857 112.658Z" fill="#263238"/>
<path d="M11.1692 112.225C11.1692 112.225 12.0522 106.512 8.7632 106.972C5.47423 107.431 6.34394 110.927 11.1692 112.225Z" fill="#263238"/>
<g opacity="0.2">
<path opacity="0.2" d="M8.52924 79.322C8.52924 79.322 6.72362 73.8257 10.8381 73.7109C14.9527 73.5961 10.4143 78.7348 8.52924 79.322Z" fill="white"/>
<path opacity="0.2" d="M12.1052 83.5514C12.1052 83.5514 13.3325 78.5495 16.2506 79.6046C19.1687 80.6598 15.0145 83.6441 12.1052 83.5514Z" fill="white"/>
<path opacity="0.2" d="M7.15185 83.9841C7.15185 83.9841 7.59333 80.0109 4.50302 79.9137C1.41271 79.8166 2.77245 83.3616 7.15185 83.9841Z" fill="white"/>
<path opacity="0.2" d="M9.22235 92.1202C9.22235 92.1202 5.06369 88.4118 3.5671 91.171C2.0705 93.9302 6.69713 94.5042 9.22235 92.1202Z" fill="white"/>
<path opacity="0.2" d="M16.5685 91.4623C16.5685 91.4623 17.3499 85.2817 20.7095 87.2374C24.0691 89.1932 19.4954 92.0804 16.5685 91.4623Z" fill="white"/>
<path opacity="0.2" d="M19.5263 100.279C19.5263 100.279 17.0453 94.0584 21.6542 94.7603C26.2632 95.4623 22.78 98.7689 19.5263 100.279Z" fill="white"/>
<path opacity="0.2" d="M12.4539 102.499C12.4539 102.499 8.56455 97.9301 5.58902 99.3693C2.6135 100.809 5.04601 105.378 12.4539 102.499Z" fill="white"/>
<path opacity="0.2" d="M15.9857 112.658C15.9857 112.658 19.3012 105.294 22.2502 107.775C25.1992 110.256 20.3695 113.964 15.9857 112.658Z" fill="white"/>
<path opacity="0.2" d="M11.1692 112.225C11.1692 112.225 12.0522 106.512 8.7632 106.972C5.47423 107.431 6.34394 110.927 11.1692 112.225Z" fill="white"/>
</g>
<path d="M10.3128 86.858C10.2792 86.858 10.246 86.8504 10.2157 86.8359C7.77873 85.4718 6.02608 82.8936 5.95545 82.7876C5.94046 82.7659 5.92994 82.7415 5.92449 82.7157C5.91904 82.6899 5.91877 82.6633 5.9237 82.6374C5.92863 82.6116 5.93866 82.5869 5.9532 82.565C5.96775 82.543 5.98652 82.5241 6.00842 82.5095C6.05256 82.4804 6.1063 82.4696 6.15824 82.4795C6.21018 82.4894 6.25621 82.5192 6.28655 82.5625C7.34464 84.0783 8.68461 85.3763 10.2333 86.3856C10.6042 85.6969 11.9418 83.3218 13.0587 82.6508C13.1038 82.6232 13.158 82.6148 13.2093 82.6272C13.2347 82.6333 13.2587 82.6444 13.2798 82.6598C13.3009 82.6752 13.3188 82.6947 13.3324 82.717C13.3461 82.7393 13.3552 82.7641 13.3592 82.7899C13.3633 82.8158 13.3622 82.8421 13.356 82.8675C13.3499 82.893 13.3388 82.9169 13.3234 82.9381C13.308 82.9592 13.2886 82.9771 13.2662 82.9907C12.0787 83.7015 10.5026 86.7211 10.4894 86.752C10.477 86.7753 10.46 86.7959 10.4395 86.8126C10.4191 86.8293 10.3955 86.8417 10.3702 86.8492C10.3519 86.856 10.3323 86.8591 10.3128 86.858Z" fill="#263238"/>
<path d="M14.0785 94.4998C14.0354 94.5008 13.9932 94.4868 13.9593 94.4601C10.4938 91.8421 6.06581 91.9525 6.01283 91.9525C5.96033 91.9516 5.91003 91.9312 5.87169 91.8953C5.83335 91.8594 5.80971 91.8106 5.80534 91.7583C5.80475 91.7322 5.80931 91.7062 5.81876 91.6819C5.8282 91.6576 5.84235 91.6353 5.86039 91.6165C5.87843 91.5976 5.90001 91.5825 5.92389 91.572C5.94777 91.5615 5.9735 91.5558 5.99959 91.5552C6.04373 91.5552 10.4629 91.4404 14.0123 94.0098C14.4759 93.2725 16.255 90.5928 18.5418 89.2463C18.5875 89.2193 18.642 89.2117 18.6933 89.2249C18.7446 89.2382 18.7886 89.2713 18.8155 89.3169C18.8425 89.3626 18.8501 89.4171 18.8369 89.4684C18.8237 89.5197 18.7906 89.5637 18.7449 89.5906C16.2241 91.074 14.2595 94.3674 14.2419 94.4027C14.2273 94.4264 14.2081 94.4468 14.1853 94.4628C14.1625 94.4787 14.1367 94.4898 14.1094 94.4954L14.0785 94.4998Z" fill="#263238"/>
<path d="M16.4846 104.596C16.449 104.596 16.414 104.587 16.3831 104.57C16.3345 104.539 11.2708 101.63 7.61101 101.559C7.56286 101.552 7.51887 101.527 7.48708 101.491C7.45529 101.454 7.4378 101.407 7.4378 101.358C7.4378 101.309 7.45529 101.262 7.48708 101.225C7.51887 101.189 7.56286 101.164 7.61101 101.157C11.0986 101.228 15.6414 103.696 16.4405 104.155C18.7891 102.173 20.6565 97.3119 20.6742 97.2634C20.6825 97.2377 20.6959 97.2141 20.7137 97.1939C20.7314 97.1736 20.7531 97.1572 20.7774 97.1456C20.8016 97.1339 20.828 97.1274 20.8549 97.1263C20.8818 97.1252 20.9087 97.1295 20.9338 97.1391C20.959 97.1487 20.9819 97.1633 21.0013 97.182C21.0206 97.2007 21.036 97.2232 21.0464 97.248C21.0568 97.2729 21.062 97.2996 21.0618 97.3265C21.0615 97.3534 21.0558 97.38 21.045 97.4046C20.9655 97.6121 19.0672 102.561 16.5861 104.552C16.5568 104.576 16.5218 104.591 16.4846 104.596Z" fill="#263238"/>
<path d="M13.5532 115.033C13.5177 115.032 13.4828 115.023 13.4517 115.006C11.5401 113.911 9.06784 109.121 8.9663 108.918C8.94171 108.871 8.93674 108.817 8.95247 108.766C8.9682 108.716 9.00335 108.674 9.05018 108.649C9.09702 108.624 9.1517 108.619 9.2022 108.635C9.25271 108.651 9.29489 108.686 9.31948 108.733C9.31948 108.781 11.7078 113.368 13.5046 114.569C14.9672 112.861 16.9028 111.625 19.0672 111.015C19.1175 111 19.1718 111.006 19.2182 111.03C19.2645 111.055 19.2991 111.097 19.3144 111.148C19.3297 111.199 19.3244 111.254 19.2996 111.301C19.2748 111.348 19.2326 111.383 19.182 111.399C17.0426 111.992 15.1355 113.224 13.7165 114.931C13.6995 114.96 13.6758 114.984 13.6473 115.002C13.6189 115.02 13.5866 115.03 13.5532 115.033V115.033Z" fill="#263238"/>
<path d="M13.1956 125.955C13.1956 125.955 11.6019 123.421 9.8051 123.059C8.00831 122.697 7.23132 120.626 6.56911 121.871C5.9069 123.116 7.7346 127.248 13.1956 125.955Z" fill="#263238"/>
<path d="M6.71037 135.901H19.9899L20.8772 125.178H5.82301L6.71037 135.901Z" fill="#6DA59A"/>
<path d="M5.50959 127.208H21.1863L21.3893 124.935H5.31093L5.50959 127.208Z" fill="#6DA59A"/>
<path opacity="0.3" d="M5.50959 127.208H21.1863L21.3893 124.935H5.31093L5.50959 127.208Z" fill="white"/>
<path d="M99.0487 44.2557L98.3777 44.3837C98.325 44.3874 98.2724 44.3755 98.2264 44.3494C98.1805 44.3234 98.1432 44.2845 98.1192 44.2374C98.0952 44.1904 98.0855 44.1373 98.0915 44.0848C98.0974 44.0323 98.1186 43.9828 98.1525 43.9423H98.179C97.9892 44.0261 97.7994 44.11 97.6007 44.1851C97.5844 44.4792 97.5844 44.7739 97.6007 45.068L101.932 67.4683L85.8001 70.5939C85.8047 70.6261 85.8047 70.6588 85.8001 70.6911C85.7934 70.761 85.7596 70.8255 85.706 70.8708C85.6524 70.9162 85.5832 70.9388 85.5132 70.9339C85.2527 70.8853 84.9878 70.8367 84.723 70.8014L63.3645 74.9424C63.3608 74.98 63.3488 75.0162 63.3292 75.0484C63.2486 75.184 63.1586 75.3138 63.0599 75.4369C63.0724 75.5158 63.0633 75.5967 63.0334 75.6709C62.8682 76.1664 62.6538 76.6441 62.3933 77.0968C62.3088 77.2161 62.1828 77.2995 62.0401 77.3308C61.9472 77.3501 61.8507 77.3424 61.762 77.3087C61.6608 77.527 61.5866 77.7568 61.5412 77.993L95.7642 71.3709L95.7951 71.3312C95.9946 71.1429 96.231 70.9982 96.4894 70.9063C96.7478 70.8143 97.0225 70.7771 97.2961 70.797C97.4908 70.5691 97.7221 70.3752 97.9804 70.2231C98.0968 70.1466 98.2305 70.1005 98.3693 70.0889C98.5081 70.0774 98.6476 70.1007 98.775 70.1569C98.9445 70.2573 99.074 70.4133 99.1414 70.5984C99.4784 70.5571 99.8174 70.5335 100.157 70.5277L105.013 69.583L100.267 45.1122C99.7973 44.9303 99.379 44.6363 99.0487 44.2557V44.2557Z" fill="#6DA59A"/>
<path d="M54.8088 12.2446L54.9677 12.2755L58.1595 11.6574C58.5127 11.5029 58.8615 11.3396 59.2014 11.1939C59.8437 10.8903 60.5338 10.7006 61.241 10.6332C61.6627 10.6138 62.084 10.6767 62.4816 10.8186L89.9323 5.4989L92.4796 18.6283C92.5092 18.5862 92.5503 18.5534 92.5979 18.5339C92.6456 18.5145 92.6978 18.509 92.7485 18.5183C92.7991 18.5276 92.846 18.5512 92.8837 18.5864C92.9213 18.6215 92.9481 18.6667 92.9608 18.7166C93.1089 19.2939 93.1889 19.8866 93.1992 20.4825C93.1854 20.7686 93.1196 21.0499 93.005 21.3124L97.3358 43.6642C97.5963 43.5671 97.8523 43.4611 98.1084 43.3463C98.1339 43.1924 98.1905 43.0453 98.2747 42.914C98.359 42.7827 98.4691 42.6699 98.5984 42.5826C98.7833 42.4951 98.9941 42.4793 99.19 42.5384C99.292 42.3067 99.3661 42.0637 99.4107 41.8144C99.4728 41.5109 99.501 41.2015 99.4946 40.8917L99.3224 39.9867C99.3224 39.9382 99.2827 39.894 99.2606 39.8499C99.2425 39.8159 99.2329 39.778 99.2329 39.7395C99.2329 39.701 99.2425 39.6631 99.2606 39.6291L94.7046 16.134C94.6783 16.1382 94.6515 16.1382 94.6252 16.134C94.4656 16.151 94.3045 16.1242 94.159 16.0566C94.0136 15.9889 93.8893 15.8829 93.7996 15.7499C93.674 15.4925 93.6353 15.2012 93.6892 14.9199C93.7334 14.5888 93.8173 14.2621 93.8835 13.9354C93.9546 13.6469 93.9756 13.3482 93.9453 13.0525C93.9346 13.0025 93.9399 12.9504 93.9605 12.9037C93.9811 12.8569 94.016 12.8178 94.0601 12.792L92.0381 2.36887L52.4513 10.077C51.7161 10.5045 50.878 10.7229 50.0276 10.7083C49.9874 10.7058 49.9485 10.6931 49.9146 10.6715C49.8806 10.6499 49.8527 10.62 49.8334 10.5847L30.1923 14.3946C30.1807 14.4457 30.1552 14.4925 30.1186 14.5299C30.0819 14.5674 30.0356 14.5939 29.9848 14.6065L28.9517 14.8051C28.9477 14.9621 28.9003 15.1149 28.8149 15.2466C28.8078 15.3082 28.7779 15.365 28.731 15.4055C28.6632 15.461 28.5984 15.5199 28.5368 15.5821C28.4176 15.6925 28.3028 15.8117 28.1792 15.9177C28.1371 15.958 28.0855 15.9869 28.0291 16.0015C27.9831 16.0095 27.9358 16.0056 27.8918 15.9901C27.8477 15.9747 27.8084 15.9482 27.7774 15.9132C27.7318 15.8591 27.7081 15.7898 27.7112 15.719C27.7087 15.694 27.7087 15.6689 27.7112 15.6439C27.5523 15.6439 27.3933 15.6439 27.2388 15.6042C27.1694 15.5964 27.1055 15.5624 27.0604 15.509C27.0152 15.4556 26.9922 15.387 26.996 15.3172C27.0017 15.2477 27.0345 15.1832 27.0874 15.1378C27.1403 15.0923 27.209 15.0696 27.2786 15.0744C27.4453 15.0986 27.6134 15.1119 27.7818 15.1142H27.9143C27.9333 15.1164 27.9526 15.1164 27.9717 15.1142C27.8419 15.0956 27.7229 15.0314 27.6361 14.9332C27.6348 14.9214 27.6348 14.9096 27.6361 14.8979L16.2638 17.1052C16.3164 17.1058 16.3679 17.1195 16.4139 17.1449C16.4707 17.1851 16.5098 17.2456 16.523 17.3139C16.5362 17.3822 16.5224 17.453 16.4846 17.5114C16.3936 17.6323 16.2916 17.7447 16.1799 17.8469L16.149 17.8822C16.149 17.8601 16.1755 17.8822 16.149 17.8822C16.13 17.9047 16.1123 17.9283 16.0961 17.9528C16.0961 17.9528 16.0961 17.9882 16.0961 18.0014C16.094 18.016 16.094 18.0309 16.0961 18.0456C16.094 18.0543 16.094 18.0633 16.0961 18.072C16.0903 18.1174 16.0732 18.1607 16.0465 18.1978C16.0197 18.2349 15.984 18.2647 15.9427 18.2845C15.9014 18.3042 15.8558 18.3133 15.8101 18.3109C15.7644 18.3085 15.7201 18.2947 15.6811 18.2707V18.2707C15.6576 18.258 15.6323 18.2491 15.606 18.2442C15.5787 18.2334 15.5507 18.2245 15.5221 18.2177C15.5229 18.3421 15.4893 18.4644 15.425 18.5709C15.3998 18.6076 15.3652 18.6368 15.3248 18.6554C15.2844 18.6741 15.2397 18.6815 15.1955 18.6769C15.1511 18.9254 15.0677 19.1653 14.9482 19.3876C14.8149 19.6148 14.6343 19.8105 14.4185 19.9615V19.9615C14.4612 20.0188 14.4967 20.0811 14.5244 20.147L31.4328 16.8712V16.8447C31.5045 16.7247 31.5972 16.6185 31.7065 16.5313C31.779 16.4775 31.8629 16.4412 31.9517 16.4251C32.0406 16.409 32.1319 16.4136 32.2186 16.4386C32.3574 16.4816 32.4875 16.5488 32.6027 16.6373L54.4953 12.3947C54.5207 12.3361 54.5664 12.2886 54.624 12.2611C54.6816 12.2335 54.7472 12.2276 54.8088 12.2446V12.2446Z" fill="#6DA59A"/>
<path d="M25.367 82.3196L21.3937 61.8573C21.3588 61.8971 21.3129 61.9254 21.2617 61.9388C21.2106 61.9522 21.1566 61.9499 21.1068 61.9324C21.0408 61.9093 20.9866 61.8611 20.956 61.7983C20.9254 61.7354 20.9209 61.663 20.9434 61.5969C21.0095 61.4027 21.1097 61.2218 21.2392 61.0627L16.0343 34.1726L15.9857 34.0887C15.8798 33.8704 15.8041 33.6387 15.7605 33.4C15.6694 33.3933 15.5779 33.3933 15.4868 33.4C15.4468 33.4068 15.4058 33.4044 15.3668 33.393C15.3279 33.3817 15.292 33.3617 15.2618 33.3345C15.2317 33.3073 15.2081 33.2737 15.1928 33.2361C15.1775 33.1985 15.1708 33.158 15.1734 33.1175C15.1682 32.6082 15.2993 32.1067 15.553 31.665L13.4428 20.7872C13.4076 20.7292 13.3766 20.6687 13.3501 20.6062L13.2442 20.4075C13.2008 20.4064 13.1586 20.3935 13.122 20.3701C13.0854 20.3468 13.0559 20.3139 13.0367 20.2751C13.006 20.2124 13.0013 20.1401 13.0236 20.074C13.0459 20.0078 13.0935 19.9532 13.1559 19.9219C13.2662 19.8791 13.3668 19.8145 13.4516 19.732C13.5118 19.6635 13.5609 19.5861 13.5973 19.5025C13.6667 19.3159 13.704 19.1188 13.7077 18.9197C13.6414 18.8299 13.5934 18.7279 13.5664 18.6195C13.5464 18.4713 13.56 18.3204 13.6062 18.1781C13.6155 18.1408 13.6354 18.1071 13.6635 18.0809C13.6635 17.9132 13.6371 17.7454 13.6282 17.5777L10.251 18.231L19.8883 67.9497C19.9364 67.9239 19.9924 67.9168 20.0454 67.9299C20.0983 67.9429 20.1446 67.9751 20.1753 68.0203C20.4248 68.2906 20.5621 68.6457 20.5593 69.0136C20.5461 69.0862 20.5254 69.1572 20.4975 69.2255C20.5421 69.2578 20.5748 69.3037 20.5908 69.3563C20.6067 69.409 20.605 69.4654 20.5858 69.5169C20.4567 69.77 20.4148 70.0587 20.4666 70.338C20.5221 70.6009 20.5974 70.8591 20.6918 71.1106C20.8583 71.5331 20.8801 71.9989 20.7536 72.435L23.27 85.4276L23.9852 85.2863C24.3872 85.1536 24.7971 85.046 25.2125 84.964C25.2062 84.9334 25.2065 84.9019 25.2134 84.8715C25.2202 84.841 25.2335 84.8124 25.2522 84.7874C25.3571 84.6661 25.4692 84.5511 25.5877 84.4431C25.5767 84.3981 25.5767 84.3512 25.5877 84.3062C25.6618 84.0006 25.8339 83.7277 26.0778 83.5292C26.299 83.3661 26.5721 83.2892 26.8459 83.3129C27.1098 83.3462 27.363 83.4374 27.5874 83.5802C27.8118 83.7229 28.0019 83.9136 28.1438 84.1385C28.8679 83.9619 29.6493 83.697 30.3512 84.0546L57.7931 78.7569C57.8015 78.6851 57.8162 78.6142 57.8373 78.545C57.9494 78.1873 58.1589 77.8679 58.4421 77.6223C58.4844 77.586 58.5373 77.5643 58.593 77.5603C58.6486 77.5564 58.704 77.5704 58.7511 77.6003C58.7725 77.5656 58.8023 77.5369 58.8379 77.517C58.8734 77.4972 58.9135 77.4867 58.9542 77.4867C58.9949 77.4867 59.035 77.4972 59.0705 77.517C59.1061 77.5369 59.1359 77.5656 59.1573 77.6003L59.2676 77.7327L59.3162 77.7768L59.4001 77.8342L59.4928 77.8784C59.4089 77.6231 59.4089 77.3478 59.4928 77.0926C59.5445 76.949 59.6253 76.8176 59.7301 76.7067C59.8349 76.5958 59.9616 76.5077 60.102 76.448C60.0759 76.4127 60.0591 76.3713 60.0532 76.3278C60.0473 76.2843 60.0526 76.2399 60.0684 76.199C60.0843 76.158 60.1103 76.1217 60.1439 76.0934C60.1776 76.0652 60.2178 76.0459 60.261 76.0374C60.3184 76.0303 60.3767 76.042 60.4271 76.0706C60.4774 76.0992 60.5172 76.1434 60.5405 76.1964C60.5638 76.2494 60.5694 76.3086 60.5564 76.365C60.5434 76.4215 60.5126 76.4723 60.4684 76.5098L60.4993 76.5451C60.53 76.6078 60.5347 76.6801 60.5124 76.7462C60.4901 76.8124 60.4425 76.867 60.3802 76.8983L60.2786 76.9469L60.2212 76.9778L60.1903 76.9998L60.1197 77.0617L60.0932 77.0926L60.049 77.1588V77.1853C60.039 77.2083 60.0302 77.2319 60.0226 77.2559V77.2559C60.1104 77.1402 60.2127 77.0363 60.3272 76.9469C60.4038 76.8938 60.4869 76.8508 60.5744 76.8188C60.7907 76.3421 60.9938 75.8564 61.1969 75.3796L25.367 82.3196Z" fill="#6DA59A"/>
<path d="M31.8919 61.7293C31.9389 61.6779 31.9941 61.6347 32.0553 61.6013L40.0283 45.8496L36.364 46.5603L33.1501 52.8513C33.1702 52.856 33.1895 52.8634 33.2075 52.8734C33.2643 52.9135 33.3034 52.9741 33.3166 53.0424C33.3298 53.1107 33.316 53.1815 33.2782 53.2398C33.2031 53.3502 33.1457 53.4694 33.0795 53.5842C33.1369 53.6195 33.1899 53.6636 33.2472 53.6945C33.2907 53.7241 33.3244 53.7659 33.3441 53.8146C33.3637 53.8633 33.3684 53.9168 33.3576 53.9683C33.3468 54.0192 33.3214 54.0659 33.2846 54.1027C33.2478 54.1396 33.2011 54.1649 33.1501 54.1757L33.0618 54.2243H33.0398H33.0133L32.8411 54.3038H32.8014L32.7396 54.3523L32.6027 54.4715L32.5321 54.5466L32.5012 54.5819L32.3775 54.7408C32.2893 54.86 32.2098 54.9836 32.1259 55.1073C32.0849 55.1649 32.0232 55.2045 31.9537 55.2176L27.2521 64.4267L27.6935 66.8019L29.7817 66.3957C29.8486 66.1977 29.9604 66.0179 30.1084 65.8704C30.1783 65.8047 30.2553 65.7469 30.3379 65.6982C30.3358 65.6821 30.3358 65.6657 30.3379 65.6496C30.4369 64.5805 30.7847 63.5495 31.3533 62.6388C31.325 62.5946 31.3099 62.5433 31.3099 62.4909C31.3099 62.4384 31.325 62.3871 31.3533 62.343C31.4254 62.2174 31.4533 62.0713 31.4328 61.928C31.4333 61.8751 31.4492 61.8234 31.4785 61.7793C31.5078 61.7352 31.5492 61.7005 31.5978 61.6795C31.6464 61.6584 31.7001 61.652 31.7523 61.6608C31.8045 61.6697 31.853 61.6935 31.8919 61.7293V61.7293Z" fill="#6DA59A"/>
<path d="M45.6262 60.3299C45.6215 60.3962 45.6035 60.4607 45.5732 60.5198C45.4423 60.7761 45.2294 60.9812 44.9684 61.1025C44.9154 61.182 44.858 61.257 44.8094 61.3321C44.7808 61.3723 44.7409 61.4031 44.6946 61.4204C44.6946 61.4601 44.6637 61.5043 44.6549 61.544C44.6445 61.5783 44.6273 61.6101 44.6043 61.6375C44.5813 61.665 44.5529 61.6875 44.521 61.7036C44.489 61.7198 44.4541 61.7293 44.4183 61.7316C44.3826 61.7339 44.3467 61.7289 44.313 61.717C44.2792 61.705 44.2482 61.6864 44.2219 61.6621C44.1955 61.6378 44.1744 61.6084 44.1597 61.5758C44.1451 61.5431 44.1372 61.5078 44.1365 61.472C44.1359 61.4361 44.1425 61.4006 44.156 61.3674C44.1995 61.2158 44.2556 61.0681 44.3238 60.9259L44.0722 60.9745C44.0038 60.9863 43.9336 60.9714 43.876 60.9327C43.8185 60.8941 43.778 60.8347 43.7631 60.767C43.7564 60.747 43.7564 60.7252 43.7631 60.7052L43.6086 60.7361L42.6109 55.5488L39.4235 56.1669L40.4212 61.3233L32.5321 62.8507C32.4791 62.8772 32.4305 62.917 32.3776 62.9479V62.9832C32.397 63.0402 32.3965 63.1022 32.376 63.1588C32.3555 63.2155 32.3163 63.2635 32.2648 63.2949C32.2134 63.3262 32.1528 63.3392 32.093 63.3314C32.0332 63.3237 31.9779 63.2959 31.9361 63.2525C31.789 63.379 31.6544 63.5195 31.5344 63.6719C31.5804 63.6588 31.6293 63.6589 31.6753 63.6721C31.7214 63.6854 31.7628 63.7113 31.7948 63.7469C31.8194 63.7712 31.8389 63.8 31.8522 63.8319C31.8655 63.8637 31.8724 63.8979 31.8724 63.9324C31.8724 63.9669 31.8655 64.001 31.8522 64.0328C31.8389 64.0647 31.8194 64.0935 31.7948 64.1178L31.5829 64.2944C31.6098 64.339 31.624 64.3901 31.624 64.4423C31.624 64.4944 31.6098 64.5455 31.5829 64.5901V64.5901V64.6211C31.5807 64.6372 31.5807 64.6535 31.5829 64.6696C31.5829 64.7314 31.5829 64.7976 31.5829 64.8639C31.5736 64.9825 31.5219 65.0938 31.4372 65.1773C31.3409 65.2601 31.223 65.3138 31.0973 65.3318H31.0664C31.0787 65.4637 31.0979 65.5948 31.1238 65.7247C31.1838 65.8446 31.2312 65.9703 31.2651 66.1L40.9289 64.2281L42.0149 70.1174L45.3083 69.4817L44.1781 63.6454L48.6856 62.7625L48.1205 59.8487L45.6262 60.3299Z" fill="#6DA59A"/>
<path d="M64.7595 44.4368L64.5476 44.6222C64.4461 44.7105 64.349 44.7988 64.2562 44.8915L64.137 45.0239L64.0708 45.1034C63.9951 45.2134 63.882 45.2922 63.7525 45.3252C63.623 45.3582 63.486 45.343 63.3669 45.2826C63.2477 45.2223 63.1545 45.1207 63.1045 44.9968C63.0546 44.8729 63.0512 44.7351 63.0952 44.6089L63.2188 44.141C63.2188 44.141 63.1835 44.1057 63.1702 44.0792C63.1344 44.0128 63.1161 43.9383 63.1172 43.8628C63.1086 43.7911 63.1177 43.7183 63.1437 43.6509C63.1437 43.598 63.1835 43.545 63.2055 43.492C63.1089 43.3984 63.0283 43.2895 62.9672 43.1697V43.1344C61.1051 42.155 58.958 41.8612 56.9013 42.3044C51.3388 43.3816 48.0719 48.5954 49.5552 56.3256C51.0386 64.0558 56.0449 67.667 61.6074 66.5898C62.1072 66.4946 62.5988 66.3603 63.0775 66.1881C63.232 65.9674 63.3865 65.7466 63.519 65.5303C63.5714 65.4546 63.642 65.3934 63.7243 65.3522C63.8067 65.3111 63.898 65.2914 63.99 65.2949C64.082 65.2984 64.1716 65.3251 64.2505 65.3724C64.3295 65.4197 64.3952 65.4862 64.4417 65.5656C68.1809 63.4819 70.1234 58.8597 68.905 52.5731C68.2118 48.9265 66.7197 46.1894 64.7595 44.4368ZM61.0247 63.5746C57.2942 64.2986 54.1245 61.7469 52.9457 55.6722C51.767 49.5976 53.7536 46.0481 57.4841 45.3285C58.4642 45.1166 59.4836 45.1752 60.433 45.4979C61.3825 45.8206 62.2264 46.3953 62.8744 47.1606C62.9372 47.1161 63.0075 47.0832 63.0819 47.0635C63.2264 47.0375 63.3752 47.0692 63.4965 47.1518C63.6179 47.2343 63.702 47.3611 63.7309 47.505C63.7778 47.7851 63.7852 48.0704 63.753 48.3526C64.6292 49.8518 65.2275 51.497 65.5189 53.2088C66.7064 59.3055 64.7198 62.8594 61.0247 63.5746Z" fill="#6DA59A"/>
<path d="M88.9302 51.9375L87.9324 46.7811L84.7406 47.3992L85.7427 52.5556L76.6175 54.3215L85.3454 37.0775L81.6812 37.7839L78.4011 44.2117C78.3702 45.0142 78.2076 45.8062 77.9199 46.556C77.8997 46.6056 77.8652 46.648 77.8207 46.6779C77.7763 46.7078 77.724 46.7237 77.6704 46.7237C77.6169 46.7237 77.5645 46.7078 77.5201 46.6779C77.4757 46.648 77.4412 46.6056 77.421 46.556C77.3328 47.2402 77.0116 47.8731 76.5116 48.3483C76.479 48.3787 76.4386 48.3994 76.3949 48.4079C76.3512 48.4165 76.306 48.4127 76.2643 48.3969L72.5516 55.6724L72.993 58.0475L78.4849 56.9835C78.9534 56.6109 79.5071 56.3606 80.0963 56.2551C80.6138 56.1354 81.1416 56.0659 81.6724 56.0476C82.0704 56.0172 82.4708 56.047 82.8599 56.1359L86.1886 55.4914L87.3188 61.3232L90.6078 60.6875L89.4776 54.8556L93.9895 53.9727L93.4244 51.059L88.9302 51.9375Z" fill="#6DA59A"/>
<path d="M28.2498 37.8058L27.7289 35.1216L33.1148 34.0798L32.7087 31.9916L27.3227 33.0335L26.8371 30.5127L32.9338 29.3339L32.4924 27.1796L23.7291 28.8792L24.4796 32.7465C24.6134 32.8148 24.732 32.9094 24.8284 33.0247C24.9949 33.2349 25.0948 33.4901 25.1154 33.7575C25.1728 34.3093 25.0359 34.8788 25.1154 35.413C25.1261 35.4577 25.1235 35.5045 25.1078 35.5477C25.0921 35.5909 25.064 35.6285 25.0271 35.6558L25.9983 40.4767L34.9779 38.7373L34.5629 36.5653L28.2498 37.8058Z" fill="#6DA59A"/>
<path d="M44.0634 33.1086C44.7148 32.6955 45.2259 32.0948 45.5293 31.3855C45.8327 30.6763 45.9142 29.8918 45.763 29.1353C45.7185 29.1819 45.6592 29.2115 45.5953 29.2192C45.5436 29.2227 45.4921 29.2107 45.4472 29.1848C45.4024 29.1588 45.3663 29.1201 45.3436 29.0735C45.2834 28.9327 45.2432 28.7841 45.2244 28.6321C45.2244 28.61 45.2244 28.5923 45.2244 28.5703C45.1428 28.466 45.0841 28.3456 45.0523 28.2171C45.0417 28.1483 45.0577 28.078 45.0971 28.0206C45.1364 27.9632 45.1962 27.923 45.2642 27.9081C45.291 27.9011 45.3191 27.8999 45.3464 27.9045C45.3738 27.909 45.3999 27.9193 45.4231 27.9345C44.5799 26.0495 42.5491 25.2107 39.8915 25.7272L34.8719 26.6984L35.5518 30.1993C35.6055 30.2221 35.6482 30.2648 35.671 30.3185C36.0982 31.1861 36.3644 32.1239 36.4568 33.0865C36.4674 33.1553 36.4514 33.2256 36.412 33.283C36.3727 33.3404 36.3129 33.3807 36.2449 33.3956C36.2201 33.3998 36.1947 33.3998 36.1698 33.3956L37.119 38.3312L39.8032 37.8103L39.1763 34.5831L41.6441 34.1019L44.5048 36.9008L47.3877 36.3402L44.0634 33.1086ZM40.9466 32.0093L38.7392 32.4508L37.9534 28.4113L40.1608 27.9699C41.7986 27.652 42.7743 28.2347 43.0215 29.5106C43.2687 30.7865 42.5889 31.7091 40.9466 32.0093V32.0093Z" fill="#6DA59A"/>
<path d="M56.2436 30.7466C56.917 30.319 57.4401 29.6919 57.74 28.9527C58.04 28.2136 58.1018 27.3992 57.9168 26.6233C57.4135 24.023 55.1664 22.7913 52.0673 23.3917L47.0477 24.3674L49.2948 35.9604L51.979 35.4439L51.3521 32.2123L53.8199 31.7311L56.6851 34.5301L59.5679 33.9694L56.2436 30.7466ZM53.1268 29.6518L50.9195 30.0933L50.1381 26.0494L52.3233 25.6079C52.4602 25.5814 52.5926 25.5638 52.7163 25.5505L52.8001 25.4799C52.808 25.4138 52.8228 25.3487 52.8443 25.2856C52.873 25.2091 52.9252 25.1435 52.9934 25.0983C53.0615 25.0531 53.1422 25.0306 53.2239 25.034C53.3807 25.0496 53.5317 25.1009 53.6654 25.1841C53.6884 25.1564 53.717 25.1338 53.7493 25.1179C53.7511 25.0332 53.7615 24.9489 53.7802 24.8662C53.8059 24.8031 53.8549 24.7524 53.917 24.7245C53.9792 24.6966 54.0497 24.6937 54.1139 24.7164C54.1781 24.7391 54.2311 24.7857 54.2619 24.8465C54.2926 24.9073 54.2988 24.9776 54.2791 25.0428C54.2261 25.2459 54.3232 25.4269 54.3055 25.6344C54.2995 25.6838 54.2846 25.7316 54.2614 25.7757C54.5096 25.9197 54.7215 26.1188 54.8807 26.3576C55.0399 26.5964 55.1421 26.8685 55.1797 27.153C55.4446 28.4112 54.7647 29.3339 53.1268 29.6518Z" fill="#6DA59A"/>
<path d="M68.9447 21.1534L68.8079 21.1887C68.7754 21.1998 68.7443 21.2146 68.7152 21.2329C68.7015 21.2407 68.6895 21.2512 68.6799 21.2638V21.2638C68.6407 21.3104 68.5884 21.3443 68.5298 21.3609C68.4954 21.367 68.4601 21.3662 68.426 21.3587C68.3919 21.3511 68.3597 21.3368 68.3311 21.3168C68.3014 21.2987 68.2761 21.2743 68.257 21.2453C68.2379 21.2163 68.2255 21.1834 68.2207 21.149C68.2071 21.0801 68.2214 21.0087 68.2605 20.9503C68.2605 20.9503 68.2869 20.9283 68.2958 20.915C67.1655 20.5547 65.9619 20.4893 64.7993 20.7252C61.1351 21.4359 58.9498 24.5086 59.6164 27.9521C60.2831 31.3956 63.4617 33.4308 67.1215 32.72C70.7813 32.0092 72.9754 28.9542 72.3043 25.4931C72.1395 24.5511 71.7473 23.6635 71.1619 22.9073C70.5764 22.1511 69.8154 21.549 68.9447 21.1534ZM66.6844 30.4243C65.7003 30.6152 64.6807 30.4073 63.8499 29.8464C63.019 29.2854 62.4451 28.4175 62.2542 27.4334C62.0634 26.4492 62.2713 25.4296 62.8322 24.5988C63.3931 23.768 64.2611 23.194 65.2452 23.0032C65.7408 22.9061 66.2506 22.9061 66.7462 23.0032C66.7462 22.9414 66.7859 22.8796 66.808 22.8266C66.83 22.7666 66.873 22.7166 66.9289 22.6857C66.9849 22.6549 67.0502 22.6453 67.1126 22.6588C67.1617 22.6675 67.2068 22.6913 67.2417 22.7269C67.2765 22.7626 67.2993 22.8082 67.3069 22.8575L67.4614 22.8178C67.4967 22.7074 67.532 22.6014 67.5629 22.4911C67.5938 22.3807 67.5983 22.363 67.6115 22.3012C67.6209 22.2709 67.6283 22.2399 67.6336 22.2085V22.1776L67.6601 22.0187V21.9613C67.6336 21.7847 67.819 21.5728 68.0088 21.6655L68.5342 21.9172C68.599 21.9429 68.6515 21.9924 68.6811 22.0556C68.7106 22.1188 68.7149 22.1908 68.6931 22.2571C68.6621 22.3229 68.6355 22.3908 68.6136 22.4602C68.6136 22.4822 68.6136 22.5087 68.5916 22.5308C68.5916 22.5308 68.5916 22.5308 68.5916 22.5617C68.5828 22.6675 68.5828 22.7738 68.5916 22.8796C68.6011 23.1306 68.5863 23.3819 68.5474 23.6301C68.5597 23.6587 68.566 23.6895 68.566 23.7206C68.566 23.7517 68.5597 23.7825 68.5474 23.8111C68.5383 23.8413 68.5215 23.8686 68.4989 23.8905C69.0761 24.4618 69.463 25.1971 69.607 25.9964C69.7276 26.4803 69.7464 26.984 69.6623 27.4756C69.5781 27.9672 69.3928 28.4359 69.1181 28.8522C68.8434 29.2684 68.4852 29.6231 68.0663 29.8937C67.6474 30.1643 67.1768 30.345 66.6844 30.4243V30.4243Z" fill="#6DA59A"/>
<path d="M84.1226 21.8864C84.1079 21.8844 84.0931 21.8844 84.0784 21.8864C83.973 21.8491 83.8756 21.7922 83.7915 21.7186C83.7514 21.7871 83.7056 21.8521 83.6546 21.9128C83.6138 21.9688 83.5533 22.0072 83.4853 22.0203C83.4173 22.0334 83.3469 22.0202 83.2882 21.9835C83.2305 21.9441 83.1906 21.8834 83.1774 21.8148C83.1642 21.7462 83.1786 21.6751 83.2176 21.6171C83.4783 21.2618 83.6425 20.845 83.6943 20.4074C82.8114 18.615 80.8204 17.8336 78.2289 18.3369L73.2094 19.3082L75.4432 30.8924L78.1274 30.3714L77.5005 27.1399L79.9683 26.6631L82.8335 29.4576L85.7163 28.9013L82.392 25.6786C83.0181 25.2834 83.5153 24.7141 83.8227 24.0405C84.1301 23.3669 84.2343 22.6183 84.1226 21.8864ZM79.2885 24.5793L77.0811 25.0208L76.3262 20.9593L78.5335 20.5178C80.1758 20.1999 81.1471 20.7871 81.3943 22.0629C81.6415 23.3388 80.9263 24.2615 79.2885 24.5793Z" fill="#6DA59A"/>
<path d="M60.7731 92.0408H79.6416C80.1545 92.0408 80.6623 92.1419 81.1361 92.3383C81.6099 92.5347 82.0403 92.8226 82.4027 93.1854C82.7652 93.5483 83.0526 93.979 83.2484 94.453C83.4443 94.927 83.5448 95.435 83.5442 95.9478V102.57C83.5448 103.083 83.4443 103.591 83.2484 104.065C83.0526 104.539 82.7652 104.969 82.4027 105.332C82.0403 105.695 81.6099 105.983 81.1361 106.179C80.6623 106.376 80.1545 106.477 79.6416 106.477H67.1038L61.3647 112.613L64.455 106.477H60.7554C59.7192 106.477 58.7255 106.065 57.9927 105.333C57.26 104.6 56.8484 103.606 56.8484 102.57V95.9478C56.8484 95.4333 56.95 94.9238 57.1475 94.4486C57.3449 93.9734 57.6343 93.5419 57.999 93.1789C58.3637 92.8159 58.7964 92.5284 59.2725 92.3331C59.7486 92.1378 60.2585 92.0385 60.7731 92.0408V92.0408Z" fill="#6DA59A"/>
<path opacity="0.7" d="M60.7731 92.0408H79.6416C80.1545 92.0408 80.6623 92.1419 81.1361 92.3383C81.6099 92.5347 82.0403 92.8226 82.4027 93.1854C82.7652 93.5483 83.0526 93.979 83.2484 94.453C83.4443 94.927 83.5448 95.435 83.5442 95.9478V102.57C83.5448 103.083 83.4443 103.591 83.2484 104.065C83.0526 104.539 82.7652 104.969 82.4027 105.332C82.0403 105.695 81.6099 105.983 81.1361 106.179C80.6623 106.376 80.1545 106.477 79.6416 106.477H67.1038L61.3647 112.613L64.455 106.477H60.7554C59.7192 106.477 58.7255 106.065 57.9927 105.333C57.26 104.6 56.8484 103.606 56.8484 102.57V95.9478C56.8484 95.4333 56.95 94.9238 57.1475 94.4486C57.3449 93.9734 57.6343 93.5419 57.999 93.1789C58.3637 92.8159 58.7964 92.5284 59.2725 92.3331C59.7486 92.1378 60.2585 92.0385 60.7731 92.0408V92.0408Z" fill="white"/>
<path d="M170.801 23.2241C170.801 24.6633 162.93 25.8994 151.655 26.4424L150.749 26.4866L149.531 26.5351C147.84 26.6014 146.083 26.6499 144.273 26.6896H143.461H143.019C141.629 26.7117 140.207 26.7205 138.764 26.7205C136.15 26.7205 133.612 26.6852 131.179 26.6234L129.413 26.566C124.976 26.4204 120.95 26.1687 117.56 25.842C110.907 25.1975 106.708 24.2571 106.708 23.1932C106.708 21.6083 116.244 20.2751 129.36 19.8336L130.389 19.7983C131.304 19.7718 132.233 19.7497 133.174 19.732C134.309 19.71 135.466 19.6967 136.636 19.6879H138.768C142.07 19.6879 145.258 19.7409 148.255 19.8468L149.677 19.8954L151.526 19.9749L152.008 20.0013L153.239 20.0631C163.627 20.6724 170.801 21.8511 170.801 23.2241Z" fill="#263238"/>
<path opacity="0.4" d="M170.801 23.2241C170.801 24.6633 162.93 25.8994 151.655 26.4424L150.749 26.4866L149.531 26.5351C147.84 26.6014 146.083 26.6499 144.273 26.6897H143.461H143.019C141.629 26.7117 140.207 26.7206 138.764 26.7206C136.15 26.7206 133.612 26.6852 131.179 26.6234L129.413 26.566C124.976 26.4204 120.95 26.1687 117.56 25.842C110.907 25.1975 106.708 24.2571 106.708 23.1932C106.708 22.7252 107.543 22.2749 109.057 21.8688C111.854 22.5241 114.696 22.9668 117.56 23.1932C120.95 23.5199 124.976 23.7715 129.413 23.9172L131.179 23.9746C133.612 24.0364 136.15 24.0717 138.764 24.0717C140.207 24.0717 141.629 24.0717 143.019 24.0408H143.461H144.273C146.083 24.0011 147.84 23.9525 149.531 23.8863L150.749 23.8377L151.655 23.7936C159.261 23.4272 165.314 22.7473 168.453 21.8997C169.945 22.3102 170.801 22.7517 170.801 23.2241Z" fill="white"/>
<path d="M136.587 19.7188C136.555 20.2447 136.357 20.747 136.022 21.1536C135.656 21.595 135.342 21.9306 134.985 22.297C134.773 22.5133 134.543 22.7385 134.344 22.9327C134.203 23.0784 134.057 23.2152 133.903 23.3477C133.155 24.0382 132.365 24.6811 131.537 25.2725L131.391 25.374L131.007 25.6301C130.478 25.9837 129.926 26.3023 129.356 26.5837C129.144 26.6896 128.914 26.7912 128.702 26.8883C128.174 27.1108 127.629 27.2938 127.073 27.4357C126.579 27.5682 126.107 27.6829 125.639 27.7801C124.981 27.9258 124.314 28.0582 123.683 28.1774C122.478 28.4114 121.277 28.6189 120.067 28.7954C119.039 28.95 118.01 29.0957 116.977 29.2369C116.147 29.3385 115.317 29.4268 114.478 29.4974C114.386 29.5085 114.292 29.5085 114.2 29.4974C113.92 29.4592 113.662 29.3269 113.468 29.1222C113.274 28.9176 113.155 28.6528 113.132 28.3716C113.127 28.3158 113.127 28.2597 113.132 28.2039C113.143 27.9596 113.227 27.7242 113.372 27.5277C113.517 27.3311 113.718 27.1823 113.948 27.1002V27.1002L114.054 27.0649C115.198 26.6543 116.346 26.2658 117.498 25.8906L119.242 25.3255C121.008 24.7516 122.773 24.213 124.491 23.6435C124.932 23.5022 125.343 23.3565 125.736 23.202C126.074 23.0899 126.4 22.9419 126.707 22.7605C126.906 22.6457 127.104 22.5177 127.307 22.3809C127.752 22.0817 128.181 21.759 128.592 21.414C129.175 20.9328 129.758 20.4031 130.327 19.8512C131.242 19.8247 132.171 19.8027 133.113 19.785C134.261 19.7409 135.417 19.7276 136.587 19.7188Z" fill="#FFB573"/>
<path d="M136.64 21.5023C136.609 21.5951 136.574 21.6833 136.539 21.7716C136.503 21.8599 136.464 21.9482 136.419 22.0365C136.381 22.1231 136.336 22.2071 136.287 22.2882L136.141 22.5398V22.5619C136.041 22.7179 135.935 22.865 135.823 23.0033C135.704 23.1579 135.581 23.308 135.448 23.4448L135.325 23.5817C135.132 23.7871 134.929 23.9817 134.715 24.1644C134.645 24.2306 134.57 24.2924 134.495 24.3498C134.469 24.3759 134.441 24.3996 134.411 24.4205V24.4205C133.749 24.9486 133.039 25.4141 132.292 25.8111L132.022 25.948L131.757 26.0804L131.656 26.1246L131.334 25.842L131.06 25.5948L130.442 25.0474L127.352 22.3235L127.118 22.116C127.118 22.116 128.062 21.0609 129.325 19.8292L130.354 19.7938C131.269 19.7674 132.197 19.7453 133.139 19.7276C134.274 19.7055 135.43 19.6923 136.6 19.6835H136.856C136.92 20.2983 136.846 20.9195 136.64 21.5023V21.5023Z" fill="#6DA59A"/>
<path opacity="0.7" d="M136.645 21.5023C136.614 21.5938 136.578 21.6837 136.539 21.7716C136.503 21.8599 136.464 21.9482 136.419 22.0365C136.381 22.1231 136.336 22.2071 136.287 22.2882L136.141 22.5398V22.5619C136.041 22.7179 135.935 22.865 135.823 23.0033C135.704 23.1579 135.581 23.308 135.448 23.4448L135.325 23.5817C135.132 23.7871 134.929 23.9817 134.715 24.1644C134.645 24.2306 134.57 24.2924 134.495 24.3498C134.469 24.3759 134.441 24.3996 134.411 24.4205V24.4205C133.749 24.9486 133.039 25.4141 132.292 25.8111L132.022 25.948L131.757 26.0804L131.656 26.1246L131.334 25.842L131.06 25.5948L130.442 25.0474L127.352 22.3235L127.118 22.116C127.118 22.116 128.062 21.0609 129.325 19.8292L130.354 19.7938C131.269 19.7674 132.197 19.7453 133.139 19.7276C134.274 19.7055 135.43 19.6923 136.6 19.6835H136.861C136.924 20.2983 136.85 20.9196 136.645 21.5023Z" fill="white"/>
<path opacity="0.1" d="M134.38 24.4513C133.53 25.1307 132.6 25.7044 131.612 26.1598L130.398 25.087C131.035 23.1931 132.184 21.5124 133.718 20.2308C134.269 21.2551 134.446 23.3962 134.38 24.4513Z" fill="black"/>
<path d="M114.416 27.0871L110.319 26.4602L110.35 30.0891C110.35 30.0891 113.158 30.9323 114.646 29.0251L114.416 27.0871Z" fill="#EBB376"/>
<path d="M107.525 27.4402L108.2 30.1376L110.346 30.0891L110.315 26.4602L107.525 27.4402Z" fill="#EBB376"/>
<path d="M151.478 19.997C151.443 20.0897 151.403 20.1824 151.368 20.2795C151.262 20.5488 151.16 20.8225 151.063 21.0962C151.001 21.264 150.944 21.4317 150.886 21.6039C150.829 21.7761 150.767 21.9483 150.714 22.1204C150.551 22.6326 150.392 23.1491 150.237 23.6744C150.232 23.7029 150.225 23.7309 150.215 23.7583C150.048 24.3411 149.897 24.937 149.752 25.5242V25.5948C149.677 25.9039 149.597 26.2129 149.527 26.5263C149.491 26.6676 149.46 26.8045 149.429 26.9457C149.31 27.4888 149.196 28.0362 149.09 28.5792C149.05 28.7823 149.01 28.9853 148.975 29.184C148.939 29.3827 148.891 29.6255 148.856 29.8153C148.856 29.8595 148.856 29.9036 148.834 29.9477C148.811 30.0625 148.789 30.1773 148.772 30.2921C148.714 30.6144 148.661 30.9322 148.608 31.2457C148.608 31.2942 148.608 31.3384 148.586 31.387L148.533 31.7181C148.427 32.3626 148.335 32.9939 148.251 33.6076C148.249 33.6428 148.249 33.6782 148.251 33.7135C148.158 34.389 148.079 35.0379 148.008 35.6692C147.977 35.9297 147.946 36.1858 147.92 36.4374C147.88 36.7906 147.845 37.1305 147.814 37.4616C147.787 37.7044 147.765 37.9428 147.743 38.1724C147.721 38.4019 147.703 38.6139 147.686 38.8037C147.668 38.9935 147.65 39.2098 147.633 39.3997C147.589 39.9383 147.553 40.4239 147.522 40.8433C147.522 41.0287 147.5 41.1965 147.487 41.3554C147.452 41.9426 147.434 42.3531 147.425 42.5385C147.425 42.6136 147.425 42.6533 147.425 42.6533L139.598 41.9337H139.483L138.159 41.8101L136.168 41.6247L133.717 41.4216L133.139 41.3686L130.212 41.0993C130.212 40.8212 130.186 40.5519 130.181 40.2782C130.181 40.2032 130.181 40.1281 130.181 40.053C130.097 37.6426 130.142 35.4308 130.27 33.431C130.34 32.3832 130.431 31.387 130.543 30.4422C130.702 29.0825 130.901 27.8331 131.126 26.6809C131.175 26.4204 131.228 26.1643 131.281 25.9171C131.316 25.7449 131.351 25.5816 131.391 25.4182C131.687 24.0933 132.053 22.7847 132.486 21.498V21.498C132.698 20.8799 132.927 20.3192 133.117 19.8115C134.252 19.7895 135.408 19.7762 136.578 19.7674H138.711C142.013 19.7674 145.2 19.8204 148.198 19.9263L149.619 19.9749L151.478 19.997Z" fill="#6DA59A"/>
<path opacity="0.7" d="M151.478 19.997C151.443 20.0897 151.403 20.1824 151.368 20.2795C151.262 20.5488 151.16 20.8225 151.063 21.0962C151.001 21.264 150.944 21.4317 150.886 21.6039C150.829 21.7761 150.767 21.9483 150.714 22.1204V22.1513C150.551 22.6546 150.401 23.1579 150.251 23.6744C150.245 23.7029 150.238 23.7309 150.229 23.7583C150.017 24.5088 149.818 25.2726 149.633 26.0407C149.593 26.2041 149.558 26.3718 149.522 26.5352C149.487 26.6985 149.456 26.8133 149.425 26.9546C149.306 27.4976 149.191 28.045 149.085 28.588C149.041 28.7911 149.001 28.9942 148.966 29.1972C148.926 29.4047 148.886 29.6166 148.851 29.8241C148.851 29.8683 148.851 29.9168 148.825 29.961C148.803 30.0758 148.781 30.1906 148.763 30.3053C148.705 30.6276 148.653 30.9455 148.6 31.2589C148.6 31.3075 148.6 31.3516 148.577 31.4002L148.524 31.7313C148.423 32.3758 148.326 33.0072 148.242 33.6208C148.24 33.6561 148.24 33.6915 148.242 33.7268C148.149 34.4022 148.07 35.0512 147.999 35.6825C147.968 35.9429 147.937 36.199 147.911 36.4506C147.871 36.8038 147.836 37.1437 147.805 37.4749C147.778 37.7177 147.756 37.9561 147.734 38.1856C147.712 38.4152 147.695 38.6271 147.677 38.8169C147.659 39.0068 147.642 39.2231 147.624 39.4129C147.58 39.9515 147.544 40.4371 147.514 40.8565C147.514 41.0419 147.491 41.2097 147.478 41.3686C147.443 41.9558 147.425 42.3664 147.416 42.5518C147.416 42.6268 147.416 42.6666 147.416 42.6666L139.589 41.947H139.474L138.15 41.8234L136.159 41.6379L133.717 41.4216L133.139 41.3686L130.212 41.0993C130.212 40.8212 130.186 40.5519 130.181 40.2782C130.181 40.2032 130.181 40.1281 130.181 40.053C130.097 37.6426 130.142 35.4308 130.27 33.431C130.34 32.3832 130.431 31.387 130.543 30.4422C130.702 29.0825 130.901 27.8331 131.126 26.6809C131.175 26.4204 131.228 26.1643 131.281 25.9171C131.316 25.7449 131.351 25.5816 131.391 25.4182C131.687 24.0933 132.053 22.7847 132.486 21.498V21.498C132.698 20.8799 132.927 20.3192 133.117 19.8115C134.252 19.7895 135.408 19.7762 136.578 19.7674H138.711C142.013 19.7674 145.2 19.8204 148.198 19.9263L149.619 19.9749L151.478 19.997Z" fill="white"/>
<path d="M109.216 78.5935C109.216 78.5935 114.734 76.2978 114.924 74.0243C114.926 73.9698 114.939 73.9164 114.963 73.8674C114.987 73.8183 115.021 73.7748 115.062 73.7395C115.104 73.7042 115.152 73.6779 115.204 73.6624C115.257 73.6468 115.311 73.6422 115.366 73.649L119.577 73.9051C119.677 73.9134 119.772 73.9481 119.853 74.0055C119.935 74.0629 119.999 74.141 120.041 74.2318L121.727 78.13L120.557 78.2889L120.067 77.7547L119.626 78.4169C113.286 79.2999 110.54 79.5868 109.234 79.3661C108.995 78.8319 109.216 78.5935 109.216 78.5935Z" fill="black"/>
<path d="M135.082 55.6678C134.839 55.6148 134.706 55.5751 134.706 55.5751L114.84 53.094L120.747 74.1302L114.734 74.7041C114.734 74.7041 101.013 48.2378 106.62 44.4191C112.227 40.6004 129.612 44.8164 129.612 44.8164L130.296 39.5761L147.58 40.8652C150.357 58.1401 137.466 56.1667 135.082 55.6678Z" fill="#263238"/>
<path d="M129.356 116.441C129.356 116.441 135.307 115.872 136.15 113.735C136.168 113.685 136.195 113.639 136.231 113.6C136.267 113.561 136.31 113.53 136.358 113.508C136.407 113.486 136.459 113.474 136.512 113.473C136.565 113.472 136.617 113.481 136.667 113.501L140.64 114.975C140.732 115.012 140.812 115.072 140.874 115.149C140.935 115.227 140.975 115.319 140.989 115.417L141.465 119.637L140.3 119.447L139.982 118.794L139.382 119.302C133.069 118.282 130.349 117.774 129.166 117.178C129.056 116.596 129.356 116.441 129.356 116.441Z" fill="black"/>
<path d="M147.752 47.1254C147.725 47.2313 147.006 50.5424 146.066 55.2882C146.013 55.5575 145.96 55.84 145.902 56.1182C145.461 58.3741 144.975 60.9125 144.498 63.557C143.916 66.7753 143.337 70.1791 142.852 73.3886C142.193 77.4092 141.764 81.4641 141.567 85.5335C141.337 95.7624 140.909 115.946 140.909 115.946L135.404 115.064C135.404 115.064 132.362 93.5374 132.398 83.1142C132.424 76.4921 134.066 62.8462 135.188 54.3611C135.753 50.0082 136.185 47.0062 136.185 47.0062L142.423 47.0636L147.752 47.1254Z" fill="#263238"/>
<path d="M147.319 42.5473L147.686 42.5782L147.668 41.3818L147.346 41.3597L147.319 42.5473Z" fill="#263238"/>
<path d="M133.731 41.4922L141.103 42.0661L141.139 40.8785L133.793 40.3134L133.731 41.4922Z" fill="#263238"/>
<path d="M133.223 40.2695L130.106 40.0267L129.996 41.201L133.152 41.4482L133.223 40.2695Z" fill="#263238"/>
<path d="M146.776 41.3156L141.704 40.9227L141.682 42.1103L146.737 42.5032L146.776 41.3156Z" fill="#263238"/>
<g opacity="0.2">
<path opacity="0.2" d="M147.319 42.5475L147.686 42.5784L147.668 41.382L147.346 41.3599L147.319 42.5475Z" fill="white"/>
<path opacity="0.2" d="M133.731 41.4924L141.103 42.0663L141.139 40.8788L133.793 40.3137L133.731 41.4924Z" fill="white"/>
<path opacity="0.2" d="M133.223 40.2695L130.106 40.0267L129.996 41.201L133.152 41.4482L133.223 40.2695Z" fill="white"/>
<path opacity="0.2" d="M146.776 41.3156L141.704 40.9227L141.682 42.1103L146.737 42.5032L146.776 41.3156Z" fill="white"/>
</g>
<path d="M138.062 41.9865H138.026L136.19 41.8144C136.094 41.8065 136.005 41.7615 135.941 41.689C135.878 41.6165 135.845 41.5221 135.85 41.4259L135.876 40.7063C135.878 40.6556 135.89 40.6059 135.912 40.5602C135.934 40.5146 135.966 40.4741 136.004 40.4414C136.041 40.4069 136.085 40.3808 136.133 40.3648C136.181 40.3488 136.232 40.3433 136.283 40.3487L138.11 40.4899C138.206 40.4967 138.296 40.5406 138.36 40.6123C138.424 40.684 138.458 40.7778 138.455 40.874V41.6245C138.454 41.6755 138.442 41.7259 138.421 41.7722C138.4 41.8186 138.369 41.86 138.331 41.8938C138.256 41.9581 138.16 41.9913 138.062 41.9865V41.9865ZM136.252 40.6621C136.24 40.6581 136.228 40.6581 136.216 40.6621C136.213 40.6684 136.212 40.6751 136.212 40.682C136.212 40.6888 136.213 40.6956 136.216 40.7018L136.185 41.4214C136.185 41.4288 136.186 41.4361 136.188 41.4431C136.19 41.45 136.194 41.4564 136.199 41.4618C136.204 41.4672 136.21 41.4715 136.217 41.4744C136.224 41.4774 136.231 41.4789 136.238 41.4788L138.075 41.651C138.082 41.6539 138.089 41.6554 138.097 41.6554C138.105 41.6554 138.112 41.6539 138.119 41.651C138.124 41.6383 138.124 41.624 138.119 41.6113V40.8608C138.119 40.8463 138.114 40.8323 138.104 40.8217C138.094 40.811 138.081 40.8045 138.066 40.8034L136.238 40.6621H136.252Z" fill="white"/>
<path d="M138.035 41.3774L137.474 41.3244C137.432 41.3199 137.393 41.2989 137.366 41.2659C137.338 41.2329 137.325 41.1905 137.329 41.1478C137.333 41.1064 137.354 41.0684 137.386 41.042C137.418 41.0156 137.459 41.0028 137.501 41.0066L138.062 41.0595C138.104 41.0595 138.144 41.0763 138.174 41.1061C138.204 41.1359 138.221 41.1763 138.221 41.2185C138.221 41.2606 138.204 41.301 138.174 41.3308C138.144 41.3606 138.104 41.3774 138.062 41.3774H138.035Z" fill="white"/>
<path opacity="0.1" d="M150.215 23.7626C150.003 24.5131 149.805 25.2769 149.619 26.0451C149.549 26.3497 149.478 26.6543 149.412 26.9589C149.081 28.4555 148.798 29.9565 148.564 31.4045L148.511 31.7356C145.478 32.7113 142.331 32.0403 142.432 29.1177C142.578 25.2018 145.915 23.3786 145.915 23.3786C147.403 22.5618 148.962 22.8797 150.215 23.7626Z" fill="black"/>
<path d="M120.544 135.901H124.628L111.348 30.9631H107.265L120.544 135.901Z" fill="#263238"/>
<path opacity="0.4" d="M120.544 135.901H124.628L111.348 30.9631H107.265L120.544 135.901Z" fill="white"/>
<path d="M112.006 46.5162H124.99C125.151 46.5075 125.307 46.4531 125.439 46.3593C125.571 46.2655 125.674 46.1363 125.736 45.9864L126.561 44.2206H110.434L111.26 45.9864C111.321 46.1363 111.424 46.2655 111.556 46.3593C111.688 46.4531 111.844 46.5075 112.006 46.5162V46.5162Z" fill="#263238"/>
<path opacity="0.4" d="M112.006 46.5162H124.99C125.151 46.5075 125.307 46.4531 125.439 46.3593C125.571 46.2655 125.674 46.1363 125.736 45.9864L126.561 44.2206H110.434L111.26 45.9864C111.321 46.1363 111.424 46.2655 111.556 46.3593C111.688 46.4531 111.844 46.5075 112.006 46.5162V46.5162Z" fill="white"/>
<path d="M110.651 45.0682H126.341C126.806 45.0682 127.184 44.6907 127.184 44.225V44.0352C127.184 43.5695 126.806 43.192 126.341 43.192H110.651C110.185 43.192 109.807 43.5695 109.807 44.0352V44.225C109.807 44.6907 110.185 45.0682 110.651 45.0682Z" fill="#263238"/>
<path opacity="0.1" d="M110.651 45.0682H126.341C126.806 45.0682 127.184 44.6907 127.184 44.225V44.0352C127.184 43.5695 126.806 43.192 126.341 43.192H110.651C110.185 43.192 109.807 43.5695 109.807 44.0352V44.225C109.807 44.6907 110.185 45.0682 110.651 45.0682Z" fill="white"/>
<path d="M114.377 61.5174H127.356C127.518 61.5094 127.675 61.4547 127.808 61.36C127.94 61.2653 128.042 61.1345 128.102 60.9832L128.928 59.2394H112.805L113.626 60.9832C113.687 61.1348 113.79 61.2658 113.923 61.3605C114.056 61.4552 114.214 61.5097 114.377 61.5174V61.5174Z" fill="#263238"/>
<path opacity="0.4" d="M114.377 61.5174H127.356C127.518 61.5094 127.675 61.4547 127.808 61.36C127.94 61.2653 128.042 61.1345 128.102 60.9832L128.928 59.2394H112.805L113.626 60.9832C113.687 61.1348 113.79 61.2658 113.923 61.3605C114.056 61.4552 114.214 61.5097 114.377 61.5174V61.5174Z" fill="white"/>
<path d="M113.021 60.0695H128.711C129.177 60.0695 129.554 59.6919 129.554 59.2263V59.0364C129.554 58.5707 129.177 58.1932 128.711 58.1932H113.021C112.556 58.1932 112.178 58.5707 112.178 59.0364V59.2263C112.178 59.6919 112.556 60.0695 113.021 60.0695Z" fill="#263238"/>
<path opacity="0.1" d="M113.021 60.0695H128.711C129.177 60.0695 129.554 59.6919 129.554 59.2263V59.0364C129.554 58.5707 129.177 58.1932 128.711 58.1932H113.021C112.556 58.1932 112.178 58.5707 112.178 59.0364V59.2263C112.178 59.6919 112.556 60.0695 113.021 60.0695Z" fill="white"/>
<path d="M116.743 81.3705H129.744C129.907 81.3637 130.064 81.3101 130.198 81.2161C130.331 81.1222 130.434 80.9918 130.495 80.8407L131.316 79.0749H115.176L116.001 80.8407C116.061 80.9908 116.163 81.1205 116.294 81.2145C116.426 81.3084 116.582 81.3626 116.743 81.3705V81.3705Z" fill="#263238"/>
<path opacity="0.4" d="M116.743 81.3705H129.744C129.907 81.3637 130.064 81.3101 130.198 81.2161C130.331 81.1222 130.434 80.9918 130.495 80.8407L131.316 79.0749H115.176L116.001 80.8407C116.061 80.9908 116.163 81.1205 116.294 81.2145C116.426 81.3084 116.582 81.3626 116.743 81.3705V81.3705Z" fill="white"/>
<path d="M115.388 79.9268H131.077C131.543 79.9268 131.921 79.5493 131.921 79.0836V78.8937C131.921 78.4281 131.543 78.0505 131.077 78.0505H115.388C114.922 78.0505 114.544 78.4281 114.544 78.8937V79.0836C114.544 79.5493 114.922 79.9268 115.388 79.9268Z" fill="#263238"/>
<path opacity="0.1" d="M115.388 79.9268H131.077C131.543 79.9268 131.921 79.5493 131.921 79.0836V78.8937C131.921 78.4281 131.543 78.0505 131.077 78.0505H115.388C114.922 78.0505 114.544 78.4281 114.544 78.8937V79.0836C114.544 79.5493 114.922 79.9268 115.388 79.9268Z" fill="white"/>
<path d="M119.109 101.228H132.093C132.255 101.22 132.411 101.166 132.544 101.072C132.676 100.978 132.778 100.849 132.839 100.698L133.665 98.9322H117.538L118.363 100.698C118.424 100.849 118.526 100.978 118.659 101.072C118.791 101.166 118.947 101.22 119.109 101.228V101.228Z" fill="#263238"/>
<path opacity="0.4" d="M119.109 101.228H132.093C132.255 101.22 132.411 101.166 132.544 101.072C132.676 100.978 132.778 100.849 132.839 100.698L133.665 98.9322H117.538L118.363 100.698C118.424 100.849 118.526 100.978 118.659 101.072C118.791 101.166 118.947 101.22 119.109 101.228V101.228Z" fill="white"/>
<path d="M117.754 99.7841H133.444C133.909 99.7841 134.287 99.4066 134.287 98.9409V98.7511C134.287 98.2854 133.909 97.9079 133.444 97.9079H117.754C117.288 97.9079 116.911 98.2854 116.911 98.7511V98.9409C116.911 99.4066 117.288 99.7841 117.754 99.7841Z" fill="#263238"/>
<path opacity="0.1" d="M117.754 99.7841H133.444C133.909 99.7841 134.287 99.4066 134.287 98.9409V98.7511C134.287 98.2854 133.909 97.9079 133.444 97.9079H117.754C117.288 97.9079 116.911 98.2854 116.911 98.7511V98.9409C116.911 99.4066 117.288 99.7841 117.754 99.7841Z" fill="white"/>
<path d="M121.48 121.085H134.459C134.621 121.078 134.778 121.024 134.91 120.93C135.043 120.836 135.145 120.706 135.205 120.555L136.031 118.79H119.904L120.729 120.555C120.79 120.707 120.894 120.837 121.027 120.931C121.16 121.025 121.317 121.078 121.48 121.085V121.085Z" fill="#263238"/>
<path opacity="0.4" d="M121.48 121.085H134.459C134.621 121.078 134.778 121.024 134.91 120.93C135.043 120.836 135.145 120.706 135.205 120.555L136.031 118.79H119.904L120.729 120.555C120.79 120.707 120.894 120.837 121.027 120.931C121.16 121.025 121.317 121.078 121.48 121.085V121.085Z" fill="white"/>
<path d="M120.12 119.642H135.81C136.276 119.642 136.653 119.264 136.653 118.799V118.609C136.653 118.143 136.276 117.765 135.81 117.765H120.12C119.655 117.765 119.277 118.143 119.277 118.609V118.799C119.277 119.264 119.655 119.642 120.12 119.642Z" fill="#263238"/>
<path opacity="0.1" d="M120.12 119.642H135.81C136.276 119.642 136.653 119.264 136.653 118.799V118.609C136.653 118.143 136.276 117.765 135.81 117.765H120.12C119.655 117.765 119.277 118.143 119.277 118.609V118.799C119.277 119.264 119.655 119.642 120.12 119.642Z" fill="white"/>
<path d="M136.309 135.901H140.393L127.113 30.9631H123.029L136.309 135.901Z" fill="#263238"/>
<path opacity="0.7" d="M136.309 135.901H140.393L127.113 30.9631H123.029L136.309 135.901Z" fill="white"/>
<path d="M93.4376 135.901H89.354L102.629 30.9631H106.713L93.4376 135.901Z" fill="#263238"/>
<path opacity="0.4" d="M93.4376 135.901H89.354L102.629 30.9631H106.713L93.4376 135.901Z" fill="white"/>
<path d="M117.736 46.5162H104.757C104.594 46.5083 104.438 46.4543 104.305 46.3605C104.172 46.2666 104.068 46.1369 104.006 45.9864L103.185 44.2206H119.308L118.482 45.9864C118.422 46.1369 118.319 46.2667 118.187 46.3606C118.055 46.4546 117.898 46.5085 117.736 46.5162V46.5162Z" fill="#263238"/>
<path opacity="0.5" d="M117.736 46.5162H104.757C104.594 46.5083 104.438 46.4543 104.305 46.3605C104.172 46.2666 104.068 46.1369 104.006 45.9864L103.185 44.2206H119.308L118.482 45.9864C118.422 46.1369 118.319 46.2667 118.187 46.3606C118.055 46.4546 117.898 46.5085 117.736 46.5162V46.5162Z" fill="white"/>
<path d="M119.092 43.1964H103.402C102.936 43.1964 102.558 43.5739 102.558 44.0396V44.2294C102.558 44.6951 102.936 45.0726 103.402 45.0726H119.092C119.557 45.0726 119.935 44.6951 119.935 44.2294V44.0396C119.935 43.5739 119.557 43.1964 119.092 43.1964Z" fill="#263238"/>
<path opacity="0.2" d="M119.092 43.1964H103.402C102.936 43.1964 102.558 43.5739 102.558 44.0396V44.2294C102.558 44.6951 102.936 45.0726 103.402 45.0726H119.092C119.557 45.0726 119.935 44.6951 119.935 44.2294V44.0396C119.935 43.5739 119.557 43.1964 119.092 43.1964Z" fill="white"/>
<path d="M115.37 61.5174H102.373C102.211 61.5088 102.054 61.454 101.922 61.3593C101.79 61.2647 101.687 61.1342 101.627 60.9832L100.801 59.2394H116.942L116.116 60.9832C116.056 61.1342 115.953 61.2647 115.821 61.3593C115.689 61.454 115.532 61.5088 115.37 61.5174V61.5174Z" fill="#263238"/>
<path opacity="0.5" d="M115.37 61.5174H102.373C102.211 61.5088 102.054 61.454 101.922 61.3593C101.79 61.2647 101.687 61.1342 101.627 60.9832L100.801 59.2394H116.942L116.116 60.9832C116.056 61.1342 115.953 61.2647 115.821 61.3593C115.689 61.454 115.532 61.5088 115.37 61.5174V61.5174Z" fill="white"/>
<path d="M116.725 58.1931H101.035C100.57 58.1931 100.192 58.5706 100.192 59.0363V59.2262C100.192 59.6919 100.57 60.0694 101.035 60.0694H116.725C117.191 60.0694 117.568 59.6919 117.568 59.2262V59.0363C117.568 58.5706 117.191 58.1931 116.725 58.1931Z" fill="#263238"/>
<path opacity="0.2" d="M116.725 58.1931H101.035C100.57 58.1931 100.192 58.5706 100.192 59.0363V59.2262C100.192 59.6919 100.57 60.0694 101.035 60.0694H116.725C117.191 60.0694 117.568 59.6919 117.568 59.2262V59.0363C117.568 58.5706 117.191 58.1931 116.725 58.1931Z" fill="white"/>
<path d="M112.999 81.3705H100.02C99.8578 81.3634 99.7012 81.3096 99.5688 81.2156C99.4365 81.1217 99.3341 80.9915 99.2739 80.8407L98.4483 79.0749H114.571L113.75 80.8407C113.689 80.9918 113.586 81.1222 113.453 81.2161C113.319 81.3101 113.162 81.3637 112.999 81.3705V81.3705Z" fill="#263238"/>
<path opacity="0.5" d="M112.999 81.3705H100.02C99.8578 81.3634 99.7012 81.3096 99.5688 81.2156C99.4365 81.1217 99.3341 80.9915 99.2739 80.8407L98.4483 79.0749H114.571L113.75 80.8407C113.689 80.9918 113.586 81.1222 113.453 81.2161C113.319 81.3101 113.162 81.3637 112.999 81.3705V81.3705Z" fill="white"/>
<path d="M114.355 78.0504H98.6646C98.1989 78.0504 97.8214 78.428 97.8214 78.8937V79.0835C97.8214 79.5492 98.1989 79.9267 98.6646 79.9267H114.355C114.82 79.9267 115.198 79.5492 115.198 79.0835V78.8937C115.198 78.428 114.82 78.0504 114.355 78.0504Z" fill="#263238"/>
<path opacity="0.2" d="M114.355 78.0504H98.6646C98.1989 78.0504 97.8214 78.428 97.8214 78.8937V79.0835C97.8214 79.5492 98.1989 79.9267 98.6646 79.9267H114.355C114.82 79.9267 115.198 79.5492 115.198 79.0835V78.8937C115.198 78.428 114.82 78.0504 114.355 78.0504Z" fill="white"/>
<path d="M110.633 101.228H97.6537C97.4911 101.22 97.3339 101.167 97.2009 101.073C97.0679 100.979 96.9646 100.849 96.9032 100.698L96.0821 98.9322H112.205L111.379 100.698C111.319 100.849 111.216 100.979 111.084 101.073C110.952 101.167 110.795 101.221 110.633 101.228V101.228Z" fill="#263238"/>
<path opacity="0.5" d="M110.633 101.228H97.6537C97.4911 101.22 97.3339 101.167 97.2009 101.073C97.0679 100.979 96.9646 100.849 96.9032 100.698L96.0821 98.9322H112.205L111.379 100.698C111.319 100.849 111.216 100.979 111.084 101.073C110.952 101.167 110.795 101.221 110.633 101.228V101.228Z" fill="white"/>
<path d="M111.988 97.908H96.2983C95.8326 97.908 95.4551 98.2855 95.4551 98.7512V98.9411C95.4551 99.4068 95.8326 99.7843 96.2983 99.7843H111.988C112.454 99.7843 112.831 99.4068 112.831 98.9411V98.7512C112.831 98.2855 112.454 97.908 111.988 97.908Z" fill="#263238"/>
<path opacity="0.2" d="M111.988 97.908H96.2983C95.8326 97.908 95.4551 98.2855 95.4551 98.7512V98.9411C95.4551 99.4068 95.8326 99.7843 96.2983 99.7843H111.988C112.454 99.7843 112.831 99.4068 112.831 98.9411V98.7512C112.831 98.2855 112.454 97.908 111.988 97.908Z" fill="white"/>
<path d="M108.267 121.085H95.283C95.121 121.078 94.9645 121.024 94.8323 120.93C94.7 120.836 94.5975 120.706 94.5369 120.555L93.7113 118.79H109.838L109.013 120.555C108.953 120.706 108.85 120.836 108.718 120.93C108.585 121.024 108.429 121.078 108.267 121.085Z" fill="#263238"/>
<path opacity="0.5" d="M108.267 121.085H95.283C95.121 121.078 94.9645 121.024 94.8323 120.93C94.7 120.836 94.5975 120.706 94.5369 120.555L93.7113 118.79H109.838L109.013 120.555C108.953 120.706 108.85 120.836 108.718 120.93C108.585 121.024 108.429 121.078 108.267 121.085Z" fill="white"/>
<path d="M109.622 117.765H93.932C93.4663 117.765 93.0888 118.143 93.0888 118.609V118.798C93.0888 119.264 93.4663 119.642 93.932 119.642H109.622C110.088 119.642 110.465 119.264 110.465 118.798V118.609C110.465 118.143 110.088 117.765 109.622 117.765Z" fill="#263238"/>
<path opacity="0.2" d="M109.622 117.765H93.932C93.4663 117.765 93.0888 118.143 93.0888 118.609V118.798C93.0888 119.264 93.4663 119.642 93.932 119.642H109.622C110.088 119.642 110.465 119.264 110.465 118.798V118.609C110.465 118.143 110.088 117.765 109.622 117.765Z" fill="white"/>
<path d="M109.198 135.901H105.115L118.394 30.9631H122.478L109.198 135.901Z" fill="#263238"/>
<path opacity="0.7" d="M109.198 135.901H105.115L118.394 30.9631H122.478L109.198 135.901Z" fill="white"/>
<path d="M127.766 31.4973H101.887C101.726 31.4886 101.57 31.4342 101.438 31.3404C101.306 31.2467 101.203 31.1174 101.141 30.9675L100.316 29.2017H129.338L128.517 30.9675C128.453 31.1162 128.348 31.2443 128.216 31.3377C128.084 31.4312 127.928 31.4864 127.766 31.4973Z" fill="#263238"/>
<path opacity="0.5" d="M127.766 31.4973H101.887C101.726 31.4886 101.57 31.4342 101.438 31.3404C101.306 31.2467 101.203 31.1174 101.141 30.9675L100.316 29.2017H129.338L128.517 30.9675C128.453 31.1162 128.348 31.2443 128.216 31.3377C128.084 31.4312 127.928 31.4864 127.766 31.4973Z" fill="white"/>
<path d="M129.122 28.1774H100.536C100.071 28.1774 99.6933 28.5549 99.6933 29.0206V29.2105C99.6933 29.6762 100.071 30.0537 100.536 30.0537H129.122C129.588 30.0537 129.965 29.6762 129.965 29.2105V29.0206C129.965 28.5549 129.588 28.1774 129.122 28.1774Z" fill="#263238"/>
<path opacity="0.2" d="M129.122 28.1774H100.536C100.071 28.1774 99.6933 28.5549 99.6933 29.0206V29.2105C99.6933 29.6762 100.071 30.0537 100.536 30.0537H129.122C129.588 30.0537 129.965 29.6762 129.965 29.2105V29.0206C129.965 28.5549 129.588 28.1774 129.122 28.1774Z" fill="white"/>
<path d="M129.577 31.0603L126.182 28.6675L124.592 31.93C124.592 31.93 126.729 33.9342 128.91 32.8924L129.577 31.0603Z" fill="#EBB376"/>
<path d="M123.25 28.3012L122.65 31.0162L124.592 31.9301L126.182 28.6676L123.25 28.3012Z" fill="#EBB376"/>
<path d="M152.785 23.5111C152.118 24.5398 151.438 25.5242 150.727 26.4867C150.193 27.1974 149.646 27.8994 149.072 28.5881C148.9 28.8 148.723 29.0075 148.547 29.215C148.198 29.6167 147.845 30.0184 147.474 30.4158C147.032 30.9102 146.533 31.3958 146.017 31.8726L145.721 32.1375C145.336 32.4941 144.93 32.8287 144.507 33.1396C143.877 33.6115 143.187 33.9961 142.454 34.2831C142.237 34.3674 142.015 34.4353 141.788 34.4861C141.571 34.5391 141.386 34.5656 141.187 34.6009C140.837 34.6486 140.485 34.6781 140.132 34.6892C139.465 34.7113 138.843 34.6892 138.229 34.6583C137.011 34.5921 135.837 34.4287 134.676 34.2566C133.192 34.0226 131.735 33.7312 130.292 33.3736C129.758 33.25 129.228 33.1132 128.698 32.9719L127.855 32.7379C127.586 32.6592 127.352 32.4912 127.192 32.2617C127.031 32.0322 126.954 31.7548 126.972 31.4753C126.978 31.3858 126.993 31.2971 127.016 31.2104C127.079 30.981 127.208 30.7752 127.387 30.6183C127.566 30.4614 127.787 30.3603 128.023 30.3275C128.097 30.3187 128.173 30.3187 128.248 30.3275H128.27H128.579C129.245 30.3495 129.903 30.376 130.579 30.3937C132.066 30.4467 133.55 30.4864 134.993 30.5085C136.101 30.5085 137.201 30.5085 138.265 30.4732C138.794 30.4511 139.311 30.4069 139.779 30.3407C140.129 30.316 140.473 30.2309 140.794 30.0891C141.101 29.9128 141.388 29.7041 141.651 29.4666C141.916 29.237 142.194 28.981 142.468 28.7028C142.547 28.6278 142.622 28.5483 142.697 28.4689C142.852 28.3099 143.002 28.1422 143.139 27.9744C143.518 27.5594 143.885 27.1268 144.251 26.6809C144.414 26.4778 144.582 26.2748 144.745 26.0673C145.54 25.0651 146.33 24.01 147.094 22.946C147.615 22.2264 148.127 21.498 148.622 20.7828L148.648 20.7387C148.894 20.3789 149.233 20.0922 149.628 19.9087L151.478 19.9882L151.959 20.0147C152.01 20.0424 152.058 20.0733 152.105 20.1074C152.639 20.4746 153.009 21.0357 153.136 21.6713C153.263 22.3069 153.137 22.9669 152.785 23.5111V23.5111Z" fill="#FFB573"/>
<path d="M151.632 26.4425C150.798 27.6468 149.864 28.7781 148.838 29.8242C148.838 29.8242 148.838 29.8242 148.838 29.8242C148.564 30.1067 148.273 30.3981 147.955 30.7071L147.461 30.429L143.13 27.9921L142.728 27.7669C142.728 27.7669 143.011 27.3254 143.43 26.7118C143.955 25.9171 144.701 24.7826 145.394 23.7142C145.933 22.8754 146.436 22.0763 146.767 21.5068C147.135 20.8759 147.621 20.3214 148.198 19.8734L149.619 19.9219L151.469 20.0014L151.95 20.0279L153.182 20.0897C153.752 21.4053 153.628 23.4935 151.632 26.4425Z" fill="#6DA59A"/>
<path opacity="0.7" d="M151.632 26.4425C150.798 27.6468 149.864 28.7781 148.838 29.8242C148.838 29.8242 148.838 29.8242 148.838 29.8242C148.564 30.1067 148.273 30.3981 147.955 30.7071L147.461 30.429L143.13 27.9921L142.728 27.7669C142.728 27.7669 143.011 27.3254 143.43 26.7118C143.955 25.9171 144.701 24.7826 145.394 23.7142C145.933 22.8754 146.436 22.0763 146.767 21.5068C147.135 20.8759 147.621 20.3214 148.198 19.8734L149.619 19.9219L151.469 20.0014L151.95 20.0279L153.182 20.0897C153.752 21.4053 153.628 23.4935 151.632 26.4425Z" fill="white"/>
<path d="M87.0716 135.826C87.0737 135.851 87.0737 135.876 87.0716 135.901C87.0736 135.913 87.0736 135.925 87.0716 135.936C87.0662 135.959 87.0588 135.981 87.0495 136.003C87.0367 136.032 87.0204 136.061 87.0009 136.086C86.9818 136.118 86.9596 136.148 86.9347 136.175C86.7262 136.378 86.4804 136.538 86.2107 136.647L85.9944 136.74C85.7825 136.828 85.5529 136.912 85.2748 136.996C85.107 137.049 84.9304 137.097 84.7406 137.15C81.6503 137.985 75.7125 138.656 68.2472 139.027L67.3643 139.071L65.9162 139.133L64.4285 139.186L63.3998 139.221C62.5831 139.243 61.7576 139.265 60.9188 139.278H60.6142H60.0447H59.4928C58.7202 139.278 57.9388 139.278 57.153 139.305H55.0207C52.4425 139.305 49.9305 139.274 47.5157 139.208L46.4473 139.172C46.1383 139.172 45.8292 139.172 45.5246 139.146L44.1031 139.097L42.2533 139.018L41.7721 138.991L40.5404 138.93C38.5141 138.815 36.6113 138.682 34.8631 138.523C30.6779 138.153 27.358 137.671 25.3052 137.115L25.1286 137.067L24.9344 137.009C24.6033 136.912 24.3163 136.81 24.0514 136.713C23.9587 136.674 23.8704 136.638 23.791 136.599C23.659 136.537 23.5308 136.468 23.4069 136.391C23.3647 136.367 23.3248 136.339 23.2877 136.307L23.1906 136.232L23.0978 136.139C23.0731 136.114 23.0509 136.086 23.0316 136.056C22.9991 136.009 22.9752 135.956 22.961 135.901V135.852C22.9588 135.832 22.9588 135.811 22.961 135.791C22.961 134.351 30.8324 133.115 42.1076 132.572L43.0127 132.528L44.2311 132.48L46.103 132.413L47.1139 132.383L49.4891 132.325H49.6171H50.3014H50.7649C51.4624 132.325 52.1644 132.325 52.8752 132.303H53.0871C53.7272 132.303 54.3717 132.303 55.0207 132.303C57.6342 132.303 60.1727 132.338 62.6052 132.4L64.3711 132.458L65.1216 132.484H65.1966L66.0178 132.515L66.5564 132.537L67.9514 132.599L69.2758 132.665C71.8011 132.802 74.132 132.974 76.2334 133.177C82.8732 133.835 87.0716 134.775 87.0716 135.826Z" fill="#263238"/>
<path opacity="0.4" d="M22.9521 135.826C22.9521 134.387 30.8236 133.151 42.0988 132.608L43.0038 132.564L44.2223 132.515C45.9131 132.449 47.6702 132.4 49.4802 132.36H50.2925H50.7561C52.1467 132.338 53.5682 132.33 55.0118 132.33C57.6254 132.33 60.1638 132.365 62.5963 132.427L64.3622 132.484C68.799 132.63 72.8253 132.881 76.2158 133.208C82.8687 133.853 87.0672 134.793 87.0672 135.857C87.0672 136.325 86.2328 136.775 84.7185 137.181C81.9217 136.526 79.0794 136.083 76.2158 135.857C72.8253 135.53 68.799 135.279 64.3622 135.133L62.5963 135.076C60.1638 135.014 57.6254 134.978 55.0118 134.978C53.5682 134.978 52.1467 134.978 50.7561 135.009H50.2793H49.467C47.6569 135.049 45.8999 135.098 44.209 135.164L42.9906 135.212L42.0855 135.257C34.479 135.623 28.4264 136.303 25.3096 137.15C23.7909 136.74 22.9521 136.298 22.9521 135.826Z" fill="white"/>
<path d="M52.3145 134.197C52.0717 134.488 51.8465 134.74 51.6214 134.983C51.5066 135.102 51.3962 135.221 51.277 135.34C51.0651 135.557 50.8576 135.782 50.6413 135.976C50.5 136.117 50.3543 136.254 50.1998 136.391C49.4518 137.083 48.6599 137.726 47.8291 138.316L47.6879 138.413C47.5642 138.501 47.4362 138.585 47.3038 138.673C47.0256 138.859 46.7387 139.04 46.4208 139.208C46.1118 139.208 45.8028 139.208 45.4981 139.181L44.0766 139.133L42.2268 139.053L41.7456 139.027L40.5139 138.965C38.4876 138.85 36.5848 138.718 34.8366 138.559L35.5253 138.338C37.2912 137.764 39.0571 137.225 40.7788 136.66C41.2203 136.515 41.6309 136.373 42.0238 136.219C42.3623 136.107 42.6879 135.959 42.995 135.777C43.1892 135.663 43.3923 135.535 43.5954 135.398C43.7014 135.327 43.8117 135.252 43.9221 135.168C44.24 134.943 44.5578 134.691 44.8713 134.431C45.507 133.91 46.1295 133.336 46.7475 132.74L47.0786 132.413C47.2773 132.224 47.4715 132.034 47.6614 131.835L48.5443 130.952L48.5973 130.895C48.8636 130.618 49.1901 130.406 49.5515 130.276C49.9129 130.146 50.2994 130.101 50.681 130.144C51.2378 130.208 51.7564 130.459 52.1518 130.856C52.5473 131.253 52.7961 131.773 52.8575 132.33V132.33C52.8964 132.661 52.8684 132.997 52.7751 133.318C52.6819 133.639 52.5252 133.938 52.3145 134.197V134.197Z" fill="#FFB573"/>
<path d="M51.3255 129.129C48.8621 129.071 43.379 135.195 43.379 135.195L47.9041 139.203C47.9041 139.203 51.9436 137.437 52.9325 134.546C53.9214 131.654 51.3255 129.129 51.3255 129.129Z" fill="#6DA59A"/>
<path opacity="0.7" d="M52.9281 134.546C52.4586 135.718 51.675 136.739 50.6633 137.495C49.8132 138.174 48.8837 138.748 47.8953 139.203L46.6813 138.126L43.3702 135.195C43.3702 135.195 48.8489 129.071 51.3167 129.129C51.3255 129.129 53.9302 131.636 52.9281 134.546Z" fill="white"/>
<path opacity="0.1" d="M50.6766 137.495C49.8265 138.174 48.897 138.748 47.9086 139.203L46.6945 138.126C47.3394 136.239 48.4928 134.566 50.0276 133.292C50.5662 134.298 50.7428 136.44 50.6766 137.495Z" fill="black"/>
<path d="M68.3399 131.712C68.3134 131.769 68.2869 131.822 68.2648 131.879C68.1942 132.034 68.128 132.188 68.0617 132.347C68.0219 132.429 67.9865 132.513 67.9558 132.599C67.9466 132.616 67.9392 132.633 67.9337 132.652C67.9013 132.718 67.8732 132.785 67.8498 132.855C67.7748 133.032 67.7042 133.213 67.6335 133.398C67.5629 133.583 67.4613 133.862 67.3775 134.095C67.3775 134.095 67.3775 134.118 67.3775 134.126C67.3157 134.294 67.2583 134.462 67.2009 134.634C67.1435 134.806 67.0817 134.978 67.0287 135.151C67.0268 135.168 67.0268 135.186 67.0287 135.204C66.9757 135.362 66.9227 135.521 66.8742 135.68C66.7726 136.016 66.6711 136.351 66.574 136.696L66.5475 136.788C66.3356 137.539 66.1369 138.303 65.9515 139.071C65.9494 139.087 65.9494 139.103 65.9515 139.119L64.4638 139.172L63.4351 139.208C62.6184 139.23 61.7928 139.252 60.954 139.265H60.6494H60.0799H59.5281C58.7555 139.265 57.9741 139.265 57.1883 139.292H55.056C52.4778 139.292 49.9658 139.261 47.5509 139.194L47.6172 138.868C47.6172 138.797 47.6481 138.731 47.6657 138.665C47.6834 138.598 47.6922 138.532 47.7099 138.466C47.7189 138.434 47.7262 138.402 47.7319 138.369C47.9291 137.486 48.1352 136.681 48.35 135.954C48.4295 135.698 48.5001 135.455 48.5752 135.212C48.6016 135.137 48.6237 135.062 48.6502 134.987C48.7076 134.806 48.765 134.634 48.8224 134.466L48.9151 134.197C48.9637 134.06 49.0122 133.923 49.0608 133.795C49.1093 133.667 49.1711 133.491 49.2241 133.354L49.3698 132.983L49.6347 132.343C49.8378 131.857 50.0364 131.433 50.2219 131.058C50.2572 130.996 50.2881 130.93 50.319 130.868L50.5044 130.511L50.7207 130.118C50.7341 130.098 50.7459 130.078 50.756 130.056C50.8311 129.919 50.9061 129.796 50.9724 129.69L51.1445 129.416L51.352 129.116C52.6622 128.99 53.9789 128.948 55.2944 128.988C55.5725 128.988 55.855 129.01 56.142 129.027C56.429 129.045 56.6894 129.072 56.9896 129.107C57.6209 129.177 58.314 129.275 59.0513 129.394L60.4375 129.632C60.9011 129.716 61.3602 129.8 61.8017 129.888L62.0357 129.937C62.3844 130.003 62.7243 130.074 63.0378 130.14C63.2541 130.184 63.4793 130.233 63.6823 130.286C63.7927 130.312 63.8987 130.334 64.0046 130.365L64.3269 130.444C64.7286 130.546 65.126 130.656 65.5012 130.762L65.8676 130.873L66.5519 131.085L67.1523 131.279C67.8366 131.504 68.2913 131.672 68.3575 131.694L68.3399 131.712Z" fill="#6DA59A"/>
<path opacity="0.7" d="M68.3443 131.712C68.3178 131.769 68.2913 131.822 68.2693 131.879C68.1986 132.034 68.128 132.188 68.0662 132.347C68.025 132.43 67.9897 132.514 67.9602 132.599C67.9583 132.617 67.9583 132.634 67.9602 132.652C67.9278 132.718 67.8997 132.785 67.8763 132.855C67.8013 133.032 67.7307 133.213 67.66 133.398C67.5894 133.583 67.4834 133.862 67.404 134.096C67.404 134.096 67.404 134.118 67.404 134.126C67.3422 134.294 67.2848 134.462 67.2274 134.634C67.17 134.806 67.1082 134.978 67.0552 135.151V135.182C67.0022 135.34 66.9493 135.499 66.9007 135.658C66.7992 135.994 66.6976 136.329 66.6005 136.674L66.574 136.766C66.3621 137.517 66.1634 138.281 65.978 139.049C65.9759 139.065 65.9759 139.081 65.978 139.097L64.4903 139.15L63.4616 139.186C62.6449 139.208 61.8194 139.23 60.9806 139.243H60.6759H60.1064H59.5546C58.782 139.243 58.0006 139.243 57.2148 139.27H55.0825C52.5043 139.27 49.9923 139.239 47.5775 139.172L47.6437 138.85C47.6746 138.709 47.7011 138.576 47.732 138.444C47.7409 138.412 47.7483 138.38 47.754 138.347C47.9512 137.464 48.1572 136.659 48.3721 135.932C48.4516 135.676 48.5222 135.433 48.5973 135.19C48.6237 135.115 48.6458 135.04 48.6723 134.965C48.7297 134.784 48.7871 134.612 48.8445 134.444L48.9372 134.175C48.9858 134.038 49.0343 133.901 49.0829 133.773C49.1314 133.645 49.1932 133.469 49.2462 133.332L49.3919 132.961L49.6568 132.321C49.8599 131.835 50.0585 131.411 50.2395 131.036C50.2748 130.974 50.3058 130.908 50.3367 130.846L50.5221 130.489L50.7384 130.096C50.7518 130.076 50.7636 130.055 50.7737 130.034L50.99 129.668L51.1622 129.394L51.3697 129.094C52.6798 128.968 53.9965 128.926 55.312 128.966C55.5902 128.966 55.8727 128.988 56.1597 129.005C56.4466 129.023 56.7071 129.049 57.0073 129.085C57.6386 129.155 58.3317 129.253 59.069 129.372L60.4552 129.61C60.9187 129.694 61.3779 129.778 61.8193 129.866L62.0533 129.915C62.4021 129.981 62.742 130.052 63.0555 130.118C63.2718 130.162 63.4969 130.211 63.7 130.264C63.8104 130.29 63.9163 130.312 64.0223 130.343L64.3446 130.418C64.7463 130.52 65.1436 130.63 65.5189 130.74L65.8853 130.851L66.5696 131.063L67.17 131.257C67.8543 131.482 68.309 131.65 68.3752 131.672L68.3443 131.712Z" fill="white"/>
<path d="M60.3581 123.734C60.3581 123.734 60.495 128.431 60.9408 129.129C61.3867 129.826 62.9981 130.149 62.9981 130.149C62.9981 130.149 59.1264 132.073 57.3164 131.711C55.5063 131.349 54.6366 128.987 54.6366 128.987C54.6366 128.987 55.8992 129.036 56.2083 128.864C56.5173 128.692 55.9655 125.579 55.9655 125.579L60.3581 123.734Z" fill="#EBB376"/>
<path opacity="0.2" d="M56.3363 126.749L56.1773 126.974C56.0802 126.246 55.9654 125.579 55.9654 125.579L60.3537 123.734C60.3537 123.734 60.4684 127.517 60.7951 128.798C59.0204 128.983 56.9455 127.667 56.3363 126.749Z" fill="black"/>
<path d="M58.8571 115.845C60.0579 116.472 61.7752 118.494 59.8945 119.169C58.0139 119.845 56.7954 114.772 58.8571 115.845Z" fill="#263238"/>
<path d="M53.5197 123.659C54.441 124.784 55.4444 125.839 56.5217 126.816C57.296 127.472 58.2466 127.885 59.2544 128.003C62.7862 128.445 65.073 124.683 63.6471 121.58C63.482 121.224 63.2978 120.878 63.0952 120.542C61.5456 117.991 58.5657 115.311 55.6167 116.185C54.8734 116.406 54.1982 116.811 53.654 117.363C53.1099 117.916 52.7147 118.597 52.5052 119.343C52.2958 120.09 52.279 120.877 52.4564 121.632C52.6338 122.387 52.9996 123.084 53.5197 123.659Z" fill="#EBB376"/>
<path d="M54.9721 123.447L55.1354 123.977C55.4457 124.996 55.9199 125.958 56.5393 126.824C57.3137 127.48 58.2642 127.893 59.272 128.012C62.8038 128.453 65.0907 124.692 63.6647 121.588C63.4996 121.233 63.3154 120.887 63.1129 120.551C63.1129 120.551 63.3777 121.796 63.1482 122.374C63.1482 122.374 61.8238 122.034 61.1704 122.577C61.1704 122.577 59.7665 122.193 58.5745 123.681C58.0297 124.037 57.3839 124.207 56.7343 124.165C56.0847 124.123 55.4663 123.871 54.9721 123.447V123.447Z" fill="#263238"/>
<path opacity="0.5" d="M54.9721 123.447L55.1354 123.977C55.4457 124.996 55.9199 125.958 56.5393 126.824C57.3137 127.48 58.2642 127.893 59.272 128.012C62.8038 128.453 65.0907 124.692 63.6647 121.588C63.4996 121.233 63.3154 120.887 63.1129 120.551C63.1129 120.551 63.3777 121.796 63.1482 122.374C63.1482 122.374 61.8238 122.034 61.1704 122.577C61.1704 122.577 59.7665 122.193 58.5745 123.681C58.0297 124.037 57.3839 124.207 56.7343 124.165C56.0847 124.123 55.4663 123.871 54.9721 123.447V123.447Z" fill="white"/>
<path d="M49.8378 122.008C48.2352 120.661 49.7539 118.714 51.4315 118.035C51.6128 117.963 51.7671 117.836 51.873 117.673L53.864 120.732C53.683 120.816 53.502 120.9 53.3298 120.966C53.3298 120.966 55.6564 123.023 55.4312 125.072C52.182 125.99 49.0475 124.317 49.8378 122.008Z" fill="#263238"/>
<path d="M54.2216 126.626C54.5625 126.857 54.9463 127.019 55.3504 127.1C55.7545 127.181 56.1707 127.18 56.5746 127.098C56.6526 127.083 56.7293 127.063 56.8042 127.036C57.4752 126.405 55.4798 124.184 55.3871 124.07C55.1736 124.005 54.9486 123.987 54.7275 124.017C54.5065 124.048 54.2947 124.126 54.1068 124.246C53.917 124.386 53.7647 124.571 53.6634 124.784C53.5622 124.997 53.5151 125.231 53.5265 125.467C53.5378 125.702 53.6072 125.931 53.7285 126.133C53.8498 126.336 54.0192 126.505 54.2216 126.626V126.626Z" fill="#EBB376"/>
<path d="M58.0315 121.24C58.1949 121.451 58.4421 121.535 58.5834 121.425C58.7246 121.315 58.6981 121.05 58.5304 120.838C58.3626 120.626 58.1154 120.542 57.9786 120.652C57.8417 120.763 57.8638 121.028 58.0315 121.24Z" fill="#263238"/>
<path d="M60.4332 119.328C60.5965 119.54 60.8437 119.624 60.985 119.514C61.1263 119.403 61.0998 119.143 60.932 118.927C60.7643 118.71 60.517 118.631 60.3802 118.746C60.2433 118.86 60.2522 119.121 60.4332 119.328Z" fill="#263238"/>
<path d="M59.74 120.043C60.4938 120.463 61.302 120.776 62.1416 120.975C62.0357 121.602 61.2587 121.95 61.2587 121.95L59.74 120.043Z" fill="#D58745"/>
<path d="M57.0824 119.597C57.0577 119.611 57.0372 119.63 57.0231 119.655C57.0091 119.679 57.0021 119.706 57.0029 119.734C57.0063 119.935 56.9626 120.133 56.8751 120.313C56.7877 120.493 56.6591 120.65 56.4996 120.772C56.4655 120.796 56.4416 120.832 56.4326 120.873C56.4236 120.914 56.4302 120.956 56.451 120.992C56.4623 121.01 56.4769 121.026 56.4941 121.038C56.5113 121.05 56.5307 121.058 56.5513 121.063C56.5718 121.067 56.593 121.068 56.6137 121.064C56.6344 121.06 56.6541 121.052 56.6718 121.041C56.8776 120.888 57.0435 120.688 57.1557 120.458C57.2679 120.227 57.323 119.973 57.3163 119.717C57.3163 119.675 57.3002 119.635 57.2714 119.606C57.2425 119.576 57.2032 119.559 57.1618 119.558C57.132 119.563 57.1044 119.577 57.0824 119.597Z" fill="#263238"/>
<path d="M60.8083 117.602C60.8336 117.583 60.8522 117.557 60.8613 117.527C60.8757 117.488 60.874 117.444 60.8566 117.406C60.8393 117.368 60.8077 117.339 60.7686 117.324C60.5342 117.233 60.281 117.2 60.031 117.228C59.781 117.257 59.5418 117.346 59.3338 117.487C59.3063 117.514 59.2895 117.55 59.2866 117.589C59.2837 117.627 59.295 117.666 59.3182 117.697C59.3415 117.727 59.3751 117.749 59.4129 117.756C59.4507 117.764 59.4901 117.758 59.5237 117.739C59.69 117.629 59.8806 117.561 60.079 117.541C60.2774 117.521 60.4777 117.55 60.6627 117.624C60.6869 117.633 60.7129 117.635 60.7383 117.632C60.7637 117.628 60.7878 117.618 60.8083 117.602Z" fill="#263238"/>
<path d="M61.2455 124.86C61.3318 124.827 61.4158 124.789 61.4971 124.745L61.7134 123.006C61.7134 123.006 61.6075 123.006 61.4441 123.006C60.8967 123.006 59.6782 123.129 59.3516 123.756C59.3159 123.828 59.2878 123.904 59.2677 123.981C59.1853 124.262 59.2056 124.562 59.3251 124.829C59.5237 125.2 60.0535 125.394 61.2455 124.86Z" fill="#263238"/>
<path d="M59.2676 123.977L61.3911 123.209L61.4441 123.001C60.8967 123.001 59.6782 123.125 59.3515 123.752C59.3158 123.824 59.2877 123.899 59.2676 123.977V123.977Z" fill="white"/>
<path d="M61.2454 124.86C60.8746 124.242 59.8857 124.56 59.325 124.833C59.5237 125.2 60.0535 125.394 61.2454 124.86Z" fill="#DE5753"/>
<path d="M49.8378 122.008C49.1844 121.505 48.2308 120.149 49.5111 118.737C50.7914 117.324 52.3056 116.626 51.5904 115.602C50.8753 114.578 52.1423 113.708 53.0341 114.375C53.0341 114.375 55.131 110.945 56.6232 113.58C56.6232 113.58 58.0845 112.574 58.9807 113.655C59.8769 114.737 60.0623 115.894 58.8836 116.304C57.7048 116.715 57.5945 116.843 57.7975 117.527C58.0006 118.211 56.9764 118.776 56.9764 118.776C56.9764 118.776 57.6121 118.37 57.2501 117.893C57.1862 118.195 57.0357 118.472 56.817 118.69C56.5982 118.908 56.3207 119.058 56.0184 119.121C54.875 119.478 55.4048 120.591 55.4048 120.591C55.4048 120.591 54.7911 120.829 54.6587 119.955C54.6587 119.955 54.1819 121.906 52.8928 122.392C51.6037 122.878 50.809 122.763 49.8378 122.008Z" fill="#263238"/>
<path opacity="0.1" d="M66.5122 136.802C66.3003 137.552 66.1016 138.316 65.9162 139.084C65.9141 139.1 65.9141 139.117 65.9162 139.133L64.4285 139.186L63.3998 139.221C62.5831 139.243 61.7576 139.265 60.9188 139.278H60.6141H60.0446H59.4928C60.0282 138.272 60.7825 137.399 61.7002 136.722C61.8635 136.598 62.0345 136.485 62.2123 136.382C62.5795 136.181 62.9779 136.042 63.391 135.972C64.4999 135.83 65.62 136.128 66.5122 136.802V136.802Z" fill="black"/>
<path d="M69.4745 135.34C69.4522 135.773 69.3167 136.191 69.0816 136.554C68.5209 137.437 67.9514 138.259 67.3554 139.071L65.9074 139.133L64.4197 139.186L63.391 139.221C62.5743 139.243 61.7488 139.265 60.91 139.278C60.9585 139.225 60.9982 139.172 61.0424 139.119C61.837 138.117 62.6273 137.062 63.391 135.998C63.6073 135.702 63.8325 135.402 64.0267 135.115C64.3314 134.674 64.6227 134.268 64.9097 133.848L64.9406 133.804C65.2539 133.351 65.7086 133.015 66.2334 132.848C66.7583 132.681 67.3236 132.693 67.8411 132.881C68.0399 132.954 68.2284 133.052 68.4017 133.173C68.7506 133.413 69.0324 133.738 69.2201 134.117C69.4079 134.496 69.4955 134.918 69.4745 135.34V135.34Z" fill="#FFB573"/>
<path d="M69.7261 135.354C69.4905 136.669 68.9806 137.921 68.2295 139.027L67.3466 139.071L65.8986 139.133L64.4108 139.186L63.3822 139.221C62.5654 139.243 61.7399 139.265 60.9011 139.278H60.5965H60.027C60.517 138.537 61.1218 137.609 61.6913 136.731C62.0798 136.122 62.4507 135.539 62.7509 135.045L63.0643 134.528C63.5568 133.677 64.2629 132.969 65.1127 132.475V132.475C66.0886 131.921 67.2013 131.655 68.3222 131.707C68.6988 131.951 69.0156 132.277 69.2493 132.661C69.7241 133.473 69.8932 134.428 69.7261 135.354V135.354Z" fill="#6DA59A"/>
<path opacity="0.7" d="M69.7261 135.354C69.4905 136.669 68.9806 137.921 68.2295 139.027L67.3466 139.071L65.8986 139.133L64.4108 139.186L63.3822 139.221C62.5654 139.243 61.7399 139.265 60.9011 139.278H60.5965H60.027C60.517 138.537 61.1218 137.609 61.6913 136.731C62.0798 136.122 62.4507 135.539 62.7509 135.045L63.0643 134.528C63.5568 133.677 64.2629 132.969 65.1127 132.475V132.475C66.0886 131.921 67.2013 131.655 68.3222 131.707C68.6988 131.951 69.0156 132.277 69.2493 132.661C69.7241 133.473 69.8932 134.428 69.7261 135.354V135.354Z" fill="white"/>
<path d="M62.6472 101L61.1212 98.641L62.0382 98.088L63.9352 101H62.6472ZM59.4622 101V96.1H60.5892V101H59.4622ZM60.2602 99.026V98.081H61.9682V99.026H60.2602ZM62.1432 98.676L61.1002 98.55L62.6892 96.1H63.8862L62.1432 98.676ZM64.8182 102.414C64.6222 102.414 64.4286 102.384 64.2372 102.323C64.0459 102.262 63.8896 102.178 63.7682 102.071L64.1672 101.294C64.2512 101.369 64.3469 101.427 64.4542 101.469C64.5662 101.511 64.6759 101.532 64.7832 101.532C64.9372 101.532 65.0586 101.495 65.1472 101.42C65.2406 101.35 65.3246 101.231 65.3992 101.063L65.5952 100.601L65.6792 100.482L67.0302 97.234H68.0802L66.3792 101.231C66.2579 101.534 66.1179 101.772 65.9592 101.945C65.8052 102.118 65.6326 102.239 65.4412 102.309C65.2546 102.379 65.0469 102.414 64.8182 102.414ZM65.4622 101.147L63.7822 97.234H64.9092L66.2112 100.384L65.4622 101.147ZM70.9304 100.51V98.13H69.6984L69.6774 98.613C69.6681 98.8137 69.6564 99.005 69.6424 99.187C69.6284 99.369 69.6004 99.5347 69.5584 99.684C69.5211 99.8287 69.4651 99.9523 69.3904 100.055C69.3158 100.153 69.2154 100.221 69.0894 100.258L68.0114 100.104C68.1468 100.104 68.2564 100.064 68.3404 99.985C68.4244 99.901 68.4898 99.7867 68.5364 99.642C68.5831 99.4927 68.6181 99.3247 68.6414 99.138C68.6648 98.9467 68.6811 98.746 68.6904 98.536L68.7394 97.234H72.0224V100.51H70.9304ZM67.8854 101.812V100.104H72.5614V101.812H71.5464V101H68.9004V101.812H67.8854ZM73.2486 101V97.234H74.3336V99.474L76.1676 97.234H77.1686V101H76.0836V98.76L74.2566 101H73.2486ZM79.3969 99.299C79.3969 99.1357 79.4226 98.991 79.4739 98.865C79.5299 98.739 79.5976 98.627 79.6769 98.529C79.7609 98.431 79.8496 98.34 79.9429 98.256C80.0363 98.172 80.1226 98.0927 80.2019 98.018C80.2859 97.9387 80.3536 97.857 80.4049 97.773C80.4609 97.689 80.4889 97.5957 80.4889 97.493C80.4889 97.325 80.4189 97.1897 80.2789 97.087C80.1436 96.9843 79.9616 96.933 79.7329 96.933C79.5136 96.933 79.3176 96.9797 79.1449 97.073C78.9723 97.1617 78.8299 97.2877 78.7179 97.451L77.8709 96.954C78.0576 96.6693 78.3166 96.443 78.6479 96.275C78.9793 96.1023 79.3806 96.016 79.8519 96.016C80.2019 96.016 80.5099 96.0673 80.7759 96.17C81.0419 96.268 81.2496 96.4127 81.3989 96.604C81.5529 96.7953 81.6299 97.031 81.6299 97.311C81.6299 97.493 81.6019 97.654 81.5459 97.794C81.4899 97.934 81.4176 98.0553 81.3289 98.158C81.2403 98.2607 81.1446 98.3563 81.0419 98.445C80.9439 98.5337 80.8506 98.62 80.7619 98.704C80.6733 98.788 80.5986 98.8767 80.5379 98.97C80.4819 99.0633 80.4539 99.173 80.4539 99.299H79.3969ZM79.9289 101.056C79.7329 101.056 79.5719 100.993 79.4459 100.867C79.3199 100.741 79.2569 100.592 79.2569 100.419C79.2569 100.242 79.3199 100.095 79.4459 99.978C79.5719 99.8567 79.7329 99.796 79.9289 99.796C80.1296 99.796 80.2906 99.8567 80.4119 99.978C80.5379 100.095 80.6009 100.242 80.6009 100.419C80.6009 100.592 80.5379 100.741 80.4119 100.867C80.2906 100.993 80.1296 101.056 79.9289 101.056Z" fill="#6DA59A"/>
</svg>
