<svg width="500" height="467" viewBox="0 0 500 467" fill="none" xmlns="http://www.w3.org/2000/svg">
<path d="M495.911 255.568C495.911 255.568 486.824 248.541 473.567 270.57C460.31 292.599 454.958 305.399 454.958 305.399C454.958 305.399 451.538 309.966 448.481 306.57C445.425 303.174 441.56 294.028 435.857 295.222C430.001 296.463 427.577 302.787 428.01 312.367C428.443 321.947 428.596 342.945 428.607 344.854C428.619 346.763 427.354 349.374 424.907 347.419C422.459 345.463 408.792 327.884 400.84 334.864C392.888 341.844 398.498 368.323 399.013 371.227C399.529 374.132 398.92 375.303 397.514 375.912C396.109 376.521 392.08 370.185 387.993 365.372C383.906 360.559 378.308 355.628 374.057 360.043C369.806 364.458 367.171 383.829 383.426 416.784L391.963 431.552L409.097 431.821C445.823 430.205 461.516 418.494 463.331 412.638C465.146 406.782 458.155 404.253 451.936 403C445.717 401.747 438.222 401.29 438.082 399.768C437.941 398.245 438.656 397.109 441.466 396.184C444.277 395.259 470.159 387.365 472.431 377.036C474.703 366.707 452.697 363.252 449.816 362.046C446.935 360.84 448.645 358.462 450.285 357.561C451.924 356.659 470.428 346.657 479.012 342.406C487.596 338.155 492 333.037 490.243 327.252C488.533 321.689 478.626 322.732 474.211 321.678C469.796 320.624 472.138 315.436 472.138 315.436C472.138 315.436 480.804 304.544 493.686 282.316C506.569 260.089 495.747 255.381 495.747 255.381" fill="#EBEBEB"/>
<path d="M484.001 275.243C483.928 275.403 483.845 275.56 483.755 275.711C483.58 276.051 483.322 276.508 482.994 277.093L479.996 282.375C477.384 286.954 473.555 293.559 468.8 301.71C459.291 317.989 445.975 340.357 431.184 365.067C416.393 389.778 403.007 412.111 393.415 428.308C388.637 436.423 384.773 442.993 382.079 447.549L378.999 452.784L378.179 454.131C378.091 454.289 377.993 454.441 377.886 454.587L378.132 454.107L378.905 452.725C379.608 451.554 380.615 449.727 381.903 447.455C384.515 442.865 388.345 436.26 393.099 428.12C402.609 411.83 415.924 389.473 430.727 364.751C445.53 340.029 458.893 317.719 468.472 301.511C473.25 293.407 477.127 286.837 479.809 282.27L482.9 277.046C483.252 276.461 483.521 276.016 483.708 275.688C483.896 275.36 484.001 275.243 484.001 275.243Z" fill="#E0E0E0"/>
<path d="M440.752 308.327C440.908 308.703 441.022 309.096 441.092 309.498C441.291 310.271 441.537 311.395 441.83 312.777C442.404 315.553 443.106 319.406 443.797 323.68C444.488 327.955 445.074 331.691 445.53 334.607C445.753 335.918 445.929 337.019 446.081 337.909C446.175 338.313 446.226 338.725 446.233 339.139C446.069 338.764 445.951 338.371 445.882 337.968C445.683 337.195 445.437 336.071 445.167 334.689C444.617 331.901 443.996 328.037 443.27 323.774C442.544 319.511 441.935 315.763 441.455 312.859L440.893 309.557C440.798 309.154 440.751 308.741 440.752 308.327V308.327Z" fill="#E0E0E0"/>
<path d="M447.779 339.56C447.779 339.42 455.625 337.628 465.345 335.567C475.066 333.506 483.029 331.936 483.064 332.054C483.1 332.171 475.206 333.986 465.498 336.047C455.789 338.108 447.802 339.701 447.779 339.56Z" fill="#E0E0E0"/>
<path d="M423.35 376.439C423.766 376.4 424.186 376.4 424.603 376.439L428.022 376.697C430.903 376.907 434.885 377.188 439.288 377.329C443.692 377.469 447.685 377.481 450.578 377.458H453.998C454.418 377.416 454.842 377.416 455.262 377.458C454.852 377.556 454.432 377.607 454.009 377.61C453.201 377.68 452.03 377.751 450.59 377.809C447.697 377.926 443.692 377.985 439.277 377.809C434.862 377.633 430.868 377.329 427.987 377.024C426.547 376.86 425.387 376.72 424.579 376.603C424.164 376.605 423.75 376.55 423.35 376.439Z" fill="#E0E0E0"/>
<path d="M410.772 349.585C411.012 349.895 411.212 350.233 411.369 350.592L412.821 353.403C413.992 355.745 415.667 359.095 417.447 362.772C419.227 366.449 420.796 369.799 421.921 372.199L423.221 375.092C423.402 375.438 423.543 375.803 423.642 376.181C423.401 375.87 423.196 375.532 423.033 375.174C422.647 374.413 422.155 373.476 421.581 372.363C420.41 370.021 418.747 366.672 416.967 362.994C415.187 359.317 413.606 355.968 412.482 353.567C411.978 352.396 411.533 351.459 411.182 350.674C411 350.33 410.863 349.964 410.772 349.585Z" fill="#E0E0E0"/>
<path d="M385.066 379.414C385.366 379.814 385.621 380.246 385.827 380.702C386.307 381.639 386.998 382.845 387.701 384.297C389.258 387.342 391.39 391.57 393.709 396.254C396.027 400.939 398.112 405.19 399.564 408.281C400.267 409.757 400.841 410.987 401.286 411.947C401.52 412.389 401.712 412.851 401.859 413.329C401.568 412.925 401.317 412.494 401.11 412.041L399.224 408.445C397.667 405.401 395.535 401.173 393.217 396.488C390.898 391.804 388.813 387.553 387.361 384.461L385.64 380.784C385.407 380.345 385.215 379.887 385.066 379.414Z" fill="#E0E0E0"/>
<path d="M401.707 412.404C402.241 412.358 402.778 412.358 403.311 412.404L407.644 412.568C411.31 412.708 416.369 412.884 421.967 412.907C427.565 412.931 432.624 412.849 436.29 412.755L440.635 412.65C441.169 412.607 441.705 412.607 442.239 412.65C441.715 412.76 441.182 412.822 440.646 412.837C439.628 412.919 438.14 413.024 436.313 413.118C432.648 413.306 427.565 413.469 421.967 413.434C416.369 413.399 411.287 413.165 407.633 412.931C405.794 412.814 404.319 412.697 403.288 412.603C402.756 412.578 402.228 412.512 401.707 412.404V412.404Z" fill="#E0E0E0"/>
<path d="M456.347 181.765L369.524 209.124L387.964 267.642L474.786 240.284L456.347 181.765Z" fill="white"/>
<path d="M474.796 240.25C474.796 240.25 474.668 239.887 474.433 239.184C474.199 238.482 473.86 237.439 473.426 236.092C472.56 233.375 471.283 229.405 469.655 224.323C466.423 214.157 461.774 199.577 456.117 181.8L456.422 181.963L369.63 209.379L369.829 208.993C376.399 229.85 382.641 249.689 388.251 267.549L387.9 267.361L450.461 247.792L468.367 242.229L473.133 240.753L474.375 240.379L474.808 240.262L474.41 240.402L473.239 240.8L468.554 242.311L450.753 248.003L388.111 267.912L387.841 267.994L387.759 267.724C382.126 249.9 375.872 230.073 369.291 209.168L369.197 208.876L369.49 208.782L456.328 181.472L456.562 181.401L456.632 181.636C462.207 199.495 466.786 214.157 469.971 224.381C471.541 229.452 472.77 233.411 473.602 236.092C474.012 237.428 474.328 238.435 474.539 239.161C474.75 239.887 474.796 240.25 474.796 240.25Z" fill="#E0E0E0"/>
<path d="M456.351 181.729C456.351 181.729 456.351 181.823 456.234 181.999L455.836 182.748L454.243 185.617C452.826 188.147 450.8 191.731 448.306 196.157C443.199 205.081 436.161 217.366 428.326 231.068L428.197 231.291L427.952 231.197L425.27 230.202L385.815 215.399L373.881 210.855L370.649 209.59L369.806 209.239C369.706 209.211 369.611 209.167 369.525 209.11C369.629 209.117 369.732 209.14 369.829 209.18L370.684 209.473L373.963 210.644L385.944 214.989L425.469 229.616L428.151 230.623L427.788 230.752C435.681 217.085 442.778 204.835 447.919 195.935C450.496 191.555 452.604 188.006 454.032 185.5L455.719 182.69C455.906 182.397 456.047 182.163 456.164 181.964C456.218 181.879 456.28 181.8 456.351 181.729V181.729Z" fill="#E0E0E0"/>
<path d="M122.56 47.379C122.376 46.6119 122.286 45.8255 122.291 45.0368C122.265 44.1126 122.163 43.1921 121.986 42.2846C121.838 41.0345 121.595 39.7974 121.26 38.5839C120.463 35.2323 119.168 32.019 117.419 29.051C113.332 21.9159 106.89 16.4247 99.198 13.5188C91.5058 10.6129 83.0424 10.4733 75.2586 13.1239C72.0292 14.1983 68.9839 15.7624 66.2293 17.7615C63.3142 19.7619 60.7467 22.2266 58.6288 25.0575C54.0553 30.9655 51.4906 38.181 51.3094 45.6502C51.1282 53.1194 53.34 60.4508 57.6216 66.5736C58.6431 68.0338 59.758 69.4265 60.9593 70.7427C62.182 71.9969 63.4846 73.1705 64.8591 74.2561C67.5084 76.3702 70.4668 78.0647 73.6308 79.2802C81.292 82.2945 89.7617 82.5577 97.5953 80.0248C105.429 77.4919 112.141 72.3198 116.587 65.3907C118.477 62.4982 119.925 59.3407 120.885 56.0218C121.269 54.822 121.571 53.5972 121.787 52.3562C122.001 51.4547 122.15 50.5388 122.232 49.6158C122.263 48.8229 122.388 48.0364 122.607 47.2736C122.696 48.0518 122.696 48.8376 122.607 49.6158C122.599 50.5544 122.513 51.4906 122.349 52.4148C122.201 53.6889 121.954 54.9496 121.611 56.1858C120.756 59.6202 119.369 62.8999 117.501 65.906C114.769 70.3557 111.118 74.1697 106.791 77.0925C102.465 80.0152 97.5632 81.979 92.4155 82.8521C85.8944 83.9469 79.1987 83.2632 73.0335 80.8729C69.6918 79.6185 66.5634 77.8568 63.7583 75.6497C62.3049 74.52 60.9278 73.2955 59.636 71.9841C58.3675 70.605 57.1937 69.1416 56.1226 67.6041C51.5843 61.1594 49.234 53.4283 49.4174 45.5481C49.6008 37.6679 52.3082 30.0545 57.1415 23.8279C59.3858 20.8548 62.1039 18.2711 65.187 16.1805C68.0923 14.1083 71.2998 12.4966 74.6965 11.4023C80.971 9.32159 87.6895 8.96564 94.1487 10.3717C99.2477 11.4923 104.048 13.6908 108.227 16.8196C112.406 19.9485 115.868 23.9353 118.379 28.5123C120.102 31.6049 121.331 34.9478 122.021 38.42C122.305 39.6722 122.489 40.9449 122.572 42.2261C122.695 43.1575 122.738 44.0979 122.701 45.0368C122.74 45.8203 122.693 46.6058 122.56 47.379V47.379Z" fill="#E0E0E0"/>
<path d="M115.335 24.8233C115.417 24.9404 114.761 25.5026 113.508 26.4395L111.165 28.1025C110.709 28.4187 110.229 28.7817 109.69 29.1096L107.91 30.0465C101.454 33.725 94.1169 35.5715 86.6892 35.3868L83.4803 35.2463L80.3885 34.7661C79.885 34.6724 79.3814 34.6139 78.8895 34.5085L77.4491 34.122C76.5122 33.8643 75.5636 33.6418 74.6735 33.3608C71.5337 32.2956 68.515 30.9021 65.6676 29.2033C60.8309 26.2755 58.477 23.6171 58.6409 23.4531C58.8049 23.2892 61.4633 25.4557 66.3352 27.9854C69.179 29.4512 72.1454 30.6659 75.2005 31.6158C76.0671 31.8617 76.9689 32.0491 77.8824 32.2833L79.2643 32.6347L80.693 32.8455L83.6443 33.2788L86.7126 33.4076C93.8419 33.5342 100.895 31.9266 107.266 28.7232L109.057 27.9502C109.608 27.6574 110.1 27.3529 110.58 27.0953L113.074 25.7954C114.456 25.0693 115.253 24.7179 115.335 24.8233Z" fill="#E0E0E0"/>
<path d="M57.5751 68.7167C57.4931 68.6113 58.1489 68.0492 59.402 67.1123L61.7443 65.4376C62.2127 65.1214 62.6929 64.77 63.2316 64.4304L65 63.5052C71.4583 59.823 78.8004 57.9763 86.2323 58.165L89.4411 58.3055L92.5329 58.7856C93.0365 58.8676 93.54 58.9379 94.0319 59.0316L95.4607 59.418C96.4093 59.6874 97.3462 59.9099 98.2362 60.191C101.377 61.2479 104.397 62.6377 107.242 64.3367C112.091 67.2645 114.444 69.923 114.269 70.0986C114.093 70.2743 111.446 68.096 106.575 65.5664C103.733 64.0954 100.766 62.8804 97.7092 61.9359C96.8426 61.69 95.9408 61.4909 95.0273 61.2567L93.6454 60.9171L92.205 60.7063L89.2655 60.273L86.1386 60.1324C79.0172 60.0102 71.9724 61.6176 65.6089 64.8169L63.8171 65.6015C63.2667 65.8826 62.7631 66.1871 62.2947 66.4565L59.8236 67.8149C58.4534 68.4825 57.6571 68.8338 57.5751 68.7167Z" fill="#E0E0E0"/>
<path d="M122.537 48.2222C122.537 48.7726 106.352 48.8195 86.4198 48.3393C66.4874 47.8592 50.326 47.016 50.3495 46.4655C50.3729 45.9151 66.5225 45.8683 86.4666 46.3484C106.411 46.8286 122.549 47.6718 122.537 48.2222Z" fill="#E0E0E0"/>
<path d="M84.7798 82.5711C84.2293 82.5711 84.1708 66.3863 84.6627 46.4656C85.1545 26.545 85.9743 10.3836 86.5247 10.3953C87.0752 10.407 87.122 26.5801 86.6418 46.5125C86.1617 66.4448 85.3185 82.5828 84.7798 82.5711Z" fill="#E0E0E0"/>
<path d="M84.78 82.5124C84.6395 82.7232 80.6577 80.0296 76.0669 73.9164C73.3892 70.329 71.2215 66.3878 69.6258 62.2053C67.6769 57.0565 66.7269 51.5834 66.8268 46.079C66.9593 40.5492 68.1977 35.1018 70.469 30.0582C72.2984 25.981 74.6613 22.165 77.4957 18.7101C82.3558 12.8545 86.3727 10.2312 86.5016 10.442C86.6304 10.6528 83.0702 13.6157 78.6083 19.5767C76.0053 23.0376 73.8307 26.8008 72.132 30.7843C70.0658 35.6262 68.9372 40.8163 68.806 46.079C68.7162 51.3571 69.573 56.6087 71.3356 61.5846C72.8029 65.6571 74.7698 69.5319 77.1912 73.1201C81.4541 79.2684 84.9674 82.2899 84.78 82.5124Z" fill="#E0E0E0"/>
<path d="M87.3095 10.407C87.45 10.1962 91.4318 12.9014 96.0226 19.0029C98.7002 22.5924 100.871 26.533 102.475 30.7141C104.419 35.8843 105.365 41.3763 105.263 46.8989C105.129 52.4248 103.89 57.868 101.62 62.9081C99.7931 66.9899 97.4301 70.8101 94.5938 74.2679C89.7337 80.1234 85.7167 82.7467 85.5879 82.5359C85.4591 82.3251 89.0193 79.3505 93.4812 73.4012C96.0865 69.9355 98.2648 66.1686 99.9692 62.182C102.039 57.3285 103.172 52.1269 103.307 46.8521C103.397 41.5739 102.54 36.3224 100.777 31.3465C99.3076 27.275 97.3408 23.4006 94.9217 19.811C90.7174 13.6627 87.1338 10.6295 87.3095 10.407Z" fill="#E0E0E0"/>
<path d="M312.456 48.4213C313.174 48.0966 313.792 47.5874 314.248 46.9457C314.774 46.1551 315.017 45.2101 314.939 44.2639C314.87 43.6813 314.724 43.1103 314.506 42.5658L313.803 40.5866L305.324 16.8012C304.446 14.3068 303.521 11.6835 302.549 8.95476C302.069 7.58456 301.577 6.19093 301.085 4.77388C300.871 4.06478 300.596 3.37524 300.265 2.71272C299.886 2.10205 299.342 1.61086 298.696 1.29567C298.038 0.976064 297.297 0.869623 296.576 0.991184C295.825 1.19472 295.086 1.44105 294.363 1.72899L289.76 3.4271L280.134 6.94045L237.212 22.7271C236.354 23.0664 235.651 23.7106 235.238 24.5361C234.826 25.3617 234.732 26.3105 234.975 27.2007C235.631 29.0745 236.275 30.9483 236.92 32.7987C238.216 36.5228 239.496 40.1923 240.761 43.8071L248.01 64.6061C248.303 65.4376 248.596 66.2574 248.877 67.0772C249.104 67.8477 249.562 68.5302 250.188 69.033C250.804 69.517 251.56 69.7882 252.343 69.8059C253.154 69.7612 253.949 69.5625 254.685 69.2203L263.773 65.9061L280.099 59.9802L303.755 51.4545L310.196 49.1123L311.883 48.5384C312.072 48.463 312.268 48.4042 312.468 48.3628C312.287 48.4576 312.099 48.5397 311.906 48.6087L310.255 49.2528L303.86 51.6653L280.286 60.4253L263.984 66.4331L254.908 69.7708L253.737 70.2041C253.303 70.3499 252.848 70.4212 252.39 70.4149C251.459 70.3922 250.561 70.0721 249.825 69.5014C249.097 68.9201 248.563 68.1321 248.291 67.2412C247.998 66.4214 247.717 65.6016 247.424 64.7701L240.128 43.9828C238.864 40.3758 237.579 36.7102 236.275 32.986L234.296 27.3413C234.003 26.2724 234.116 25.1329 234.614 24.1425C235.111 23.1521 235.957 22.3809 236.99 21.9776L279.888 6.30805L289.526 2.7947L294.152 1.10829C294.913 0.796437 295.695 0.541987 296.494 0.347071C297.339 0.212552 298.206 0.339207 298.977 0.710114C299.728 1.0795 300.358 1.65663 300.792 2.3731C301.147 3.07107 301.437 3.80024 301.659 4.55137C302.151 5.96842 302.631 7.36205 303.111 8.73225C304.063 11.4727 304.973 14.0999 305.84 16.6139L314.037 40.3875C314.283 41.0902 314.506 41.746 314.717 42.3784C314.954 42.9549 315.107 43.5621 315.173 44.1819C315.254 45.1732 314.98 46.1607 314.4 46.9692C314.047 47.4622 313.582 47.8637 313.042 48.1403C312.861 48.2618 312.664 48.3565 312.456 48.4213Z" fill="#E0E0E0"/>
<path d="M275.801 30.4682L285.521 32.3888L279.138 40.1299L272.756 47.8592L269.418 38.2093L266.08 28.5593L275.801 30.4682Z" fill="#E0E0E0"/>
<path d="M453.623 118.688C451.985 117.731 450.171 117.115 448.289 116.877C446.407 116.64 444.497 116.786 442.673 117.306C439.031 118.373 435.682 120.259 432.882 122.822C427.343 127.589 423.607 135.142 421.312 142.087C429.17 144.137 437.707 140.049 441.842 137.707C448.447 133.995 458.132 123.291 453.623 118.688" fill="#468479"/>
<path d="M407.387 142.93C409.339 142.103 411.039 140.775 412.314 139.08C413.589 137.386 414.394 135.385 414.648 133.28C414.858 131.174 414.648 129.048 414.031 127.024C413.414 124.999 412.402 123.118 411.053 121.487C409.882 119.965 408.172 118.548 406.228 118.524C405.313 118.574 404.427 118.866 403.662 119.37C402.896 119.874 402.278 120.572 401.871 121.393C401.093 123.056 400.762 124.893 400.911 126.722C401.145 132.976 402.527 138.984 407.387 142.93" fill="#468479"/>
<g opacity="0.4">
<path opacity="0.4" d="M407.387 142.93C409.339 142.103 411.039 140.775 412.314 139.08C413.589 137.386 414.394 135.385 414.648 133.28C414.858 131.174 414.648 129.048 414.031 127.024C413.414 124.999 412.402 123.118 411.053 121.487C409.882 119.965 408.172 118.548 406.228 118.524C405.313 118.574 404.427 118.866 403.662 119.37C402.896 119.874 402.278 120.572 401.871 121.393C401.093 123.056 400.762 124.893 400.911 126.722C401.145 132.976 402.527 138.984 407.387 142.93" fill="white"/>
</g>
<path d="M393.404 162.02C393.807 161.717 394.18 161.376 394.516 161.001L397.432 158.12C400.755 155.019 403.559 151.405 405.736 147.416C407.863 143.358 408.87 138.806 408.652 134.229C408.564 132.853 408.313 131.493 407.902 130.177C407.796 129.818 407.667 129.465 407.516 129.123C407.422 128.881 407.363 128.764 407.34 128.772C407.839 130.562 408.153 132.398 408.277 134.252C408.369 138.731 407.334 143.16 405.267 147.135C403.102 151.072 400.372 154.67 397.163 157.815C395.992 159.068 395.008 160.087 394.364 160.813C394.009 161.187 393.688 161.59 393.404 162.02V162.02Z" fill="#263238"/>
<path d="M445.53 126.148C445.326 126.232 445.13 126.334 444.945 126.453L443.34 127.413C441.946 128.256 439.944 129.509 437.485 131.067C432.566 134.194 425.832 138.609 418.512 143.645C411.193 148.68 404.682 153.4 399.997 156.878C397.655 158.623 395.769 160.04 394.481 161.047L393.017 162.219C392.835 162.345 392.666 162.491 392.514 162.652C392.714 162.556 392.902 162.438 393.076 162.3L394.61 161.223L400.208 157.194C404.892 153.798 411.497 149.137 418.817 144.101C426.136 139.066 432.87 134.604 437.695 131.395L443.457 127.6L445.015 126.558C445.196 126.434 445.369 126.297 445.53 126.148V126.148Z" fill="#263238"/>
<path d="M409.706 154.173C413.761 152.301 418.204 151.422 422.666 151.61C427.128 151.797 431.481 153.045 435.365 155.25C437.321 156.421 439.359 158.237 439.042 160.485C438.726 162.734 436.267 163.999 434.053 164.467C429.415 165.456 424.587 165.049 420.179 163.299C415.772 161.548 411.981 158.532 409.284 154.63" fill="#468479"/>
<path d="M429.111 158.319C428.747 158.027 428.355 157.772 427.94 157.557C427.542 157.335 427.062 157.054 426.465 156.784C425.809 156.457 425.136 156.164 424.45 155.906C423.623 155.577 422.778 155.292 421.921 155.051C420.936 154.755 419.935 154.512 418.923 154.325C416.604 153.918 414.247 153.773 411.896 153.892C409.544 154.047 407.218 154.471 404.963 155.157C403.986 155.467 403.028 155.835 402.094 156.257C401.291 156.603 400.509 156.994 399.752 157.429C399.026 157.792 398.428 158.248 397.878 158.6C397.409 158.895 396.959 159.22 396.531 159.572C396.146 159.848 395.785 160.158 395.454 160.497C395.524 160.591 397.081 159.326 399.927 157.768C400.707 157.337 401.508 156.946 402.328 156.597C403.195 156.211 404.155 155.906 405.174 155.567C409.619 154.231 414.316 153.954 418.888 154.758C419.884 154.916 420.87 155.135 421.839 155.414C422.695 155.633 423.539 155.895 424.368 156.199C427.32 157.335 429.053 158.412 429.111 158.319Z" fill="#263238"/>
<path d="M101.246 288.851C121.576 272.034 124.2 243.681 121.307 218.584C120.827 214.392 120.932 209.941 118.637 206.416C116.342 202.891 111.481 200.76 107.863 202.833C104.865 204.554 103.799 208.29 102.3 211.429C100.295 215.616 97.1492 219.151 93.2238 221.629C90.6707 223.222 87.3682 224.346 84.6746 223.105C80.8919 221.395 80.0604 216.429 79.7442 212.26C79.1665 204.453 78.5848 196.673 77.9993 188.92C77.6831 184.739 77.3552 180.476 75.739 176.623C74.1229 172.77 70.9491 169.327 66.8854 168.531C62.8216 167.734 58.102 170.428 57.5984 174.585C57.5835 176.324 57.6852 178.061 57.9029 179.785C57.9029 181.53 57.2705 183.509 55.6661 184.13C54.0617 184.751 52.2816 183.708 50.9816 182.584C46.2972 178.72 42.9712 173.531 39.7975 168.355C36.6238 163.179 33.532 157.874 29.2575 153.587C24.9829 149.301 19.2796 146.116 13.2717 146.256C7.26392 146.397 1.19754 150.613 0.16696 156.597C-0.863622 162.582 3.0479 168.308 7.19365 172.759C13.3089 179.37 20.3455 185.066 28.0863 189.669C29.572 190.339 30.8035 191.468 31.5997 192.89C32.7708 195.595 30.3232 198.57 27.653 199.718C24.6198 201.006 21.2236 200.947 18.003 201.603C14.7825 202.259 11.3745 203.945 10.3908 207.142C9.02059 211.546 12.9555 215.727 16.7031 218.373C24.2096 223.669 32.5728 227.631 41.4253 230.085C44.5874 230.963 47.8899 231.677 50.5483 233.598C53.2068 235.519 54.9986 239.184 53.7338 242.253C52.469 245.321 48.6628 246.632 45.3837 246.34C42.1046 246.047 39.1065 244.489 35.9445 243.576C30.0889 241.878 22.6641 242.873 19.385 248.132C17.2418 251.586 17.3941 256.142 18.9282 259.925C20.6399 263.637 23.0768 266.97 26.0955 269.727C36.0681 279.904 48.5641 287.252 62.3063 291.018C75.9849 294.531 88.4105 294.8 101.246 288.886" fill="#468479"/>
<g opacity="0.2">
<path opacity="0.2" d="M101.246 288.851C121.576 272.034 124.2 243.681 121.307 218.584C120.827 214.392 120.932 209.941 118.637 206.416C116.342 202.891 111.481 200.76 107.863 202.833C104.865 204.554 103.799 208.29 102.3 211.429C100.295 215.616 97.1492 219.151 93.2238 221.629C90.6707 223.222 87.3682 224.346 84.6746 223.105C80.8919 221.395 80.0604 216.429 79.7442 212.26C79.1665 204.453 78.5848 196.673 77.9993 188.92C77.6831 184.739 77.3552 180.476 75.739 176.623C74.1229 172.77 70.9491 169.327 66.8854 168.531C62.8216 167.734 58.102 170.428 57.5984 174.585C57.5835 176.324 57.6852 178.061 57.9029 179.785C57.9029 181.53 57.2705 183.509 55.6661 184.13C54.0617 184.751 52.2816 183.708 50.9816 182.584C46.2972 178.72 42.9712 173.531 39.7975 168.355C36.6238 163.179 33.532 157.874 29.2575 153.587C24.9829 149.301 19.2796 146.116 13.2717 146.256C7.26392 146.397 1.19754 150.613 0.16696 156.597C-0.863622 162.582 3.0479 168.308 7.19365 172.759C13.3089 179.37 20.3455 185.066 28.0863 189.669C29.572 190.339 30.8035 191.468 31.5997 192.89C32.7708 195.595 30.3232 198.57 27.653 199.718C24.6198 201.006 21.2236 200.947 18.003 201.603C14.7825 202.259 11.3745 203.945 10.3908 207.142C9.02059 211.546 12.9555 215.727 16.7031 218.373C24.2096 223.669 32.5728 227.631 41.4253 230.085C44.5874 230.963 47.8899 231.677 50.5483 233.598C53.2068 235.519 54.9986 239.184 53.7338 242.253C52.469 245.321 48.6628 246.632 45.3837 246.34C42.1046 246.047 39.1065 244.489 35.9445 243.576C30.0889 241.878 22.6641 242.873 19.385 248.132C17.2418 251.586 17.3941 256.142 18.9282 259.925C20.6399 263.637 23.0768 266.97 26.0955 269.727C36.0681 279.904 48.5641 287.252 62.3063 291.018C75.9849 294.531 88.4105 294.8 101.246 288.886" fill="white"/>
</g>
<path d="M103.085 307.46C100.969 295.901 97.7495 284.571 93.47 273.627C88.1859 260.292 82.1408 247.271 75.3646 234.629L70.0945 224.639C68.3496 221.36 66.5812 218.116 64.7425 215.047C61.1213 209.151 57.1723 203.462 52.9143 198.008C48.8973 192.761 44.8804 187.936 41.0977 183.463C37.315 178.989 33.6963 174.878 30.2415 171.271C24.812 165.56 18.938 160.29 12.6748 155.508C10.4614 153.81 8.70468 152.557 7.51014 151.725L6.12823 150.777C5.98165 150.659 5.82023 150.56 5.64807 150.484C5.78155 150.617 5.92655 150.739 6.08138 150.847L7.41645 151.842C8.58757 152.721 10.3091 154.021 12.4874 155.742C18.6599 160.605 24.4577 165.925 29.8316 171.658C33.2513 175.276 36.8583 179.387 40.5941 183.872C44.33 188.358 48.3352 193.241 52.3053 198.441C56.516 203.892 60.4255 209.568 64.0164 215.446C65.8902 218.502 67.5298 221.723 69.3333 225.002L74.6033 234.992C81.3644 247.629 87.4167 260.633 92.7322 273.943C97.0452 284.815 100.327 296.068 102.534 307.554" fill="#263238"/>
<path d="M64.5198 214.977C64.6821 214.385 64.7725 213.776 64.7891 213.162C64.918 211.991 65.0351 210.293 65.1639 208.185C65.4098 203.981 65.5621 198.172 65.7026 191.789C65.8432 185.407 66.0891 179.575 66.3936 175.394C66.5458 173.297 66.6864 171.599 66.8035 170.44C66.9029 169.832 66.9304 169.215 66.8854 168.601C66.6977 169.184 66.5721 169.784 66.5107 170.393C66.2999 171.564 66.0774 173.251 65.8549 175.335C65.3981 179.528 65.0819 185.348 64.9414 191.731C64.8009 198.113 64.7072 203.793 64.6135 208.126C64.6135 210.106 64.5198 211.769 64.4847 213.104C64.4346 213.728 64.4464 214.356 64.5198 214.977V214.977Z" fill="#263238"/>
<path d="M10.0161 209.298C10.7299 209.397 11.4517 209.424 12.171 209.38C13.5646 209.38 15.5672 209.379 18.0265 209.485C22.9804 209.614 29.8197 210.035 37.3499 210.832C44.8802 211.628 51.661 212.659 56.5445 213.549C58.9804 213.97 60.9596 214.368 62.3181 214.626C63.0175 214.803 63.7305 214.92 64.4495 214.977C63.7857 214.695 63.0952 214.479 62.3884 214.333C61.0416 213.982 59.0741 213.502 56.6382 212.998C51.7664 211.979 44.9271 210.867 37.4202 210.059C30.98 209.337 24.5069 208.946 18.0265 208.888C15.5438 208.888 13.5295 208.946 12.171 209.04C11.4463 209.06 10.725 209.146 10.0161 209.298V209.298Z" fill="#263238"/>
<path d="M92.732 272.69C92.8664 272.478 92.9727 272.25 93.0482 272.011L93.8094 269.996C94.4653 268.24 95.3319 265.675 96.3859 262.501C98.4705 256.142 101.07 247.277 103.822 237.439C106.575 227.602 109.104 218.702 111.048 212.342C112.009 209.227 112.805 206.674 113.39 204.777C113.636 203.957 113.847 203.278 114.011 202.716C114.103 202.479 114.162 202.231 114.187 201.978C114.187 201.978 114.046 202.201 113.871 202.669C113.695 203.137 113.414 203.84 113.109 204.683C112.454 206.428 111.575 208.993 110.533 212.167C108.448 218.526 105.848 227.391 103.085 237.229C100.321 247.066 97.8146 255.966 95.8589 262.326L93.5166 269.891C93.259 270.722 93.0599 271.402 92.8842 271.952C92.8037 272.191 92.7526 272.439 92.732 272.69V272.69Z" fill="#263238"/>
<path d="M19.5721 255.498C19.805 255.612 20.0537 255.691 20.3099 255.732L22.4297 256.259L30.2644 258.121C36.8812 259.679 45.9925 261.951 56.029 264.469C66.0654 266.986 75.2352 269.153 81.8872 270.617C85.2131 271.331 87.9067 271.882 89.7805 272.233L91.9353 272.608C92.1843 272.669 92.4403 272.697 92.6966 272.69C92.4658 272.58 92.2217 272.501 91.9705 272.455L89.8391 271.929L82.0043 270.078C75.3875 268.509 66.2762 266.237 56.2398 263.719C46.2033 261.201 37.0335 259.035 30.3932 257.582C27.0673 256.868 24.362 256.306 22.4999 255.966L20.3334 255.58C20.0832 255.526 19.8281 255.498 19.5721 255.498V255.498Z" fill="#263238"/>
<path d="M124.2 69.2906C124.2 69.2906 128.99 192.667 129.891 269.891C130.746 343.765 106.047 425.848 109.561 451.695L406.52 466.919C406.52 466.919 392.713 276.027 397.983 215.715C403.019 158.213 402.984 62.8377 402.984 62.8377L124.2 69.2906Z" fill="#E0E0E0"/>
<path d="M112.477 65.2854C112.477 65.2854 117.384 188.662 118.333 265.886C119.211 339.76 106.024 429.291 109.643 455.138L397.304 445.16C397.304 445.16 386.822 272.069 392.21 211.78C397.339 154.278 397.281 59.9568 397.281 59.9568L112.477 65.2854Z" fill="#EBEBEB"/>
<path d="M108.729 65.2971C108.729 65.2971 101.492 201.146 102.429 278.37C103.33 352.232 105.942 429.291 109.631 455.138L389.457 457.632C389.457 457.632 378.671 284.542 384.199 224.253C389.457 166.704 389.457 64.4187 389.457 64.4187L108.729 65.2971Z" fill="#FAFAFA"/>
<path d="M390.078 458.218L109.128 455.723L109.046 455.22C104.982 427.008 102.628 342.324 101.843 278.381C100.906 202.025 108.074 66.6438 108.144 65.2385V64.6881L390.02 63.798V64.3836C390.02 65.4024 390.02 167.442 384.761 224.276C379.292 283.827 389.914 455.829 390.02 457.562L390.078 458.218ZM110.182 454.552L388.907 457.035C388.204 445.511 378.367 282.024 383.696 224.194C388.708 169.632 388.93 73.448 388.942 65.0043L109.35 65.8826C108.847 75.4506 102.183 204.519 103.085 278.358C103.799 341.903 106.13 425.918 110.135 454.552H110.182Z" fill="#263238"/>
<path d="M242.775 145.87H127.608V257.301H242.775V145.87Z" fill="#468479"/>
<g opacity="0.3">
<path opacity="0.3" d="M136.532 247.757L168.398 190.419L194.455 227.075L210.288 207.611L233.851 247.757H136.532Z" fill="black"/>
</g>
<g opacity="0.3">
<path opacity="0.3" d="M205.592 179.27C205.592 180.91 205.106 182.513 204.195 183.876C203.284 185.24 201.989 186.303 200.474 186.93C198.959 187.558 197.291 187.722 195.683 187.402C194.075 187.082 192.597 186.293 191.438 185.133C190.278 183.973 189.488 182.496 189.168 180.888C188.849 179.279 189.013 177.612 189.64 176.097C190.268 174.582 191.331 173.287 192.694 172.376C194.058 171.465 195.661 170.978 197.301 170.978C199.5 170.978 201.609 171.852 203.164 173.407C204.719 174.962 205.592 177.071 205.592 179.27V179.27Z" fill="black"/>
</g>
<g opacity="0.3">
<path opacity="0.3" d="M233.851 248.073C233.838 247.921 233.838 247.768 233.851 247.616C233.851 247.277 233.851 246.855 233.851 246.316C233.851 245.145 233.851 243.459 233.851 241.304C233.851 236.877 233.781 230.494 233.722 222.379C233.664 206.1 233.582 182.924 233.488 155.098L233.957 155.567L136.649 155.649L137.187 155.11V180.125C137.187 188.323 137.187 196.333 137.187 204.133C137.187 219.744 137.187 234.5 137.129 248.073L136.649 247.593L207.009 247.839L226.86 247.956L232.118 248.014H233.488H233.968H233.535H232.223L227.059 248.073L207.314 248.202L136.649 248.448H136.18V247.968C136.18 234.394 136.18 219.638 136.18 204.027C136.18 196.228 136.18 188.206 136.18 180.019V155.11C135.688 155.59 136.836 154.431 136.731 154.548L234.039 154.63H234.507V155.098C234.402 183.053 234.32 206.323 234.261 222.671C234.261 230.74 234.167 237.1 234.144 241.491C234.144 243.611 234.144 245.251 234.085 246.422C234.085 246.937 234.085 247.347 234.085 247.663C234.02 247.807 233.942 247.944 233.851 248.073V248.073Z" fill="black"/>
</g>
<path d="M351.748 359.247H272.569V435.85H351.748V359.247Z" fill="#468479"/>
<g opacity="0.4">
<path opacity="0.4" d="M278.705 429.291L300.605 389.872L318.523 415.062L329.403 401.688L345.599 429.291H278.705Z" fill="black"/>
</g>
<g opacity="0.4">
<path opacity="0.4" d="M326.147 382.189C326.149 383.318 325.817 384.422 325.191 385.362C324.565 386.302 323.674 387.034 322.632 387.468C321.589 387.901 320.441 388.015 319.334 387.795C318.227 387.575 317.209 387.032 316.411 386.234C315.613 385.435 315.069 384.418 314.849 383.31C314.63 382.203 314.744 381.055 315.177 380.013C315.61 378.97 316.343 378.079 317.283 377.454C318.222 376.828 319.326 376.495 320.456 376.497C321.965 376.497 323.413 377.097 324.48 378.164C325.547 379.232 326.147 380.679 326.147 382.189V382.189Z" fill="black"/>
</g>
<g opacity="0.4">
<path opacity="0.4" d="M345.599 429.502C345.599 429.502 345.599 429.397 345.599 429.186C345.599 428.975 345.599 428.671 345.599 428.296C345.599 427.515 345.599 426.367 345.599 424.853C345.599 421.808 345.599 417.416 345.517 411.842C345.517 400.646 345.423 384.719 345.353 365.583L345.669 365.911H278.775L279.15 365.536V382.739C279.15 388.361 279.15 393.877 279.15 399.24C279.15 409.968 279.15 420.11 279.15 429.444L278.822 429.116L327.189 429.28L340.833 429.373H344.451H345.388H345.716C345.619 429.386 345.521 429.386 345.423 429.373H344.522H341.008L327.435 429.455L278.857 429.619H278.529V429.291C278.529 419.922 278.529 409.816 278.529 399.088C278.529 393.725 278.529 388.209 278.529 382.587V365.594L278.904 365.208L345.798 365.266H346.126V365.583C346.056 384.801 345.997 400.81 345.962 412.041C345.962 417.592 345.892 421.96 345.88 424.982C345.88 426.434 345.88 427.57 345.88 428.366C345.88 428.729 345.88 429.01 345.88 429.221C345.88 429.432 345.611 429.514 345.599 429.502Z" fill="black"/>
</g>
<path d="M177.298 96.3551V114.859H175.682L163.795 99.845V114.859H161.839V96.3551H163.432L175.354 111.369V96.3551H177.298Z" fill="#263238"/>
<path d="M196.411 113.161V114.859H183.341V96.3551H196.024V98.0415H185.297V104.635H194.865V106.31H185.297V113.172L196.411 113.161Z" fill="#263238"/>
<path d="M226.146 96.3551L219.903 114.859H217.842L212.432 99.0721L206.986 114.859H204.948L198.706 96.3551H200.721L206.061 112.271L211.577 96.3551H213.404L218.849 112.341L224.33 96.3551H226.146Z" fill="#263238"/>
<path d="M227.949 112.61L228.71 111.099C230.396 112.578 232.57 113.379 234.812 113.348C238.325 113.348 239.789 111.896 239.789 110.069C239.789 104.998 228.394 108.113 228.394 101.274C228.394 98.5451 230.502 96.1912 235.21 96.1912C237.242 96.1667 239.236 96.7366 240.948 97.8307L240.293 99.4C238.779 98.4141 237.016 97.8818 235.21 97.8659C231.825 97.8659 230.326 99.3649 230.326 101.215C230.326 106.298 241.71 103.23 241.71 109.963C241.71 112.692 239.543 115.011 234.812 115.011C232.304 115.101 229.854 114.244 227.949 112.61V112.61Z" fill="#263238"/>
<path d="M260.459 102.703C260.459 106.637 257.601 109.015 252.894 109.015H247.928V114.87H245.972V96.3668H252.894C257.601 96.3551 260.459 98.7793 260.459 102.703ZM258.503 102.703C258.503 99.7396 256.547 98.018 252.847 98.018H247.928V107.27H252.847C256.547 107.293 258.503 105.607 258.503 102.703Z" fill="#263238"/>
<path d="M275.356 109.917H265.05L262.836 114.859H260.799L269.254 96.3551H271.175L279.63 114.859H277.569L275.356 109.917ZM274.653 108.324L270.203 98.3928L265.764 108.324H274.653Z" fill="#263238"/>
<path d="M297.197 102.703C297.197 106.637 294.339 109.015 289.631 109.015H284.666V114.87H282.71V96.3668H289.631C294.339 96.3551 297.197 98.7793 297.197 102.703ZM295.241 102.703C295.241 99.7396 293.285 98.018 289.585 98.018H284.666V107.27H289.585C293.285 107.293 295.241 105.607 295.241 102.703Z" fill="#263238"/>
<path d="M314.506 113.161V114.859H301.424V96.3551H314.108V98.0415H303.38V104.635H312.948V106.31H303.38V113.172L314.506 113.161Z" fill="#263238"/>
<path d="M331.745 114.859L327.517 108.909C327.037 108.909 326.557 108.991 326.03 108.991H321.064V114.847H319.109V96.3433H326.03C330.714 96.3433 333.595 98.6855 333.595 102.691C333.67 104.004 333.291 105.303 332.521 106.369C331.751 107.435 330.637 108.204 329.367 108.546L333.888 114.894L331.745 114.859ZM331.639 102.702C331.639 99.7395 329.684 98.018 325.983 98.018H321.064V107.305H325.983C329.731 107.328 331.639 105.607 331.639 102.702V102.702Z" fill="#263238"/>
<path d="M372.535 123.724H371.891H370.017L362.791 123.876L336.207 124.321L248.514 125.551L160.797 126.605L134.213 126.851H126.987H125.113H124.469H125.113H126.987L134.213 126.699L160.785 126.254L248.502 125.024L336.207 123.97L362.779 123.724H370.017H371.891C372.312 123.701 372.535 123.724 372.535 123.724Z" fill="#263238"/>
<path d="M366.89 83.4493C366.89 83.4493 366.679 83.4493 366.258 83.4493H364.372L357.146 83.6016L330.562 84.0466L242.869 85.2177L155.153 86.2717L128.58 86.5177H121.354H119.469C119.047 86.5177 118.825 86.5177 118.825 86.5177H119.469H121.342L128.568 86.3654L155.153 85.9204L242.857 84.7493L330.562 83.6953L357.146 83.4493H364.372H366.246C366.679 83.4259 366.89 83.4493 366.89 83.4493Z" fill="#263238"/>
<path d="M361.432 156.012C361.432 156.175 340.083 156.316 313.756 156.316C287.429 156.316 266.068 156.175 266.068 156.012C266.068 155.848 287.406 155.707 313.756 155.707C340.106 155.707 361.432 155.848 361.432 156.012Z" fill="#263238"/>
<path d="M361.432 171.283C361.432 171.447 340.083 171.587 313.756 171.587C287.429 171.587 266.068 171.447 266.068 171.283C266.068 171.119 287.406 170.978 313.756 170.978C340.106 170.978 361.432 171.107 361.432 171.283Z" fill="#263238"/>
<path d="M361.432 186.613C361.432 186.777 340.083 186.917 313.756 186.917C287.429 186.917 266.068 186.777 266.068 186.613C266.068 186.449 287.406 186.308 313.756 186.308C340.106 186.308 361.432 186.379 361.432 186.613Z" fill="#263238"/>
<path d="M361.432 201.837C361.432 202.013 340.083 202.142 313.756 202.142C287.429 202.142 266.068 202.013 266.068 201.837C266.068 201.662 287.406 201.533 313.756 201.533C340.106 201.533 361.432 201.65 361.432 201.837Z" fill="#263238"/>
<path d="M361.432 217.062C361.432 217.238 340.083 217.366 313.756 217.366C287.429 217.366 266.068 217.238 266.068 217.062C266.068 216.886 287.406 216.757 313.756 216.757C340.106 216.757 361.432 216.921 361.432 217.062Z" fill="#263238"/>
<path d="M236.662 346.704C236.662 346.868 215.313 347.009 188.986 347.009C162.659 347.009 141.298 346.868 141.298 346.704C141.298 346.54 162.636 346.4 188.986 346.4C215.336 346.4 236.662 346.54 236.662 346.704Z" fill="#263238"/>
<path d="M236.662 365.208C236.662 365.372 215.313 365.512 188.986 365.512C162.659 365.512 141.298 365.372 141.298 365.208C141.298 365.044 162.636 364.903 188.986 364.903C215.336 364.903 236.662 365.032 236.662 365.208Z" fill="#263238"/>
<path d="M236.662 383.7C236.662 383.875 215.313 384.004 188.986 384.004C162.659 384.004 141.298 383.875 141.298 383.7C141.298 383.524 162.636 383.395 188.986 383.395C215.336 383.395 236.662 383.536 236.662 383.7Z" fill="#263238"/>
<path d="M236.662 402.203C236.662 402.367 215.313 402.508 188.986 402.508C162.659 402.508 141.298 402.367 141.298 402.203C141.298 402.039 162.636 401.899 188.986 401.899C215.336 401.899 236.662 402.028 236.662 402.203Z" fill="#263238"/>
<path d="M197.898 422.101C197.898 422.265 185.227 422.405 169.592 422.405C153.958 422.405 141.298 422.265 141.298 422.101C141.298 421.937 153.958 421.796 169.592 421.796C185.227 421.796 197.898 421.925 197.898 422.101Z" fill="#263238"/>
<path d="M317.316 232.357C316.649 232.452 315.976 232.491 315.302 232.474L309.809 232.568C305.125 232.568 298.766 232.661 291.692 232.661C284.619 232.661 278.201 232.661 273.563 232.568L268.071 232.474C267.401 232.491 266.731 232.452 266.068 232.357C266.731 232.261 267.401 232.222 268.071 232.24L273.563 232.146C278.248 232.146 284.619 232.052 291.692 232.052C298.766 232.052 305.172 232.052 309.809 232.146L315.302 232.24C315.976 232.222 316.649 232.261 317.316 232.357V232.357Z" fill="#263238"/>
<path d="M366.035 328.318C366.035 328.482 314.916 328.622 251.875 328.622C188.834 328.622 137.668 328.423 137.668 328.318C137.668 328.212 188.775 328.013 251.828 328.013C314.881 328.013 366.035 328.095 366.035 328.318Z" fill="#263238"/>
<path d="M366.035 308.104C366.035 308.268 314.916 308.409 251.875 308.409C188.833 308.409 137.714 308.268 137.714 308.104C137.714 307.94 188.822 307.8 251.875 307.8C314.927 307.8 366.035 307.929 366.035 308.104Z" fill="#263238"/>
<path d="M366.035 291.041C366.035 291.205 314.916 291.346 251.875 291.346C188.833 291.346 137.714 291.205 137.714 291.041C137.714 290.877 188.822 290.737 251.875 290.737C314.927 290.737 366.035 290.842 366.035 291.041Z" fill="#263238"/>
<path d="M244.38 277.773C244.38 277.937 219.576 278.077 188.986 278.077C158.397 278.077 133.581 277.937 133.581 277.773C133.581 277.609 158.385 277.468 188.986 277.468C219.587 277.468 244.38 277.597 244.38 277.773Z" fill="#468479"/>
<path d="M215.781 279.494C225.408 277.152 231.38 265.253 227.492 256.072C225.419 251.118 220.957 246.832 221.215 241.456C221.391 237.802 223.803 234.605 224.354 230.986C225.396 224.206 219.962 218.362 217.467 211.979C214.879 205.397 215.453 198.066 215.488 190.981C215.523 183.896 214.75 176.295 210.171 170.896L204.491 253.202L215.781 279.494Z" fill="#263238"/>
<path d="M151.604 153.388C143.254 158.506 137.445 167.079 134.037 176.248C130.629 185.418 129.282 195.244 128.263 204.988C125.571 230.733 124.667 256.634 125.558 282.504C157.178 286.497 189.021 290.502 220.817 288.359C215.301 252.055 211.811 215.75 216.226 179.352" fill="#263238"/>
<path d="M222.445 275.864C222.445 275.864 222.831 275.981 223.616 275.992C224.708 275.984 225.769 275.632 226.649 274.985C228.059 273.993 229.055 272.518 229.448 270.84C229.838 268.583 229.541 266.261 228.593 264.176C227.668 261.834 226.099 259.491 224.717 256.763C223.975 255.36 223.417 253.869 223.054 252.324C222.739 250.668 222.687 248.972 222.902 247.3C223.555 243.782 224.645 240.36 226.146 237.111C227.504 233.703 228.956 230.085 229.015 226.22C228.907 222.455 227.729 218.799 225.619 215.68C223.721 212.541 221.531 209.707 219.763 206.78C217.131 202.432 215.394 197.603 214.654 192.575C213.914 187.548 214.186 182.423 215.453 177.502C215.732 176.433 216.073 175.381 216.472 174.351L216.777 173.543C216.812 173.45 216.855 173.36 216.905 173.274C216.899 173.375 216.875 173.474 216.835 173.567C216.835 173.789 216.683 174.059 216.578 174.386C216.332 175.101 216.039 176.167 215.687 177.56C214.767 181.499 214.459 185.555 214.774 189.588C215.228 195.568 217.103 201.353 220.243 206.463C222 209.344 224.19 212.167 226.099 215.352C228.008 218.538 229.694 222.203 229.612 226.243C229.53 230.284 228.054 233.938 226.684 237.346C225.193 240.543 224.107 243.915 223.452 247.382C223.232 248.994 223.271 250.631 223.569 252.23C223.907 253.73 224.438 255.178 225.15 256.54C226.485 259.222 228.066 261.599 228.98 264.035C229.934 266.198 230.211 268.598 229.776 270.921C229.341 272.669 228.273 274.192 226.778 275.196C225.851 275.845 224.735 276.171 223.604 276.121C223.314 276.106 223.027 276.055 222.749 275.969C222.642 275.953 222.539 275.917 222.445 275.864V275.864Z" fill="#263238"/>
<path d="M303.696 280.923C302.104 282.668 300.616 283.007 299.89 279.611C298.286 272.128 294.304 266.951 292.29 266.307C290.275 265.663 288.694 268.286 290.088 270.195C291.404 272.421 292.409 274.817 293.074 277.316C293.689 279.297 293.97 281.367 293.906 283.441C293.847 285.232 293.73 286.825 293.613 288.242C293.613 288.242 292.864 296.44 290.58 300.246L310.735 314.979L318.745 305.938C318.745 305.938 323.957 301.464 322.458 294.73C320.959 287.996 314.951 279.424 314.951 279.424C312.89 278.416 318.324 266.623 320.432 262.782C322.54 258.941 321.603 256.411 319.155 256.833C317.504 257.126 310.782 268.731 308.779 272.584C307.69 274.692 305.617 278.826 303.696 280.923Z" fill="#FFBE9D"/>
<path d="M213.403 399.756C207.548 382.927 209.234 380.479 208.368 374.46L204.538 399.053L222.597 455.009L152.049 455.419H92.7903L105.52 383.243L92.2281 366.695L91.9471 373.722L51.649 379.191C51.649 379.191 70.176 323.106 79.2287 298.759C88.2815 274.411 105.52 266.401 105.52 266.401C138.311 255.193 162.788 254.537 191.141 261.447C202.759 264.325 213.286 270.527 221.435 279.294C229.584 288.061 235.002 299.012 237.025 310.81C237.025 311.137 237.142 311.465 237.189 311.782L247.998 363.674L290.51 295.749L315.677 315.529L290.065 362.128L268.481 402.238C253.163 422.019 220.781 417.814 213.439 399.779" fill="#455A64"/>
<path d="M111.294 323.13C111.119 323.13 111.751 319.862 112.208 315.834C112.664 311.805 112.793 308.514 112.981 308.514C113.246 310.974 113.191 313.458 112.817 315.904C112.627 318.369 112.116 320.798 111.294 323.13V323.13Z" fill="#263238"/>
<path d="M203.543 314.979C203.543 314.979 203.695 315.131 203.941 315.471L204.983 316.958C205.54 317.738 206.049 318.552 206.506 319.394C207.045 320.378 207.747 321.455 208.309 322.743C209 324.121 209.614 325.537 210.148 326.983C210.792 328.529 211.319 330.238 211.823 332.019C212.869 335.942 213.528 339.959 213.79 344.011C213.995 348.061 213.842 352.121 213.334 356.144C213.193 357.069 213.064 357.97 212.935 358.849C212.807 359.727 212.596 360.559 212.444 361.378C212.151 363.006 211.729 364.494 211.378 365.864C211.026 367.234 210.605 368.44 210.277 369.506C209.949 370.572 209.609 371.485 209.317 372.211L208.649 373.909C208.584 374.111 208.494 374.304 208.38 374.483C208.411 374.271 208.466 374.063 208.544 373.863C208.684 373.406 208.872 372.832 209.094 372.141C209.317 371.45 209.656 370.49 209.949 369.412C210.242 368.335 210.663 367.129 210.956 365.758C211.249 364.388 211.671 362.901 211.952 361.273C212.092 360.465 212.28 359.633 212.408 358.755C212.537 357.877 212.643 356.998 212.771 356.073C213.246 352.083 213.383 348.059 213.181 344.046C212.921 340.038 212.29 336.062 211.296 332.171C210.769 330.391 210.312 328.657 209.691 327.17C209.183 325.726 208.597 324.311 207.935 322.931C207.396 321.631 206.764 320.588 206.225 319.558C205.686 318.527 205.218 317.754 204.796 317.087L203.848 315.541C203.732 315.362 203.63 315.174 203.543 314.979V314.979Z" fill="#263238"/>
<path d="M247.507 381.884C247.282 378.555 247.255 375.216 247.425 371.883C247.404 368.546 247.58 365.21 247.952 361.894C248.19 365.222 248.217 368.563 248.034 371.895C248.069 375.233 247.893 378.569 247.507 381.884V381.884Z" fill="#263238"/>
<path d="M256.02 380.936C254.53 378.025 253.22 375.025 252.097 371.953C250.788 368.953 249.666 365.875 248.736 362.737C250.235 365.644 251.546 368.644 252.659 371.719C253.966 374.72 255.088 377.798 256.02 380.936V380.936Z" fill="#263238"/>
<path d="M210.675 417.732H210.371L209.492 417.65L208.075 417.51C207.43 417.43 206.78 417.407 206.131 417.44C201.983 417.427 197.856 418.022 193.881 419.208C188.822 420.566 183.002 422.862 176.315 424.818C172.826 425.894 169.228 426.577 165.587 426.855C161.65 427.169 157.69 426.663 153.958 425.368C150.299 423.933 146.772 422.182 143.418 420.133C140.334 418.247 137.098 416.621 133.744 415.273C127.977 413.182 121.759 412.653 115.721 413.739C113.405 414.129 111.136 414.761 108.952 415.624C107.297 416.26 105.692 417.02 104.15 417.896C102.897 418.657 101.925 419.255 101.316 419.723L100.59 420.227C100.426 420.332 100.344 420.391 100.333 420.379C101.481 419.378 102.715 418.48 104.022 417.697C105.559 416.793 107.164 416.01 108.823 415.355C111.022 414.447 113.31 413.776 115.651 413.352C121.768 412.204 128.081 412.701 133.944 414.793C137.336 416.135 140.608 417.764 143.722 419.665C147.029 421.694 150.509 423.426 154.122 424.841C157.774 426.113 161.65 426.612 165.505 426.305C169.104 426.036 172.662 425.373 176.115 424.326C182.767 422.405 188.623 420.156 193.682 418.845C197.688 417.69 201.846 417.149 206.014 417.24C206.665 417.234 207.315 417.281 207.958 417.381L209.387 417.58L210.253 417.721C210.394 417.703 210.536 417.707 210.675 417.732V417.732Z" fill="#F5F5F5"/>
<path d="M207.08 373.406C206.765 373.479 206.443 373.523 206.119 373.535L204.948 373.64C204.492 373.699 203.976 373.851 203.391 373.968C200.123 374.854 197.054 376.357 194.35 378.395C192.593 379.624 190.743 381.088 188.752 382.646C186.646 384.348 184.454 385.939 182.182 387.412C179.67 389.043 176.897 390.232 173.984 390.926C172.418 391.264 170.819 391.425 169.218 391.406C167.577 391.367 165.943 391.182 164.334 390.855C157.811 389.497 152.19 386.511 147.095 384.016C142.637 381.644 137.895 379.849 132.983 378.676C129.683 377.915 126.259 377.859 122.935 378.512C122.035 378.71 121.151 378.972 120.288 379.297C119.992 379.421 119.687 379.523 119.375 379.601C119.65 379.434 119.94 379.293 120.242 379.179C121.092 378.802 121.973 378.5 122.877 378.278C126.235 377.528 129.718 377.528 133.077 378.278C138.022 379.403 142.8 381.163 147.294 383.513C152.4 385.984 158.01 388.935 164.404 390.258C165.979 390.575 167.577 390.755 169.183 390.797C170.736 390.816 172.287 390.667 173.808 390.352C176.683 389.676 179.421 388.512 181.901 386.909C184.16 385.458 186.345 383.895 188.447 382.224C190.45 380.678 192.324 379.238 194.116 378.008C196.881 375.979 200.022 374.518 203.356 373.71C203.953 373.605 204.527 373.488 204.937 373.441H206.108C206.431 373.411 206.755 373.399 207.08 373.406Z" fill="#F5F5F5"/>
<path d="M271.936 392.284C271.827 392.466 271.697 392.635 271.55 392.788C271.162 393.257 270.735 393.692 270.273 394.088C268.549 395.529 266.53 396.576 264.359 397.156C261.14 398.005 257.784 398.208 254.486 397.753C250.505 397.107 246.587 396.12 242.775 394.802C238.978 393.493 235.052 392.59 231.064 392.109C227.813 391.825 224.538 392.224 221.449 393.28C219.371 393.989 217.476 395.149 215.898 396.676C215.48 397.1 215.088 397.549 214.727 398.023C214.606 398.199 214.465 398.36 214.305 398.503C214.385 398.306 214.492 398.121 214.622 397.952C214.948 397.44 215.321 396.958 215.734 396.512C217.288 394.883 219.201 393.64 221.32 392.881C224.454 391.738 227.798 391.286 231.123 391.558C235.148 392.004 239.111 392.895 242.939 394.217C246.722 395.532 250.608 396.531 254.557 397.203C257.789 397.665 261.08 397.506 264.253 396.734C266.378 396.2 268.371 395.235 270.109 393.9C271.339 392.928 271.877 392.226 271.936 392.284Z" fill="#F5F5F5"/>
<path d="M292.091 358.17C292.091 358.17 291.997 358.287 291.775 358.474C291.456 358.751 291.106 358.991 290.732 359.188C289.328 359.905 287.765 360.256 286.188 360.207C283.868 360.123 281.591 359.557 279.501 358.544C277.159 357.467 274.735 355.921 272.077 354.645C269.857 353.475 267.389 352.856 264.88 352.84C262.371 352.824 259.895 353.41 257.66 354.551C255.819 355.532 254.147 356.801 252.706 358.31C252.706 358.31 252.777 358.17 252.941 357.935C253.192 357.598 253.466 357.277 253.76 356.975C254.838 355.852 256.087 354.907 257.461 354.176C259.511 353.073 261.777 352.43 264.101 352.291C266.944 352.176 269.767 352.797 272.299 354.094C275.004 355.394 277.382 356.952 279.689 358.029C281.705 359.039 283.903 359.632 286.153 359.774C287.671 359.863 289.188 359.59 290.58 358.978C291.587 358.521 292.056 358.111 292.091 358.17Z" fill="#F5F5F5"/>
<path d="M306.144 328.119C305.698 328.329 305.241 328.513 304.774 328.669C303.552 329.22 302.377 329.871 301.26 330.613C299.606 331.761 297.831 332.723 295.967 333.483C293.639 334.367 291.161 334.792 288.671 334.736C286.18 334.683 283.724 334.138 281.445 333.131C279.595 332.309 277.887 331.199 276.386 329.84C275.37 328.941 274.465 327.923 273.692 326.807C273.411 326.409 273.224 326.093 273.095 325.87C272.966 325.648 272.92 325.531 272.943 325.519C274.065 326.953 275.315 328.282 276.679 329.489C278.188 330.762 279.877 331.803 281.691 332.581C283.914 333.533 286.3 334.046 288.718 334.091C291.131 334.137 293.533 333.74 295.803 332.92C297.647 332.195 299.413 331.285 301.073 330.203C302.224 329.486 303.444 328.885 304.715 328.412C305.173 328.24 305.655 328.141 306.144 328.119V328.119Z" fill="#F5F5F5"/>
<path d="M244.789 349.093C244.789 349.152 244.309 349 243.466 349.011C242.264 349.052 241.087 349.364 240.023 349.925C238.459 350.815 236.988 351.859 235.631 353.04C233.891 354.489 231.869 355.562 229.694 356.19C225.716 357.338 221.464 357.065 217.666 355.417C216.531 354.927 215.461 354.297 214.481 353.544C214.113 353.276 213.779 352.966 213.485 352.618C214.855 353.553 216.31 354.357 217.83 355.019C221.561 356.508 225.681 356.714 229.541 355.605C234.132 354.434 236.908 350.78 239.859 349.538C240.987 348.986 242.235 348.724 243.489 348.777C243.827 348.791 244.162 348.851 244.485 348.953C244.684 349.023 244.801 349.07 244.789 349.093Z" fill="#F5F5F5"/>
<path d="M237.212 319.359C235.843 318.543 234.364 317.928 232.821 317.532C231.147 317.151 229.414 317.115 227.726 317.427C225.658 317.779 223.722 318.676 222.117 320.026C220.605 321.518 219.193 323.106 217.889 324.781C216.76 326.184 215.264 327.247 213.567 327.849C212.42 328.28 211.161 328.309 209.996 327.931C209.684 327.827 209.391 327.673 209.129 327.475C208.953 327.346 208.871 327.264 208.883 327.252C208.895 327.24 209.293 327.486 210.054 327.697C211.173 327.971 212.351 327.88 213.415 327.44C215.009 326.808 216.404 325.761 217.456 324.406C218.752 322.688 220.173 321.068 221.707 319.558C223.377 318.145 225.402 317.218 227.562 316.876C229.323 316.577 231.128 316.657 232.856 317.11C234.016 317.403 235.12 317.886 236.123 318.539C236.53 318.749 236.898 319.026 237.212 319.359Z" fill="#F5F5F5"/>
<path d="M144.144 349.585C144.144 349.527 145.116 349.901 146.919 350.182C149.472 350.538 152.068 350.423 154.578 349.843C158.305 348.962 161.881 347.534 165.189 345.603C168.983 343.542 172.977 340.919 177.544 338.729C181.849 336.704 186.481 335.466 191.223 335.075C195.082 334.744 198.969 334.957 202.77 335.707C205.326 336.231 207.822 337.016 210.218 338.05C211.073 338.389 211.705 338.741 212.139 338.951C212.367 339.046 212.583 339.168 212.783 339.315C212.783 339.315 211.834 338.928 210.136 338.272C207.724 337.347 205.23 336.649 202.688 336.188C198.922 335.503 195.081 335.334 191.269 335.684C186.602 336.101 182.043 337.334 177.802 339.326C173.293 341.446 169.299 344.093 165.458 346.142C162.095 348.072 158.458 349.478 154.672 350.311C152.106 350.861 149.458 350.912 146.872 350.464C146.175 350.337 145.49 350.153 144.823 349.913C144.583 349.835 144.354 349.725 144.144 349.585Z" fill="#F5F5F5"/>
<path d="M152.658 294.695C152.458 294.863 152.238 295.004 152.002 295.117C151.347 295.468 150.661 295.758 149.953 295.983C147.317 296.757 144.534 296.89 141.837 296.37C139.975 296.046 138.154 295.523 136.403 294.812C134.4 293.991 132.444 293.057 130.547 292.013C126.554 289.847 122.268 287.247 117.244 285.853C114.808 285.155 112.309 284.704 109.784 284.506C108.612 284.366 107.359 284.401 106.188 284.366C105.017 284.331 103.846 284.366 102.733 284.553C98.7475 284.928 94.8376 285.882 91.1277 287.387C88.6363 288.425 86.2483 289.695 83.9956 291.182C83.1993 291.709 82.6254 292.177 82.2038 292.458C82.0067 292.624 81.7904 292.766 81.5597 292.88C81.7293 292.685 81.922 292.512 82.1335 292.365C82.52 292.048 83.0821 291.557 83.8668 290.983C86.0852 289.405 88.4641 288.067 90.9638 286.989C94.6958 285.41 98.6433 284.4 102.675 283.991C103.846 283.851 105.017 283.839 106.188 283.78C107.359 283.722 108.612 283.78 109.854 283.909C112.416 284.099 114.951 284.554 117.419 285.268C122.537 286.685 126.87 289.343 130.829 291.51C132.689 292.565 134.609 293.511 136.579 294.344C138.29 295.062 140.072 295.6 141.896 295.948C144.537 296.496 147.269 296.432 149.883 295.761C150.827 295.459 151.754 295.103 152.658 294.695V294.695Z" fill="#F5F5F5"/>
<path d="M232.984 297.869C232.984 297.869 232.879 297.997 232.621 298.197C232.262 298.488 231.869 298.736 231.45 298.934C229.828 299.644 228.039 299.887 226.286 299.637C223.696 299.287 221.224 298.332 219.072 296.85C216.589 295.292 214.176 293.184 211.342 291.474C208.686 289.855 205.693 288.869 202.594 288.593C200.066 288.351 197.515 288.545 195.052 289.167C192.793 289.811 190.624 290.74 188.599 291.931C188.599 291.931 188.716 291.802 188.974 291.615C189.347 291.325 189.738 291.059 190.145 290.819C191.637 289.915 193.244 289.218 194.923 288.746C197.433 288.053 200.046 287.811 202.641 288.031C205.828 288.293 208.911 289.291 211.647 290.947C214.539 292.704 216.94 294.824 219.364 296.381C221.441 297.836 223.819 298.805 226.321 299.215C228.011 299.493 229.744 299.319 231.345 298.712C232.422 298.29 232.949 297.869 232.984 297.869Z" fill="#F5F5F5"/>
<path d="M110.732 325.741C110.148 325.744 109.565 325.7 108.987 325.613L104.303 325.027L97.276 324.078C94.641 323.715 91.76 323.329 88.7151 323.2C85.8678 323.041 83.0121 323.266 80.2245 323.868C77.9563 324.379 75.7853 325.253 73.7951 326.456C71.9828 327.614 70.3693 329.058 69.017 330.73C69.0696 330.589 69.1405 330.455 69.2278 330.332C69.4529 329.961 69.7074 329.609 69.989 329.278C71.0042 328.035 72.2098 326.96 73.5609 326.093C75.5662 324.807 77.7762 323.872 80.0957 323.329C82.932 322.68 85.8451 322.432 88.7503 322.591C91.6299 322.747 94.4993 323.056 97.3462 323.516L104.373 324.594L109.057 325.378C109.627 325.44 110.188 325.562 110.732 325.741Z" fill="#F5F5F5"/>
<path d="M210.066 208.196C210.562 208.883 210.924 209.658 211.131 210.48C211.72 212.723 211.78 215.072 211.307 217.343C210.85 220.247 209.574 223.491 208.883 227.215C208.51 229.149 208.51 231.137 208.883 233.071C209.396 235.146 210.037 237.188 210.804 239.184C211.59 241.228 211.987 243.4 211.975 245.59C211.842 247.627 211.379 249.628 210.604 251.516C209.223 255.1 207.7 258.215 207.513 261.096C207.18 262.618 207.276 264.203 207.788 265.675C208.301 267.146 209.211 268.448 210.417 269.434C210.22 269.344 210.035 269.23 209.867 269.094C209.361 268.713 208.919 268.254 208.555 267.736C207.295 265.753 206.773 263.39 207.079 261.061C207.213 259.458 207.568 257.882 208.133 256.376C208.696 254.76 209.433 253.085 210.077 251.293C210.814 249.462 211.253 247.525 211.377 245.555C211.377 243.435 210.98 241.334 210.206 239.36C209.433 237.338 208.792 235.269 208.286 233.165C207.887 231.158 207.887 229.093 208.286 227.086C209.023 223.28 210.335 220.06 210.827 217.237C211.32 215.02 211.32 212.721 210.827 210.503C210.626 209.718 210.372 208.947 210.066 208.196V208.196Z" fill="#455A64"/>
<path d="M179.5 271.566C181.549 260.1 183.927 248.073 183.927 248.073C183.927 248.073 199.151 248.225 205.58 229.488C211.74 211.628 216.191 168.59 216.191 168.59C206.45 162.529 195.088 159.593 183.631 160.177C172.174 160.761 161.169 164.837 152.096 171.857V171.857L136.941 265.218C135.185 276.051 143.101 286.193 154.719 287.985C166.453 289.858 177.544 282.48 179.5 271.566Z" fill="#FFBE9D"/>
<path d="M204.878 200.842C204.771 201.488 204.416 202.066 203.889 202.453C203.362 202.841 202.704 203.006 202.056 202.915C201.737 202.883 201.428 202.788 201.147 202.635C200.865 202.482 200.617 202.275 200.416 202.026C200.216 201.776 200.067 201.489 199.978 201.181C199.89 200.873 199.864 200.551 199.901 200.233C200.01 199.589 200.366 199.012 200.893 198.626C201.419 198.239 202.076 198.072 202.723 198.16C203.046 198.183 203.36 198.271 203.646 198.421C203.933 198.571 204.185 198.778 204.387 199.03C204.59 199.282 204.738 199.573 204.822 199.885C204.907 200.196 204.926 200.522 204.878 200.842V200.842Z" fill="#263238"/>
<path d="M209.375 198.781C209.012 199.05 207.384 197.329 204.691 196.872C201.997 196.415 199.842 197.399 199.608 197.012C199.503 196.848 199.912 196.321 200.873 195.841C202.164 195.245 203.609 195.064 205.007 195.326C206.392 195.559 207.666 196.232 208.637 197.247C209.375 198.031 209.551 198.664 209.375 198.781Z" fill="#263238"/>
<path d="M177.568 196.509C177.464 197.156 177.109 197.736 176.581 198.124C176.053 198.512 175.394 198.676 174.745 198.582C174.424 198.559 174.111 198.471 173.825 198.322C173.54 198.173 173.288 197.967 173.086 197.716C172.884 197.466 172.735 197.176 172.65 196.866C172.565 196.555 172.545 196.23 172.59 195.912C172.7 195.267 173.055 194.689 173.581 194.3C174.108 193.912 174.764 193.742 175.413 193.827C175.731 193.859 176.04 193.954 176.322 194.107C176.603 194.26 176.852 194.467 177.052 194.716C177.253 194.966 177.402 195.253 177.49 195.561C177.579 195.869 177.605 196.191 177.568 196.509V196.509Z" fill="#263238"/>
<path d="M181.455 194.811C181.092 195.08 179.465 193.358 176.771 192.902C174.077 192.445 171.923 193.429 171.688 193.042C171.571 192.878 171.981 192.351 172.953 191.871C174.24 191.274 175.681 191.094 177.075 191.356C178.463 191.591 179.74 192.264 180.718 193.277C181.455 194.108 181.631 194.74 181.455 194.811Z" fill="#263238"/>
<path d="M187.627 216.277C189.109 216.095 190.607 216.095 192.089 216.277C192.78 216.277 193.448 216.277 193.647 215.856C193.826 215.162 193.789 214.431 193.541 213.759C193.202 212.003 192.827 210.164 192.452 208.243C190.953 200.385 190.005 193.979 190.321 193.921C190.637 193.862 192.101 200.174 193.6 208.033C193.951 209.965 194.279 211.815 194.607 213.572C194.888 214.467 194.847 215.433 194.49 216.301C194.348 216.524 194.158 216.711 193.932 216.849C193.707 216.987 193.453 217.072 193.19 217.097C192.801 217.145 192.408 217.145 192.019 217.097C190.527 217.007 189.052 216.731 187.627 216.277V216.277Z" fill="#263238"/>
<path d="M183.927 248.073C174.828 246.618 166.313 242.66 159.333 236.643C159.333 236.643 163.257 250.989 182.861 252.582L183.927 248.073Z" fill="#EB996E"/>
<path d="M185.379 222.496C184.986 221.768 184.414 221.153 183.718 220.709C183.021 220.264 182.222 220.004 181.397 219.954C180.802 219.902 180.202 219.972 179.634 220.159C179.066 220.346 178.542 220.647 178.095 221.044C177.657 221.423 177.348 221.928 177.209 222.49C177.071 223.052 177.11 223.643 177.322 224.182C177.665 224.733 178.164 225.17 178.757 225.435C179.35 225.7 180.008 225.781 180.648 225.669C181.985 225.454 183.264 224.967 184.407 224.241C184.748 224.085 185.055 223.862 185.309 223.585C185.431 223.456 185.512 223.293 185.541 223.118C185.571 222.943 185.547 222.763 185.473 222.601" fill="#EB996E"/>
<path d="M179.476 216.746C179.922 216.746 179.476 219.685 181.526 222.168C183.575 224.651 186.761 224.873 186.714 225.283C186.714 225.471 185.929 225.717 184.629 225.529C182.935 225.249 181.39 224.387 180.261 223.093C179.187 221.84 178.642 220.22 178.739 218.573C178.844 217.343 179.289 216.687 179.476 216.746Z" fill="#263238"/>
<path d="M165.13 158.143C170.283 169.503 186.972 183.322 199.854 188.229C198.683 185.887 191.445 179.293 190.274 176.951C195.474 182.596 202.981 190.267 210.933 192.176C211.849 192.48 212.833 192.513 213.767 192.269C214.286 191.991 214.735 191.597 215.078 191.117C215.421 190.638 215.649 190.087 215.746 189.505C217.284 183.765 218.195 177.875 218.463 171.939C218.739 166.94 217.092 162.025 213.861 158.202C209.469 153.259 202.302 150.894 195.392 149.43C189.607 148.259 183.552 147.416 177.825 148.516C172.099 149.617 166.793 152.896 165.072 157.733" fill="#263238"/>
<path d="M134.4 200.924C134.302 196.515 134.467 192.104 134.892 187.714C136.192 177.677 139.319 141.209 172.989 150.589L169.405 159.958C169.405 159.958 171.993 183.381 154.708 196.029C154.708 196.029 154.778 219.451 142.821 227.918C142.821 227.918 134.471 212.026 134.4 200.982" fill="#263238"/>
<path d="M155.433 194.424C153.445 193.619 151.273 193.376 149.156 193.722C147.03 194.093 145.137 195.288 143.886 197.047C142.732 198.875 142.313 201.072 142.715 203.196C143.127 205.319 144.016 207.322 145.315 209.051C146.155 210.345 147.286 211.424 148.617 212.202C149.288 212.575 150.041 212.778 150.809 212.792C151.577 212.807 152.336 212.632 153.021 212.284" fill="#FFBE9D"/>
<path d="M152.084 206.709C152.307 206.838 151.194 207.88 149.402 207.084C148.929 206.826 148.512 206.477 148.174 206.057C147.836 205.637 147.585 205.154 147.435 204.636C147.058 203.477 146.911 202.256 147.002 201.041C147.072 199.728 147.608 198.482 148.512 197.528C148.889 197.117 149.356 196.797 149.875 196.594C150.395 196.391 150.954 196.31 151.51 196.357C153.454 196.661 153.853 198.101 153.595 198.101C153.337 198.101 152.775 197.411 151.452 197.493C150.128 197.574 148.711 198.968 148.606 201.1C148.501 203.231 148.934 205.339 149.976 206.018C151.018 206.697 151.99 206.522 152.084 206.709Z" fill="#EB996E"/>
<path d="M150.315 215.656C147.224 216.828 146.006 220.786 146.486 224.077C146.966 227.368 148.676 230.342 149.835 233.446C150.995 236.549 151.533 240.273 149.753 243.084C148.313 245.368 145.596 246.691 144.483 249.139C142.492 253.519 146.568 258.063 147.997 262.653C148.951 265.753 148.652 269.103 147.164 271.984C145.676 274.866 143.117 277.049 140.038 278.065C136.958 279.082 133.603 278.85 130.692 277.42C127.781 275.991 125.547 273.476 124.469 270.418C121.178 261.049 129.622 250.86 127.244 241.234" fill="#263238"/>
<path d="M147.563 154.559C138.651 161.692 128.263 178.591 127.514 189.974C127.022 197.247 128.392 204.988 125.101 211.487C123.239 215.165 120.077 217.987 117.407 221.137C114.737 224.288 112.43 228.164 112.84 232.275C113.437 238.072 119.187 242.229 120.124 247.979C120.686 251.411 119.433 254.842 118.66 258.238C117.887 261.634 117.712 265.558 119.984 268.193C123.638 272.409 133.92 281.965 136.695 277.117C139.471 272.268 136.227 254.35 135.805 248.776C133.596 219.347 136.247 189.755 143.652 161.188" fill="#263238"/>
<path d="M117.232 260.627C117.662 260.619 118.09 260.564 118.508 260.463C119.005 260.312 119.47 260.07 119.878 259.749C120.425 259.297 120.875 258.739 121.202 258.109C121.624 257.332 121.88 256.474 121.951 255.592C122.021 254.542 121.815 253.492 121.354 252.547C120.114 250.262 118.312 248.332 116.119 246.937C114.948 246.082 113.683 245.216 112.453 244.185C111.132 243.139 110.016 241.856 109.163 240.402C108.739 239.614 108.427 238.77 108.237 237.896C108.066 236.989 108.011 236.065 108.074 235.144C108.263 233.234 108.824 231.381 109.725 229.687C111.481 226.173 114.55 223.351 117.407 220.318C118.887 218.813 120.21 217.161 121.354 215.387C122.469 213.54 123.261 211.516 123.696 209.403C124.61 205.093 124.34 200.725 124.2 196.521C124.13 194.436 124.059 192.363 124.118 190.337C124.118 189.33 124.223 188.323 124.352 187.339C124.411 186.847 124.446 186.355 124.516 185.863L124.797 184.435C126.18 177.675 129.364 171.415 134.014 166.317C135.792 164.384 137.753 162.627 139.869 161.071C140.841 160.427 141.731 159.806 142.586 159.302C143.441 158.799 144.238 158.354 144.929 158.014L146.908 157.113C147.482 156.878 147.997 156.714 148.395 156.574L149.32 156.258C149.422 156.214 149.528 156.183 149.636 156.164C149.636 156.164 149.543 156.164 149.344 156.316L148.442 156.679C148.044 156.855 147.54 157.031 146.978 157.276L145.034 158.225C144.308 158.576 143.547 159.068 142.692 159.548C141.837 160.029 140.982 160.72 140.033 161.34C137.951 162.911 136.022 164.676 134.271 166.61C129.731 171.678 126.629 177.869 125.289 184.54C125.195 185.008 125.113 185.477 125.02 185.957C124.926 186.437 124.914 186.917 124.867 187.398C124.739 188.37 124.68 189.353 124.645 190.36C124.645 192.363 124.645 194.413 124.739 196.497C124.891 200.666 125.172 205.07 124.235 209.496C123.779 211.677 122.955 213.764 121.799 215.668C120.631 217.476 119.281 219.159 117.77 220.692C114.878 223.726 111.915 226.466 110.158 229.886C109.287 231.51 108.738 233.288 108.542 235.12C108.476 235.993 108.524 236.871 108.683 237.732C108.853 238.55 109.141 239.339 109.537 240.074C110.347 241.484 111.416 242.728 112.688 243.74C113.859 244.759 115.135 245.637 116.306 246.504C118.537 247.974 120.355 249.989 121.588 252.359C122.064 253.358 122.266 254.466 122.174 255.568C122.081 256.487 121.797 257.376 121.342 258.18C120.986 258.823 120.504 259.389 119.925 259.843C119.491 260.166 118.998 260.401 118.473 260.534C118.156 260.614 117.828 260.646 117.501 260.627H117.232Z" fill="#263238"/>
<path d="M130.758 276.402C130.629 276.384 130.503 276.349 130.384 276.297C130.037 276.134 129.726 275.903 129.47 275.618C128.988 275.058 128.639 274.396 128.448 273.682C128.257 272.969 128.231 272.221 128.369 271.495C128.592 269.54 130.091 267.642 131.297 265.312C131.928 264.057 132.264 262.676 132.281 261.272C132.264 259.695 131.959 258.135 131.379 256.669C130.755 255.034 129.97 253.465 129.037 251.985C128.065 250.45 126.905 248.928 125.804 247.3C124.622 245.609 123.617 243.799 122.806 241.901C121.915 239.863 121.607 237.617 121.916 235.413C122.363 233.114 123.441 230.985 125.032 229.265C126.554 227.461 128.346 225.892 130.02 224.159C131.737 222.454 133.158 220.475 134.225 218.303C135.262 216.022 135.972 213.605 136.333 211.124C137.129 206.089 136.918 201.065 136.965 196.228C136.965 193.804 137.047 191.415 137.246 189.096L137.422 187.351L137.703 185.653C137.883 184.531 138.125 183.421 138.429 182.327C140.541 174.68 144.738 167.771 150.55 162.371C152.795 160.318 155.239 158.493 157.846 156.925C159.017 156.293 160.106 155.66 161.149 155.192C162.191 154.723 163.151 154.278 164.041 154.021L166.384 153.213C167.075 153.002 167.684 152.885 168.164 152.756L169.265 152.498C169.388 152.467 169.513 152.444 169.639 152.428C169.524 152.485 169.402 152.528 169.276 152.557L168.187 152.873C167.719 153.014 167.121 153.166 166.442 153.377L164.1 154.243C163.222 154.56 162.296 155.04 161.254 155.496C160.212 155.953 159.158 156.668 157.998 157.265C155.435 158.847 153.034 160.679 150.831 162.734C145.08 168.132 140.947 175.026 138.898 182.643C138.59 183.715 138.356 184.807 138.195 185.91L137.914 187.585L137.738 189.307C137.551 191.649 137.48 193.991 137.48 196.333C137.648 201.338 137.44 206.349 136.86 211.323C136.483 213.86 135.754 216.332 134.693 218.666C133.601 220.911 132.136 222.955 130.36 224.709C128.674 226.454 126.847 228.024 125.395 229.769C123.867 231.402 122.829 233.43 122.397 235.624C122.09 237.73 122.378 239.88 123.228 241.831C124.01 243.699 124.983 245.481 126.132 247.148C127.221 248.776 128.381 250.31 129.353 251.832C130.308 253.311 131.116 254.88 131.765 256.517C132.341 258.04 132.638 259.655 132.644 261.283C132.616 262.74 132.251 264.171 131.578 265.464C130.313 267.806 128.826 269.668 128.58 271.531C128.435 272.228 128.445 272.948 128.611 273.641C128.777 274.333 129.095 274.98 129.54 275.536C129.879 275.909 130.295 276.204 130.758 276.402V276.402Z" fill="#455A64"/>
<path d="M213.298 191.895C213.151 191.754 213.021 191.597 212.912 191.426L211.905 189.986C210.991 188.662 209.761 186.859 208.274 184.669L196.469 166.997C194.347 163.747 191.817 160.783 188.939 158.178C186.566 156.09 183.77 154.539 180.741 153.634C178.7 153.025 176.559 152.826 174.441 153.049C172.942 153.236 172.098 153.517 172.098 153.447C172.277 153.352 172.466 153.278 172.661 153.224C173.222 153.039 173.798 152.902 174.382 152.814C176.537 152.494 178.735 152.63 180.835 153.213C183.95 154.081 186.834 155.629 189.279 157.745C192.218 160.359 194.798 163.352 196.949 166.645C201.634 173.555 205.651 179.867 208.661 184.423C210.078 186.66 211.26 188.498 212.174 189.857L213.087 191.356C213.183 191.525 213.253 191.706 213.298 191.895Z" fill="#455A64"/>
<path d="M163.573 263.672L178.692 328.704L191.972 326.362L181.338 260.627L163.573 263.672Z" fill="#263238"/>
<path d="M177.111 255.31C181.456 253.882 182.721 246.258 182.721 241.69C182.721 235.507 177.263 232.427 172.731 231.83C170.451 231.579 168.149 232.022 166.125 233.1C164.1 234.178 162.448 235.841 161.383 237.873C160.379 239.937 159.983 242.244 160.24 244.524C160.497 246.805 161.397 248.966 162.835 250.755C164.32 252.502 166.241 253.823 168.404 254.585C170.566 255.346 172.892 255.52 175.144 255.088" fill="#263238"/>
<path d="M153.688 252.312L157.155 279.225L197.781 270.57L190.66 246.562L153.688 252.312Z" fill="#468479"/>
<g opacity="0.4">
<path opacity="0.4" d="M192.64 253.238L163.573 257.114L166.629 268.169L195.497 262.899L192.64 253.238Z" fill="#FAFAFA"/>
</g>
<path d="M182.72 242.335C181.645 242.642 180.543 242.846 179.43 242.944C177.392 243.225 174.558 243.529 171.419 243.728C168.281 243.927 165.435 243.998 163.374 243.974C162.258 244.029 161.14 243.97 160.036 243.799C161.135 243.613 162.248 243.527 163.362 243.541C165.423 243.447 168.257 243.318 171.384 243.119C174.511 242.92 177.333 242.686 179.383 242.51C180.488 242.349 181.605 242.291 182.72 242.335V242.335Z" fill="#FAFAFA"/>
<path d="M166.711 277.187L183.435 273.627V275.266L167.004 278.428L166.711 277.187Z" fill="#263238"/>
<path d="M139.541 313.304L146.755 309.51C146.755 309.51 158.736 284.038 162.05 282.703C164.779 281.602 180.261 276.964 185.648 275.348C186.142 275.202 186.674 275.257 187.127 275.5C187.581 275.743 187.921 276.156 188.072 276.648V276.648C188.228 277.125 188.193 277.644 187.974 278.096C187.756 278.548 187.372 278.897 186.901 279.072L168.889 285.443L169.264 286.942L187.545 281.473C189.454 281.04 191.562 283.616 185.777 285.994L170.67 291.275L170.962 292.224L187.124 289.589C187.932 289.448 190.122 289.214 190.379 289.999C190.379 289.999 191.925 291.65 187.686 293.571C186.222 294.226 172.649 297.951 172.649 297.951L173.539 299.005L188.389 297.681C188.909 297.639 189.427 297.793 189.839 298.114C190.251 298.435 190.527 298.899 190.614 299.415V299.415C190.694 299.937 190.571 300.471 190.271 300.907C189.971 301.342 189.515 301.646 188.998 301.757L173.703 305.001L165.446 317.169C163.689 319.766 161.099 321.686 158.103 322.614L143.219 327.24L139.541 313.304Z" fill="#FFBE9D"/>
<path d="M185.683 275.348C185.683 275.348 185.508 275.454 185.168 275.583L183.622 276.121L177.919 277.96L169.475 280.665L164.475 282.234L163.175 282.644L162.507 282.855C162.298 282.904 162.096 282.982 161.91 283.089C161.18 283.632 160.546 284.293 160.036 285.045C157.979 288.006 156.12 291.101 154.473 294.309C152.904 297.248 151.545 299.93 150.421 302.19L147.774 307.542C147.482 308.128 147.247 308.608 147.048 308.994C146.849 309.381 146.779 309.498 146.756 309.486C146.789 309.3 146.848 309.118 146.931 308.948L147.564 307.449C148.126 306.149 148.957 304.287 150.035 302.003C151.112 299.719 152.377 297.014 153.97 294.051C155.61 290.803 157.472 287.673 159.544 284.682C160.101 283.86 160.799 283.142 161.605 282.562C161.828 282.442 162.064 282.347 162.308 282.281L162.976 282.071L164.287 281.672L169.3 280.126L177.79 277.55L183.529 275.864L185.086 275.442C185.281 275.39 185.482 275.358 185.683 275.348V275.348Z" fill="#EB996E"/>
<path d="M58.3365 407.836C61.0255 410.392 64.2133 412.364 67.7 413.63C71.1868 414.895 74.8974 415.427 78.5994 415.192C82.3013 414.957 85.9147 413.959 89.2132 412.262C92.5117 410.565 95.4241 408.205 97.7679 405.33L161.008 327.334L138.523 298.806L59.2031 368.136C56.3961 370.598 54.1319 373.618 52.5541 377.002C50.9763 380.387 50.1195 384.062 50.038 387.795C49.9565 391.529 50.6521 395.238 52.0807 398.688C53.5093 402.138 55.6397 405.254 58.3365 407.836V407.836Z" fill="#455A64"/>
<path d="M101.492 402.098C101.492 402.098 101.574 401.957 101.761 401.7C101.948 401.442 102.241 401.067 102.604 400.599L105.918 396.348L118.344 380.608L160.785 327.147V327.51L145.198 307.765L138.288 298.993H138.721C115.615 319.324 95.4837 337.909 80.7862 351.037C73.455 357.619 67.5292 362.889 63.4069 366.484L58.7224 370.595L57.481 371.649L57.0477 372C57.0477 372 57.1765 371.86 57.4459 371.614L58.617 370.513L63.3015 366.309L80.5637 350.733C95.1792 337.523 115.264 318.89 138.37 298.536L138.616 298.325L138.815 298.583L145.725 307.343L161.254 327.147L161.394 327.334L161.254 327.521L118.648 380.866L106.047 396.5L102.663 400.693L101.773 401.758L101.492 402.098Z" fill="#263238"/>
<path d="M109.561 391.242C109.17 391.983 108.627 392.633 107.968 393.151C106.147 394.559 103.911 395.325 101.609 395.329C100.028 395.386 98.4472 395.196 96.9244 394.767C95.2005 394.248 93.533 393.558 91.9472 392.706C88.5861 390.984 85.1664 388.56 81.0675 387.26C77.2048 386.032 73.1263 385.633 69.0987 386.089C65.8147 386.494 62.6186 387.431 59.6361 388.864C57.6279 389.845 55.738 391.051 54.0031 392.46C52.8319 393.49 52.1644 394.099 52.1293 394.052C52.0941 394.006 52.2581 393.877 52.5392 393.572C52.8202 393.268 53.2536 392.799 53.8508 392.284C55.5486 390.784 57.4296 389.505 59.4487 388.478C62.4518 386.961 65.6914 385.967 69.0285 385.538C73.1355 385.013 77.3078 385.388 81.2549 386.639C85.4709 387.974 88.9023 390.434 92.2166 392.155C93.7566 393.012 95.3814 393.707 97.065 394.228C98.5302 394.669 100.055 394.879 101.585 394.849C103.815 394.887 105.999 394.21 107.816 392.916C108.441 392.406 109.025 391.846 109.561 391.242V391.242Z" fill="#F5F5F5"/>
<path d="M140.818 351.67C140.818 351.67 140.666 351.822 140.349 352.045C139.869 352.373 139.364 352.662 138.839 352.911C136.961 353.885 134.913 354.489 132.807 354.691C129.664 354.987 126.5 354.399 123.673 352.993C120.464 351.471 117.442 349.023 113.976 347.032C110.688 345.199 107.092 343.984 103.366 343.449C100.321 343.007 97.2286 343.007 94.184 343.449C92.1301 343.741 90.1099 344.236 88.1528 344.924C86.7709 345.416 86.0096 345.744 85.9979 345.697C85.9862 345.65 86.1619 345.58 86.5132 345.404C87.0196 345.143 87.5395 344.908 88.0708 344.702C90.0215 343.921 92.0518 343.355 94.1255 343.015C97.225 342.507 100.383 342.468 103.494 342.898C107.296 343.408 110.968 344.632 114.315 346.505C117.829 348.531 120.839 350.979 123.954 352.49C126.691 353.881 129.758 354.492 132.819 354.258C134.883 354.099 136.902 353.572 138.78 352.7C140.103 352.103 140.783 351.623 140.818 351.67Z" fill="#F5F5F5"/>
<path d="M317.375 284.202C317.311 284.67 317.193 285.13 317.024 285.572C316.766 286.439 316.333 287.692 315.748 289.203C315.162 290.713 314.401 292.505 313.464 294.437C313.028 295.523 312.375 296.507 311.543 297.33C311.294 297.564 310.998 297.744 310.676 297.858C310.353 297.973 310.01 298.018 309.669 297.993C309.328 297.968 308.995 297.872 308.693 297.711C308.391 297.551 308.125 297.329 307.913 297.061C307.476 296.547 307.189 295.923 307.081 295.257C307.005 294.63 307.049 293.994 307.21 293.383C307.532 292.288 307.955 291.226 308.475 290.21L310.817 285.033L312.48 281.52C312.664 281.086 312.896 280.673 313.171 280.29C313.063 280.751 312.906 281.199 312.703 281.625C312.293 282.574 311.801 283.757 311.204 285.139C310.606 286.521 309.775 288.43 308.861 290.362C308.392 291.357 308 292.387 307.69 293.442C307.561 293.983 307.53 294.542 307.597 295.093C307.68 295.646 307.915 296.165 308.276 296.592C308.437 296.801 308.641 296.973 308.873 297.098C309.106 297.223 309.362 297.297 309.625 297.315C309.888 297.334 310.152 297.297 310.4 297.207C310.648 297.117 310.874 296.975 311.063 296.791C311.835 296.029 312.448 295.122 312.867 294.121C313.827 292.212 314.623 290.456 315.209 288.968C315.794 287.481 316.38 286.263 316.661 285.455C316.851 285.012 317.091 284.591 317.375 284.202V284.202Z" fill="#EB996E"/>
<path d="M312.89 300.703C312.89 300.796 312.094 300.504 310.735 300.445C308.921 300.368 307.129 300.868 305.617 301.874L305.125 302.214V301.616C305.19 300.52 305.19 299.421 305.125 298.325C304.941 295.739 304.389 293.191 303.486 290.76C302.795 288.886 302.186 287.797 302.315 287.75C303.007 288.603 303.553 289.565 303.931 290.596C304.978 293.034 305.604 295.631 305.781 298.279C305.858 299.402 305.858 300.528 305.781 301.651L305.324 301.394C306.947 300.341 308.882 299.878 310.805 300.082C311.54 300.119 312.255 300.332 312.89 300.703V300.703Z" fill="#EB996E"/>
<path d="M321.38 290.702C321.321 291.081 321.203 291.449 321.029 291.791C320.771 292.47 320.373 293.454 319.858 294.66L319.026 296.639C318.72 297.426 318.327 298.176 317.855 298.876C317.579 299.284 317.223 299.632 316.808 299.898C316.394 300.164 315.929 300.342 315.443 300.422C314.896 300.51 314.336 300.403 313.862 300.117C313.387 299.811 313.026 299.359 312.831 298.829C312.52 297.843 312.476 296.793 312.702 295.784C312.871 294.879 313.118 293.989 313.44 293.126C313.985 291.681 314.623 290.273 315.349 288.91L316.848 286.158C316.994 285.802 317.187 285.467 317.422 285.162C317.011 286.523 316.47 287.841 315.806 289.097C315.267 290.268 314.635 291.697 314.037 293.313C313.745 294.153 313.518 295.015 313.358 295.89C313.162 296.794 313.202 297.734 313.475 298.618C313.611 299.013 313.881 299.347 314.239 299.561C314.597 299.775 315.019 299.856 315.431 299.79C315.842 299.726 316.236 299.578 316.589 299.357C316.941 299.135 317.244 298.844 317.48 298.501C317.941 297.844 318.333 297.142 318.651 296.405L319.542 294.449C320.104 293.278 320.56 292.306 320.888 291.65C321.009 291.313 321.174 290.994 321.38 290.702Z" fill="#EB996E"/>
</svg>
