<svg width="140" height="160" viewBox="0 0 140 160" fill="none" xmlns="http://www.w3.org/2000/svg">
<rect x="60" y="150" width="10" height="10" fill="#915919"/>
<rect x="60" y="120" width="10" height="10" fill="#915919"/>
<rect x="80" y="150" width="10" height="10" fill="#915919"/>
<rect x="80" y="140" width="10" height="10" fill="#915919"/>
<rect x="80" y="130" width="10" height="10" fill="#915919"/>
<rect x="80" y="120" width="10" height="10" fill="#915919"/>
<rect x="80" y="110" width="10" height="10" fill="#915919"/>
<rect x="80" y="100" width="10" height="10" fill="#915919"/>
<rect x="90" y="110" width="10" height="10" fill="#915919"/>
<rect x="90" y="100" width="10" height="10" fill="#915919"/>
<rect x="110" y="100" width="10" height="10" fill="#915919"/>
<rect x="120" y="100" width="10" height="10" fill="#915919"/>
<rect x="80" y="90" width="10" height="10" fill="#915919"/>
<rect x="70" y="80" width="10" height="10" fill="#915919"/>
<rect x="70" y="70" width="10" height="10" fill="#915919"/>
<rect x="70" y="30" width="10" height="10" fill="#915919"/>
<rect x="70" y="20" width="10" height="10" fill="#915919"/>
<rect x="80" y="70" width="10" height="10" fill="#915919"/>
<rect x="80" y="60" width="10" height="10" fill="#915919"/>
<rect x="90" y="60" width="10" height="10" fill="#915919"/>
<rect x="100" y="50" width="10" height="10" fill="#915919"/>
<rect x="90" y="40" width="10" height="10" fill="#915919"/>
<rect x="80" y="40" width="10" height="10" fill="#915919"/>
<rect x="110" y="50" width="10" height="10" fill="#915919"/>
<rect x="120" y="30" width="10" height="10" fill="#915919"/>
<rect x="110" y="60" width="10" height="10" fill="#915919"/>
<rect x="100" y="80" width="10" height="10" fill="#915919"/>
<rect x="50" y="90" width="10" height="10" fill="#915919"/>
<rect x="40" y="80" width="10" height="10" fill="#915919"/>
<rect x="50" y="70" width="10" height="10" fill="#915919"/>
<rect x="30" y="70" width="10" height="10" fill="#915919"/>
<rect x="20" y="60" width="10" height="10" fill="#915919"/>
<rect x="40" y="100" width="10" height="10" fill="#915919"/>
<rect x="30" y="100" width="10" height="10" fill="#915919"/>
<rect x="20" y="100" width="10" height="10" fill="#915919"/>
<rect x="70" y="150" width="10" height="10" fill="#B36D1F"/>
<rect x="70" y="140" width="10" height="10" fill="#B36D1F"/>
<rect x="70" y="130" width="10" height="10" fill="#B36D1F"/>
<rect x="70" y="120" width="10" height="10" fill="#B36D1F"/>
<rect x="70" y="110" width="10" height="10" fill="#B36D1F"/>
<rect x="70" y="100" width="10" height="10" fill="#B36D1F"/>
<rect x="60" y="100" width="10" height="10" fill="#B36D1F"/>
<rect x="70" y="90" width="10" height="10" fill="#B36D1F"/>
<rect x="70" y="90" width="10" height="10" fill="#B36D1F"/>
<rect x="60" y="90" width="10" height="10" fill="#B36D1F"/>
<rect x="70" y="90" width="10" height="10" fill="#B36D1F"/>
<rect x="60" y="96" width="10" height="10" fill="#B36D1F"/>
<rect x="60" y="90" width="10" height="10" fill="#B36D1F"/>
<rect x="60" y="80" width="10" height="10" fill="#B36D1F"/>
<rect x="60" y="70" width="10" height="10" fill="#B36D1F"/>
<rect x="60" y="60" width="10" height="10" fill="#B36D1F"/>
<rect x="30" y="60" width="10" height="10" fill="#B36D1F"/>
<rect x="20" y="50" width="10" height="10" fill="#B36D1F"/>
<rect x="10" y="50" width="10" height="10" fill="#B36D1F"/>
<rect x="50" y="80" width="10" height="10" fill="#B36D1F"/>
<rect x="40" y="70" width="10" height="10" fill="#B36D1F"/>
<rect x="70" y="60" width="10" height="10" fill="#B36D1F"/>
<rect x="80" y="50" width="10" height="10" fill="#B36D1F"/>
<rect x="70" y="50" width="10" height="10" fill="#B36D1F"/>
<rect x="70" y="40" width="10" height="10" fill="#B36D1F"/>
<rect x="60" y="40" width="10" height="10" fill="#B36D1F"/>
<rect x="60" y="30" width="10" height="10" fill="#B36D1F"/>
<rect x="60" y="20" width="10" height="10" fill="#B36D1F"/>
<rect x="70" y="10" width="10" height="10" fill="#B36D1F"/>
<rect x="70" width="10" height="10" fill="#B36D1F"/>
<rect x="90" y="50" width="10" height="10" fill="#B36D1F"/>
<rect x="120" y="50" width="10" height="10" fill="#B36D1F"/>
<rect x="110" y="40" width="10" height="10" fill="#B36D1F"/>
<rect x="100" y="40" width="10" height="10" fill="#B36D1F"/>
<rect x="110" y="30" width="10" height="10" fill="#B36D1F"/>
<rect x="110" y="20" width="10" height="10" fill="#B36D1F"/>
<rect x="40" y="90" width="10" height="10" fill="#B36D1F"/>
<rect x="40" y="102" width="10" height="10" fill="#B36D1F"/>
<rect x="30" y="90" width="10" height="10" fill="#B36D1F"/>
<rect x="40" y="96" width="10" height="10" fill="#B36D1F"/>
<rect x="30" y="90" width="10" height="10" fill="#B36D1F"/>
<rect x="20" y="90" width="10" height="10" fill="#B36D1F"/>
<rect x="20" y="90" width="10" height="10" fill="#B36D1F"/>
<rect x="10" y="90" width="10" height="10" fill="#B36D1F"/>
<rect x="20" y="90" width="10" height="10" fill="#B36D1F"/>
<rect x="10" y="90" width="10" height="10" fill="#B36D1F"/>
<rect y="90" width="10" height="10" fill="#B36D1F"/>
<rect x="30" y="110" width="10" height="10" fill="#B36D1F"/>
<rect x="30" y="120" width="10" height="10" fill="#B36D1F"/>
<rect x="100" y="90" width="10" height="10" fill="#B36D1F"/>
<rect x="100" y="90" width="10" height="10" fill="#B36D1F"/>
<rect x="90" y="90" width="10" height="10" fill="#B36D1F"/>
<rect x="100" y="90" width="10" height="10" fill="#B36D1F"/>
<rect x="110" y="90" width="10" height="10" fill="#B36D1F"/>
<rect x="120" y="90" width="10" height="10" fill="#B36D1F"/>
<rect x="130" y="100" width="10" height="10" fill="#B36D1F"/>
<rect x="130" y="110" width="10" height="10" fill="#B36D1F"/>
<rect x="90" y="90" width="10" height="10" fill="#B36D1F"/>
<rect x="60" y="140" width="10" height="10" fill="#B36D1F"/>
<rect x="60" y="130" width="10" height="10" fill="#B36D1F"/>
</svg>
