<svg width="107" height="107" viewBox="0 0 107 107" fill="none" xmlns="http://www.w3.org/2000/svg">
<path d="M87.0591 94.3322C87.0591 101.06 70.5099 106.514 50.0955 106.514C29.681 106.514 13.1318 101.06 13.1318 94.3322C13.1318 87.6046 29.681 90.6778 50.0955 90.6778C70.5099 90.6778 87.0591 87.6046 87.0591 94.3322Z" fill="#DFDAE0"/>
<path d="M106.514 78.7667C106.514 81.7348 99.3277 84.1409 90.4636 84.1409C81.5994 84.1409 74.4136 81.7348 74.4136 78.7667C74.4136 75.7987 81.5994 77.1545 90.4636 77.1545C99.3277 77.1545 106.514 75.7987 106.514 78.7667Z" fill="#DFDAE0"/>
<path d="M25.2909 99.7824C25.2909 102.157 19.7382 104.082 12.8886 104.082C6.03902 104.082 0.486328 102.157 0.486328 99.7824C0.486328 97.4079 6.03902 98.4926 12.8886 98.4926C19.7382 98.4926 25.2909 97.4079 25.2909 99.7824Z" fill="#DFDAE0"/>
<rect x="46.6909" y="54.959" width="4.86364" height="43.2864" rx="2.43182" fill="#A33C2B"/>
<rect x="11.6729" y="85.6001" width="1.45909" height="15.5636" rx="0.729546" fill="#A33C2B"/>
<rect x="89.9773" y="59.3364" width="1.94545" height="20.9136" rx="0.972727" fill="#A33C2B"/>
<circle cx="36.7203" cy="57.1478" r="24.5614" fill="#468479"/>
<circle cx="12.4023" cy="79.5204" r="12.4023" fill="#6EA69B"/>
<circle cx="13.375" cy="78.0612" r="9.48409" fill="#82CEC1"/>
<circle cx="61.525" cy="57.1478" r="24.5614" fill="#6DA59A"/>
<path d="M106.514 37.2067C106.514 41.399 104.848 45.4195 101.884 48.3838C98.9195 51.3482 94.899 53.0135 90.7067 53.0135C86.5145 53.0135 82.494 51.3482 79.5296 48.3838C76.5653 45.4195 74.8999 41.399 74.8999 37.2067L90.7067 37.2067H106.514Z" fill="#85E4D0"/>
<path d="M107 50.8249C107 55.1461 105.283 59.2904 102.228 62.3459C99.1722 65.4015 95.028 67.1181 90.7068 67.1181C86.3855 67.1181 82.2413 65.4015 79.1857 62.3459C76.1302 59.2904 74.4136 55.1461 74.4136 50.8249L90.7068 50.8249H107Z" fill="#6BA398"/>
<circle cx="42.3137" cy="33.0725" r="17.0227" fill="#468479"/>
<circle cx="55.9317" cy="33.0725" r="17.0227" fill="#6DA59A"/>
<circle cx="48.8795" cy="11.9159" r="11.9159" fill="#468479"/>
<circle cx="50.8248" cy="11.9159" r="11.9159" fill="#6EA69B"/>
<circle cx="33.0729" cy="45.7181" r="1.45909" fill="#95BFB9"/>
<circle cx="33.0729" cy="45.7181" r="1.45909" fill="#95BFB9"/>
<circle cx="33.0729" cy="45.7181" r="1.45909" fill="#95BFB9"/>
<circle cx="31.6137" cy="76.359" r="1.94545" fill="#95BFB9"/>
<circle cx="31.6137" cy="76.359" r="1.94545" fill="#95BFB9"/>
<circle cx="31.6137" cy="76.359" r="1.94545" fill="#95BFB9"/>
<circle cx="44.7455" cy="69.0636" r="1.94545" fill="#95BFB9"/>
<circle cx="44.7455" cy="69.0636" r="1.94545" fill="#95BFB9"/>
<circle cx="44.7455" cy="69.0636" r="1.94545" fill="#95BFB9"/>
<circle cx="46.4476" cy="57.1476" r="1.70227" fill="#95BFB9"/>
<circle cx="46.4476" cy="57.1476" r="1.70227" fill="#95BFB9"/>
<circle cx="46.4476" cy="57.1476" r="1.70227" fill="#95BFB9"/>
<circle cx="23.8319" cy="66.1456" r="0.972727" fill="#95BFB9"/>
<circle cx="23.8319" cy="66.1456" r="0.972727" fill="#95BFB9"/>
<circle cx="23.8319" cy="66.1456" r="0.972727" fill="#95BFB9"/>
<circle cx="87.0592" cy="59.3365" r="0.972727" fill="#95BFB9"/>
<circle cx="87.0592" cy="59.3365" r="0.972727" fill="#95BFB9"/>
<circle cx="87.0592" cy="59.3365" r="0.972727" fill="#95BFB9"/>
<circle cx="90.7069" cy="52.2843" r="1.21591" fill="#95BFB9"/>
<circle cx="90.7069" cy="52.2843" r="1.21591" fill="#95BFB9"/>
<circle cx="90.7069" cy="52.2843" r="1.21591" fill="#95BFB9"/>
<circle cx="96.3002" cy="53.5001" r="1.45909" fill="#95BFB9"/>
<circle cx="96.3002" cy="53.5001" r="1.45909" fill="#95BFB9"/>
<circle cx="96.3002" cy="53.5001" r="1.45909" fill="#95BFB9"/>
<circle cx="93.8682" cy="58.3638" r="0.972727" fill="#95BFB9"/>
<circle cx="93.8682" cy="58.3638" r="0.972727" fill="#95BFB9"/>
<circle cx="93.8682" cy="58.3638" r="0.972727" fill="#95BFB9"/>
<circle cx="96.7862" cy="62.7408" r="0.972727" fill="#95BFB9"/>
<circle cx="96.7862" cy="62.7408" r="0.972727" fill="#95BFB9"/>
<circle cx="96.7862" cy="62.7408" r="0.972727" fill="#95BFB9"/>
<circle cx="102.036" cy="59.7221" r="1.70227" transform="rotate(-30.5432 102.036 59.7221)" fill="#95BFB9"/>
<circle cx="102.036" cy="59.7221" r="1.70227" transform="rotate(-30.5432 102.036 59.7221)" fill="#95BFB9"/>
<circle cx="102.036" cy="59.7221" r="1.70227" transform="rotate(-30.5432 102.036 59.7221)" fill="#95BFB9"/>
<circle cx="33.0729" cy="58.8502" r="1.45909" fill="#95BFB9"/>
<circle cx="33.0729" cy="58.8502" r="1.45909" fill="#95BFB9"/>
<circle cx="33.0729" cy="58.8502" r="1.45909" fill="#95BFB9"/>
<circle cx="35.0182" cy="22.3727" r="1.45909" fill="#95BFB9"/>
<circle cx="35.0182" cy="22.3727" r="1.45909" fill="#95BFB9"/>
<circle cx="35.0182" cy="22.3727" r="1.45909" fill="#95BFB9"/>
<circle cx="38.9091" cy="34.5319" r="1.94545" fill="#95BFB9"/>
<circle cx="38.9091" cy="34.5319" r="1.94545" fill="#95BFB9"/>
<circle cx="38.9091" cy="34.5319" r="1.94545" fill="#95BFB9"/>
</svg>
