<svg width="51" height="53" viewBox="0 0 51 53" fill="none" xmlns="http://www.w3.org/2000/svg">
<path d="M47.4411 23.459C49.3097 25.0557 49.3097 27.9443 47.4411 29.541L38.8485 36.8832C36.2526 39.1014 32.25 37.2567 32.25 33.8422L32.25 19.1578C32.25 15.7433 36.2526 13.8986 38.8485 16.1168L47.4411 23.459Z" fill="#85E4D0"/>
<path d="M41.3525 22.9369C43.2559 24.5354 43.2559 27.4646 41.3524 29.0631L26.8224 41.2652C24.2199 43.4508 20.25 41.6006 20.25 38.2021L20.25 13.7979C20.25 10.3994 24.2199 8.54923 26.8224 10.7348L41.3525 22.9369Z" fill="#6DA59A"/>
<path d="M34.1311 23.3845C36.1194 24.9856 36.1194 28.0144 34.131 29.6155L16.0087 44.2085C13.3918 46.3158 9.5 44.453 9.5 41.093L9.5 11.907C9.5 8.54702 13.3918 6.68418 16.0087 8.7915L34.1311 23.3845Z" fill="#468479"/>
</svg>
