<svg width="49" height="48" viewBox="0 0 49 48" fill="none" xmlns="http://www.w3.org/2000/svg">
<path d="M47.4922 36.4029C45.7051 33.0246 39.4995 29.3616 39.2262 29.2014C38.4288 28.7475 37.5967 28.5072 36.818 28.5072C35.6602 28.5072 34.7124 29.0376 34.1383 30.0023C33.2306 31.0881 32.1048 32.3572 31.8316 32.5539C29.717 33.9885 28.0617 33.8256 26.2301 31.9941L16.0081 21.7711C14.1881 19.9511 14.0208 18.2753 15.4456 16.1724C15.645 15.8974 16.914 14.7707 17.9998 13.862C18.6922 13.45 19.1674 12.8377 19.3757 12.0865C19.6525 11.0871 19.4487 9.91149 18.7954 8.76611C18.6415 8.50268 14.9766 2.2961 11.6001 0.509947C10.97 0.176212 10.2598 0 9.54784 0C8.37488 0 7.27133 0.45744 6.44188 1.28599L4.18316 3.54382C0.610865 7.11523 -0.682248 11.1637 0.337647 15.5761C1.18845 19.2534 3.66788 23.1666 7.7083 27.2061L20.7952 40.2929C25.9089 45.4067 30.7841 48 35.2855 48C38.5961 48 41.6834 46.593 44.4574 43.819L46.7153 41.5611C48.0876 40.1897 48.3991 38.1161 47.4922 36.4029Z" fill="#2E363E"/>
</svg>
