<svg width="414" height="308" viewBox="0 0 414 308" fill="none" xmlns="http://www.w3.org/2000/svg">
<path d="M413.223 270.578H0V270.785H413.223V270.578Z" fill="#EBEBEB"/>
<path d="M371.818 283.876H344.446V284.083H371.818V283.876Z" fill="#EBEBEB"/>
<path d="M273.736 286.124H266.554V286.331H273.736V286.124Z" fill="#EBEBEB"/>
<path d="M343.62 276.207H327.76V276.413H343.62V276.207Z" fill="#EBEBEB"/>
<path d="M79.0496 277.595H43.3554V277.802H79.0496V277.595Z" fill="#EBEBEB"/>
<path d="M91.6446 277.595H86.4132V277.802H91.6446V277.595Z" fill="#EBEBEB"/>
<path d="M186.074 281.083H108.653V281.289H186.074V281.083Z" fill="#EBEBEB"/>
<path d="M195.868 233.719H36.2893C35.0391 233.717 33.8409 233.219 32.9577 232.334C32.0746 231.449 31.5785 230.25 31.5785 229V4.67769C31.5894 3.43473 32.0902 2.24626 32.9723 1.37043C33.8543 0.494594 35.0463 0.00212925 36.2893 0H195.868C197.119 0 198.32 0.49718 199.205 1.38217C200.09 2.26715 200.587 3.46745 200.587 4.71901V229C200.587 230.252 200.09 231.452 199.205 232.337C198.32 233.222 197.119 233.719 195.868 233.719V233.719ZM36.2893 0.16529C35.0939 0.167479 33.9483 0.643855 33.1038 1.48986C32.2594 2.33586 31.7851 3.48235 31.7851 4.67769V229C31.7851 230.195 32.2594 231.342 33.1038 232.188C33.9483 233.034 35.0939 233.51 36.2893 233.512H195.868C197.064 233.51 198.21 233.034 199.056 232.188C199.902 231.343 200.378 230.196 200.38 229V4.67769C200.378 3.48159 199.902 2.33512 199.056 1.48935C198.21 0.643587 197.064 0.167475 195.868 0.16529H36.2893Z" fill="#EBEBEB"/>
<path d="M374.636 233.719H215.05C213.799 233.717 212.6 233.219 211.715 232.334C210.831 231.45 210.333 230.251 210.331 229V4.67769C210.344 3.43398 210.846 2.24552 211.73 1.36991C212.613 0.494305 213.806 0.00210602 215.05 0H374.636C375.878 0.00430124 377.068 0.497727 377.948 1.37333C378.828 2.24893 379.328 3.43616 379.339 4.67769V229C379.339 230.249 378.844 231.446 377.963 232.331C377.081 233.216 375.885 233.715 374.636 233.719V233.719ZM215.05 0.16529C213.853 0.167475 212.707 0.643587 211.861 1.48935C211.015 2.33512 210.539 3.48159 210.537 4.67769V229C210.539 230.196 211.015 231.343 211.861 232.188C212.707 233.034 213.853 233.51 215.05 233.512H374.636C375.832 233.51 376.979 233.034 377.825 232.188C378.67 231.343 379.147 230.196 379.149 229V4.67769C379.147 3.48159 378.67 2.33512 377.825 1.48935C376.979 0.643587 375.832 0.167475 374.636 0.16529H215.05Z" fill="#EBEBEB"/>
<path d="M261.603 187.975H360.901C360.9 189.73 360.223 191.416 359.01 192.683C357.796 193.95 356.141 194.7 354.388 194.777C343.719 195.264 327.298 196.95 322.099 202.851C312.388 213.86 313.331 252.521 324.959 261.471C328.595 264.281 339.223 269.851 339.223 269.851H283.281C283.281 269.851 293.198 264.165 296.661 261.471C308.231 252.446 308.554 213.81 298.802 202.851C293.802 197.231 278.413 195.413 268.091 194.843C266.336 194.746 264.685 193.979 263.479 192.702C262.272 191.424 261.601 189.733 261.603 187.975Z" fill="#F5F5F5"/>
<path d="M348.595 195.141C338.512 195.967 326.43 197.942 322.099 202.851C320.685 204.547 319.567 206.469 318.793 208.537H302.14C301.356 206.474 300.239 204.554 298.835 202.851C294.488 197.967 282.306 195.959 272.388 195.141H348.595Z" fill="#E6E6E6"/>
<path d="M303.901 188.025L305.256 172.595H285.678L284.331 188.025H303.901Z" fill="#EBEBEB"/>
<path d="M303.901 188.025L305.256 172.595H306.306L304.959 188.025H303.901Z" fill="#E0E0E0"/>
<path d="M302.041 186.455L303.116 174.165H287.537L286.463 186.455H302.041Z" fill="#F0F0F0"/>
<path d="M300.851 185.438L301.744 175.182H288.736L287.835 185.438H300.851Z" fill="#FAFAFA"/>
<path d="M310.248 187.975H329.909L327.727 163.041H308.066L310.248 187.975Z" fill="#E6E6E6"/>
<path d="M310.248 187.975H309.314L307.132 163.041H308.066L310.248 187.975Z" fill="#E0E0E0"/>
<path d="M312.033 185.438H327.686L325.95 165.587H310.297L312.033 185.438Z" fill="#F0F0F0"/>
<path d="M313.174 183.802H326.256L324.802 167.223H311.727L313.174 183.802Z" fill="#FAFAFA"/>
<path d="M319.785 174.678C319.574 174.89 319.323 175.059 319.046 175.174C318.77 175.289 318.473 175.348 318.174 175.348C317.874 175.348 317.577 175.289 317.301 175.174C317.024 175.059 316.773 174.89 316.562 174.678C316.138 174.25 315.899 173.673 315.899 173.07C315.899 172.468 316.138 171.89 316.562 171.463V171.463C316.991 171.038 317.57 170.799 318.174 170.799C318.777 170.799 319.356 171.038 319.785 171.463V171.463C320.21 171.89 320.448 172.468 320.448 173.07C320.448 173.673 320.21 174.25 319.785 174.678V174.678Z" fill="#EBEBEB"/>
<path d="M318.818 177.471C318.972 177.315 319.155 177.191 319.357 177.106C319.56 177.022 319.777 176.978 319.996 176.978C320.215 176.978 320.432 177.022 320.634 177.106C320.836 177.191 321.02 177.315 321.174 177.471C321.412 177.701 321.577 177.998 321.645 178.323C321.713 178.648 321.681 178.985 321.555 179.292C321.428 179.599 321.212 179.86 320.935 180.043C320.657 180.225 320.332 180.319 320 180.314V180.314C319.668 180.321 319.341 180.228 319.062 180.046C318.784 179.864 318.566 179.603 318.439 179.296C318.311 178.989 318.279 178.651 318.347 178.325C318.414 177.999 318.579 177.702 318.818 177.471V177.471Z" fill="#F0F0F0"/>
<path d="M67.5372 159.554H160.256V57.0083L67.5372 57.0083L67.5372 159.554Z" fill="#E0E0E0"/>
<path d="M64.5785 159.554H160.744V57.0083L64.5785 57.0083L64.5785 159.554Z" fill="#F0F0F0"/>
<path d="M68.6529 154.835H156.835V60.2727L68.6529 60.2727L68.6529 154.835Z" fill="white"/>
<path d="M68.6446 154.835H71.1983L71.1983 60.2727H68.6446L68.6446 154.835Z" fill="#E0E0E0"/>
<path d="M70.9256 128.273V130.826H157.058V128.273H70.9256Z" fill="#E0E0E0"/>
<path d="M68.6446 128.273H158.198V123.992L68.6446 123.992V128.273Z" fill="#F0F0F0"/>
<path d="M312.719 74.562C312.719 74.562 313.545 69.1074 309.57 65.6116C305.595 62.1157 305.942 60.0331 307.091 59.7603C308.24 59.4876 309.273 62.9918 311.025 63.9504C311.025 63.9504 311.083 58.9917 309.306 57.1322C307.529 55.2727 306.595 50.5703 308.289 50.5207C309.983 50.4711 310.149 53.3306 310.504 55.3802C310.859 57.4298 312.736 60.3388 312.736 60.3388C312.736 60.3388 313.099 55.876 314.248 54.0413C315.397 52.2066 312.339 48.0083 313.521 46.1736C314.702 44.3389 316.826 47.8265 316.62 51.7686C316.413 55.7108 313.826 59.9008 314.438 64.0083C314.438 64.0083 315.595 61.124 316.628 60.8595C317.661 60.5951 318.719 58.6942 319.413 57.9835C320.107 57.2727 320.992 59.7273 319.413 62C317.835 64.2727 313.826 70.3554 314.455 75.2645L312.719 74.562Z" fill="#E6E6E6"/>
<path d="M310.339 72.0826L309.033 80.2562C308.934 80.8527 308.967 81.4638 309.129 82.0463C309.292 82.6287 309.581 83.1683 309.975 83.627C310.369 84.0857 310.859 84.4524 311.41 84.701C311.961 84.9497 312.561 85.0743 313.165 85.0661H314.554C315.158 85.0743 315.758 84.9497 316.309 84.701C316.86 84.4524 317.35 84.0857 317.744 83.627C318.138 83.1683 318.427 82.6287 318.59 82.0463C318.752 81.4638 318.785 80.8527 318.686 80.2562L317.355 72.0826H310.339Z" fill="#F5F5F5"/>
<path d="M330.033 82.0496H237.967V86.7769H330.033V82.0496Z" fill="#E6E6E6"/>
<path d="M246.264 64.6116H242.207V82.0496H246.264V64.6116Z" fill="#F0F0F0"/>
<path d="M265.876 64.6116H261.818V82.0496H265.876V64.6116Z" fill="#F0F0F0"/>
<path d="M288.145 64.1685L284.146 64.8578L287.108 82.0424L291.107 81.3531L288.145 64.1685Z" fill="#F0F0F0"/>
<path d="M251.289 66.9091H247.231V82.0496H251.289V66.9091Z" fill="#F0F0F0"/>
<path d="M260.612 66.9091H256.554V82.0496H260.612V66.9091Z" fill="#F0F0F0"/>
<path d="M284.149 66.9091H280.091V82.0496H284.149V66.9091Z" fill="#F0F0F0"/>
<path d="M271.202 66.3736L267.241 67.2539L270.526 82.0338L274.487 81.1534L271.202 66.3736Z" fill="#F0F0F0"/>
<path d="M254.793 63.7438H252.769V82.0496H254.793V63.7438Z" fill="#F0F0F0"/>
<path d="M278.917 63.7438H276.893V82.0496H278.917V63.7438Z" fill="#F0F0F0"/>
<path d="M237.975 122.091L330.041 122.091V117.364L237.975 117.364V122.091Z" fill="#E6E6E6"/>
<path d="M321.744 117.364H325.802V99.9256H321.744V117.364Z" fill="#F0F0F0"/>
<path d="M302.132 117.364H306.19V99.9256H302.132V117.364Z" fill="#F0F0F0"/>
<path d="M276.912 116.658L280.91 117.347L283.873 100.163L279.874 99.4735L276.912 116.658Z" fill="#F0F0F0"/>
<path d="M316.719 117.364H320.777V102.223H316.719V117.364Z" fill="#F0F0F0"/>
<path d="M307.397 117.364H311.454V102.223H307.397V117.364Z" fill="#F0F0F0"/>
<path d="M283.859 117.364H287.917V102.223H283.859V117.364Z" fill="#F0F0F0"/>
<path d="M293.53 116.465L297.491 117.345L300.776 102.565L296.815 101.685L293.53 116.465Z" fill="#F0F0F0"/>
<path d="M313.215 117.364H315.24V99.0579H313.215V117.364Z" fill="#F0F0F0"/>
<path d="M289.091 117.364H291.116V99.0579H289.091V117.364Z" fill="#F0F0F0"/>
<path d="M246.81 117.207H266.57V103.562H246.81V117.207Z" fill="#F5F5F5"/>
<path d="M206.612 307.901C295.109 307.901 366.851 303.712 366.851 298.545C366.851 293.379 295.109 289.19 206.612 289.19C118.114 289.19 46.3719 293.379 46.3719 298.545C46.3719 303.712 118.114 307.901 206.612 307.901Z" fill="#F5F5F5"/>
<path d="M274.769 277.876C274.769 277.876 270.636 268.95 275.347 260.141C280.058 251.331 281.38 249.264 278.405 247.463C275.43 245.661 274.05 254.545 274.05 254.545C272.569 250.549 272.416 246.182 273.612 242.091C275.686 235.719 276.992 225.347 274.157 224.231C271.322 223.116 273.62 237.174 271.157 241.967C269.904 238.605 269.095 235.093 268.752 231.521C268.413 226.405 268.942 218.231 266.702 216.141C264.463 214.05 263.033 215.488 265.231 226.785C266.553 233.53 267.283 240.377 267.413 247.248C267.413 247.248 262.562 232.438 259.297 232.008C256.033 231.579 256.041 236.372 258.835 240.529C261.628 244.686 267.008 252.141 267.884 255.975C267.884 255.975 262.554 244.835 257.76 248.248C252.967 251.661 261.934 258.397 265.934 260.826C269.934 263.256 272.711 278.504 272.711 278.504L274.769 277.876Z" fill="#6DA59A"/>
<path opacity="0.2" d="M274.769 277.876C274.769 277.876 270.636 268.95 275.347 260.141C280.058 251.331 281.38 249.264 278.405 247.463C275.43 245.661 274.05 254.545 274.05 254.545C272.569 250.549 272.416 246.182 273.612 242.091C275.686 235.719 276.992 225.347 274.157 224.231C271.322 223.116 273.62 237.174 271.157 241.967C269.904 238.605 269.095 235.093 268.752 231.521C268.413 226.405 268.942 218.231 266.702 216.141C264.463 214.05 263.033 215.488 265.231 226.785C266.553 233.53 267.283 240.377 267.413 247.248C267.413 247.248 262.562 232.438 259.297 232.008C256.033 231.579 256.041 236.372 258.835 240.529C261.628 244.686 267.008 252.141 267.884 255.975C267.884 255.975 262.554 244.835 257.76 248.248C252.967 251.661 261.934 258.397 265.934 260.826C269.934 263.256 272.711 278.504 272.711 278.504L274.769 277.876Z" fill="black"/>
<path d="M271.537 281.537C271.537 281.537 275.521 272.545 270.711 263.818C265.901 255.091 264.545 253.025 267.504 251.182C270.463 249.339 271.934 258.157 271.934 258.157C273.367 254.142 273.469 249.772 272.223 245.694C270.074 239.364 268.645 229.008 271.471 227.851C274.298 226.694 272.165 240.785 274.678 245.537C275.894 242.156 276.661 238.63 276.959 235.05C277.24 229.934 276.612 221.769 278.826 219.645C281.041 217.521 282.488 218.942 280.421 230.264C279.179 237.027 278.532 243.885 278.488 250.76C278.488 250.76 283.165 235.884 286.421 235.405C289.678 234.926 289.727 239.719 286.983 243.917C284.24 248.116 278.959 255.653 278.116 259.496C278.116 259.496 283.314 248.273 288.149 251.62C292.983 254.967 284.099 261.826 280.132 264.322C276.165 266.818 273.57 282.099 273.57 282.099L271.537 281.537Z" fill="#6DA59A"/>
<path d="M289.917 275.132H256.992L259.661 298.694H287.256L289.917 275.132Z" fill="#263238"/>
<path opacity="0.2" d="M354.587 40.8264H180.57C179.438 40.8264 178.521 41.7441 178.521 42.876V197.438C178.521 198.57 179.438 199.488 180.57 199.488H354.587C355.719 199.488 356.636 198.57 356.636 197.438V42.876C356.636 41.7441 355.719 40.8264 354.587 40.8264Z" fill="black"/>
<path d="M347.851 37.8925H173.835C172.703 37.8925 171.785 38.8102 171.785 39.9421V194.504C171.785 195.636 172.703 196.554 173.835 196.554H347.851C348.983 196.554 349.901 195.636 349.901 194.504V39.9421C349.901 38.8102 348.983 37.8925 347.851 37.8925Z" fill="#6DA59A"/>
<path opacity="0.6" d="M171.785 52.0661V194.512C171.743 195.001 171.891 195.488 172.199 195.87C172.507 196.252 172.951 196.5 173.438 196.562H348.198C348.694 196.512 349.15 196.269 349.469 195.885C349.787 195.502 349.942 195.009 349.901 194.512V52.0661H171.785Z" fill="white"/>
<path d="M347.785 60.4215H173.893V186.264H347.785V60.4215Z" fill="white"/>
<path opacity="0.6" d="M344.083 47.6942C345.525 47.6942 346.694 46.2844 346.694 44.5454C346.694 42.8064 345.525 41.3967 344.083 41.3967C342.64 41.3967 341.471 42.8064 341.471 44.5454C341.471 46.2844 342.64 47.6942 344.083 47.6942Z" fill="white"/>
<path opacity="0.6" d="M335.529 47.6942C336.971 47.6942 338.14 46.2844 338.14 44.5454C338.14 42.8064 336.971 41.3967 335.529 41.3967C334.087 41.3967 332.917 42.8064 332.917 44.5454C332.917 46.2844 334.087 47.6942 335.529 47.6942Z" fill="white"/>
<path opacity="0.6" d="M329.579 44.5454C329.579 46.281 328.413 47.6859 326.967 47.6859C325.521 47.6859 324.364 46.281 324.364 44.5454C324.364 42.8099 325.529 41.3967 326.967 41.3967C328.405 41.3967 329.579 42.8016 329.579 44.5454Z" fill="white"/>
<path d="M210.942 75.1157V107.57L202.595 117.636H184.107V75.1157H210.942Z" fill="#6DA59A"/>
<path opacity="0.7" d="M210.942 75.1157V107.57L202.595 117.636H184.107V75.1157H210.942Z" fill="white"/>
<path opacity="0.3" d="M210.942 107.57L202.595 117.636V107.57H210.942Z" fill="#6DA59A"/>
<path opacity="0.3" d="M206.785 81.2479H188.273V82.4628H206.785V81.2479Z" fill="#6DA59A"/>
<path opacity="0.3" d="M206.785 85.8595H188.273V87.0744H206.785V85.8595Z" fill="#6DA59A"/>
<path opacity="0.3" d="M206.785 90.4793H188.273V91.7025H206.785V90.4793Z" fill="#6DA59A"/>
<path opacity="0.3" d="M206.785 95.0992H188.273V96.314H206.785V95.0992Z" fill="#6DA59A"/>
<path opacity="0.3" d="M202 99.719H188.273V100.942H202V99.719Z" fill="#6DA59A"/>
<path d="M253.504 75.1157V107.57L245.157 117.636H226.669V75.1157H253.504Z" fill="#6DA59A"/>
<path opacity="0.7" d="M253.504 75.1157V107.57L245.157 117.636H226.669V75.1157H253.504Z" fill="white"/>
<path opacity="0.3" d="M253.504 107.57L245.157 117.636V107.57H253.504Z" fill="#6DA59A"/>
<path opacity="0.3" d="M249.339 81.2479H230.826V82.4628H249.339V81.2479Z" fill="#6DA59A"/>
<path opacity="0.3" d="M249.339 85.8595H230.826V87.0744H249.339V85.8595Z" fill="#6DA59A"/>
<path opacity="0.3" d="M249.339 90.4793H230.826V91.7025H249.339V90.4793Z" fill="#6DA59A"/>
<path opacity="0.3" d="M249.339 95.0992H230.826V96.314H249.339V95.0992Z" fill="#6DA59A"/>
<path opacity="0.3" d="M244.554 99.719H230.826V100.942H244.554V99.719Z" fill="#6DA59A"/>
<path d="M296.066 75.1157V107.57L287.719 117.636H269.231V75.1157H296.066Z" fill="#6DA59A"/>
<path opacity="0.7" d="M296.066 75.1157V107.57L287.719 117.636H269.231V75.1157H296.066Z" fill="white"/>
<path opacity="0.3" d="M296.066 107.57L287.719 117.636V107.57H296.066Z" fill="#6DA59A"/>
<path opacity="0.3" d="M291.901 81.2479H273.388V82.4628H291.901V81.2479Z" fill="#6DA59A"/>
<path opacity="0.3" d="M291.901 85.8595H273.388V87.0744H291.901V85.8595Z" fill="#6DA59A"/>
<path opacity="0.3" d="M291.901 90.4793H273.388V91.7025H291.901V90.4793Z" fill="#6DA59A"/>
<path opacity="0.3" d="M291.901 95.0992H273.388V96.314H291.901V95.0992Z" fill="#6DA59A"/>
<path opacity="0.3" d="M287.116 99.719H273.388V100.942H287.116V99.719Z" fill="#6DA59A"/>
<path d="M338.628 75.1157V107.57L330.273 117.636H311.793V75.1157H338.628Z" fill="#6DA59A"/>
<path opacity="0.7" d="M338.628 75.1157V107.57L330.273 117.636H311.793V75.1157H338.628Z" fill="white"/>
<path opacity="0.3" d="M338.628 107.57L330.273 117.636V107.57H338.628Z" fill="#6DA59A"/>
<path opacity="0.3" d="M334.463 81.2479H315.95V82.4628H334.463V81.2479Z" fill="#6DA59A"/>
<path opacity="0.3" d="M334.463 85.8595H315.95V87.0744H334.463V85.8595Z" fill="#6DA59A"/>
<path opacity="0.3" d="M334.463 90.4793H315.95V91.7025H334.463V90.4793Z" fill="#6DA59A"/>
<path opacity="0.3" d="M334.463 95.0992H315.95V96.314H334.463V95.0992Z" fill="#6DA59A"/>
<path opacity="0.3" d="M329.678 99.719H315.95V100.942H329.678V99.719Z" fill="#6DA59A"/>
<path d="M210.942 131.314V163.769L202.595 173.835H184.107V131.314H210.942Z" fill="#6DA59A"/>
<path opacity="0.7" d="M210.942 131.314V163.769L202.595 173.835H184.107V131.314H210.942Z" fill="white"/>
<path opacity="0.3" d="M210.942 163.769L202.595 173.835V163.769H210.942Z" fill="#6DA59A"/>
<path opacity="0.3" d="M206.785 137.446H188.273V138.661H206.785V137.446Z" fill="#6DA59A"/>
<path opacity="0.3" d="M206.785 142.058H188.273V143.273H206.785V142.058Z" fill="#6DA59A"/>
<path opacity="0.3" d="M206.785 146.678H188.273V147.901H206.785V146.678Z" fill="#6DA59A"/>
<path opacity="0.3" d="M206.785 151.298H188.273V152.521H206.785V151.298Z" fill="#6DA59A"/>
<path opacity="0.3" d="M202 155.917H188.273V157.132H202V155.917Z" fill="#6DA59A"/>
<path d="M253.504 131.314V163.769L245.157 173.835H226.669V131.314H253.504Z" fill="#6DA59A"/>
<path opacity="0.7" d="M253.504 131.314V163.769L245.157 173.835H226.669V131.314H253.504Z" fill="white"/>
<path opacity="0.3" d="M253.504 163.769L245.157 173.835V163.769H253.504Z" fill="#6DA59A"/>
<path opacity="0.3" d="M249.339 137.446H230.826V138.661H249.339V137.446Z" fill="#6DA59A"/>
<path opacity="0.3" d="M249.339 142.058H230.826V143.273H249.339V142.058Z" fill="#6DA59A"/>
<path opacity="0.3" d="M249.339 146.678H230.826V147.901H249.339V146.678Z" fill="#6DA59A"/>
<path opacity="0.3" d="M249.339 151.298H230.826V152.521H249.339V151.298Z" fill="#6DA59A"/>
<path opacity="0.3" d="M244.554 155.917H230.826V157.132H244.554V155.917Z" fill="#6DA59A"/>
<path d="M296.066 131.314V163.769L287.719 173.835H269.231V131.314H296.066Z" fill="#6DA59A"/>
<path opacity="0.7" d="M296.066 131.314V163.769L287.719 173.835H269.231V131.314H296.066Z" fill="white"/>
<path opacity="0.3" d="M296.066 163.769L287.719 173.835V163.769H296.066Z" fill="#6DA59A"/>
<path opacity="0.3" d="M291.901 137.446H273.388V138.661H291.901V137.446Z" fill="#6DA59A"/>
<path opacity="0.3" d="M291.901 142.058H273.388V143.273H291.901V142.058Z" fill="#6DA59A"/>
<path opacity="0.3" d="M291.901 146.678H273.388V147.901H291.901V146.678Z" fill="#6DA59A"/>
<path opacity="0.3" d="M291.901 151.298H273.388V152.521H291.901V151.298Z" fill="#6DA59A"/>
<path opacity="0.3" d="M287.116 155.917H273.388V157.132H287.116V155.917Z" fill="#6DA59A"/>
<path d="M338.628 131.314V163.769L330.273 173.835H311.793V131.314H338.628Z" fill="#6DA59A"/>
<path opacity="0.7" d="M338.628 131.314V163.769L330.273 173.835H311.793V131.314H338.628Z" fill="white"/>
<path opacity="0.3" d="M338.628 163.769L330.273 173.835V163.769H338.628Z" fill="#6DA59A"/>
<path opacity="0.3" d="M334.463 137.446H315.95V138.661H334.463V137.446Z" fill="#6DA59A"/>
<path opacity="0.3" d="M334.463 142.058H315.95V143.273H334.463V142.058Z" fill="#6DA59A"/>
<path opacity="0.3" d="M334.463 146.678H315.95V147.901H334.463V146.678Z" fill="#6DA59A"/>
<path opacity="0.3" d="M334.463 151.298H315.95V152.521H334.463V151.298Z" fill="#6DA59A"/>
<path opacity="0.3" d="M329.678 155.917H315.95V157.132H329.678V155.917Z" fill="#6DA59A"/>
<path opacity="0.1" d="M272.694 104.421H229.859C227.874 104.421 226.264 106.031 226.264 108.017V140.116C226.264 142.101 227.874 143.711 229.859 143.711H272.694C274.68 143.711 276.289 142.101 276.289 140.116V108.017C276.289 106.031 274.68 104.421 272.694 104.421Z" fill="black"/>
<g opacity="0.1">
<path opacity="0.1" d="M269.628 102.595H264.669V97.2314C264.669 93.8427 263.323 90.5929 260.927 88.1968C258.531 85.8007 255.281 84.4545 251.893 84.4545C248.504 84.4545 245.254 85.8007 242.858 88.1968C240.462 90.5929 239.116 93.8427 239.116 97.2314V102.595H234.157V97.2314C234.157 92.5276 236.026 88.0165 239.352 84.6905C242.678 81.3644 247.189 79.4958 251.893 79.4958C256.596 79.4958 261.107 81.3644 264.433 84.6905C267.76 88.0165 269.628 92.5276 269.628 97.2314V102.595Z" fill="black"/>
</g>
<path d="M252.033 102.769H209.198C207.213 102.769 205.603 104.378 205.603 106.364V138.463C205.603 140.448 207.213 142.058 209.198 142.058H252.033C254.019 142.058 255.628 140.448 255.628 138.463V106.364C255.628 104.378 254.019 102.769 252.033 102.769Z" fill="#263238"/>
<path opacity="0.2" d="M242.983 102.769H209.198C207.213 102.769 205.603 104.378 205.603 106.364V138.463C205.603 140.448 207.213 142.058 209.198 142.058H242.983C244.969 142.058 246.578 140.448 246.578 138.463V106.364C246.578 104.378 244.969 102.769 242.983 102.769Z" fill="white"/>
<path d="M228.603 117.512C228.603 114.802 226.95 112.603 224.917 112.603C222.884 112.603 221.24 114.802 221.24 117.512C221.191 118.406 221.378 119.296 221.783 120.094C222.188 120.892 222.796 121.57 223.545 122.058L222.859 132.306H226.992L226.314 122.058C227.06 121.566 227.663 120.888 228.065 120.091C228.467 119.293 228.652 118.404 228.603 117.512Z" fill="#263238"/>
<path d="M248.967 100.942H244.008V95.5785C244.008 92.1899 242.662 88.94 240.266 86.5439C237.87 84.1478 234.62 82.8016 231.231 82.8016C227.843 82.8016 224.593 84.1478 222.197 86.5439C219.801 88.94 218.454 92.1899 218.454 95.5785V100.942H213.496V95.5785C213.496 90.8747 215.364 86.3636 218.69 83.0376C222.016 79.7115 226.528 77.843 231.231 77.843C235.935 77.843 240.446 79.7115 243.772 83.0376C247.098 86.3636 248.967 90.8747 248.967 95.5785V100.942Z" fill="#263238"/>
<g opacity="0.4">
<path opacity="0.4" d="M248.967 100.942H244.008V95.5785C244.008 92.1899 242.662 88.94 240.266 86.5439C237.87 84.1478 234.62 82.8016 231.231 82.8016C227.843 82.8016 224.593 84.1478 222.197 86.5439C219.801 88.94 218.454 92.1899 218.454 95.5785V100.942H213.496V95.5785C213.496 90.8747 215.364 86.3636 218.69 83.0376C222.016 79.7115 226.528 77.843 231.231 77.843C235.935 77.843 240.446 79.7115 243.772 83.0376C247.098 86.3636 248.967 90.8747 248.967 95.5785V100.942Z" fill="white"/>
</g>
<path opacity="0.2" d="M248.967 95.5785V100.942H245.603V94.9669C245.603 92.839 245.184 90.732 244.369 88.7662C243.555 86.8004 242.361 85.0143 240.856 83.51C239.351 82.0058 237.564 80.8128 235.598 79.9992C233.632 79.1857 231.525 78.7675 229.397 78.7686C226.145 78.7583 222.969 79.7543 220.306 81.6198C222.922 79.5685 226.062 78.2944 229.368 77.9432C232.673 77.592 236.011 78.1778 239 79.6337C241.988 81.0897 244.507 83.3569 246.268 86.1765C248.029 88.9961 248.962 92.2542 248.959 95.5785H248.967Z" fill="white"/>
<path d="M178.893 190.603H158.859V189.835H163.38C163.684 189.832 163.978 189.723 164.21 189.527C164.442 189.331 164.599 189.06 164.653 188.76L166.678 176.711L167.074 174.339H173.934L180.074 188.818C180.158 189.013 180.192 189.226 180.173 189.438C180.153 189.649 180.082 189.852 179.965 190.029C179.848 190.206 179.688 190.352 179.501 190.452C179.314 190.552 179.105 190.604 178.893 190.603V190.603Z" fill="#6DA59A"/>
<path opacity="0.4" d="M178.893 190.603H158.859V189.835H163.38C163.684 189.832 163.978 189.723 164.21 189.527C164.442 189.331 164.599 189.06 164.653 188.76L166.678 176.711L167.074 174.339H173.934L180.074 188.818C180.158 189.013 180.192 189.226 180.173 189.438C180.153 189.649 180.082 189.852 179.965 190.029C179.848 190.206 179.688 190.352 179.501 190.452C179.314 190.552 179.105 190.604 178.893 190.603V190.603Z" fill="white"/>
<path opacity="0.2" d="M178.917 189.835H163.38C163.684 189.832 163.978 189.723 164.21 189.527C164.442 189.331 164.599 189.06 164.653 188.76L166.678 176.711H173.868L179.339 189.198C179.369 189.268 179.382 189.344 179.375 189.42C179.369 189.495 179.343 189.568 179.301 189.631C179.259 189.694 179.202 189.746 179.135 189.782C179.068 189.817 178.993 189.836 178.917 189.835V189.835Z" fill="black"/>
<path d="M189.661 178.777H149.587C149.496 178.781 149.405 178.763 149.322 178.726C149.238 178.689 149.165 178.633 149.107 178.562C149.049 178.492 149.009 178.409 148.989 178.32C148.969 178.231 148.97 178.138 148.992 178.05L154.694 147.934C154.736 147.74 154.839 147.565 154.988 147.434C155.136 147.303 155.323 147.223 155.521 147.207H195.587C195.678 147.202 195.768 147.219 195.852 147.257C195.935 147.294 196.008 147.35 196.065 147.421C196.122 147.492 196.162 147.575 196.181 147.665C196.199 147.754 196.197 147.846 196.174 147.934L190.488 178.041C190.447 178.237 190.345 178.414 190.196 178.546C190.047 178.679 189.86 178.76 189.661 178.777Z" fill="#6DA59A"/>
<path opacity="0.4" d="M189.661 178.777H149.587C149.496 178.781 149.405 178.763 149.322 178.726C149.238 178.689 149.165 178.633 149.107 178.562C149.049 178.492 149.009 178.409 148.989 178.32C148.969 178.231 148.97 178.138 148.992 178.05L154.694 147.934C154.736 147.74 154.839 147.565 154.988 147.434C155.136 147.303 155.323 147.223 155.521 147.207H195.587C195.678 147.202 195.768 147.219 195.852 147.257C195.935 147.294 196.008 147.35 196.065 147.421C196.122 147.492 196.162 147.575 196.181 147.665C196.199 147.754 196.197 147.846 196.174 147.934L190.488 178.041C190.447 178.237 190.345 178.414 190.196 178.546C190.047 178.679 189.86 178.76 189.661 178.777Z" fill="white"/>
<path d="M188.835 178.777H148.76C148.669 178.781 148.578 178.763 148.495 178.726C148.412 178.689 148.338 178.633 148.281 178.562C148.223 178.492 148.182 178.409 148.162 178.32C148.142 178.231 148.143 178.138 148.165 178.05L153.868 147.934C153.91 147.74 154.012 147.565 154.161 147.434C154.31 147.303 154.497 147.223 154.694 147.207H194.76C194.851 147.202 194.942 147.219 195.025 147.257C195.108 147.294 195.181 147.35 195.238 147.421C195.296 147.492 195.335 147.575 195.354 147.665C195.373 147.754 195.371 147.846 195.347 147.934L189.661 178.041C189.621 178.237 189.519 178.414 189.37 178.546C189.221 178.679 189.033 178.76 188.835 178.777Z" fill="#263238"/>
<path d="M188.306 176.926H149.992L155.264 149.066H193.57L188.306 176.926Z" fill="#6DA59A"/>
<path d="M121.529 190.603V189.661L136.95 186.545H167.124C167.661 186.545 168.176 186.759 168.556 187.138C168.935 187.518 169.149 188.033 169.149 188.57V188.57C169.149 189.108 168.936 189.624 168.556 190.005C168.177 190.386 167.662 190.601 167.124 190.603H121.529Z" fill="#6DA59A"/>
<path opacity="0.4" d="M169.149 188.578C169.15 189.114 168.939 189.628 168.562 190.008C168.18 190.388 167.663 190.602 167.124 190.603H121.529V189.669L136.959 186.545H167.124C167.391 186.545 167.655 186.598 167.901 186.7C168.147 186.803 168.371 186.953 168.559 187.141C168.747 187.33 168.896 187.554 168.997 187.801C169.098 188.048 169.15 188.312 169.149 188.578Z" fill="white"/>
<path opacity="0.4" d="M169.149 188.578C169.15 189.114 168.939 189.628 168.562 190.008C168.18 190.388 167.663 190.602 167.124 190.603H148.802V189.669L164.231 186.545H167.124C167.391 186.545 167.655 186.598 167.901 186.7C168.147 186.803 168.37 186.953 168.559 187.141C168.747 187.33 168.896 187.554 168.997 187.801C169.098 188.048 169.15 188.312 169.149 188.578Z" fill="white"/>
<path d="M180.174 298.694H184.306L191.719 195.438H186.24L180.174 298.694Z" fill="#263238"/>
<path opacity="0.1" d="M180.174 298.694H184.306L191.355 200.562L191.719 195.603H186.24L185.95 200.562L180.174 298.694Z" fill="white"/>
<path opacity="0.2" d="M185.95 200.314H191.355L191.719 195.603H186.24L185.95 200.314Z" fill="black"/>
<path d="M149.884 298.694H154.008L154.686 195.438H149.207L149.884 298.694Z" fill="#263238"/>
<path opacity="0.1" d="M149.207 195.603L149.314 212.264L149.876 298.694H154.008L154.57 212.264L154.678 195.603H149.207Z" fill="white"/>
<path opacity="0.2" d="M149.207 195.603L149.314 212.446H154.57L154.678 195.603H149.207Z" fill="black"/>
<path d="M106.058 298.694H110.182L117.603 195.438H112.124L106.058 298.694Z" fill="#263238"/>
<path opacity="0.1" d="M106.05 298.694H110.182L117.24 200.562L117.603 195.603H112.124L111.826 200.562L106.05 298.694Z" fill="white"/>
<path opacity="0.2" d="M111.826 200.314H117.24L117.603 195.603H112.124L111.826 200.314Z" fill="black"/>
<path d="M227.397 298.694H231.521L225.455 195.438H219.983L227.397 298.694Z" fill="#263238"/>
<path opacity="0.1" d="M219.983 195.603L220.347 200.562L227.397 298.694H231.521L225.752 200.562L225.455 195.603H219.983Z" fill="white"/>
<path opacity="0.2" d="M225.455 195.603H219.983L220.347 200.314H225.752L225.455 195.603Z" fill="black"/>
<path d="M228.008 198.017L109.57 198.017C109.336 198.017 109.104 197.97 108.887 197.881C108.671 197.791 108.474 197.659 108.308 197.494C108.142 197.328 108.011 197.131 107.921 196.915C107.831 196.698 107.785 196.466 107.785 196.231V192.843L229.793 192.843V196.231C229.793 196.466 229.747 196.698 229.657 196.915C229.568 197.131 229.436 197.328 229.271 197.494C229.105 197.659 228.908 197.791 228.691 197.881C228.475 197.97 228.243 198.017 228.008 198.017V198.017Z" fill="#6DA59A"/>
<path opacity="0.4" d="M228.008 198.017L109.57 198.017C109.336 198.017 109.104 197.97 108.887 197.881C108.671 197.791 108.474 197.659 108.308 197.494C108.142 197.328 108.011 197.131 107.921 196.915C107.831 196.698 107.785 196.466 107.785 196.231V192.843L229.793 192.843V196.231C229.793 196.466 229.747 196.698 229.657 196.915C229.568 197.131 229.436 197.328 229.271 197.494C229.105 197.659 228.908 197.791 228.691 197.881C228.475 197.97 228.243 198.017 228.008 198.017V198.017Z" fill="white"/>
<path opacity="0.2" d="M107.777 195.43L229.793 195.43V192.843L107.777 192.843V195.43Z" fill="black"/>
<path d="M105.223 193.521H232.355C232.741 193.521 233.111 193.367 233.384 193.095C233.657 192.822 233.81 192.452 233.81 192.066V192.066C233.81 191.68 233.657 191.31 233.384 191.038C233.111 190.765 232.741 190.612 232.355 190.612H105.223C104.837 190.612 104.467 190.765 104.195 191.038C103.922 191.31 103.769 191.68 103.769 192.066C103.769 192.452 103.922 192.822 104.195 193.095C104.467 193.367 104.837 193.521 105.223 193.521V193.521Z" fill="#6DA59A"/>
<path opacity="0.4" d="M105.223 193.521H232.355C232.741 193.521 233.111 193.367 233.384 193.095C233.657 192.822 233.81 192.452 233.81 192.066V192.066C233.81 191.68 233.657 191.31 233.384 191.038C233.111 190.765 232.741 190.612 232.355 190.612H105.223C104.837 190.612 104.467 190.765 104.195 191.038C103.922 191.31 103.769 191.68 103.769 192.066C103.769 192.452 103.922 192.822 104.195 193.095C104.467 193.367 104.837 193.521 105.223 193.521V193.521Z" fill="white"/>
<path opacity="0.3" d="M157.388 164.678C157.207 164.676 157.028 164.635 156.864 164.556C156.701 164.478 156.556 164.365 156.441 164.224C156.326 164.084 156.243 163.92 156.198 163.744C156.154 163.568 156.148 163.385 156.182 163.207L156.694 160.57C156.766 160.211 156.96 159.887 157.243 159.654C157.526 159.42 157.881 159.292 158.248 159.289H179.736C179.918 159.289 180.098 159.329 180.263 159.408C180.427 159.487 180.572 159.602 180.686 159.744C180.803 159.882 180.888 160.046 180.932 160.222C180.976 160.399 180.98 160.583 180.942 160.76L180.43 163.397C180.361 163.756 180.169 164.081 179.887 164.314C179.605 164.548 179.25 164.677 178.884 164.678H157.388Z" fill="white"/>
<path d="M178.884 164.264H157.397C157.274 164.266 157.153 164.241 157.042 164.191C156.93 164.14 156.832 164.066 156.753 163.972C156.674 163.879 156.616 163.769 156.585 163.651C156.553 163.533 156.548 163.41 156.57 163.289L157.091 160.645C157.141 160.379 157.283 160.14 157.491 159.967C157.699 159.795 157.961 159.702 158.231 159.702H179.719C179.841 159.7 179.962 159.726 180.074 159.776C180.185 159.827 180.284 159.901 180.363 159.994C180.442 160.088 180.499 160.197 180.531 160.316C180.563 160.434 180.567 160.557 180.545 160.678L180.033 163.322C179.981 163.588 179.838 163.828 179.628 164C179.419 164.172 179.155 164.266 178.884 164.264V164.264Z" fill="white"/>
<path d="M161.031 162.598C161.452 161.996 161.405 161.236 160.927 160.902C160.448 160.567 159.718 160.783 159.297 161.386C158.876 161.988 158.923 162.747 159.401 163.082C159.88 163.417 160.61 163.2 161.031 162.598Z" fill="#263238"/>
<path d="M164.653 161.983C164.594 162.314 164.427 162.615 164.179 162.841C163.931 163.066 163.615 163.204 163.281 163.231C163.133 163.227 162.988 163.188 162.857 163.118C162.727 163.048 162.614 162.948 162.528 162.827C162.443 162.707 162.386 162.567 162.363 162.421C162.34 162.274 162.352 162.125 162.397 161.983C162.457 161.654 162.624 161.353 162.872 161.128C163.12 160.902 163.435 160.764 163.769 160.736C163.917 160.738 164.063 160.776 164.195 160.846C164.326 160.915 164.44 161.015 164.526 161.136C164.612 161.258 164.668 161.398 164.69 161.545C164.712 161.692 164.699 161.842 164.653 161.983V161.983Z" fill="#263238"/>
<path d="M168.017 161.983C167.956 162.313 167.789 162.614 167.541 162.839C167.294 163.065 166.978 163.202 166.645 163.231C166.496 163.228 166.35 163.19 166.218 163.121C166.086 163.051 165.973 162.952 165.886 162.831C165.8 162.71 165.742 162.57 165.719 162.423C165.696 162.276 165.707 162.125 165.752 161.983C165.814 161.653 165.983 161.352 166.232 161.127C166.481 160.902 166.797 160.764 167.132 160.736C167.28 160.74 167.425 160.779 167.556 160.849C167.687 160.919 167.799 161.019 167.885 161.139C167.971 161.26 168.027 161.4 168.05 161.546C168.073 161.692 168.061 161.842 168.017 161.983V161.983Z" fill="#263238"/>
<path d="M171.116 162.592C171.537 161.99 171.49 161.23 171.011 160.895C170.533 160.561 169.803 160.777 169.382 161.38C168.961 161.982 169.007 162.741 169.486 163.076C169.965 163.411 170.694 163.194 171.116 162.592Z" fill="#263238"/>
<path d="M174.736 161.983C174.673 162.314 174.505 162.615 174.256 162.84C174.006 163.065 173.69 163.203 173.355 163.231C173.207 163.227 173.062 163.188 172.932 163.118C172.801 163.048 172.688 162.948 172.603 162.827C172.517 162.707 172.461 162.567 172.438 162.421C172.415 162.274 172.426 162.125 172.471 161.983C172.533 161.654 172.7 161.355 172.948 161.129C173.195 160.904 173.51 160.766 173.843 160.736C173.992 160.739 174.138 160.777 174.269 160.846C174.401 160.916 174.515 161.015 174.601 161.136C174.688 161.257 174.745 161.397 174.768 161.544C174.792 161.691 174.78 161.842 174.736 161.983V161.983Z" fill="#263238"/>
<path d="M177.83 162.605C178.251 162.003 178.204 161.244 177.725 160.909C177.247 160.574 176.517 160.791 176.096 161.393C175.675 161.995 175.721 162.755 176.2 163.089C176.679 163.424 177.408 163.208 177.83 162.605Z" fill="#263238"/>
<path opacity="0.3" d="M181.884 164.678C181.745 164.679 181.608 164.65 181.482 164.591C181.356 164.532 181.245 164.446 181.157 164.339C181.063 164.226 180.997 164.092 180.964 163.948C180.931 163.805 180.932 163.655 180.967 163.512L181.62 160.207C181.677 159.936 181.824 159.692 182.037 159.515C182.25 159.338 182.517 159.238 182.793 159.231H186.099C186.238 159.23 186.376 159.259 186.501 159.318C186.627 159.377 186.738 159.463 186.826 159.57C186.921 159.684 186.987 159.817 187.02 159.961C187.053 160.104 187.052 160.254 187.017 160.397L186.364 163.702C186.306 163.973 186.159 164.217 185.946 164.394C185.733 164.571 185.467 164.671 185.19 164.678H181.884Z" fill="white"/>
<path d="M181.884 164.264H185.19C185.367 164.255 185.537 164.189 185.674 164.076C185.811 163.963 185.908 163.809 185.95 163.636L186.603 160.331C186.624 160.253 186.626 160.172 186.61 160.094C186.594 160.015 186.559 159.942 186.509 159.879C186.46 159.817 186.396 159.766 186.323 159.733C186.25 159.699 186.171 159.683 186.091 159.686H182.785C182.604 159.694 182.431 159.762 182.292 159.878C182.153 159.995 182.056 160.154 182.017 160.331L181.364 163.636C181.346 163.713 181.346 163.793 181.364 163.87C181.382 163.947 181.418 164.019 181.468 164.08C181.519 164.14 181.582 164.189 181.655 164.221C181.727 164.253 181.805 164.268 181.884 164.264V164.264Z" fill="#263238"/>
<path d="M183.562 163.43C183.537 163.431 183.512 163.426 183.489 163.416C183.466 163.406 183.446 163.391 183.43 163.372C183.4 163.324 183.39 163.267 183.4 163.212C183.411 163.157 183.442 163.108 183.488 163.074L184.802 161.983L183.926 160.893C183.894 160.845 183.882 160.788 183.893 160.732C183.904 160.676 183.936 160.627 183.983 160.595C184.023 160.559 184.075 160.539 184.128 160.539C184.182 160.539 184.233 160.559 184.273 160.595L185.264 161.835C185.296 161.882 185.308 161.94 185.297 161.995C185.286 162.051 185.254 162.1 185.207 162.132L183.727 163.372C183.681 163.41 183.622 163.43 183.562 163.43V163.43Z" fill="#6DA59A"/>
<path d="M185.05 162.19H182.818C182.793 162.191 182.767 162.186 182.744 162.175C182.72 162.164 182.7 162.148 182.684 162.128C182.668 162.108 182.657 162.085 182.651 162.059C182.646 162.034 182.646 162.008 182.653 161.983C182.666 161.926 182.697 161.875 182.742 161.838C182.787 161.801 182.842 161.779 182.901 161.777H185.124C185.15 161.776 185.175 161.781 185.198 161.792C185.222 161.803 185.242 161.819 185.258 161.839C185.274 161.859 185.285 161.882 185.291 161.907C185.296 161.933 185.296 161.959 185.289 161.983C185.277 162.039 185.247 162.089 185.204 162.127C185.161 162.164 185.106 162.186 185.05 162.19V162.19Z" fill="#6DA59A"/>
<path d="M112.62 111.736H130.438C132.319 111.736 133.843 110.211 133.843 108.331V90.5124C133.843 88.6319 132.319 87.1074 130.438 87.1074H112.62C110.739 87.1074 109.215 88.6319 109.215 90.5124V108.331C109.215 110.211 110.739 111.736 112.62 111.736Z" fill="#6DA59A"/>
<path d="M119.603 110.81L121.529 119.091L123.455 110.81H119.603Z" fill="#6DA59A"/>
<path opacity="0.3" d="M121.314 106.802C119.218 105.552 117.468 103.798 116.224 101.699C114.98 99.6004 114.28 97.2235 114.19 94.7851V94.5207L121.521 91.3967L128.843 94.5207V94.7851C128.758 97.2237 128.062 99.6019 126.819 101.701C125.575 103.801 123.825 105.555 121.727 106.802L121.512 106.934L121.314 106.802Z" fill="white"/>
<path opacity="0.6" d="M121.529 91.8512L128.446 94.7934C128.371 97.1628 127.697 99.4747 126.487 101.514C125.278 103.553 123.572 105.252 121.529 106.455V91.8512Z" fill="white"/>
<path opacity="0.4" d="M121.529 91.8512L114.603 94.7934C114.68 97.1636 115.355 99.476 116.566 101.515C117.777 103.554 119.484 105.253 121.529 106.455V91.8512Z" fill="white"/>
<path d="M114.876 185.215L120.661 186.083C121.975 185.665 123.325 185.375 124.694 185.215C126.179 185.093 127.672 185.093 129.157 185.215C129.157 185.215 131.777 186.198 131.777 188.702C131.777 188.702 125.669 190.355 123.331 189.355L114.876 188.702V185.215Z" fill="#E4897B"/>
<path opacity="0.2" d="M114.876 185.215L120.661 186.083C121.975 185.665 123.325 185.375 124.694 185.215C126.179 185.093 127.672 185.093 129.157 185.215C129.157 185.215 131.777 186.198 131.777 188.702C131.777 188.702 125.669 190.355 123.331 189.355L114.876 188.702V185.215Z" fill="black"/>
<path d="M129.207 146.149C129.297 147.338 129.53 148.512 129.901 149.645C129.598 149.831 129.249 149.93 128.893 149.93C128.537 149.93 128.188 149.831 127.884 149.645L129.207 146.149Z" fill="#AA473D"/>
<path d="M131.463 144.496C131.24 145.033 130.843 145.38 130.57 145.264C130.298 145.149 130.273 144.636 130.488 144.099C130.702 143.562 131.107 143.223 131.38 143.331C131.653 143.438 131.678 143.967 131.463 144.496Z" fill="#263238"/>
<path d="M132.818 142.645C132.77 142.659 132.718 142.659 132.669 142.645C132.23 142.386 131.738 142.23 131.231 142.187C130.723 142.144 130.212 142.216 129.736 142.397C129.664 142.433 129.582 142.439 129.506 142.414C129.43 142.39 129.367 142.336 129.331 142.264C129.294 142.193 129.288 142.111 129.313 142.035C129.338 141.959 129.392 141.896 129.463 141.86C130.029 141.629 130.642 141.533 131.251 141.581C131.861 141.628 132.451 141.817 132.975 142.132C133.009 142.153 133.039 142.179 133.062 142.211C133.086 142.243 133.102 142.28 133.112 142.318C133.121 142.356 133.122 142.396 133.116 142.435C133.11 142.475 133.095 142.512 133.074 142.545C133.044 142.583 133.004 142.611 132.959 142.629C132.914 142.646 132.866 142.651 132.818 142.645V142.645Z" fill="#263238"/>
<path d="M127.595 150.645C127.405 150.876 127.215 151.099 127.008 151.306C125.851 152.508 124.355 153.33 122.719 153.661C122.305 153.745 121.885 153.8 121.463 153.826C120.351 153.896 119.238 153.717 118.205 153.302C117.171 152.888 116.243 152.248 115.488 151.43C114.806 150.69 114.283 149.818 113.95 148.868C112.471 144.901 113.95 141.777 116.091 136.281C116.567 134.993 117.364 133.847 118.406 132.953C119.449 132.059 120.702 131.446 122.048 131.172C123.394 130.898 124.788 130.972 126.097 131.388C127.406 131.803 128.587 132.546 129.529 133.545C133.81 138.058 130.934 146.347 127.595 150.645Z" fill="#E4897B"/>
<path opacity="0.2" d="M122.719 153.661C122.305 153.745 121.885 153.8 121.463 153.826C120.351 153.896 119.238 153.717 118.205 153.302C117.171 152.888 116.243 152.248 115.488 151.43C116.019 150.896 116.616 150.432 117.264 150.05C119.392 150.704 121.286 151.958 122.719 153.661V153.661Z" fill="black"/>
<path d="M104.901 153.868C105.446 157.736 113.909 159.182 113.909 159.182C113.909 159.182 118.041 161.083 118.256 159.43C116.529 157.43 116.339 155.686 116.934 154.157C117.329 153.224 117.908 152.381 118.636 151.678C119.025 151.274 119.436 150.894 119.868 150.537L117.281 139.942C115.421 143.992 109.091 153.289 104.901 153.868Z" fill="#E4897B"/>
<path d="M129.05 130.579C129.05 130.579 130.859 130.355 132.248 133.727C133.413 136.562 130.661 137.182 130.785 140.198C130.909 143.215 128.14 144.893 128.14 144.893C128.14 144.893 125.826 146.893 123.851 145.81C123.851 145.81 121.273 147.074 120.595 149.281C119.917 151.488 115.926 147.504 112.331 148.107C112.331 148.107 109.901 145.835 110.083 140.314C110.22 137.917 110.809 135.567 111.818 133.388C112.295 132.235 112.996 131.188 113.882 130.308C114.767 129.428 115.819 128.734 116.975 128.264C121.083 126.397 128.281 127.785 129.05 130.579Z" fill="#263238"/>
<path d="M123.355 144.149C123.23 144.699 123.229 145.269 123.352 145.82C123.475 146.37 123.719 146.886 124.066 147.331C124.942 148.289 126.355 147.074 126.926 145.397C127.421 143.901 127.595 141.562 126.306 141.264C125.017 140.967 123.628 142.537 123.355 144.149Z" fill="#E4897B"/>
<path d="M124.264 157.066C123.08 160.372 122.022 163.54 121.091 166.57C120.496 168.455 119.95 170.298 119.438 172.074C119.019 173.568 118.628 175.017 118.264 176.422C118.091 177.099 117.917 177.769 117.752 178.43C116.843 182.074 116.099 185.397 115.529 188.347C114.566 192.953 113.851 197.607 113.388 202.289L80.9917 198.207C82.1157 192.636 82.9917 187.769 84.2149 182.504C84.8926 179.628 85.6612 176.636 86.6942 173.355C87.3884 171 88.1983 168.496 89.1735 165.777C92.4297 156.438 95.4297 153.851 95.4297 153.851C107.818 151.868 124.264 157.066 124.264 157.066Z" fill="#263238"/>
<path d="M135.05 185.818L140.835 186.686C142.148 186.268 143.499 185.978 144.868 185.818C146.356 185.696 147.851 185.696 149.339 185.818C149.339 185.818 151.95 186.802 151.95 189.306C151.95 189.306 145.851 190.959 143.504 189.959L135.058 189.306L135.05 185.818Z" fill="#E4897B"/>
<path d="M99.2397 292.653L105.281 292.76L108.289 278.835L102.256 278.727L99.2397 292.653Z" fill="#EBB376"/>
<path opacity="0.2" d="M102.256 278.727L108.289 278.843L106.57 286.802L100.595 286.405L102.256 278.727Z" fill="black"/>
<path d="M118.653 258.554C116.351 267.416 113.409 276.1 109.851 284.537L98.8347 283.711C98.8347 283.711 103.355 266.05 104.992 249.868C106.008 239.884 105.917 231.62 102.992 230.983C101.157 230.579 96.8512 230.587 91.3306 230.719V210.141C106.81 213.322 122.215 219.314 123.388 224.124C125.025 230.893 122.165 245.223 118.653 258.554Z" fill="#6DA59A"/>
<path d="M97.6612 284.207L110.785 285.083L112.719 279.405L98.2562 278.736L97.6612 284.207Z" fill="#6DA59A"/>
<path opacity="0.2" d="M97.6612 284.207L110.785 285.083L112.719 279.405L98.2562 278.736L97.6612 284.207Z" fill="white"/>
<path d="M106.19 292.463H106.314C106.314 292.463 106.455 292.504 106.471 292.521C106.488 292.537 106.471 292.521 106.471 292.521H106.521C107.031 292.682 107.558 292.788 108.091 292.835C108.488 292.909 108.899 292.829 109.24 292.612C109.348 292.517 109.426 292.394 109.466 292.256C109.506 292.118 109.504 291.972 109.463 291.835C109.45 291.745 109.415 291.66 109.362 291.586C109.308 291.513 109.238 291.454 109.157 291.413C108.586 291.322 108.002 291.433 107.504 291.727C107.86 291.352 108.071 290.863 108.099 290.347C108.075 290.225 108.012 290.114 107.92 290.031C107.827 289.947 107.711 289.896 107.587 289.884C107.352 289.85 107.112 289.906 106.917 290.041C106.281 290.587 106.182 292.297 106.182 292.397L106.19 292.463ZM106.843 292.116L106.719 292.182C106.68 291.529 106.857 290.881 107.223 290.339C107.263 290.299 107.311 290.268 107.364 290.248C107.416 290.228 107.473 290.22 107.529 290.223H107.603C107.802 290.223 107.843 290.355 107.851 290.438C107.724 291.099 107.367 291.693 106.843 292.116V292.116ZM106.926 292.413C107.653 292.008 108.686 291.587 109.074 291.744C109.113 291.764 109.146 291.793 109.171 291.829C109.195 291.865 109.21 291.907 109.215 291.95C109.239 292.037 109.24 292.129 109.217 292.216C109.193 292.304 109.147 292.383 109.083 292.446C108.785 292.711 107.992 292.694 106.926 292.413Z" fill="#6DA59A"/>
<path d="M106.05 291.736L99.281 291.314C99.1682 291.302 99.0554 291.336 98.9672 291.407C98.8789 291.478 98.8224 291.582 98.8099 291.694V291.694L98.1488 297.025C98.1305 297.305 98.2236 297.581 98.4078 297.793C98.5919 298.005 98.8522 298.136 99.1322 298.157C101.496 298.264 102.628 298.198 105.603 298.364C108.244 298.635 110.901 298.718 113.554 298.612C116.033 298.372 115.76 295.884 114.678 295.769C112.091 295.471 108.678 293.579 107.058 292.141C106.777 291.896 106.422 291.753 106.05 291.736Z" fill="#263238"/>
<path opacity="0.2" d="M118.653 258.554C114.521 255.95 109.719 252.884 104.992 249.851C106.008 239.868 105.917 231.603 102.992 230.967C101.157 230.562 96.8512 230.57 91.3306 230.702V210.141C106.81 213.322 122.215 219.314 123.388 224.124C125.025 230.893 122.165 245.223 118.653 258.554Z" fill="black"/>
<path d="M134.554 292.653L140.595 292.76L143.603 278.835L137.57 278.727L134.554 292.653Z" fill="#EBB376"/>
<path opacity="0.2" d="M137.57 278.727L143.603 278.843L141.884 286.802L135.909 286.405L137.57 278.727Z" fill="black"/>
<path d="M112.62 208.124L113.595 200.322L82.0496 195.124C82.0496 195.124 71.7273 215.57 76.7769 225.62C81.4132 234.81 130.719 229.331 138.306 230.992C145.893 232.653 134.174 283.727 134.174 283.727L145.198 284.554C145.198 284.554 162.223 238.603 158.727 224.149C157.174 217.826 131.182 209.471 112.62 208.124Z" fill="#6DA59A"/>
<path d="M132.975 284.207L146.099 285.083L148.033 279.405L133.57 278.736L132.975 284.207Z" fill="#6DA59A"/>
<path opacity="0.2" d="M132.975 284.207L146.099 285.083L148.033 279.405L133.57 278.736L132.975 284.207Z" fill="white"/>
<path d="M141.504 292.463H141.628C141.628 292.463 141.769 292.504 141.785 292.521C141.802 292.537 141.785 292.521 141.785 292.521H141.835C142.345 292.682 142.872 292.788 143.405 292.835C143.802 292.909 144.213 292.829 144.554 292.612C144.662 292.517 144.74 292.394 144.78 292.256C144.82 292.118 144.818 291.972 144.777 291.835C144.764 291.745 144.729 291.66 144.676 291.586C144.622 291.513 144.552 291.454 144.471 291.413C143.9 291.322 143.316 291.433 142.818 291.727C143.174 291.352 143.385 290.863 143.413 290.347C143.389 290.225 143.326 290.114 143.234 290.031C143.141 289.947 143.025 289.896 142.901 289.884C142.666 289.85 142.426 289.906 142.231 290.041C141.595 290.587 141.496 292.297 141.496 292.397L141.504 292.463ZM142.157 292.116L142.033 292.182C141.994 291.529 142.171 290.881 142.537 290.339C142.577 290.299 142.625 290.268 142.678 290.248C142.73 290.228 142.787 290.22 142.843 290.223H142.917C143.116 290.223 143.157 290.355 143.165 290.438C143.039 291.101 142.678 291.697 142.149 292.116H142.157ZM142.24 292.413C142.967 292.008 144 291.587 144.388 291.744C144.427 291.764 144.46 291.793 144.485 291.829C144.509 291.865 144.524 291.907 144.529 291.95C144.553 292.037 144.554 292.129 144.531 292.216C144.507 292.304 144.461 292.383 144.397 292.446C144.099 292.711 143.306 292.694 142.24 292.413V292.413Z" fill="#6DA59A"/>
<path d="M141.364 291.736L134.595 291.314C134.482 291.302 134.369 291.336 134.281 291.407C134.193 291.478 134.136 291.582 134.124 291.694V291.694L133.463 297.025C133.445 297.305 133.538 297.581 133.722 297.793C133.906 298.005 134.166 298.136 134.446 298.157C136.81 298.264 137.942 298.198 140.917 298.364C143.558 298.635 146.215 298.718 148.868 298.612C151.388 298.372 151.083 295.884 149.992 295.769C147.405 295.471 143.992 293.579 142.372 292.141C142.091 291.896 141.736 291.753 141.364 291.736Z" fill="#263238"/>
<path d="M80.8925 198.678L95.5041 200.595L95.9835 198.438L81.3388 196.306L80.8925 198.678Z" fill="black"/>
<path d="M97.1983 198.455L97.0165 200.595L110.529 202.455V200.331L97.1983 198.455Z" fill="black"/>
<path d="M111.364 200.455V202.455L113.331 202.711V200.777L111.364 200.455Z" fill="black"/>
<path opacity="0.2" d="M121.091 166.57C120.496 168.455 119.95 170.298 119.438 172.074C119.019 173.567 118.628 175.017 118.264 176.421C117.248 170.884 119.091 164.273 119.091 164.273L121.091 166.57Z" fill="black"/>
<path d="M124.264 157.025C126.901 157.562 127.769 178.05 127.884 180.231C128 182.413 140.826 186.653 140.826 186.653V189.636C140.826 189.636 127.074 188.678 123.86 187.364C120.645 186.05 119.835 167.074 119.835 167.074L124.264 157.025Z" fill="#E4897B"/>
<path d="M124.264 157.025C126.686 157.777 127.884 171.289 127.884 171.289L120.397 174.38L118.537 166.868C118.537 166.868 118.008 165.339 119.05 162.116C120.562 157.413 124.264 157.025 124.264 157.025Z" fill="#263238"/>
<path d="M68.4132 224.397H128.099C129.833 224.397 131.496 225.085 132.722 226.311C133.948 227.537 134.636 229.2 134.636 230.934V234.43H61.876V230.934C61.876 229.2 62.5648 227.537 63.7907 226.311C65.0167 225.085 66.6795 224.397 68.4132 224.397V224.397Z" fill="#6DA59A"/>
<path d="M87.8264 199.545H127.901C128.384 199.545 128.861 199.654 129.296 199.864C129.731 200.074 130.113 200.38 130.413 200.758C130.713 201.136 130.924 201.577 131.03 202.049C131.136 202.52 131.134 203.009 131.025 203.479L123.86 234.43H122.207L128.306 207.306C128.413 206.837 128.412 206.35 128.305 205.881C128.198 205.413 127.986 204.974 127.686 204.598C127.386 204.223 127.005 203.92 126.571 203.711C126.138 203.503 125.663 203.396 125.182 203.397H88.6446L87.8264 199.545Z" fill="#263238"/>
<path d="M103 235.537V261.694C103 262.097 102.84 262.484 102.555 262.769C102.269 263.055 101.883 263.215 101.479 263.215H95.0413C94.638 263.215 94.2512 263.055 93.966 262.769C93.6809 262.484 93.5207 262.097 93.5207 261.694V235.537H103Z" fill="#263238"/>
<path d="M67.595 295.917C67.595 295.368 67.4322 294.831 67.1271 294.375C66.8219 293.918 66.3882 293.562 65.8808 293.352C65.3734 293.142 64.8151 293.087 64.2764 293.194C63.7378 293.301 63.243 293.565 62.8546 293.954C62.4663 294.342 62.2018 294.837 62.0947 295.376C61.9875 295.914 62.0425 296.473 62.2527 296.98C62.4629 297.487 62.8188 297.921 63.2754 298.226C63.7321 298.531 64.269 298.694 64.8182 298.694C65.5547 298.694 66.261 298.402 66.7817 297.881C67.3025 297.36 67.595 296.654 67.595 295.917V295.917Z" fill="#263238"/>
<path opacity="0.2" d="M66.2066 295.917C66.2066 295.643 66.1252 295.374 65.9726 295.146C65.8201 294.918 65.6032 294.74 65.3495 294.635C65.0958 294.53 64.8166 294.502 64.5473 294.556C64.278 294.609 64.0306 294.741 63.8364 294.936C63.6422 295.13 63.51 295.377 63.4564 295.646C63.4029 295.916 63.4304 296.195 63.5354 296.449C63.6405 296.702 63.8185 296.919 64.0468 297.072C64.2751 297.224 64.5436 297.306 64.8182 297.306C65.1857 297.304 65.5376 297.157 65.7976 296.897C66.0575 296.637 66.2044 296.285 66.2066 295.917Z" fill="white"/>
<path d="M134.496 295.917C134.498 295.366 134.335 294.826 134.03 294.367C133.725 293.908 133.29 293.549 132.78 293.338C132.271 293.126 131.71 293.07 131.169 293.177C130.628 293.284 130.131 293.55 129.741 293.94C129.351 294.33 129.086 294.827 128.979 295.368C128.872 295.909 128.927 296.469 129.139 296.979C129.351 297.488 129.709 297.923 130.169 298.228C130.628 298.534 131.167 298.696 131.719 298.694C132.455 298.692 133.16 298.399 133.68 297.878C134.2 297.358 134.494 296.653 134.496 295.917V295.917Z" fill="#263238"/>
<path opacity="0.2" d="M133.107 295.917C133.107 295.643 133.026 295.374 132.873 295.146C132.721 294.918 132.504 294.74 132.25 294.635C131.997 294.53 131.717 294.502 131.448 294.556C131.179 294.609 130.931 294.741 130.737 294.936C130.543 295.13 130.411 295.377 130.357 295.646C130.304 295.916 130.331 296.195 130.436 296.449C130.541 296.702 130.719 296.919 130.948 297.072C131.176 297.224 131.444 297.306 131.719 297.306C132.087 297.304 132.438 297.157 132.698 296.897C132.958 296.637 133.105 296.285 133.107 295.917V295.917Z" fill="white"/>
<path d="M100.562 283.719V253.818H95.9669V283.719C78.0661 284.182 67.1818 290.438 65.0083 291.81C64.8799 291.886 64.7746 291.995 64.7033 292.126C64.632 292.257 64.5974 292.405 64.6033 292.554V295.033C64.6022 295.149 64.6241 295.264 64.6676 295.371C64.7111 295.478 64.7755 295.576 64.8569 295.658C64.9384 295.74 65.0353 295.805 65.1422 295.85C65.249 295.894 65.3636 295.917 65.4793 295.917V295.917C65.634 295.916 65.7857 295.874 65.9191 295.796C66.0525 295.717 66.163 295.605 66.2397 295.471L67.3058 293.603C76.5802 290.646 86.2342 289.048 95.9669 288.859V293.818C95.9669 293.968 95.9965 294.115 96.0539 294.253C96.1113 294.391 96.1955 294.516 96.3015 294.622C96.4075 294.727 96.5333 294.81 96.6716 294.867C96.8099 294.923 96.9581 294.952 97.1074 294.95H99.4297C99.73 294.95 100.018 294.831 100.23 294.619C100.443 294.406 100.562 294.118 100.562 293.818V288.859C110.297 289.047 119.954 290.645 129.231 293.603L130.289 295.471C130.367 295.607 130.478 295.719 130.613 295.798C130.748 295.876 130.902 295.917 131.058 295.917C131.291 295.915 131.514 295.821 131.678 295.655C131.842 295.49 131.934 295.266 131.934 295.033V292.554C131.94 292.405 131.905 292.257 131.834 292.126C131.763 291.995 131.657 291.886 131.529 291.81C129.347 290.438 118.471 284.182 100.562 283.719Z" fill="#263238"/>
<path d="M99.7768 293.132H96.7603V298.694H99.7768V293.132Z" fill="#263238"/>
<path opacity="0.2" d="M103 235.512H93.5455V246.38H103V235.512Z" fill="black"/>
<path d="M136.653 232.818V235.942C136.653 236.152 136.611 236.36 136.531 236.554C136.45 236.749 136.332 236.925 136.183 237.073C136.034 237.221 135.857 237.338 135.663 237.418C135.468 237.498 135.26 237.538 135.05 237.537H61.4959C61.2861 237.538 61.0782 237.498 60.8842 237.418C60.6902 237.338 60.5139 237.221 60.3656 237.072C60.2172 236.924 60.0998 236.748 60.02 236.554C59.9403 236.36 59.8997 236.152 59.9008 235.942V232.818C59.9008 232.395 60.0689 231.989 60.368 231.69C60.6671 231.391 61.0728 231.223 61.4959 231.223H135.05C135.473 231.223 135.88 231.391 136.18 231.69C136.481 231.989 136.651 232.394 136.653 232.818Z" fill="#263238"/>
<path d="M102.81 234.43H59.8926C59.8926 234.43 46.281 211.752 46.281 174.281V160.521C46.2832 157.804 47.3638 155.2 49.2855 153.28C51.2071 151.36 53.8124 150.281 56.5289 150.281H74.7107C77.3715 150.28 79.9284 151.314 81.8397 153.165C83.751 155.016 84.8667 157.539 84.9504 160.198C85.4711 179.537 88.314 221.347 102.81 234.43Z" fill="#263238"/>
<path opacity="0.2" d="M93.3884 234.43H61.8264C61.2297 234.432 60.6438 234.27 60.1334 233.961C59.623 233.652 59.2079 233.208 58.9339 232.678C55.8264 226.694 46.281 205.678 46.281 174.281V160.521C46.281 157.805 47.3598 155.2 49.2801 153.28C51.2004 151.36 53.8049 150.281 56.5207 150.281H72.2231C74.8839 150.28 77.4408 151.314 79.3521 153.165C81.2634 155.016 82.3791 157.539 82.4628 160.198C82.9339 177.446 85.2479 212.661 96.0744 229.298C96.4015 229.791 96.5902 230.363 96.6208 230.954C96.6514 231.545 96.5228 232.133 96.2484 232.658C95.9739 233.182 95.5638 233.623 95.0607 233.935C94.5577 234.246 93.9801 234.417 93.3884 234.43Z" fill="white"/>
<path opacity="0.2" d="M136.653 232.818V235.942C136.653 236.365 136.485 236.771 136.186 237.07C135.887 237.369 135.481 237.537 135.058 237.537H102.091C101.808 237.538 101.528 237.484 101.266 237.376C101.004 237.269 100.767 237.11 100.566 236.911C100.366 236.711 100.207 236.474 100.098 236.213C99.9897 235.951 99.9339 235.671 99.9339 235.388V233.38C99.9339 232.808 100.161 232.259 100.566 231.855C100.97 231.45 101.519 231.223 102.091 231.223H135.05C135.473 231.223 135.88 231.391 136.18 231.69C136.481 231.989 136.651 232.394 136.653 232.818V232.818Z" fill="black"/>
<path d="M59.876 149.066L62.6033 145.496C62.6033 145.496 74.2479 146.025 74.5289 150.281C74.8099 154.537 59.876 149.066 59.876 149.066Z" fill="#6DA59A"/>
<path d="M52.2231 159.752C52.2231 159.752 52.9339 178.678 52.2231 227.521C52.2231 229.174 46.0579 229.107 45.6116 227.521C44.1322 221.959 45.6116 177.545 45.6116 177.545" fill="#6DA59A"/>
<path d="M45.7521 227.769L52.0248 227.983V231.116L45.7521 230.793V227.769Z" fill="#6DA59A"/>
<path opacity="0.2" d="M52.2231 159.752C52.2231 159.752 52.9339 178.678 52.2231 227.521C52.2231 229.174 46.0579 229.107 45.6116 227.521C44.1322 221.959 45.6116 177.545 45.6116 177.545" fill="white"/>
<path d="M42.6529 217.537C42.3141 208.529 41.0826 167.124 46.2562 153.405C46.2562 153.405 51.124 147.223 67.595 147.223C84.0661 147.223 89.0248 158.917 89.0248 158.917C89.0248 158.917 89.7355 177.835 89.0248 226.686C89.0248 228.339 82.8595 228.281 82.4132 226.686C80.9339 221.132 82.4132 176.711 82.4132 176.711L79.1074 217.124C79.0954 217.259 79.0558 217.391 78.9911 217.511C78.9264 217.63 78.838 217.736 78.7312 217.82C78.6244 217.904 78.5016 217.966 78.3702 218.001C78.2388 218.036 78.1016 218.044 77.9669 218.025C72.7686 217.198 49.8678 213.983 43.8099 218.116C43.7002 218.186 43.5739 218.227 43.4436 218.234C43.3133 218.241 43.1834 218.214 43.0667 218.156C42.95 218.098 42.8504 218.01 42.7779 217.901C42.7053 217.793 42.6623 217.667 42.6529 217.537Z" fill="#6DA59A"/>
<path d="M82.5537 226.934L88.8264 227.149V230.281L82.5537 229.959V226.934Z" fill="#6DA59A"/>
<path d="M78.3058 218.066L77.8099 221.372C77.8099 221.372 52.2479 215.802 43.9669 221.736L43.4711 218.074C43.4711 218.074 49.8678 212.174 78.3058 218.066Z" fill="#6DA59A"/>
<path opacity="0.4" d="M42.6529 217.537C42.3141 208.529 41.0826 167.124 46.2562 153.405C46.2562 153.405 51.124 147.223 67.595 147.223C84.0661 147.223 89.0248 158.917 89.0248 158.917C89.0248 158.917 89.7355 177.835 89.0248 226.686C89.0248 228.339 82.8595 228.281 82.4132 226.686C80.9339 221.132 82.4132 176.711 82.4132 176.711L79.1074 217.124C79.0954 217.259 79.0558 217.391 78.9911 217.511C78.9264 217.63 78.838 217.736 78.7312 217.82C78.6244 217.904 78.5016 217.966 78.3702 218.001C78.2388 218.036 78.1016 218.044 77.9669 218.025C72.7686 217.198 49.8678 213.983 43.8099 218.116C43.7002 218.186 43.5739 218.227 43.4436 218.234C43.3133 218.241 43.1834 218.214 43.0667 218.156C42.95 218.098 42.8504 218.01 42.7779 217.901C42.7053 217.793 42.6623 217.667 42.6529 217.537Z" fill="white"/>
<path opacity="0.2" d="M82.438 176.711C82.438 176.711 82.8016 163.884 89.0496 158.917C89.0248 158.917 81.2397 162.264 82.438 176.711Z" fill="black"/>
<path opacity="0.2" d="M63.6942 148.702C63.6942 148.702 56.1736 152.835 54.9752 209.141C54.9752 209.141 51.7025 152.339 63.6942 148.702Z" fill="black"/>
</svg>
