<svg width="563" height="477" viewBox="0 0 563 477" fill="none" xmlns="http://www.w3.org/2000/svg">
<g clip-path="url(#clip0_48_1105)">
<path d="M193.365 76.1449C189.552 74.0646 187.834 75.7957 186.451 74.0646C185.069 72.3333 190.25 67.8526 179.887 63.3574C179.887 63.3574 179.188 53.6831 165.026 53.3484C150.864 53.0138 154.663 63.0082 150.864 65.4377C147.066 67.8672 146.018 63.9828 142.219 66.4706C138.42 68.9583 140.152 73.7445 137.038 74.4136C133.923 75.0829 129.759 71.3005 125.976 73.7154C122.192 76.1303 122.177 78.2106 120.445 78.2106C118.713 78.2106 115.263 76.7559 113.167 78.2106C111.072 79.6655 108.67 81.3239 108.67 81.3239H196.101C196.101 81.3239 197.193 78.2106 193.365 76.1449Z" fill="#92E3A9"/>
<path opacity="0.5" d="M193.365 76.1449C189.552 74.0646 187.834 75.7957 186.451 74.0646C185.069 72.3333 190.25 67.8526 179.887 63.3574C179.887 63.3574 179.188 53.6831 165.026 53.3484C150.864 53.0138 154.663 63.0082 150.864 65.4377C147.066 67.8672 146.018 63.9828 142.219 66.4706C138.42 68.9583 140.152 73.7445 137.038 74.4136C133.923 75.0829 129.759 71.3005 125.976 73.7154C122.192 76.1303 122.177 78.2106 120.445 78.2106C118.713 78.2106 115.263 76.7559 113.167 78.2106C111.072 79.6655 108.67 81.3239 108.67 81.3239H196.101C196.101 81.3239 197.193 78.2106 193.365 76.1449Z" fill="#92E3A9"/>
<g opacity="0.8">
<path opacity="0.8" d="M193.365 76.1449C189.552 74.0646 187.834 75.7957 186.451 74.0646C185.069 72.3333 190.25 67.8526 179.887 63.3574C179.887 63.3574 179.188 53.6831 165.026 53.3484C150.864 53.0138 154.663 63.0082 150.864 65.4377C147.066 67.8672 146.018 63.9828 142.219 66.4706C138.42 68.9583 140.152 73.7445 137.038 74.4136C133.923 75.0829 129.759 71.3005 125.976 73.7154C122.192 76.1303 122.177 78.2106 120.445 78.2106C118.713 78.2106 115.263 76.7559 113.167 78.2106C111.072 79.6655 108.67 81.3239 108.67 81.3239H196.101C196.101 81.3239 197.193 78.2106 193.365 76.1449Z" fill="white"/>
<path opacity="0.5" d="M193.365 76.1449C189.552 74.0646 187.834 75.7957 186.451 74.0646C185.069 72.3333 190.25 67.8526 179.887 63.3574C179.887 63.3574 179.188 53.6831 165.026 53.3484C150.864 53.0138 154.663 63.0082 150.864 65.4377C147.066 67.8672 146.018 63.9828 142.219 66.4706C138.42 68.9583 140.152 73.7445 137.038 74.4136C133.923 75.0829 129.759 71.3005 125.976 73.7154C122.192 76.1303 122.177 78.2106 120.445 78.2106C118.713 78.2106 115.263 76.7559 113.167 78.2106C111.072 79.6655 108.67 81.3239 108.67 81.3239H196.101C196.101 81.3239 197.193 78.2106 193.365 76.1449Z" fill="white"/>
</g>
<path d="M474.361 42.5539C467.258 38.6843 464.042 41.9138 461.465 38.6843C458.889 35.4546 468.553 27.0459 449.21 18.71C449.21 18.71 447.915 0.656166 421.468 0.0160619C395.023 -0.624043 402.125 18.0553 395.037 22.5652C387.949 27.075 385.998 19.9903 378.91 24.5001C371.822 29.01 375.038 38.0442 369.231 39.3244C363.424 40.6046 355.695 33.5052 348.593 38.0442C341.489 42.583 341.505 46.4236 338.287 46.4236C335.071 46.4236 328.608 43.8487 324.737 46.4236C320.865 48.9987 316.353 52.2428 316.353 52.2428H479.557C479.557 52.2428 481.449 46.4236 474.361 42.5539Z" fill="#92E3A9"/>
<path opacity="0.5" d="M474.361 42.5539C467.258 38.6843 464.042 41.9138 461.465 38.6843C458.889 35.4546 468.553 27.0459 449.21 18.71C449.21 18.71 447.915 0.656166 421.468 0.0160619C395.023 -0.624043 402.125 18.0553 395.037 22.5652C387.949 27.075 385.998 19.9903 378.91 24.5001C371.822 29.01 375.038 38.0442 369.231 39.3244C363.424 40.6046 355.695 33.5052 348.593 38.0442C341.489 42.583 341.505 46.4236 338.287 46.4236C335.071 46.4236 328.608 43.8487 324.737 46.4236C320.865 48.9987 316.353 52.2428 316.353 52.2428H479.557C479.557 52.2428 481.449 46.4236 474.361 42.5539Z" fill="#92E3A9"/>
<g opacity="0.8">
<path opacity="0.8" d="M474.361 42.5539C467.258 38.6843 464.042 41.9138 461.465 38.6843C458.889 35.4546 468.553 27.0459 449.21 18.71C449.21 18.71 447.915 0.656166 421.468 0.0160619C395.023 -0.624043 402.125 18.0553 395.037 22.5652C387.949 27.075 385.998 19.9903 378.91 24.5001C371.822 29.01 375.038 38.0442 369.231 39.3244C363.424 40.6046 355.695 33.5052 348.593 38.0442C341.489 42.583 341.505 46.4236 338.287 46.4236C335.071 46.4236 328.608 43.8487 324.737 46.4236C320.865 48.9987 316.353 52.2428 316.353 52.2428H479.557C479.557 52.2428 481.449 46.4236 474.361 42.5539Z" fill="white"/>
<path opacity="0.5" d="M474.361 42.5539C467.258 38.6843 464.042 41.9138 461.465 38.6843C458.889 35.4546 468.553 27.0459 449.21 18.71C449.21 18.71 447.915 0.656166 421.468 0.0160619C395.023 -0.624043 402.125 18.0553 395.037 22.5652C387.949 27.075 385.998 19.9903 378.91 24.5001C371.822 29.01 375.038 38.0442 369.231 39.3244C363.424 40.6046 355.695 33.5052 348.593 38.0442C341.489 42.583 341.505 46.4236 338.287 46.4236C335.071 46.4236 328.608 43.8487 324.737 46.4236C320.865 48.9987 316.353 52.2428 316.353 52.2428H479.557C479.557 52.2428 481.449 46.4236 474.361 42.5539Z" fill="white"/>
</g>
<path d="M458.481 191.392C457.899 193.561 459.718 196.543 458.875 198.579C458.03 200.616 454.625 201.489 453.504 203.394C452.383 205.3 453.372 208.661 452.048 210.436C450.723 212.211 447.201 212.109 445.615 213.695C444.029 215.281 444.16 218.757 442.354 220.11C440.55 221.463 437.245 220.488 435.31 221.565C433.375 222.641 432.574 226.061 430.507 226.919C428.44 227.777 425.485 225.958 423.317 226.541C421.148 227.122 419.503 230.162 417.262 230.468C415.021 230.773 412.677 228.228 410.422 228.228C408.165 228.228 405.749 230.745 403.565 230.468C401.383 230.192 399.665 227.108 397.525 226.541C395.387 225.973 392.388 227.777 390.336 226.919C388.283 226.061 387.424 222.671 385.533 221.565C383.641 220.46 380.249 221.435 378.488 220.11C376.727 218.787 376.8 215.265 375.227 213.695C373.656 212.123 370.163 212.24 368.795 210.436C367.426 208.633 368.416 205.33 367.339 203.394C366.262 201.46 362.841 200.66 361.983 198.579C361.124 196.499 362.944 193.561 362.361 191.392C361.779 189.225 358.737 187.596 358.446 185.355C358.155 183.115 360.687 180.773 360.687 178.504C360.687 176.234 358.155 173.848 358.446 171.666C358.737 169.483 361.794 167.768 362.361 165.629C362.928 163.49 361.124 160.479 361.983 158.442C362.841 156.405 366.233 155.533 367.339 153.627C368.445 151.721 367.484 148.346 368.795 146.585C370.104 144.826 373.641 144.912 375.213 143.326C376.784 141.742 376.669 138.264 378.473 136.911C380.278 135.558 383.582 136.533 385.518 135.456C387.454 134.38 388.254 130.961 390.336 130.102C392.417 129.245 395.357 131.063 397.525 130.481C399.695 129.899 401.339 126.845 403.565 126.553C405.793 126.262 408.151 128.793 410.422 128.793C412.692 128.793 415.078 126.276 417.262 126.553C419.445 126.829 421.178 129.913 423.302 130.481C425.428 131.049 428.455 129.245 430.493 130.088C432.53 130.932 433.403 134.336 435.31 135.456C437.217 136.577 440.594 135.588 442.354 136.911C444.116 138.235 444.043 141.756 445.615 143.326C447.187 144.898 450.68 144.782 452.034 146.585C453.388 148.39 452.412 151.691 453.489 153.627C454.566 155.561 458.002 156.361 458.86 158.428C459.718 160.493 457.885 163.462 458.467 165.629C459.05 167.796 462.105 169.425 462.397 171.666C462.688 173.906 460.156 176.248 460.156 178.504C460.156 180.759 462.673 183.173 462.397 185.355C462.12 187.538 459.05 189.255 458.481 191.392ZM170.004 168.116C169.523 166.356 171.008 163.941 170.31 162.298C169.611 160.653 166.86 159.94 165.943 158.384C165.026 156.827 165.827 154.092 164.735 152.666C163.644 151.241 160.79 151.299 159.51 150.019C158.229 148.738 158.302 145.902 156.861 144.796C155.42 143.69 152.713 144.506 151.141 143.589C149.569 142.672 148.914 139.937 147.226 139.225C145.538 138.511 143.15 140.009 141.403 139.53C139.657 139.05 138.318 136.62 136.499 136.344C134.679 136.067 132.772 138.162 130.939 138.162C129.105 138.162 127.14 136.111 125.364 136.344C123.588 136.577 122.206 139.078 120.459 139.53C118.713 139.981 116.282 138.526 114.638 139.225C112.993 139.923 112.294 142.672 110.722 143.589C109.15 144.506 106.443 143.706 105.002 144.81C103.561 145.916 103.634 148.738 102.353 150.019C101.072 151.299 98.2486 151.227 97.1424 152.666C96.0362 154.107 96.8367 156.813 95.9198 158.384C95.0028 159.955 92.2665 160.609 91.5533 162.298C90.8401 163.985 92.3393 166.371 91.8735 168.116C91.4078 169.863 88.9626 171.2 88.686 173.019C88.4095 174.837 90.5053 176.743 90.5053 178.576C90.5053 180.409 88.4531 182.373 88.686 184.148C88.9188 185.923 91.4078 187.319 91.8735 189.05C92.3393 190.781 90.8692 193.226 91.5533 194.87C92.2373 196.514 95.0028 197.226 95.9198 198.784C96.8367 200.34 96.0216 203.147 97.1278 204.5C98.2339 205.853 101.072 205.868 102.353 207.148C103.634 208.428 103.561 211.265 104.987 212.356C106.414 213.448 109.15 212.662 110.722 213.578C112.294 214.495 112.949 217.23 114.623 217.943C116.297 218.655 118.698 217.157 120.445 217.637C122.191 218.118 123.544 220.547 125.364 220.824C127.184 221.099 129.091 219.005 130.924 219.005C132.758 219.005 134.709 221.041 136.485 220.824C138.259 220.605 139.657 218.088 141.389 217.623C143.121 217.157 145.566 218.626 147.211 217.943C148.856 217.259 149.555 214.495 151.112 213.578C152.669 212.662 155.406 213.462 156.832 212.356C158.258 211.251 158.2 208.428 159.481 207.148C160.762 205.868 163.6 205.941 164.706 204.5C165.812 203.06 165.012 200.354 165.915 198.784C166.816 197.212 169.582 196.557 170.28 194.87C170.979 193.182 169.495 190.797 169.975 189.05C170.455 187.305 172.886 185.952 173.162 184.148C173.439 182.344 171.343 180.424 171.343 178.576C171.343 176.728 173.395 174.794 173.162 173.019C172.93 171.244 170.47 169.746 170.004 168.044V168.116ZM356.598 141.028C357.165 138.904 360.236 137.231 360.527 134.991C360.818 132.751 358.286 130.408 358.286 128.154C358.286 125.898 360.804 123.484 360.527 121.301C360.251 119.119 357.165 117.402 356.598 115.264C356.029 113.126 357.835 110.114 356.99 108.077C356.146 106.041 352.74 105.168 351.62 103.262C350.499 101.356 351.489 97.9812 350.164 96.2209C348.84 94.4606 345.317 94.5479 343.746 92.9622C342.173 91.3765 342.29 87.8996 340.485 86.5466C338.681 85.1936 335.376 86.1684 333.44 85.0919C331.505 84.0153 330.704 80.5965 328.623 79.7382C326.541 78.8799 323.602 80.6984 321.432 80.1164C319.264 79.5346 317.634 76.4941 315.392 76.2031C313.151 75.9121 310.808 78.4434 308.552 78.4434C306.296 78.4434 303.879 75.9121 301.697 76.2031C299.513 76.4941 297.796 79.5491 295.656 80.1164C293.517 80.6838 290.504 78.8945 288.466 79.7382C286.428 80.582 285.555 83.9862 283.649 85.0919C281.742 86.1974 278.365 85.2373 276.603 86.5466C274.843 87.8559 274.93 91.391 273.343 92.9768C271.757 94.5625 268.278 94.4315 266.925 96.2355C265.571 98.0394 266.546 101.342 265.47 103.277C264.392 105.211 260.971 106.012 260.114 108.077C259.255 110.143 261.074 113.096 260.492 115.264C259.909 117.432 256.868 119.075 256.576 121.301C256.285 123.528 258.817 125.884 258.817 128.154C258.817 130.423 256.285 132.808 256.576 134.991C256.868 137.173 259.923 138.904 260.492 141.028C260.671 141.848 260.671 142.697 260.492 143.515C258.745 143.225 256.606 143.515 255.208 142.687C253.287 141.581 252.471 138.192 250.391 137.333C248.309 136.475 245.369 138.308 243.201 137.726C241.032 137.144 239.401 134.089 237.16 133.799C234.918 133.507 232.575 136.038 230.32 136.038C228.063 136.038 225.648 133.507 223.464 133.799C221.281 134.089 219.563 137.144 217.424 137.726C215.284 138.308 212.272 136.489 210.233 137.333C208.196 138.177 207.323 141.581 205.416 142.701C203.509 143.821 200.132 142.832 198.372 144.156C196.61 145.48 196.683 149.015 195.111 150.586C193.539 152.158 190.047 152.041 188.693 153.845C187.339 155.649 188.314 158.951 187.237 160.886C186.159 162.821 182.74 163.621 181.881 165.687C181.022 167.752 182.842 170.706 182.259 172.888C181.677 175.07 178.635 176.685 178.343 178.926C178.053 181.165 180.586 183.508 180.586 185.763C180.586 188.018 178.053 190.433 178.343 192.615C178.635 194.797 181.692 196.514 182.259 198.652C182.827 200.791 181.022 203.788 181.881 205.839C182.74 207.89 186.131 208.748 187.237 210.654C188.343 212.56 187.382 215.921 188.693 217.696C190.003 219.471 193.539 219.368 195.111 220.954C196.683 222.54 196.566 226.017 198.372 227.37C200.176 228.723 203.495 227.748 205.43 228.825C207.367 229.901 208.167 233.32 210.233 234.178C212.3 235.037 215.255 233.218 217.424 233.785C219.592 234.352 221.237 237.422 223.464 237.713C225.69 238.004 228.049 235.473 230.32 235.473C232.59 235.473 234.977 238.004 237.16 237.713C239.343 237.422 241.075 234.367 243.201 233.785C245.325 233.204 248.353 235.021 250.405 234.178C252.457 233.334 253.316 229.93 255.208 228.809C257.101 227.689 260.492 228.679 262.252 227.355C264.014 226.031 263.941 222.511 265.513 220.925C267.085 219.34 270.579 219.471 271.947 217.666C273.315 215.862 272.311 212.56 273.401 210.625C274.493 208.69 277.914 207.89 278.773 205.824C279.632 203.758 277.798 200.805 278.379 198.638C278.962 196.47 282.018 194.826 282.309 192.6C282.601 190.375 280.068 188.003 280.068 185.749C280.068 183.493 282.586 181.093 282.309 178.896C282.033 176.7 278.947 174.997 278.379 172.859C278.199 172.044 278.199 171.2 278.379 170.386C280.127 170.677 282.251 170.386 283.663 171.2C285.584 172.321 286.399 175.711 288.466 176.569C290.533 177.426 293.488 175.594 295.656 176.176C297.825 176.758 299.47 179.813 301.697 180.104C303.923 180.395 306.281 177.864 308.552 177.864C310.822 177.864 313.209 180.38 315.392 180.104C317.576 179.827 319.308 176.743 321.448 176.176C323.586 175.609 326.585 177.412 328.637 176.569C330.69 175.725 331.549 172.321 333.44 171.2C335.332 170.08 338.724 171.069 340.485 169.746C342.247 168.422 342.173 164.901 343.746 163.33C345.317 161.759 348.81 161.876 350.178 160.071C351.547 158.267 350.542 154.965 351.634 153.03C352.726 151.096 356.146 150.296 357.005 148.215C357.863 146.135 356.015 143.123 356.598 140.956V141.028Z" fill="#92E3A9"/>
<path opacity="0.5" d="M458.481 191.392C457.899 193.561 459.718 196.543 458.875 198.579C458.03 200.616 454.625 201.489 453.504 203.394C452.383 205.3 453.372 208.661 452.048 210.436C450.723 212.211 447.201 212.109 445.615 213.695C444.029 215.281 444.16 218.757 442.354 220.11C440.55 221.463 437.245 220.488 435.31 221.565C433.375 222.641 432.574 226.061 430.507 226.919C428.44 227.777 425.485 225.958 423.317 226.541C421.148 227.122 419.503 230.162 417.262 230.468C415.021 230.773 412.677 228.228 410.422 228.228C408.165 228.228 405.749 230.745 403.565 230.468C401.383 230.192 399.665 227.108 397.525 226.541C395.387 225.973 392.388 227.777 390.336 226.919C388.283 226.061 387.424 222.671 385.533 221.565C383.641 220.46 380.249 221.435 378.488 220.11C376.727 218.787 376.8 215.265 375.227 213.695C373.656 212.123 370.163 212.24 368.795 210.436C367.426 208.633 368.416 205.33 367.339 203.394C366.262 201.46 362.841 200.66 361.983 198.579C361.124 196.499 362.944 193.561 362.361 191.392C361.779 189.225 358.737 187.596 358.446 185.355C358.155 183.115 360.687 180.773 360.687 178.504C360.687 176.234 358.155 173.848 358.446 171.666C358.737 169.483 361.794 167.768 362.361 165.629C362.928 163.49 361.124 160.479 361.983 158.442C362.841 156.405 366.233 155.533 367.339 153.627C368.445 151.721 367.484 148.346 368.795 146.585C370.104 144.826 373.641 144.912 375.213 143.326C376.784 141.742 376.669 138.264 378.473 136.911C380.278 135.558 383.582 136.533 385.518 135.456C387.454 134.38 388.254 130.961 390.336 130.102C392.417 129.245 395.357 131.063 397.525 130.481C399.695 129.899 401.339 126.845 403.565 126.553C405.793 126.262 408.151 128.793 410.422 128.793C412.692 128.793 415.078 126.276 417.262 126.553C419.445 126.829 421.178 129.913 423.302 130.481C425.428 131.049 428.455 129.245 430.493 130.088C432.53 130.932 433.403 134.336 435.31 135.456C437.217 136.577 440.594 135.588 442.354 136.911C444.116 138.235 444.043 141.756 445.615 143.326C447.187 144.898 450.68 144.782 452.034 146.585C453.388 148.39 452.412 151.691 453.489 153.627C454.566 155.561 458.002 156.361 458.86 158.428C459.718 160.493 457.885 163.462 458.467 165.629C459.05 167.796 462.105 169.425 462.397 171.666C462.688 173.906 460.156 176.248 460.156 178.504C460.156 180.759 462.673 183.173 462.397 185.355C462.12 187.538 459.05 189.255 458.481 191.392ZM170.004 168.116C169.523 166.356 171.008 163.941 170.31 162.298C169.611 160.653 166.86 159.94 165.943 158.384C165.026 156.827 165.827 154.092 164.735 152.666C163.644 151.241 160.79 151.299 159.51 150.019C158.229 148.738 158.302 145.902 156.861 144.796C155.42 143.69 152.713 144.506 151.141 143.589C149.569 142.672 148.914 139.937 147.226 139.225C145.538 138.511 143.15 140.009 141.403 139.53C139.657 139.05 138.318 136.62 136.499 136.344C134.679 136.067 132.772 138.162 130.939 138.162C129.105 138.162 127.14 136.111 125.364 136.344C123.588 136.577 122.206 139.078 120.459 139.53C118.713 139.981 116.282 138.526 114.638 139.225C112.993 139.923 112.294 142.672 110.722 143.589C109.15 144.506 106.443 143.706 105.002 144.81C103.561 145.916 103.634 148.738 102.353 150.019C101.072 151.299 98.2486 151.227 97.1424 152.666C96.0362 154.107 96.8367 156.813 95.9198 158.384C95.0028 159.955 92.2665 160.609 91.5533 162.298C90.8401 163.985 92.3393 166.371 91.8735 168.116C91.4078 169.863 88.9626 171.2 88.686 173.019C88.4095 174.837 90.5053 176.743 90.5053 178.576C90.5053 180.409 88.4531 182.373 88.686 184.148C88.9188 185.923 91.4078 187.319 91.8735 189.05C92.3393 190.781 90.8692 193.226 91.5533 194.87C92.2373 196.514 95.0028 197.226 95.9198 198.784C96.8367 200.34 96.0216 203.147 97.1278 204.5C98.2339 205.853 101.072 205.868 102.353 207.148C103.634 208.428 103.561 211.265 104.987 212.356C106.414 213.448 109.15 212.662 110.722 213.578C112.294 214.495 112.949 217.23 114.623 217.943C116.297 218.655 118.698 217.157 120.445 217.637C122.191 218.118 123.544 220.547 125.364 220.824C127.184 221.099 129.091 219.005 130.924 219.005C132.758 219.005 134.709 221.041 136.485 220.824C138.259 220.605 139.657 218.088 141.389 217.623C143.121 217.157 145.566 218.626 147.211 217.943C148.856 217.259 149.555 214.495 151.112 213.578C152.669 212.662 155.406 213.462 156.832 212.356C158.258 211.251 158.2 208.428 159.481 207.148C160.762 205.868 163.6 205.941 164.706 204.5C165.812 203.06 165.012 200.354 165.915 198.784C166.816 197.212 169.582 196.557 170.28 194.87C170.979 193.182 169.495 190.797 169.975 189.05C170.455 187.305 172.886 185.952 173.162 184.148C173.439 182.344 171.343 180.424 171.343 178.576C171.343 176.728 173.395 174.794 173.162 173.019C172.93 171.244 170.47 169.746 170.004 168.044V168.116ZM356.598 141.028C357.165 138.904 360.236 137.231 360.527 134.991C360.818 132.751 358.286 130.408 358.286 128.154C358.286 125.898 360.804 123.484 360.527 121.301C360.251 119.119 357.165 117.402 356.598 115.264C356.029 113.126 357.835 110.114 356.99 108.077C356.146 106.041 352.74 105.168 351.62 103.262C350.499 101.356 351.489 97.9812 350.164 96.2209C348.84 94.4606 345.317 94.5479 343.746 92.9622C342.173 91.3765 342.29 87.8996 340.485 86.5466C338.681 85.1936 335.376 86.1684 333.44 85.0919C331.505 84.0153 330.704 80.5965 328.623 79.7382C326.541 78.8799 323.602 80.6984 321.432 80.1164C319.264 79.5346 317.634 76.4941 315.392 76.2031C313.151 75.9121 310.808 78.4434 308.552 78.4434C306.296 78.4434 303.879 75.9121 301.697 76.2031C299.513 76.4941 297.796 79.5491 295.656 80.1164C293.517 80.6838 290.504 78.8945 288.466 79.7382C286.428 80.582 285.555 83.9862 283.649 85.0919C281.742 86.1974 278.365 85.2373 276.603 86.5466C274.843 87.8559 274.93 91.391 273.343 92.9768C271.757 94.5625 268.278 94.4315 266.925 96.2355C265.571 98.0394 266.546 101.342 265.47 103.277C264.392 105.211 260.971 106.012 260.114 108.077C259.255 110.143 261.074 113.096 260.492 115.264C259.909 117.432 256.868 119.075 256.576 121.301C256.285 123.528 258.817 125.884 258.817 128.154C258.817 130.423 256.285 132.808 256.576 134.991C256.868 137.173 259.923 138.904 260.492 141.028C260.671 141.848 260.671 142.697 260.492 143.515C258.745 143.225 256.606 143.515 255.208 142.687C253.287 141.581 252.471 138.192 250.391 137.333C248.309 136.475 245.369 138.308 243.201 137.726C241.032 137.144 239.401 134.089 237.16 133.799C234.918 133.507 232.575 136.038 230.32 136.038C228.063 136.038 225.648 133.507 223.464 133.799C221.281 134.089 219.563 137.144 217.424 137.726C215.284 138.308 212.272 136.489 210.233 137.333C208.196 138.177 207.323 141.581 205.416 142.701C203.509 143.821 200.132 142.832 198.372 144.156C196.61 145.48 196.683 149.015 195.111 150.586C193.539 152.158 190.047 152.041 188.693 153.845C187.339 155.649 188.314 158.951 187.237 160.886C186.159 162.821 182.74 163.621 181.881 165.687C181.022 167.752 182.842 170.706 182.259 172.888C181.677 175.07 178.635 176.685 178.343 178.926C178.053 181.165 180.586 183.508 180.586 185.763C180.586 188.018 178.053 190.433 178.343 192.615C178.635 194.797 181.692 196.514 182.259 198.652C182.827 200.791 181.022 203.788 181.881 205.839C182.74 207.89 186.131 208.748 187.237 210.654C188.343 212.56 187.382 215.921 188.693 217.696C190.003 219.471 193.539 219.368 195.111 220.954C196.683 222.54 196.566 226.017 198.372 227.37C200.176 228.723 203.495 227.748 205.43 228.825C207.367 229.901 208.167 233.32 210.233 234.178C212.3 235.037 215.255 233.218 217.424 233.785C219.592 234.353 221.237 237.422 223.464 237.713C225.69 238.004 228.049 235.473 230.32 235.473C232.59 235.473 234.977 238.004 237.16 237.713C239.343 237.422 241.075 234.367 243.201 233.785C245.325 233.204 248.353 235.021 250.405 234.178C252.457 233.334 253.316 229.93 255.208 228.809C257.101 227.689 260.492 228.679 262.252 227.355C264.014 226.031 263.941 222.511 265.513 220.925C267.085 219.34 270.579 219.471 271.947 217.666C273.315 215.862 272.311 212.56 273.401 210.625C274.493 208.69 277.914 207.89 278.773 205.824C279.632 203.758 277.798 200.805 278.379 198.638C278.962 196.47 282.018 194.826 282.309 192.6C282.601 190.375 280.068 188.003 280.068 185.749C280.068 183.493 282.586 181.093 282.309 178.896C282.033 176.7 278.947 174.997 278.379 172.859C278.199 172.044 278.199 171.2 278.379 170.386C280.127 170.677 282.251 170.386 283.663 171.2C285.584 172.32 286.399 175.711 288.466 176.569C290.533 177.426 293.488 175.594 295.656 176.176C297.825 176.758 299.47 179.813 301.697 180.104C303.923 180.395 306.281 177.864 308.552 177.864C310.822 177.864 313.209 180.38 315.392 180.104C317.576 179.827 319.308 176.743 321.448 176.176C323.586 175.609 326.585 177.412 328.637 176.569C330.69 175.725 331.549 172.32 333.44 171.2C335.332 170.08 338.724 171.069 340.485 169.746C342.247 168.422 342.173 164.901 343.746 163.33C345.317 161.759 348.81 161.876 350.178 160.071C351.547 158.267 350.542 154.965 351.634 153.03C352.726 151.096 356.146 150.296 357.005 148.215C357.863 146.135 356.015 143.123 356.598 140.956V141.028Z" fill="#85E4D0"/>
<path d="M144.897 172.306L132.919 157.758C132.655 157.433 132.323 157.17 131.944 156.991C131.567 156.811 131.154 156.718 130.735 156.718C130.317 156.718 129.903 156.811 129.525 156.991C129.148 157.17 128.815 157.433 128.552 157.758L117.257 172.189V395.702H144.912L144.897 172.306Z" fill="white"/>
<path d="M117.141 172.306L105.162 157.758C104.897 157.435 104.564 157.176 104.187 156.997C103.809 156.819 103.397 156.725 102.979 156.725C102.561 156.725 102.149 156.819 101.771 156.997C101.394 157.176 101.061 157.435 100.796 157.758L89.4867 172.306V395.702H117.141V172.306Z" fill="white"/>
<path d="M89.3993 172.306L77.4206 157.758C77.1572 157.433 76.8246 157.17 76.4468 156.991C76.0691 156.811 75.6558 156.718 75.2373 156.718C74.8188 156.718 74.4057 156.811 74.0279 156.991C73.6501 157.17 73.3175 157.433 73.0542 157.758L61.7595 172.189V395.702H89.4138L89.3993 172.306Z" fill="white"/>
<path d="M61.6577 172.306L49.6791 157.758C49.4142 157.435 49.0811 157.176 48.7036 156.997C48.326 156.819 47.9135 156.725 47.4959 156.725C47.0782 156.725 46.6658 156.819 46.2883 156.997C45.9108 157.176 45.5775 157.435 45.3127 157.758L34.0181 172.189V395.702H61.6724L61.6577 172.306Z" fill="white"/>
<path d="M172.552 172.306L160.587 157.758C160.322 157.435 159.989 157.176 159.612 156.997C159.234 156.819 158.822 156.725 158.404 156.725C157.986 156.725 157.574 156.819 157.197 156.997C156.819 157.176 156.485 157.435 156.22 157.758L144.926 172.189V395.702H172.58L172.552 172.306Z" fill="white"/>
<path d="M200.22 172.306L188.241 157.758C187.977 157.435 187.644 157.176 187.266 156.997C186.889 156.819 186.476 156.725 186.058 156.725C185.64 156.725 185.228 156.819 184.851 156.997C184.473 157.176 184.14 157.435 183.875 157.758L172.58 172.189V395.702H200.235L200.22 172.306Z" fill="white"/>
<path d="M227.874 172.306L215.895 157.758C215.632 157.433 215.299 157.17 214.922 156.991C214.544 156.811 214.131 156.718 213.712 156.718C213.293 156.718 212.881 156.811 212.503 156.991C212.126 157.17 211.792 157.433 211.53 157.758L200.234 172.189V395.702H227.889L227.874 172.306Z" fill="white"/>
<path d="M255.528 172.306L243.565 157.758C243.3 157.435 242.966 157.176 242.589 156.997C242.211 156.819 241.799 156.725 241.381 156.725C240.964 156.725 240.552 156.819 240.173 156.997C239.796 157.176 239.463 157.435 239.198 157.758L227.904 172.189V395.702H255.558L255.528 172.306Z" fill="white"/>
<path d="M283.182 172.306L271.219 157.758C270.954 157.435 270.62 157.176 270.243 156.997C269.865 156.819 269.453 156.725 269.035 156.725C268.618 156.725 268.206 156.819 267.827 156.997C267.45 157.176 267.117 157.435 266.852 157.758L255.558 172.189V395.702H283.212L283.182 172.306Z" fill="white"/>
<path d="M310.852 172.306L298.873 157.758C298.608 157.435 298.275 157.176 297.897 156.997C297.52 156.819 297.107 156.725 296.69 156.725C296.272 156.725 295.86 156.819 295.482 156.997C295.104 157.176 294.771 157.435 294.506 157.758L283.212 172.189V395.702H310.866L310.852 172.306Z" fill="white"/>
<path d="M338.506 172.306L326.527 157.758C326.264 157.433 325.931 157.17 325.554 156.991C325.175 156.811 324.763 156.718 324.344 156.718C323.925 156.718 323.513 156.811 323.135 156.991C322.757 157.17 322.424 157.433 322.16 157.758L310.866 172.189V395.702H338.52L338.506 172.306Z" fill="white"/>
<path d="M366.16 172.306L354.196 157.758C353.931 157.435 353.598 157.176 353.221 156.997C352.843 156.819 352.43 156.725 352.012 156.725C351.596 156.725 351.182 156.819 350.805 156.997C350.428 157.176 350.095 157.435 349.83 157.758L338.535 172.189V395.702H366.19L366.16 172.306Z" fill="white"/>
<path d="M393.814 172.306L381.85 157.758C381.585 157.435 381.252 157.176 380.875 156.997C380.497 156.819 380.084 156.725 379.666 156.725C379.25 156.725 378.837 156.819 378.459 156.997C378.082 157.176 377.749 157.435 377.484 157.758L366.19 172.189V395.702H393.844L393.814 172.306Z" fill="white"/>
<path d="M421.484 172.306L409.504 157.758C409.242 157.433 408.908 157.17 408.53 156.991C408.153 156.811 407.74 156.718 407.322 156.718C406.903 156.718 406.489 156.811 406.112 156.991C405.734 157.17 405.402 157.433 405.138 157.758L393.828 172.189V395.702H421.484V172.306Z" fill="white"/>
<path d="M449.138 172.306L437.158 157.758C436.896 157.433 436.562 157.17 436.185 156.991C435.807 156.811 435.394 156.718 434.976 156.718C434.557 156.718 434.143 156.811 433.766 156.991C433.388 157.17 433.056 157.433 432.792 157.758L421.498 172.189V395.702H449.152L449.138 172.306Z" fill="white"/>
<path d="M476.792 172.306L464.828 157.758C464.563 157.435 464.23 157.176 463.852 156.997C463.474 156.819 463.062 156.725 462.644 156.725C462.226 156.725 461.814 156.819 461.437 156.997C461.059 157.176 460.725 157.435 460.461 157.758L449.166 172.189V395.702H476.82L476.792 172.306Z" fill="white"/>
<path d="M504.446 172.306L492.482 157.758C492.217 157.435 491.884 157.176 491.506 156.997C491.128 156.819 490.716 156.725 490.298 156.725C489.88 156.725 489.468 156.819 489.091 156.997C488.714 157.176 488.38 157.435 488.115 157.758L476.82 172.189V395.702H504.474L504.446 172.306Z" fill="white"/>
<path d="M532.114 172.306L520.136 157.758C519.872 157.433 519.54 157.17 519.162 156.991C518.785 156.811 518.371 156.718 517.952 156.718C517.534 156.718 517.121 156.811 516.743 156.991C516.366 157.17 516.032 157.433 515.77 157.758L504.46 172.189V395.702H532.114V172.306Z" fill="white"/>
<g opacity="0.3">
<path opacity="0.3" d="M144.897 172.306L132.919 157.758C132.655 157.433 132.323 157.17 131.944 156.991C131.567 156.811 131.154 156.718 130.735 156.718C130.317 156.718 129.903 156.811 129.525 156.991C129.148 157.17 128.815 157.433 128.552 157.758L117.257 172.189V395.702H144.912L144.897 172.306Z" stroke="black" stroke-miterlimit="10"/>
<path opacity="0.3" d="M117.141 172.306L105.162 157.758C104.898 157.435 104.564 157.176 104.187 156.997C103.809 156.819 103.397 156.725 102.979 156.725C102.561 156.725 102.149 156.819 101.772 156.997C101.394 157.176 101.061 157.435 100.796 157.758L89.4868 172.306V395.702H117.141V172.306Z" stroke="black" stroke-miterlimit="10"/>
<path opacity="0.3" d="M89.3993 172.306L77.4206 157.758C77.1572 157.433 76.8246 157.17 76.4468 156.991C76.0691 156.811 75.6558 156.718 75.2373 156.718C74.8188 156.718 74.4057 156.811 74.0279 156.991C73.6501 157.17 73.3175 157.433 73.0542 157.758L61.7595 172.189V395.702H89.4138L89.3993 172.306Z" stroke="black" stroke-miterlimit="10"/>
<path opacity="0.3" d="M61.6577 172.306L49.6791 157.758C49.4142 157.435 49.0811 157.176 48.7036 156.997C48.326 156.819 47.9135 156.725 47.4959 156.725C47.0782 156.725 46.6658 156.819 46.2883 156.997C45.9108 157.176 45.5775 157.435 45.3127 157.758L34.0181 172.189V395.702H61.6724L61.6577 172.306Z" stroke="black" stroke-miterlimit="10"/>
<path opacity="0.3" d="M172.552 172.306L160.587 157.758C160.322 157.435 159.989 157.176 159.612 156.997C159.234 156.819 158.822 156.725 158.404 156.725C157.986 156.725 157.574 156.819 157.197 156.997C156.819 157.176 156.485 157.435 156.22 157.758L144.926 172.189V395.702H172.58L172.552 172.306Z" stroke="black" stroke-miterlimit="10"/>
<path opacity="0.3" d="M200.22 172.306L188.241 157.758C187.977 157.435 187.644 157.176 187.266 156.997C186.889 156.819 186.476 156.725 186.058 156.725C185.64 156.725 185.228 156.819 184.851 156.997C184.473 157.176 184.14 157.435 183.875 157.758L172.58 172.189V395.702H200.235L200.22 172.306Z" stroke="black" stroke-miterlimit="10"/>
<path opacity="0.3" d="M227.874 172.306L215.896 157.758C215.632 157.433 215.3 157.17 214.922 156.991C214.544 156.811 214.131 156.718 213.712 156.718C213.295 156.718 212.881 156.811 212.503 156.991C212.126 157.17 211.792 157.433 211.53 157.758L200.234 172.189V395.702H227.889L227.874 172.306Z" stroke="black" stroke-miterlimit="10"/>
<path opacity="0.3" d="M255.528 172.306L243.565 157.758C243.3 157.435 242.966 157.176 242.589 156.997C242.211 156.819 241.799 156.725 241.381 156.725C240.964 156.725 240.552 156.819 240.173 156.997C239.796 157.176 239.463 157.435 239.198 157.758L227.904 172.189V395.702H255.558L255.528 172.306Z" stroke="black" stroke-miterlimit="10"/>
<path opacity="0.3" d="M283.182 172.306L271.219 157.758C270.954 157.435 270.62 157.176 270.243 156.997C269.866 156.819 269.453 156.725 269.036 156.725C268.618 156.725 268.206 156.819 267.827 156.997C267.45 157.176 267.117 157.435 266.852 157.758L255.558 172.189V395.702H283.212L283.182 172.306Z" stroke="black" stroke-miterlimit="10"/>
<path opacity="0.3" d="M310.852 172.306L298.873 157.758C298.608 157.435 298.275 157.176 297.897 156.997C297.52 156.819 297.108 156.725 296.69 156.725C296.272 156.725 295.86 156.819 295.483 156.997C295.104 157.176 294.771 157.435 294.506 157.758L283.212 172.189V395.702H310.866L310.852 172.306Z" stroke="black" stroke-miterlimit="10"/>
<path opacity="0.3" d="M338.506 172.306L326.527 157.758C326.264 157.433 325.931 157.17 325.554 156.991C325.175 156.811 324.763 156.718 324.344 156.718C323.925 156.718 323.513 156.811 323.135 156.991C322.757 157.17 322.424 157.433 322.16 157.758L310.866 172.189V395.702H338.52L338.506 172.306Z" stroke="black" stroke-miterlimit="10"/>
<path opacity="0.3" d="M366.16 172.306L354.196 157.758C353.931 157.435 353.598 157.176 353.221 156.997C352.843 156.819 352.43 156.725 352.012 156.725C351.596 156.725 351.182 156.819 350.805 156.997C350.428 157.176 350.095 157.435 349.83 157.758L338.535 172.189V395.702H366.19L366.16 172.306Z" stroke="black" stroke-miterlimit="10"/>
<path opacity="0.3" d="M393.814 172.306L381.85 157.758C381.585 157.435 381.252 157.176 380.875 156.997C380.497 156.819 380.084 156.725 379.666 156.725C379.25 156.725 378.837 156.819 378.459 156.997C378.082 157.176 377.749 157.435 377.484 157.758L366.19 172.189V395.702H393.844L393.814 172.306Z" stroke="black" stroke-miterlimit="10"/>
<path opacity="0.3" d="M421.484 172.306L409.504 157.758C409.242 157.433 408.908 157.17 408.53 156.991C408.153 156.811 407.74 156.718 407.322 156.718C406.903 156.718 406.489 156.811 406.112 156.991C405.734 157.17 405.402 157.433 405.138 157.758L393.828 172.189V395.702H421.484V172.306Z" stroke="black" stroke-miterlimit="10"/>
<path opacity="0.3" d="M449.138 172.306L437.158 157.758C436.896 157.433 436.562 157.17 436.185 156.991C435.807 156.811 435.394 156.718 434.976 156.718C434.557 156.718 434.143 156.811 433.766 156.991C433.388 157.17 433.056 157.433 432.792 157.758L421.498 172.189V395.702H449.152L449.138 172.306Z" stroke="black" stroke-miterlimit="10"/>
<path opacity="0.3" d="M476.792 172.306L464.828 157.758C464.563 157.435 464.23 157.176 463.852 156.997C463.474 156.819 463.062 156.725 462.644 156.725C462.226 156.725 461.814 156.819 461.437 156.997C461.06 157.176 460.726 157.435 460.461 157.758L449.166 172.189V395.702H476.82L476.792 172.306Z" stroke="black" stroke-miterlimit="10"/>
<path opacity="0.3" d="M504.446 172.306L492.482 157.758C492.217 157.435 491.884 157.176 491.507 156.997C491.128 156.819 490.716 156.725 490.298 156.725C489.881 156.725 489.468 156.819 489.091 156.997C488.714 157.176 488.38 157.435 488.115 157.758L476.82 172.189V395.702H504.475L504.446 172.306Z" stroke="black" stroke-miterlimit="10"/>
<path opacity="0.3" d="M532.114 172.306L520.136 157.758C519.872 157.433 519.54 157.17 519.162 156.991C518.785 156.811 518.371 156.718 517.952 156.718C517.534 156.718 517.121 156.811 516.744 156.991C516.366 157.17 516.033 157.433 515.77 157.758L504.46 172.189V395.702H532.114V172.306Z" stroke="black" stroke-miterlimit="10"/>
</g>
<path d="M530.077 401.667L563 402.351L551.531 398.932L549.26 398.408L545.549 397.565L548.038 388.676L544.049 392.779V385.258L538.053 387.964L533.57 379.758L531.576 385.228L528.083 374.288L526.132 385.258L520.645 379.104V390.043L513.149 384.574L512.654 390.043L507.662 380.471L506.207 389.36L501.724 383.206L502.219 390.728L499.715 389.112L501.069 385.941L497.809 387.964L494.65 385.941L496.004 389.112L493.5 390.728L493.995 383.206L489.498 389.418L488.043 380.53L483.065 390.101L482.555 384.631L475.074 390.101V379.162L469.587 385.316L467.592 374.376L464.1 385.316L462.091 379.788L457.565 387.964L451.582 385.228V392.749L447.537 388.676L450.025 397.565L446.3 398.408L444.043 398.932L441.744 399.616H436.911L439.91 393.462L433.418 394.146L436.911 385.941L429.43 390.728L429.925 383.206L425.442 389.418L423.986 380.53L418.994 390.101L418.499 384.631L411.019 390.101V379.162L405.53 385.316L403.523 374.376L400.029 385.316L398.05 379.788L393.508 387.964L387.512 385.228V392.749L383.495 388.676L385.998 397.565L382.273 398.408L380.002 398.932H379.827L383.059 393.418L375.271 394.102L379.463 385.897L370.468 390.684L371.065 383.163L365.679 389.317L363.875 380.427L357.878 390L357.282 384.53L348.287 390V379.06L341.694 385.214L339.292 374.274L335.1 385.214L332.699 379.744L327.327 387.964L324.504 386.887L324.751 383.177L322.582 386.086L320.138 385.156V388.487L318.769 380.369L313.777 389.942L313.282 384.472L305.786 389.942V379.002L300.299 385.156L298.305 374.215L294.812 385.156L292.818 379.685L288.335 387.964L282.339 385.228V392.749L278.351 388.647L279.805 393.681L275.702 394.117L279.195 385.912L271.713 390.698L272.208 383.177L267.667 389.418L266.212 380.53L261.234 390.043L260.739 384.574L253.243 390.043V379.104L247.756 385.258L245.763 374.318L242.269 385.258L240.275 379.788L235.749 387.964L229.751 385.228V392.749L225.764 388.647L227.219 393.681L223.115 394.117L226.607 385.912L219.025 390.728L219.519 383.206L215.08 389.418L213.625 380.53L208.648 390.101L208.137 384.631L200.657 390.101V379.162L195.17 385.316L193.175 374.376L189.683 385.316L187.688 379.846L183.148 387.964L177.165 385.228V392.749L173.177 388.647L174.632 393.681L170.528 394.117L174.021 385.912L166.526 390.698L167.035 383.177L162.494 389.418L161.038 380.53L156.061 390.101L155.551 384.631L148.07 390.101V379.162L142.583 385.316L140.588 374.376L137.096 385.316L135.101 379.846L130.56 387.964L124.578 385.228V392.749L120.591 388.647L122.046 393.681L117.942 394.117L121.434 385.912L113.939 390.698L114.448 383.177L109.863 389.418L108.408 380.53L103.416 390.101L102.921 384.631L95.4395 390.101V379.162L89.9523 385.316L88.0311 374.318L84.5379 385.258L82.5439 379.788L77.9737 387.964L73.7964 386.043V385.912L73.6363 386L71.9334 385.228V387.105L68.5421 389.258L67.9454 388.647L68.1783 389.506L66.3152 390.698L66.81 383.177L62.3709 389.418L60.9154 380.53L55.923 390.101L55.4136 384.631L47.9324 390.101V379.162L42.4452 385.316L40.4512 374.376L36.9581 385.316L34.964 379.846L30.452 387.964L24.4554 385.228V392.749L20.4674 388.647L22.9563 397.536L19.2448 398.38L16.9742 398.903L5.505 402.322L38.4281 401.638L28.9529 407.792L78.7596 406.337L76.4745 407.792L131.594 406.148L129.061 407.792L184.18 406.148L181.662 407.792L236.767 406.148L234.25 407.792L289.369 406.148L286.836 407.792L327.794 406.57L325.523 407.792L394.644 406.075L392.01 407.792L459.18 405.814L456.109 407.821L497.838 406.57L539.582 407.821L530.077 401.667ZM72.0208 390.32V392.779L71.293 392.023L72.0208 390.32ZM79.4873 401.798L85.9934 401.667L84.2031 402.817L79.4873 401.798ZM123.152 397.565L122.366 397.739L122.904 396.649L123.152 397.565ZM175.738 397.565L174.952 397.739L175.36 396.691L175.738 397.565ZM180.105 401.93L191.211 401.697L188.168 403.675L180.105 401.93ZM228.325 397.565L227.54 397.739L228.078 396.649L228.325 397.565ZM232.692 401.93L243.798 401.697L240.755 403.675L232.692 401.93ZM280.912 397.565L280.127 397.739L280.664 396.649L280.912 397.565ZM285.278 401.93L296.384 401.697L293.255 403.645L285.278 401.93ZM336.817 401.697H336.919H336.817ZM387.221 401.988L401.558 401.697L398.05 403.966L387.221 401.988ZM459.719 405.537L444.043 402.147L465.628 401.697L459.719 405.537ZM498.187 394.102H497.881H497.591L497.881 393.404L498.187 394.102Z" fill="#263238"/>
<path opacity="0.7" d="M530.077 401.667L563 402.351L551.531 398.932L549.26 398.408L545.549 397.565L548.038 388.676L544.049 392.779V385.258L538.053 387.964L533.57 379.758L531.576 385.228L528.083 374.288L526.132 385.258L520.645 379.104V390.043L513.149 384.574L512.654 390.043L507.662 380.471L506.207 389.36L501.724 383.206L502.219 390.728L499.715 389.112L501.069 385.941L497.809 387.964L494.65 385.941L496.004 389.112L493.5 390.728L493.995 383.206L489.498 389.418L488.043 380.53L483.065 390.101L482.555 384.631L475.074 390.101V379.162L469.587 385.316L467.592 374.376L464.1 385.316L462.091 379.788L457.565 387.964L451.582 385.228V392.749L447.537 388.676L450.025 397.565L446.3 398.408L444.043 398.932L441.744 399.616H436.911L439.91 393.462L433.418 394.146L436.911 385.941L429.43 390.728L429.925 383.206L425.442 389.418L423.986 380.53L418.994 390.101L418.499 384.631L411.019 390.101V379.162L405.53 385.316L403.523 374.376L400.029 385.316L398.05 379.788L393.508 387.964L387.512 385.228V392.749L383.495 388.676L385.998 397.565L382.273 398.408L380.002 398.932H379.827L383.059 393.418L375.271 394.102L379.463 385.897L370.468 390.684L371.065 383.163L365.679 389.317L363.875 380.427L357.878 390L357.282 384.53L348.287 390V379.06L341.694 385.214L339.292 374.274L335.1 385.214L332.699 379.744L327.327 387.964L324.504 386.887L324.751 383.177L322.582 386.086L320.138 385.156V388.487L318.769 380.369L313.777 389.942L313.282 384.472L305.786 389.942V379.002L300.299 385.156L298.305 374.215L294.812 385.156L292.818 379.685L288.335 387.964L282.339 385.228V392.749L278.351 388.647L279.805 393.681L275.702 394.117L279.195 385.912L271.713 390.698L272.208 383.177L267.667 389.418L266.212 380.53L261.234 390.043L260.739 384.574L253.243 390.043V379.104L247.756 385.258L245.763 374.318L242.269 385.258L240.275 379.788L235.749 387.964L229.751 385.228V392.749L225.764 388.647L227.219 393.681L223.115 394.117L226.607 385.912L219.025 390.728L219.519 383.206L215.08 389.418L213.625 380.53L208.648 390.101L208.137 384.631L200.657 390.101V379.162L195.17 385.316L193.175 374.376L189.683 385.316L187.688 379.846L183.148 387.964L177.165 385.228V392.749L173.177 388.647L174.632 393.681L170.528 394.117L174.021 385.912L166.526 390.698L167.035 383.177L162.494 389.418L161.038 380.53L156.061 390.101L155.551 384.631L148.07 390.101V379.162L142.583 385.316L140.588 374.376L137.096 385.316L135.101 379.846L130.56 387.964L124.578 385.228V392.749L120.591 388.647L122.046 393.681L117.942 394.117L121.434 385.912L113.939 390.698L114.448 383.177L109.863 389.418L108.408 380.53L103.416 390.101L102.921 384.631L95.4395 390.101V379.162L89.9523 385.316L88.0311 374.318L84.5379 385.258L82.5439 379.788L77.9737 387.964L73.7964 386.043V385.912L73.6363 386L71.9334 385.228V387.105L68.5421 389.258L67.9454 388.647L68.1783 389.506L66.3152 390.698L66.81 383.177L62.3709 389.418L60.9154 380.53L55.923 390.101L55.4136 384.631L47.9324 390.101V379.162L42.4452 385.316L40.4512 374.376L36.9581 385.316L34.964 379.846L30.452 387.964L24.4554 385.228V392.749L20.4674 388.647L22.9563 397.536L19.2448 398.38L16.9742 398.903L5.505 402.322L38.4281 401.638L28.9529 407.792L78.7596 406.337L76.4745 407.792L131.594 406.148L129.061 407.792L184.18 406.148L181.662 407.792L236.767 406.148L234.25 407.792L289.369 406.148L286.836 407.792L327.794 406.57L325.523 407.792L394.644 406.075L392.01 407.792L459.18 405.814L456.109 407.821L497.838 406.57L539.582 407.821L530.077 401.667ZM72.0208 390.32V392.779L71.293 392.023L72.0208 390.32ZM79.4873 401.798L85.9934 401.667L84.2031 402.817L79.4873 401.798ZM123.152 397.565L122.366 397.739L122.904 396.649L123.152 397.565ZM175.738 397.565L174.952 397.739L175.36 396.691L175.738 397.565ZM180.105 401.93L191.211 401.697L188.168 403.675L180.105 401.93ZM228.325 397.565L227.54 397.739L228.078 396.649L228.325 397.565ZM232.692 401.93L243.798 401.697L240.755 403.675L232.692 401.93ZM280.912 397.565L280.127 397.739L280.664 396.649L280.912 397.565ZM285.278 401.93L296.384 401.697L293.255 403.645L285.278 401.93ZM336.817 401.697H336.919H336.817ZM387.221 401.988L401.558 401.697L398.05 403.966L387.221 401.988ZM459.719 405.537L444.043 402.147L465.628 401.697L459.719 405.537ZM498.187 394.102H497.881H497.591L497.881 393.404L498.187 394.102Z" fill="white"/>
<path d="M208.225 224.358C208.225 224.358 221.135 229.29 227.758 241.205C234.381 253.119 245.5 302.306 245.5 302.306C245.5 302.306 265.615 303.891 269.851 303.891C274.086 303.891 300.562 301.767 300.562 301.767L301.886 309.972C301.886 309.972 284.419 317.392 268.526 319.239C252.632 321.087 234.365 320.301 231.455 318.454C228.544 316.606 213.727 279.014 213.727 279.014C213.727 279.014 210.539 262.342 207.905 250.69C205.271 239.037 202.738 228.431 208.225 224.358Z" fill="white" stroke="#263238" stroke-linecap="round" stroke-linejoin="round"/>
<path d="M224.716 247.897L217.511 262.794L224.236 257.033" stroke="#263238" stroke-linecap="round" stroke-linejoin="round"/>
<path d="M300.532 301.796C300.532 301.796 274.057 303.92 269.821 303.92C265.585 303.92 245.471 302.334 245.471 302.334C245.471 302.334 242.997 291.41 239.649 278.608C232.038 281.419 224.661 284.824 217.584 288.79C222.198 300.065 229.446 317.217 231.382 318.454C234.293 320.301 252.574 321.087 268.453 319.239C284.333 317.392 301.813 309.972 301.813 309.972L300.532 301.796Z" fill="white" stroke="#263238" stroke-linecap="round" stroke-linejoin="round"/>
<path d="M312.481 311.325L305.597 311.063L285.978 317.42L283.329 300.487L298.422 301.273C301.759 299.394 305.205 297.713 308.741 296.239C310.866 295.716 320.137 296.516 320.137 296.516C320.137 296.516 320.661 297.563 319.336 298.364L317.998 299.222C317.998 299.222 325.945 301.854 327.269 302.917C328.594 303.979 326.731 306.365 326.731 306.365C326.525 307.011 326.18 307.606 325.723 308.108C325.267 308.61 324.707 309.008 324.082 309.274C322.254 310.151 320.281 310.689 318.26 310.86C318.26 310.86 314.33 311.325 312.481 311.325Z" fill="#263238" stroke="#263238" stroke-linecap="round" stroke-linejoin="round"/>
<path d="M188.082 407.995C188.082 407.995 194.514 407.34 197.382 404.461C200.249 401.58 194.063 396.939 190.745 399.586C187.426 402.234 186.539 402.249 188.082 407.995Z" fill="white" stroke="#263238" stroke-linecap="round" stroke-linejoin="round"/>
<path d="M183.438 221.041C174.21 224.956 165.857 230.673 158.869 237.858C146.469 250.254 145.77 267.289 143.15 283.219C140.53 299.148 142.714 334.325 143.368 345.774C144.024 357.224 153.994 371.219 172.377 389.142C190.759 407.065 229.898 434.05 242.734 434.05C255.572 434.05 261.467 419.75 259.778 407.268C255.659 376.907 213.32 334.703 210.889 329.627C208.458 324.549 209.782 316.781 210.001 315.456C210.219 314.133 218.195 276.963 220.189 266.562C222.184 256.16 216.201 228.956 211.107 225.406C206.013 221.856 195.839 218.393 183.438 221.041Z" fill="#6DA59A" stroke="#263238" stroke-linecap="round" stroke-linejoin="round"/>
<path d="M194.281 338.312C194.281 338.312 200.933 331.445 206.246 330.791" stroke="#263238" stroke-linecap="round" stroke-linejoin="round"/>
<path d="M143.15 317.945C143.15 317.945 161.301 329.903 203.145 321.043" stroke="#263238" stroke-linecap="round" stroke-linejoin="round"/>
<path d="M146.25 323.952C146.25 323.952 175.026 334.354 201.369 325.058" stroke="#263238" stroke-linecap="round" stroke-linejoin="round"/>
<path d="M184.093 272.817C194.983 272.568 205.695 270.004 215.517 265.296L214.863 268.831" stroke="#263238" stroke-linecap="round" stroke-linejoin="round"/>
<path d="M199.711 388.589C199.711 388.589 223.959 412.084 229.942 414.6" stroke="#263238" stroke-linecap="round" stroke-linejoin="round"/>
<path d="M184.093 373.139C184.093 373.139 186.276 358.591 200.832 344.771" stroke="#263238" stroke-linecap="round" stroke-linejoin="round"/>
<path d="M199.711 388.589C199.711 388.589 189.42 398.772 188.066 407.996L167.938 386.989C166.634 386.066 165.214 385.317 163.716 384.763C162.829 384.763 159.058 393.171 156.846 396.502C154.634 399.835 152.204 396.721 152.48 391.193C152.757 385.664 159.452 375.54 160.558 370.666C161.665 365.792 165.42 362.257 168.738 363.144C172.056 364.032 199.711 388.589 199.711 388.589Z" fill="#263238" stroke="#263238" stroke-linecap="round" stroke-linejoin="round"/>
<path d="M147.139 302.465C153.121 302.248 166.831 298.698 172.814 289.373C178.795 280.047 178.795 257.513 174.588 245.554C171.474 236.724 166.438 233.916 164.022 233.087C162.319 234.542 160.601 236.084 158.869 237.815C146.469 250.21 145.77 267.245 143.15 283.175C142.265 289.61 141.847 296.1 141.898 302.596L147.139 302.465Z" fill="white" stroke="#263238" stroke-linecap="round" stroke-linejoin="round"/>
<path d="M183.438 221.041C178.129 223.232 173.125 226.097 168.548 229.567C171.838 231.571 174.594 234.342 176.583 237.641C180.338 244.275 183.22 263.521 183.22 263.521C183.22 263.521 184.763 263.521 195.387 261.979C202.358 260.861 209.189 259.003 215.764 256.436C215.313 251.359 210.452 227.675 208.225 224.431C207.986 224.085 207.717 223.759 207.425 223.456C199.902 220.074 191.484 219.227 183.438 221.041Z" fill="white" stroke="#263238" stroke-linecap="round" stroke-linejoin="round"/>
<path d="M178.097 236.855C178.097 236.855 187.703 252.712 195.882 251.257C204.062 249.803 204.048 239.735 204.048 239.735" stroke="#263238" stroke-linecap="round" stroke-linejoin="round"/>
<path d="M179.45 204.66C179.45 204.66 178.795 221.914 179.45 227.661C180.105 233.407 188.532 245.802 195.387 244.928C202.243 244.056 202.039 226.119 202.039 226.119C202.039 226.119 190.308 208.864 186.975 205.752C183.641 202.638 180.556 202.682 179.45 204.66Z" fill="white" stroke="#263238" stroke-linecap="round" stroke-linejoin="round"/>
<path d="M179.013 201.751C179.013 201.751 174.647 198.201 172.377 201.3C170.106 204.399 173.92 212.138 177.237 213.243C180.556 214.349 181.604 213.695 181.604 213.695C183.147 218.099 185.152 222.326 187.587 226.308C190.687 230.672 200.424 238.921 207.061 236.491C213.698 234.062 216.812 219.034 217.918 212.822C218.457 210.269 218.827 207.684 219.025 205.083C213.506 203.741 207.872 202.922 202.199 202.638C192.957 202.188 179.013 201.751 179.013 201.751Z" fill="white" stroke="#263238" stroke-linecap="round" stroke-linejoin="round"/>
<path d="M183.89 203.511C183.89 203.511 185.214 210.378 183.22 210.786C181.225 211.192 179.013 201.722 179.013 201.722L183.89 203.511Z" fill="#263238" stroke="#263238" stroke-linecap="round" stroke-linejoin="round"/>
<path d="M210.67 210.145C210.67 210.145 211.776 220.329 210.001 221.216C208.225 222.103 205.14 220.329 205.14 220.329" stroke="#263238" stroke-linecap="round" stroke-linejoin="round"/>
<path d="M175.972 198.841C175.972 198.841 187.121 210.233 197.31 211.207C207.497 212.181 232.241 205.635 233.696 202.973C235.151 200.31 220.844 193.75 220.844 193.75C220.844 193.75 219.141 176.292 216.958 171.928C214.775 167.563 201.69 163.693 190.759 167.083C179.829 170.473 172.566 174.111 172.814 180.176C173.061 186.243 175.972 198.841 175.972 198.841Z" fill="#263238" stroke="#263238" stroke-linecap="round" stroke-linejoin="round"/>
<path d="M183.599 199.743C193.786 200.573 211.791 200.835 220.83 193.793" stroke="white" stroke-linecap="round" stroke-linejoin="round"/>
<path d="M147.356 266.838C147.356 266.838 151.126 285.648 153.775 295.831C156.424 306.015 156.876 309.986 159.088 310.874C161.301 311.761 232.808 300.473 232.808 300.473V292.733L178.795 287.423C178.795 287.423 173.846 252.013 171.518 247.592C170.853 246.252 169.808 245.139 168.514 244.391C167.219 243.644 165.733 243.294 164.24 243.386" fill="white"/>
<path d="M147.356 266.838C147.356 266.838 151.126 285.648 153.775 295.831C156.424 306.015 156.876 309.986 159.088 310.874C161.301 311.761 232.808 300.473 232.808 300.473V292.733L178.795 287.423C178.795 287.423 173.846 252.013 171.518 247.592C170.853 246.252 169.808 245.139 168.514 244.391C167.219 243.644 165.733 243.294 164.24 243.386" stroke="#263238" stroke-linecap="round" stroke-linejoin="round"/>
<path d="M177.078 272.599C172.198 272.445 167.341 273.31 162.815 275.139C158.289 276.967 154.194 279.719 150.792 283.219C151.781 287.714 152.844 292.341 153.702 295.905C156.366 306.088 156.803 310.06 159.016 310.947C161.227 311.835 232.736 300.545 232.736 300.545V292.805L178.723 287.496C178.723 287.496 178.126 280.6 177.078 272.599Z" fill="white" stroke="#263238" stroke-linecap="round" stroke-linejoin="round"/>
<path d="M178.795 287.423C178.795 287.423 168.389 286.535 163.075 291.394" stroke="#263238" stroke-linecap="round" stroke-linejoin="round"/>
<path d="M265.193 287.467C265.193 287.467 272.878 282.856 279.035 281.517L266.343 290.74L268.264 293.242L283.27 286.71C283.27 286.71 277.303 292.864 274.042 294.202C272.098 295.009 270.229 295.983 268.453 297.112L262.631 288.456L265.193 287.467Z" fill="white" stroke="#263238" stroke-linecap="round" stroke-linejoin="round"/>
<path d="M261.132 299.222C261.132 299.222 260.695 301.651 256.926 304.749C253.156 307.849 248.513 307.397 252.065 308.503C255.615 309.608 260.026 308.066 264.451 300.545C268.875 293.024 261.132 299.222 261.132 299.222Z" fill="white" stroke="#263238" stroke-linecap="round" stroke-linejoin="round"/>
<path d="M227.263 290.289L228.15 303.571L240.769 300.662C242.635 301.529 244.586 302.197 246.592 302.654C250.913 302.859 255.24 302.412 259.429 301.331C260.634 300.862 261.897 300.563 263.184 300.443C263.184 300.443 261.641 303.353 263.403 303.353C265.164 303.353 268.948 302.248 270.054 300.69C271.16 299.134 270.942 295.831 270.942 295.831C270.942 295.831 271.379 292.5 270.054 290.74C268.73 288.98 264.232 284.921 262.078 285.212C259.923 285.503 240.391 290.071 238.79 290.522C237.189 290.972 227.263 290.289 227.263 290.289Z" fill="#263238" stroke="#263238" stroke-linecap="round" stroke-linejoin="round"/>
<path d="M155.333 321.494C155.333 321.494 144.257 336.042 142.495 350.925C140.735 365.807 145.814 384.384 147.575 388.094C149.336 391.804 148.914 395.165 153.557 395.833C158.2 396.502 181.211 396.721 182.332 392.735C183.452 388.748 184.326 336.318 183.438 328.564C182.551 320.81 171.707 317.072 167.064 317.072C162.743 317.058 158.568 318.632 155.333 321.494Z" fill="#6DA59A" stroke="#263238" stroke-linecap="round" stroke-linejoin="round"/>
<path d="M146.469 389.636C158.909 391.089 171.511 390.266 183.657 387.206C183.657 387.206 182.696 444.554 183.365 445.879C184.035 447.202 195.096 461.154 199.084 464.688C203.073 468.224 203.728 469.344 201.297 471.962C198.867 474.581 195.096 477.709 183.365 472.85C171.634 467.991 168.097 458.912 164.764 454.491C161.432 450.068 162.115 448.948 162.115 442.314C162.115 435.68 146.469 389.636 146.469 389.636Z" fill="#263238" stroke="#263238" stroke-linecap="round" stroke-linejoin="round"/>
<path d="M157.167 389.869C154.089 384.426 151.879 378.536 150.617 372.412" stroke="#263238" stroke-linecap="round" stroke-linejoin="round"/>
<path d="M169.538 389.869C169.538 389.869 174.632 381.868 173.177 376.049" stroke="#263238" stroke-linecap="round" stroke-linejoin="round"/>
<path d="M80.7537 393.317L82.2964 421.976C82.3659 423.319 82.8257 424.611 83.6194 425.697C84.4129 426.782 85.5061 427.613 86.7648 428.087C96.4731 431.859 107.243 431.859 116.951 428.087C118.203 427.618 119.291 426.797 120.084 425.723C120.877 424.649 121.341 423.367 121.42 422.034L123.224 393.332L80.7537 393.317Z" fill="white" stroke="#263238" stroke-linecap="round" stroke-linejoin="round"/>
<path d="M78.6578 383.511V393.695C78.6578 395.499 89.0354 396.968 101.829 396.968C114.623 396.968 125 395.513 125 393.695V383.511H78.6578Z" fill="white" stroke="#263238" stroke-linecap="round" stroke-linejoin="round"/>
<path d="M101.829 386.784C114.627 386.784 125 385.319 125 383.511C125 381.704 114.627 380.238 101.829 380.238C89.032 380.238 78.6578 381.704 78.6578 383.511C78.6578 385.319 89.032 386.784 101.829 386.784Z" fill="white" stroke="#263238" stroke-linecap="round" stroke-linejoin="round"/>
<path d="M81.205 385.053C85.0474 386.116 92.8488 386.843 101.829 386.843C110.81 386.843 118.61 386.116 122.454 385.053C118.61 384.006 110.81 383.279 101.829 383.279C92.8488 383.279 85.1202 383.948 81.205 385.053Z" fill="#263238" stroke="#263238" stroke-linecap="round" stroke-linejoin="round"/>
<path d="M97.3753 362.722C97.3753 362.722 95.585 375.816 96.7786 384.399H109.543C111.968 377.909 113.956 371.266 115.496 364.513L105.992 366.883L97.3753 362.722Z" fill="white" stroke="#263238" stroke-linecap="round" stroke-linejoin="round"/>
<path d="M107.054 361.152H106.763C106.384 361.101 106.018 360.977 105.686 360.786C105.355 360.593 105.065 360.338 104.832 360.034C104.6 359.731 104.429 359.383 104.331 359.013C104.233 358.644 104.209 358.258 104.26 357.879L107.52 333.933C107.571 333.551 107.696 333.182 107.889 332.848C108.082 332.515 108.339 332.223 108.645 331.988C108.952 331.754 109.301 331.582 109.673 331.482C110.046 331.383 110.435 331.358 110.816 331.408C111.199 331.459 111.568 331.584 111.902 331.778C112.235 331.97 112.527 332.227 112.762 332.534C112.997 332.839 113.169 333.189 113.268 333.56C113.368 333.933 113.393 334.322 113.342 334.703L110.096 358.664C109.992 359.383 109.622 360.038 109.059 360.499C108.496 360.959 107.781 361.192 107.054 361.152Z" fill="#263238" stroke="#263238" stroke-linecap="round" stroke-linejoin="round"/>
<path d="M105.046 374.768H104.9C104.521 374.714 104.178 374.513 103.947 374.208C103.715 373.903 103.613 373.518 103.663 373.139L105.715 358.053C105.767 357.668 105.971 357.318 106.281 357.082C106.59 356.845 106.981 356.742 107.367 356.795C107.753 356.847 108.103 357.05 108.339 357.36C108.575 357.669 108.678 358.06 108.626 358.446L106.574 373.532C106.52 373.891 106.333 374.219 106.05 374.447C105.767 374.676 105.409 374.79 105.046 374.768Z" fill="white" stroke="#263238" stroke-linecap="round" stroke-linejoin="round"/>
<path d="M356.51 395.135L358.068 423.795C358.133 425.138 358.591 426.433 359.385 427.518C360.18 428.604 361.276 429.434 362.536 429.904C372.244 433.677 383.015 433.677 392.722 429.904C393.972 429.436 395.058 428.614 395.848 427.54C396.64 426.465 397.101 425.184 397.177 423.853L398.995 395.149L356.51 395.135Z" fill="white" stroke="#263238" stroke-linecap="round" stroke-linejoin="round"/>
<path d="M354.385 385.33V395.513C354.385 397.318 364.762 398.787 377.556 398.787C390.35 398.787 400.727 397.332 400.727 395.513V385.33H354.385Z" fill="white" stroke="#263238" stroke-linecap="round" stroke-linejoin="round"/>
<path d="M377.6 388.603C390.398 388.603 400.771 387.138 400.771 385.33C400.771 383.522 390.398 382.057 377.6 382.057C364.803 382.057 354.429 383.522 354.429 385.33C354.429 387.138 364.803 388.603 377.6 388.603Z" fill="white" stroke="#263238" stroke-linecap="round" stroke-linejoin="round"/>
<path d="M356.976 386.814C360.818 387.876 368.62 388.603 377.6 388.603C386.581 388.603 394.381 387.876 398.225 386.814C394.381 385.767 386.581 385.039 377.6 385.039C368.62 385.039 360.818 385.767 356.976 386.814Z" fill="#263238" stroke="#263238" stroke-linecap="round" stroke-linejoin="round"/>
<path d="M378.735 386.959C378.735 386.959 377.644 335.314 375.461 329.132C373.278 322.949 360.178 315.675 360.178 319.676C360.293 322.252 361.325 324.703 363.089 326.586C363.089 326.586 341.984 323.676 345.987 328.768C349.989 333.859 359.086 331.678 359.086 331.678C359.086 331.678 338.345 337.86 348.898 339.315C354.684 340.16 360.518 340.646 366.363 340.77C366.363 340.77 359.814 346.589 365.273 346.589C368.249 346.667 371.214 346.173 374.005 345.135L376.552 386.959H378.735Z" fill="#85E4D0"/>
<path d="M379.74 386.959L375.461 329.132C375.461 329.132 390.015 313.492 391.107 317.494C392.199 321.495 385.286 325.858 388.196 325.858C391.107 325.858 407.481 316.767 409.665 323.313C411.848 329.859 386.74 331.678 390.743 333.859C394.746 336.042 405.298 335.678 397.293 338.224C389.288 340.77 376.916 342.952 380.919 344.771C384.922 346.589 383.102 347.68 381.647 349.499L380.919 386.959H379.74Z" fill="#85E4D0"/>
<path d="M372.914 387.323C372.914 387.323 368.547 379.685 368.547 376.049C368.547 372.412 369.639 367.32 367.455 362.228C365.273 357.137 359.086 362.591 357.63 363.683C356.176 364.774 351.809 356.409 348.534 358.227C345.26 360.046 351.081 363.319 349.989 364.774C348.898 366.228 332.16 361.501 332.16 366.592C332.16 371.684 348.534 367.32 349.989 369.139C351.445 370.957 340.165 373.503 345.987 375.321C351.809 377.14 355.448 371.32 355.812 373.503C356.176 375.685 347.079 378.23 353.992 380.049C360.906 381.868 363.453 379.685 365.637 380.777C367.819 381.868 371.094 387.323 371.094 387.323H372.914Z" fill="#85E4D0"/>
<path d="M382.374 387.323C382.374 387.323 386.74 379.685 386.74 376.049C386.74 372.412 385.65 367.32 387.832 362.228C390.015 357.137 396.201 362.591 397.657 363.683C399.112 364.774 403.479 356.409 406.753 358.227C410.028 360.046 404.207 363.319 405.298 364.774C406.389 366.228 423.128 361.501 423.128 366.592C423.128 371.684 406.753 367.32 405.298 369.139C403.843 370.957 415.122 373.503 409.301 375.321C403.479 377.14 399.84 371.32 399.476 373.503C399.112 375.685 408.209 378.23 401.296 380.049C394.382 381.868 391.835 379.685 389.652 380.777C387.468 381.868 384.194 387.323 384.194 387.323H382.374Z" fill="#85E4D0"/>
<path d="M376.552 386.959C376.552 386.959 374.369 354.226 373.641 352.772C372.914 351.317 368.183 353.136 362.361 355.682C356.54 358.227 358.722 357.137 355.448 356.045C352.173 354.954 347.806 356.409 341.984 357.501C336.163 358.591 337.617 351.317 343.804 349.135C347.429 347.834 351.234 347.098 355.084 346.953C355.084 346.953 347.806 343.68 354.356 342.588C360.906 341.498 368.547 346.589 372.186 348.772C373.182 349.28 374.055 349.998 374.747 350.877C375.437 351.757 375.929 352.776 376.188 353.863L378.735 386.959H376.552Z" fill="#85E4D0"/>
<path d="M379.739 386.959C379.739 386.959 381.923 354.226 382.651 352.772C383.379 351.317 388.108 353.136 393.931 355.682C399.752 358.227 397.569 357.137 400.844 356.045C404.119 354.954 408.485 356.409 414.308 357.501C420.129 358.591 418.674 351.317 412.488 349.135C408.862 347.834 405.058 347.098 401.208 346.953C401.208 346.953 408.485 343.68 401.936 342.588C395.387 341.498 387.744 346.589 384.106 348.772C383.111 349.28 382.236 349.998 381.545 350.877C380.854 351.757 380.363 352.776 380.103 353.863L377.556 386.959H379.739Z" fill="#85E4D0"/>
<path d="M416.374 395.135L417.932 423.795C418.001 425.137 418.461 426.43 419.255 427.515C420.049 428.601 421.142 429.431 422.399 429.904C432.108 433.677 442.879 433.677 452.587 429.904C453.837 429.436 454.926 428.615 455.719 427.541C456.513 426.467 456.977 425.186 457.055 423.853L458.86 395.149L416.374 395.135Z" fill="white" stroke="#263238" stroke-linecap="round" stroke-linejoin="round"/>
<path d="M414.293 385.33V395.513C414.293 397.318 424.67 398.787 437.464 398.787C450.258 398.787 460.635 397.332 460.635 395.513V385.33H414.293Z" fill="white" stroke="#263238" stroke-linecap="round" stroke-linejoin="round"/>
<path d="M437.464 388.603C450.261 388.603 460.635 387.138 460.635 385.33C460.635 383.522 450.261 382.057 437.464 382.057C424.667 382.057 414.293 383.522 414.293 385.33C414.293 387.138 424.667 388.603 437.464 388.603Z" fill="white" stroke="#263238" stroke-linecap="round" stroke-linejoin="round"/>
<path d="M416.854 386.814C420.683 387.876 428.498 388.603 437.464 388.603C446.43 388.603 454.261 387.876 458.088 386.814C454.261 385.767 446.445 385.039 437.464 385.039C428.484 385.039 420.683 385.767 416.854 386.814Z" fill="#263238" stroke="#263238" stroke-linecap="round" stroke-linejoin="round"/>
<path d="M425.864 362.577C429.606 370.478 432.656 378.691 434.976 387.12C434.976 387.12 434.102 357.835 431.991 346.967" stroke="#263238" stroke-width="0.5" stroke-linecap="round" stroke-linejoin="round"/>
<path d="M446.197 354.503C446.197 354.503 438.484 371.161 437.086 386.945" stroke="#263238" stroke-width="0.5" stroke-linecap="round" stroke-linejoin="round"/>
<path d="M448.133 368.353C448.133 368.353 440.419 380.457 439.531 387.12" stroke="#263238" stroke-width="0.5" stroke-linecap="round" stroke-linejoin="round"/>
<path d="M433.578 374.667C434.803 378.475 435.565 382.417 435.849 386.406" stroke="#263238" stroke-width="0.5" stroke-linecap="round" stroke-linejoin="round"/>
<path d="M432.516 344.174C432.516 344.174 429.314 340.552 426.941 341.73C424.569 342.908 424.175 344.887 427.727 345.672C431.279 346.458 423.23 346.007 424.816 349.95C426.402 353.892 430.26 347.041 431.832 349.426C433.403 351.812 433.287 353.921 435.513 352.932C439.546 351.172 434.859 348.378 436.038 346.793C437.217 345.207 439.59 346.472 439.59 344.102C439.59 341.73 436.475 339.824 432.516 344.174Z" fill="#85E4D0"/>
<path d="M447.434 352.234C447.434 352.234 444.218 348.611 441.845 349.789C439.473 350.968 439.079 352.947 442.631 353.747C446.183 354.547 438.134 354.067 439.721 358.009C441.307 361.952 445.164 355.1 446.736 357.485C448.307 359.871 448.191 361.996 450.419 360.991C454.464 359.246 449.763 356.438 450.956 354.867C452.15 353.295 454.494 354.532 454.494 352.161C454.494 349.789 451.379 347.884 447.434 352.234Z" fill="#85E4D0"/>
<path d="M434.102 372.746C434.102 372.746 430.885 369.123 428.513 370.303C426.14 371.481 425.762 373.459 429.314 374.245C432.865 375.03 424.801 374.579 426.402 378.522C428.003 382.464 431.832 375.612 433.418 377.998C435.004 380.383 434.801 382.494 437.1 381.504C441.133 379.744 436.431 376.951 437.625 375.365C438.818 373.779 441.161 375.045 441.161 372.673C441.161 370.303 438.046 368.397 434.102 372.746Z" fill="#85E4D0"/>
<path d="M426.388 360.118C426.388 360.118 423.171 356.496 420.8 357.69C418.427 358.882 418.034 360.846 421.585 361.632C425.136 362.417 417.087 361.952 418.674 365.908C420.261 369.866 424.103 362.999 425.69 365.37C427.276 367.742 427.072 369.881 429.372 368.876C433.403 367.131 428.702 364.322 429.896 362.752C431.09 361.18 433.433 362.417 433.433 360.046C433.433 357.674 430.332 355.784 426.388 360.118Z" fill="#85E4D0"/>
<path d="M449.181 366.607C449.181 366.607 445.964 362.985 443.607 364.163C441.248 365.341 440.841 367.32 444.393 368.12C447.944 368.92 439.88 368.44 441.481 372.382C443.082 376.326 446.91 369.473 448.497 371.859C450.083 374.245 449.952 376.368 452.179 375.365C456.211 373.62 451.524 370.811 452.704 369.24C453.883 367.669 456.24 368.906 456.24 366.534C456.24 364.163 453.125 362.257 449.181 366.607Z" fill="#85E4D0"/>
<path d="M286.982 438.589C286.982 438.589 278.962 413.713 303.574 365.734C328.186 317.756 304.812 240.274 304.812 240.274" stroke="#92E3A9" stroke-width="3" stroke-linecap="round" stroke-linejoin="round"/>
<path d="M271.583 437.091C271.583 437.091 262.966 418.644 272.805 391.571C282.645 364.497 280.083 349.15 280.083 349.15" stroke="#92E3A9" stroke-width="3" stroke-linecap="round" stroke-linejoin="round"/>
<path d="M309.032 353.47C309.032 353.47 328.186 330.063 335.58 301.767C337.283 295.236 338.593 289.49 339.612 284.499" stroke="#92E3A9" stroke-width="3" stroke-linecap="round" stroke-linejoin="round"/>
<path d="M294.594 439.041C294.594 439.041 306.033 416.172 308.509 382.958C309.935 362.664 307.852 342.275 302.352 322.687" stroke="#92E3A9" stroke-width="3" stroke-linecap="round" stroke-linejoin="round"/>
<path d="M296.006 365.647C295.904 366.374 294.9 366.913 294.711 367.611C294.52 368.309 295.118 369.298 294.842 369.967C294.564 370.637 293.458 370.914 293.094 371.539C292.73 372.164 293.094 373.27 292.599 373.851C292.105 374.434 291.013 374.404 290.489 374.914C289.965 375.423 290.009 376.573 289.427 377.023C288.844 377.474 287.753 377.14 287.127 377.504C286.501 377.868 286.225 378.958 285.541 379.263C284.856 379.569 283.896 378.944 283.198 379.133C282.498 379.322 281.945 380.326 281.217 380.427C280.491 380.529 279.763 379.685 278.976 379.685C278.19 379.685 277.448 380.515 276.72 380.427C275.993 380.34 275.454 379.322 274.755 379.133C274.057 378.944 273.067 379.54 272.397 379.263C271.728 378.987 271.452 377.882 270.826 377.518C270.199 377.154 269.093 377.518 268.511 377.023C267.93 376.529 267.958 375.437 267.449 374.914C266.939 374.39 265.79 374.434 265.338 373.851C264.887 373.27 265.222 372.179 264.858 371.553C264.495 370.928 263.403 370.651 263.097 369.967C262.791 369.284 263.417 368.324 263.228 367.625C263.039 366.927 262.035 366.374 261.932 365.647C261.83 364.919 262.675 364.192 262.675 363.407C262.675 362.621 261.846 361.879 261.932 361.166C262.02 360.454 263.039 359.886 263.228 359.188C263.417 358.49 262.821 357.501 263.097 356.831C263.374 356.162 264.553 355.885 264.858 355.259C265.164 354.634 264.858 353.528 265.338 352.947C265.818 352.365 266.925 352.394 267.449 351.884C267.973 351.375 267.93 350.226 268.511 349.775C269.093 349.324 270.185 349.659 270.826 349.295C271.466 348.931 271.713 347.841 272.397 347.535C273.081 347.23 274.042 347.855 274.755 347.666C275.469 347.477 275.993 346.472 276.72 346.371C277.448 346.269 278.176 347.113 278.976 347.113C279.777 347.113 280.432 346.283 281.217 346.371C282.004 346.458 282.484 347.477 283.182 347.666C283.882 347.855 284.871 347.258 285.541 347.535C286.21 347.811 286.487 348.989 287.112 349.295C287.738 349.6 288.844 349.295 289.427 349.775C290.009 350.255 289.98 351.361 290.489 351.884C290.998 352.408 292.149 352.365 292.599 352.947C293.051 353.528 292.716 354.62 293.08 355.259C293.444 355.9 294.536 356.148 294.842 356.831C295.147 357.515 294.52 358.474 294.711 359.188C294.9 359.901 295.904 360.424 296.006 361.152C296.107 361.879 295.264 362.607 295.264 363.407C295.264 364.207 296.165 364.919 296.006 365.647ZM319.294 317.13C319.294 316.199 320.327 315.209 320.211 314.308C320.094 313.405 318.755 312.693 318.594 311.82C318.435 310.947 319.104 309.696 318.755 308.91C318.405 308.124 316.993 307.718 316.542 306.918C316.091 306.117 316.542 304.749 315.917 304.007C315.291 303.265 313.923 303.309 313.268 302.654C312.612 302 312.656 300.575 311.928 300.007C311.2 299.44 309.818 299.862 309.018 299.396C308.217 298.931 307.882 297.534 307.038 297.185C306.194 296.836 304.957 297.578 304.127 297.345C303.298 297.112 302.555 295.889 301.624 295.716C300.693 295.541 299.731 296.647 298.8 296.647C297.869 296.647 296.879 295.599 295.976 295.716C295.074 295.832 294.361 297.17 293.488 297.345C292.614 297.519 291.362 296.836 290.576 297.185C289.791 297.534 289.383 298.931 288.583 299.396C287.782 299.862 286.414 299.396 285.672 300.007C284.93 300.618 284.988 302.015 284.333 302.654C283.677 303.295 282.251 303.281 281.684 304.007C281.116 304.735 281.523 306.117 281.072 306.918C280.621 307.718 279.209 308.038 278.86 308.896C278.51 309.754 279.252 310.961 279.005 311.805C278.758 312.649 277.55 313.377 277.39 314.294C277.23 315.209 278.321 316.184 278.321 317.115C278.321 318.047 277.273 319.05 277.39 319.952C277.506 320.854 278.846 321.552 279.02 322.44C279.195 323.327 278.496 324.563 278.86 325.349C279.224 326.135 280.606 326.543 281.072 327.328C281.538 328.113 281.072 329.51 281.684 330.238C282.295 330.964 283.693 330.936 284.333 331.575C284.973 332.216 284.944 333.67 285.686 334.239C286.428 334.806 287.796 334.384 288.597 334.85C289.397 335.315 289.733 336.711 290.592 337.061C291.45 337.409 292.658 336.667 293.502 336.9C294.347 337.133 295.074 338.356 295.991 338.515C296.908 338.675 297.883 337.598 298.814 337.598C299.746 337.598 300.735 338.632 301.638 338.515C302.541 338.399 303.254 337.133 304.142 336.9C305.029 336.667 306.266 337.409 307.053 337.061C307.839 336.711 308.246 335.3 309.032 334.85C309.818 334.398 311.216 334.85 311.943 334.223C312.671 333.598 312.642 332.23 313.282 331.575C313.923 330.921 315.378 330.964 315.931 330.238C316.484 329.51 316.091 328.128 316.557 327.328C317.023 326.527 318.42 326.193 318.769 325.349C319.119 324.505 318.362 323.269 318.61 322.44C318.857 321.61 320.064 320.868 320.225 319.952C320.385 319.036 319.235 318.134 319.235 317.13H319.294ZM321.724 399.602C321.724 398.671 322.757 397.682 322.641 396.779C322.524 395.877 321.259 395.165 321.025 394.277C320.792 393.39 321.535 392.168 321.186 391.368C320.836 390.567 319.424 390.189 318.974 389.389C318.522 388.589 318.974 387.206 318.347 386.48C317.721 385.752 316.353 385.795 315.698 385.141C315.044 384.486 315.086 383.046 314.36 382.494C313.632 381.941 312.248 382.333 311.448 381.868C310.647 381.402 310.313 380.021 309.469 379.657C308.625 379.293 307.387 380.063 306.558 379.816C305.728 379.569 304.985 378.362 304.054 378.202C303.123 378.041 302.163 379.133 301.23 379.133C300.299 379.133 299.309 378.085 298.408 378.202C297.505 378.318 296.791 379.583 295.918 379.816C295.045 380.049 293.794 379.307 293.007 379.657C292.221 380.005 291.813 381.416 291.013 381.868C290.212 382.319 288.844 381.868 288.102 382.494C287.36 383.119 287.404 384.486 286.748 385.141C286.094 385.795 284.667 385.752 284.099 386.48C283.532 387.206 283.94 388.589 283.488 389.389C283.037 390.189 281.625 390.523 281.276 391.382C280.927 392.24 281.669 393.448 281.436 394.291C281.203 395.135 279.98 395.848 279.805 396.779C279.632 397.71 280.738 398.671 280.738 399.602C280.738 400.533 279.69 401.522 279.805 402.424C279.922 403.325 281.189 404.039 281.436 404.926C281.684 405.814 280.927 407.036 281.276 407.836C281.625 408.636 283.023 409.014 283.488 409.814C283.954 410.615 283.488 411.996 284.099 412.724C284.711 413.451 286.108 413.407 286.748 414.062C287.389 414.716 287.374 416.157 288.102 416.71C288.83 417.263 290.212 416.869 291.013 417.335C291.813 417.801 292.134 419.183 292.993 419.547C293.852 419.911 295.059 419.139 295.904 419.386C296.748 419.634 297.475 420.842 298.392 421.001C299.309 421.161 300.285 420.07 301.216 420.07C302.147 420.07 303.152 421.117 304.054 421.001C304.957 420.885 305.655 419.547 306.544 419.386C307.431 419.227 308.668 419.896 309.454 419.547C310.24 419.197 310.647 417.786 311.434 417.335C312.22 416.885 313.617 417.335 314.344 416.71C315.072 416.085 315.044 414.716 315.684 414.062C316.325 413.407 317.779 413.451 318.347 412.724C318.915 411.996 318.493 410.615 318.958 409.814C319.424 409.014 320.822 408.679 321.171 407.821C321.52 406.962 320.778 405.756 321.011 404.911C321.243 404.067 322.466 403.355 322.626 402.424C322.787 401.493 321.724 400.591 321.724 399.602ZM279.268 411.327C279.268 410.701 280.33 410.032 280.243 409.436C280.155 408.84 278.962 408.446 278.787 407.865C278.612 407.283 279.485 406.337 279.252 405.77C279.02 405.203 277.798 405.159 277.462 404.636C277.128 404.111 277.725 402.977 277.361 402.497C276.997 402.016 275.76 402.292 275.323 401.856C274.887 401.42 275.163 400.197 274.682 399.835C274.202 399.471 273.081 400.038 272.558 399.733C272.033 399.427 271.975 398.176 271.408 397.943C270.84 397.71 269.952 398.554 269.326 398.394C268.701 398.235 268.366 397.041 267.755 396.94C267.143 396.838 266.474 397.929 265.862 397.929C265.251 397.929 264.567 396.866 263.97 396.94C263.374 397.012 262.98 398.235 262.399 398.394C261.816 398.554 260.87 397.71 260.317 397.943C259.764 398.176 259.691 399.397 259.167 399.733C258.643 400.067 257.523 399.471 257.042 399.835C256.562 400.197 256.824 401.435 256.401 401.871C255.979 402.308 254.728 402.031 254.364 402.511C254 402.991 254.568 404.111 254.263 404.636C253.957 405.159 252.704 405.217 252.471 405.784C252.239 406.351 253.083 407.239 252.938 407.865C252.792 408.49 251.57 408.825 251.482 409.436C251.395 410.047 252.457 410.701 252.457 411.327C252.457 411.952 251.395 412.621 251.482 413.218C251.57 413.815 252.763 414.207 252.938 414.79C253.112 415.371 252.239 416.244 252.471 416.869C252.704 417.496 253.927 417.496 254.277 418.019C254.626 418.543 254 419.663 254.364 420.144C254.728 420.623 255.965 420.361 256.401 420.783C256.838 421.205 256.562 422.442 257.042 422.82C257.523 423.198 258.643 422.601 259.167 422.907C259.691 423.212 259.75 424.478 260.317 424.711C260.884 424.944 261.773 424.086 262.399 424.245C263.024 424.406 263.359 425.613 263.97 425.701C264.581 425.787 265.251 424.711 265.862 424.711C266.474 424.711 267.158 425.773 267.755 425.701C268.351 425.628 268.745 424.42 269.326 424.245C269.909 424.071 270.855 424.944 271.408 424.711C271.961 424.478 272.033 423.256 272.558 422.907C273.081 422.558 274.202 423.184 274.682 422.82C275.163 422.456 274.901 421.205 275.323 420.783C275.745 420.361 276.997 420.623 277.361 420.144C277.725 419.663 277.157 418.543 277.462 418.019C277.768 417.496 279.02 417.438 279.252 416.869C279.485 416.302 278.642 415.415 278.802 414.79C278.962 414.164 280.155 413.829 280.257 413.218C280.359 412.607 279.268 411.996 279.268 411.385V411.327ZM324.155 242.572C324.155 241.641 325.203 240.652 325.086 239.75C324.97 238.848 323.703 238.135 323.471 237.248C323.238 236.36 323.98 235.138 323.63 234.338C323.282 233.538 321.87 233.145 321.418 232.345C320.967 231.545 321.418 230.162 320.792 229.436C320.167 228.708 318.799 228.752 318.143 228.097C317.488 227.442 317.532 226.002 316.804 225.45C316.077 224.897 314.694 225.289 313.893 224.824C313.093 224.358 312.759 222.977 311.9 222.613C311.041 222.249 309.832 223.019 308.988 222.772C308.145 222.525 307.431 221.318 306.5 221.158C305.568 220.998 304.607 222.089 303.676 222.089C302.744 222.089 301.755 221.041 300.852 221.158C299.95 221.274 299.237 222.613 298.349 222.772C297.461 222.933 296.238 222.263 295.438 222.613C294.637 222.961 294.259 224.372 293.458 224.824C292.658 225.275 291.275 224.824 290.548 225.45C289.82 226.075 289.864 227.442 289.208 228.097C288.554 228.752 287.112 228.708 286.559 229.436C286.006 230.162 286.4 231.545 285.934 232.345C285.467 233.145 284.085 233.479 283.721 234.338C283.357 235.196 284.129 236.404 283.882 237.248C283.634 238.091 282.426 238.804 282.265 239.735C282.106 240.666 283.198 241.627 283.198 242.558C283.198 243.489 282.149 244.478 282.265 245.38C282.382 246.281 283.649 246.995 283.882 247.882C284.114 248.77 283.371 249.992 283.721 250.792C284.071 251.592 285.483 251.97 285.934 252.77C286.384 253.571 285.934 254.952 286.559 255.68C287.185 256.407 288.554 256.363 289.208 257.018C289.864 257.672 289.82 259.113 290.548 259.666C291.275 260.219 292.658 259.825 293.458 260.291C294.259 260.757 294.594 262.139 295.453 262.503C296.312 262.867 297.519 262.095 298.364 262.342C299.208 262.59 299.921 263.797 300.852 263.958C301.783 264.117 302.744 263.026 303.676 263.026C304.607 263.026 305.597 264.074 306.5 263.958C307.402 263.841 308.115 262.575 309.003 262.342C309.891 262.11 311.114 262.852 311.914 262.503C312.715 262.153 313.093 260.742 313.893 260.291C314.694 259.841 316.077 260.291 316.804 259.666C317.532 259.041 317.488 257.672 318.143 257.018C318.799 256.363 320.239 256.407 320.792 255.68C321.345 254.952 320.953 253.571 321.418 252.77C321.884 251.97 323.266 251.635 323.63 250.777C323.994 249.919 323.224 248.712 323.471 247.867C323.718 247.023 324.926 246.311 325.086 245.38C325.246 244.449 324.155 243.517 324.155 242.586V242.572ZM361.765 280.15C361.765 279.219 362.797 278.229 362.682 277.327C362.565 276.425 361.299 275.713 361.066 274.839C360.832 273.966 361.576 272.715 361.226 271.93C360.876 271.144 359.464 270.737 359.014 269.937C358.563 269.137 359.014 267.77 358.388 267.027C357.762 266.285 356.393 266.329 355.739 265.675C355.084 265.02 355.128 263.594 354.4 263.026C353.672 262.459 352.29 262.881 351.489 262.416C350.688 261.95 350.353 260.553 349.51 260.205C348.665 259.855 347.428 260.597 346.598 260.364C345.769 260.131 345.027 258.91 344.11 258.735C343.192 258.56 342.203 259.666 341.271 259.666C340.34 259.666 339.35 258.619 338.448 258.735C337.545 258.852 336.832 260.189 335.958 260.364C335.085 260.539 333.834 259.855 333.047 260.205C332.261 260.553 331.854 261.95 331.054 262.416C330.253 262.881 328.885 262.416 328.143 263.026C327.4 263.637 327.444 265.034 326.79 265.675C326.134 266.314 324.708 266.3 324.141 267.027C323.572 267.754 323.98 269.137 323.529 269.937C323.077 270.737 321.665 271.057 321.317 271.915C320.967 272.774 321.709 273.98 321.476 274.825C321.243 275.669 320.021 276.396 319.847 277.313C319.672 278.229 320.778 279.203 320.778 280.134C320.778 281.066 319.73 282.07 319.847 283.045C319.963 284.019 321.229 284.645 321.476 285.532C321.724 286.42 320.967 287.656 321.317 288.441C321.665 289.227 323.063 289.635 323.529 290.42C323.994 291.205 323.529 292.602 324.141 293.33C324.751 294.057 326.149 294.028 326.79 294.668C327.43 295.308 327.415 296.763 328.143 297.33C328.87 297.898 330.253 297.475 331.054 297.941C331.854 298.406 332.174 299.803 333.033 300.153C333.892 300.501 335.099 299.759 335.944 299.992C336.788 300.225 337.516 301.448 338.433 301.607C339.35 301.767 340.325 300.691 341.257 300.691C342.189 300.691 343.192 301.723 344.095 301.607C344.997 301.491 345.696 300.225 346.584 299.992C347.471 299.759 348.709 300.501 349.494 300.153C350.281 299.803 350.689 298.392 351.474 297.941C352.26 297.49 353.657 297.941 354.385 297.316C355.113 296.691 355.084 295.322 355.725 294.668C356.365 294.013 357.821 294.057 358.388 293.33C358.955 292.602 358.533 291.221 358.999 290.42C359.464 289.62 360.862 289.285 361.212 288.441C361.56 287.598 360.818 286.362 361.051 285.532C361.284 284.703 362.507 283.961 362.667 283.045C362.827 282.128 361.765 281.109 361.765 280.164V280.15Z" fill="#92E3A9"/>
<path opacity="0.53" d="M296.006 365.647C295.904 366.374 294.9 366.913 294.711 367.611C294.52 368.309 295.118 369.298 294.842 369.967C294.564 370.637 293.458 370.914 293.094 371.539C292.73 372.164 293.094 373.27 292.599 373.851C292.105 374.434 291.013 374.404 290.489 374.914C289.965 375.423 290.009 376.573 289.427 377.023C288.844 377.474 287.753 377.14 287.127 377.504C286.501 377.868 286.225 378.958 285.541 379.263C284.856 379.569 283.896 378.944 283.198 379.133C282.498 379.322 281.945 380.326 281.217 380.427C280.491 380.529 279.763 379.685 278.976 379.685C278.19 379.685 277.448 380.515 276.72 380.427C275.993 380.34 275.454 379.322 274.755 379.133C274.057 378.944 273.067 379.54 272.397 379.263C271.728 378.987 271.452 377.882 270.826 377.518C270.199 377.154 269.093 377.518 268.511 377.023C267.93 376.529 267.958 375.437 267.449 374.914C266.939 374.39 265.79 374.434 265.338 373.851C264.887 373.27 265.222 372.179 264.858 371.553C264.495 370.928 263.403 370.651 263.097 369.967C262.791 369.284 263.417 368.324 263.228 367.625C263.039 366.927 262.035 366.374 261.932 365.647C261.83 364.919 262.675 364.192 262.675 363.407C262.675 362.621 261.846 361.879 261.932 361.166C262.02 360.454 263.039 359.886 263.228 359.188C263.417 358.49 262.821 357.501 263.097 356.831C263.374 356.162 264.553 355.885 264.858 355.259C265.164 354.634 264.858 353.528 265.338 352.947C265.818 352.365 266.925 352.394 267.449 351.884C267.973 351.375 267.93 350.226 268.511 349.775C269.093 349.324 270.185 349.659 270.826 349.295C271.466 348.931 271.713 347.841 272.397 347.535C273.081 347.23 274.042 347.855 274.755 347.666C275.469 347.477 275.993 346.472 276.72 346.371C277.448 346.269 278.176 347.113 278.976 347.113C279.777 347.113 280.432 346.283 281.217 346.371C282.004 346.458 282.484 347.477 283.182 347.666C283.882 347.855 284.871 347.258 285.541 347.535C286.21 347.811 286.487 348.989 287.112 349.295C287.738 349.6 288.844 349.295 289.427 349.775C290.009 350.255 289.98 351.361 290.489 351.884C290.998 352.408 292.149 352.365 292.599 352.947C293.051 353.528 292.716 354.62 293.08 355.259C293.444 355.9 294.536 356.148 294.842 356.831C295.147 357.515 294.52 358.474 294.711 359.188C294.9 359.901 295.904 360.424 296.006 361.152C296.107 361.879 295.263 362.607 295.263 363.407C295.263 364.207 296.165 364.919 296.006 365.647ZM319.294 317.13C319.294 316.199 320.327 315.209 320.211 314.308C320.094 313.405 318.755 312.693 318.594 311.82C318.435 310.947 319.104 309.696 318.755 308.91C318.405 308.124 316.993 307.718 316.542 306.918C316.092 306.117 316.542 304.749 315.917 304.007C315.291 303.265 313.923 303.309 313.268 302.654C312.612 302 312.656 300.575 311.928 300.007C311.2 299.44 309.818 299.862 309.018 299.396C308.217 298.931 307.882 297.534 307.038 297.185C306.194 296.836 304.957 297.578 304.127 297.345C303.298 297.112 302.555 295.889 301.624 295.716C300.693 295.541 299.732 296.647 298.8 296.647C297.869 296.647 296.879 295.599 295.976 295.716C295.074 295.832 294.361 297.17 293.488 297.345C292.614 297.519 291.362 296.836 290.576 297.185C289.791 297.534 289.383 298.931 288.583 299.396C287.782 299.862 286.414 299.396 285.672 300.007C284.93 300.618 284.988 302.015 284.333 302.654C283.677 303.295 282.251 303.281 281.684 304.007C281.116 304.735 281.523 306.117 281.072 306.918C280.621 307.718 279.209 308.038 278.86 308.896C278.51 309.754 279.252 310.961 279.005 311.805C278.758 312.649 277.55 313.377 277.39 314.294C277.23 315.209 278.321 316.184 278.321 317.115C278.321 318.047 277.273 319.05 277.39 319.952C277.506 320.854 278.846 321.552 279.02 322.44C279.195 323.327 278.496 324.563 278.86 325.349C279.224 326.135 280.606 326.543 281.072 327.328C281.538 328.113 281.072 329.51 281.684 330.238C282.295 330.964 283.693 330.936 284.333 331.575C284.973 332.216 284.944 333.67 285.686 334.239C286.428 334.806 287.796 334.384 288.597 334.85C289.397 335.315 289.733 336.711 290.592 337.061C291.45 337.409 292.658 336.667 293.502 336.9C294.347 337.133 295.074 338.356 295.991 338.515C296.908 338.675 297.883 337.598 298.814 337.598C299.746 337.598 300.735 338.632 301.638 338.515C302.541 338.399 303.254 337.133 304.142 336.9C305.029 336.667 306.266 337.409 307.053 337.061C307.839 336.711 308.246 335.3 309.032 334.85C309.818 334.398 311.216 334.85 311.943 334.223C312.671 333.598 312.642 332.23 313.282 331.575C313.923 330.921 315.378 330.964 315.931 330.238C316.484 329.51 316.092 328.128 316.557 327.328C317.023 326.527 318.42 326.193 318.769 325.349C319.119 324.505 318.362 323.269 318.61 322.44C318.857 321.61 320.064 320.868 320.225 319.952C320.385 319.036 319.235 318.134 319.235 317.13H319.294ZM321.724 399.602C321.724 398.671 322.757 397.682 322.641 396.779C322.524 395.877 321.259 395.165 321.025 394.277C320.792 393.39 321.535 392.168 321.186 391.368C320.836 390.567 319.424 390.189 318.974 389.389C318.522 388.589 318.974 387.206 318.347 386.48C317.721 385.752 316.353 385.795 315.698 385.141C315.044 384.486 315.086 383.046 314.36 382.494C313.632 381.941 312.248 382.333 311.448 381.868C310.647 381.402 310.313 380.021 309.469 379.657C308.625 379.293 307.387 380.063 306.558 379.816C305.728 379.569 304.985 378.362 304.054 378.202C303.123 378.041 302.163 379.133 301.23 379.133C300.299 379.133 299.309 378.085 298.408 378.202C297.505 378.318 296.791 379.583 295.918 379.816C295.045 380.049 293.794 379.307 293.007 379.657C292.221 380.005 291.813 381.416 291.013 381.868C290.212 382.319 288.844 381.868 288.102 382.494C287.36 383.119 287.404 384.486 286.748 385.141C286.094 385.795 284.667 385.752 284.099 386.48C283.532 387.206 283.94 388.589 283.488 389.389C283.037 390.189 281.625 390.523 281.276 391.382C280.927 392.24 281.669 393.448 281.436 394.291C281.203 395.135 279.98 395.848 279.805 396.779C279.632 397.71 280.738 398.671 280.738 399.602C280.738 400.533 279.69 401.522 279.805 402.424C279.922 403.325 281.189 404.039 281.436 404.926C281.684 405.814 280.927 407.036 281.276 407.836C281.625 408.636 283.023 409.014 283.488 409.814C283.954 410.615 283.488 411.996 284.099 412.724C284.711 413.451 286.108 413.407 286.748 414.062C287.389 414.716 287.374 416.157 288.102 416.71C288.83 417.263 290.212 416.869 291.013 417.335C291.813 417.801 292.134 419.183 292.993 419.547C293.852 419.911 295.059 419.139 295.904 419.386C296.748 419.634 297.475 420.842 298.392 421.001C299.309 421.161 300.285 420.07 301.216 420.07C302.147 420.07 303.152 421.117 304.054 421.001C304.957 420.885 305.655 419.547 306.544 419.386C307.431 419.227 308.668 419.896 309.454 419.547C310.24 419.197 310.647 417.786 311.434 417.335C312.22 416.885 313.617 417.335 314.344 416.71C315.072 416.085 315.044 414.716 315.684 414.062C316.325 413.407 317.779 413.451 318.347 412.724C318.915 411.996 318.493 410.615 318.958 409.814C319.424 409.014 320.822 408.679 321.171 407.821C321.52 406.962 320.778 405.756 321.011 404.911C321.243 404.067 322.466 403.355 322.626 402.424C322.787 401.493 321.724 400.591 321.724 399.602ZM279.268 411.327C279.268 410.701 280.33 410.032 280.243 409.436C280.155 408.84 278.962 408.446 278.787 407.865C278.612 407.283 279.485 406.337 279.252 405.77C279.02 405.203 277.798 405.159 277.462 404.636C277.128 404.111 277.725 402.977 277.361 402.497C276.997 402.016 275.76 402.292 275.323 401.856C274.887 401.42 275.163 400.197 274.682 399.835C274.202 399.471 273.081 400.038 272.558 399.733C272.033 399.427 271.975 398.176 271.408 397.943C270.84 397.71 269.952 398.554 269.326 398.394C268.701 398.235 268.366 397.041 267.755 396.94C267.143 396.838 266.474 397.929 265.862 397.929C265.251 397.929 264.567 396.866 263.97 396.94C263.374 397.012 262.98 398.235 262.399 398.394C261.816 398.554 260.87 397.71 260.317 397.943C259.764 398.176 259.691 399.397 259.167 399.733C258.643 400.067 257.523 399.471 257.042 399.835C256.562 400.197 256.824 401.435 256.401 401.871C255.979 402.308 254.728 402.031 254.364 402.511C254 402.991 254.568 404.111 254.263 404.636C253.957 405.159 252.704 405.217 252.471 405.784C252.239 406.351 253.083 407.239 252.938 407.865C252.792 408.49 251.57 408.825 251.482 409.436C251.395 410.047 252.457 410.701 252.457 411.327C252.457 411.952 251.395 412.621 251.482 413.218C251.57 413.815 252.763 414.207 252.938 414.79C253.112 415.371 252.239 416.244 252.471 416.869C252.704 417.496 253.927 417.496 254.277 418.019C254.626 418.543 254 419.663 254.364 420.144C254.728 420.623 255.965 420.361 256.401 420.783C256.838 421.205 256.562 422.442 257.042 422.82C257.523 423.198 258.643 422.601 259.167 422.907C259.691 423.212 259.75 424.478 260.317 424.711C260.884 424.944 261.773 424.086 262.399 424.245C263.024 424.406 263.359 425.613 263.97 425.701C264.581 425.787 265.251 424.711 265.862 424.711C266.474 424.711 267.158 425.773 267.755 425.701C268.351 425.628 268.745 424.42 269.326 424.245C269.909 424.071 270.855 424.944 271.408 424.711C271.961 424.478 272.033 423.256 272.558 422.907C273.081 422.558 274.202 423.184 274.682 422.82C275.163 422.456 274.901 421.205 275.323 420.783C275.745 420.361 276.997 420.623 277.361 420.144C277.725 419.663 277.157 418.543 277.462 418.019C277.768 417.496 279.02 417.438 279.252 416.869C279.485 416.302 278.642 415.415 278.802 414.79C278.962 414.164 280.155 413.829 280.257 413.218C280.359 412.607 279.268 411.996 279.268 411.385V411.327ZM324.155 242.572C324.155 241.641 325.203 240.652 325.086 239.75C324.97 238.848 323.703 238.135 323.471 237.248C323.238 236.36 323.98 235.138 323.63 234.338C323.282 233.538 321.87 233.145 321.418 232.345C320.967 231.545 321.418 230.162 320.792 229.436C320.167 228.708 318.799 228.752 318.143 228.097C317.488 227.442 317.532 226.002 316.804 225.45C316.077 224.897 314.694 225.289 313.893 224.824C313.093 224.358 312.759 222.977 311.9 222.613C311.041 222.249 309.833 223.019 308.988 222.772C308.145 222.525 307.431 221.318 306.5 221.158C305.568 220.998 304.607 222.089 303.676 222.089C302.744 222.089 301.755 221.041 300.852 221.158C299.95 221.274 299.237 222.613 298.349 222.772C297.461 222.933 296.238 222.263 295.438 222.613C294.637 222.961 294.259 224.372 293.458 224.824C292.658 225.275 291.276 224.824 290.548 225.45C289.82 226.075 289.864 227.442 289.208 228.097C288.554 228.752 287.112 228.708 286.559 229.436C286.006 230.162 286.4 231.545 285.934 232.345C285.467 233.145 284.085 233.479 283.721 234.338C283.357 235.196 284.129 236.404 283.882 237.248C283.634 238.091 282.426 238.804 282.265 239.735C282.106 240.666 283.198 241.627 283.198 242.558C283.198 243.489 282.149 244.478 282.265 245.38C282.382 246.281 283.649 246.995 283.882 247.882C284.114 248.77 283.372 249.992 283.721 250.792C284.071 251.592 285.483 251.97 285.934 252.77C286.384 253.571 285.934 254.952 286.559 255.68C287.185 256.407 288.554 256.363 289.208 257.018C289.864 257.672 289.82 259.113 290.548 259.666C291.276 260.219 292.658 259.825 293.458 260.291C294.259 260.757 294.594 262.139 295.453 262.503C296.312 262.867 297.519 262.095 298.364 262.342C299.208 262.59 299.921 263.797 300.852 263.958C301.783 264.117 302.744 263.026 303.676 263.026C304.607 263.026 305.597 264.074 306.5 263.958C307.402 263.841 308.115 262.575 309.003 262.342C309.891 262.11 311.114 262.852 311.914 262.503C312.715 262.153 313.093 260.742 313.893 260.291C314.694 259.841 316.077 260.291 316.804 259.666C317.532 259.041 317.488 257.672 318.143 257.018C318.799 256.363 320.239 256.407 320.792 255.68C321.345 254.952 320.953 253.571 321.418 252.77C321.884 251.97 323.266 251.635 323.63 250.777C323.994 249.919 323.224 248.712 323.471 247.867C323.718 247.023 324.926 246.311 325.086 245.38C325.246 244.449 324.155 243.517 324.155 242.586V242.572ZM361.765 280.15C361.765 279.219 362.797 278.229 362.681 277.327C362.565 276.425 361.299 275.713 361.066 274.839C360.832 273.966 361.576 272.715 361.226 271.93C360.876 271.144 359.465 270.737 359.014 269.937C358.563 269.137 359.014 267.77 358.388 267.027C357.762 266.285 356.393 266.329 355.739 265.675C355.084 265.02 355.128 263.594 354.4 263.026C353.672 262.459 352.29 262.881 351.489 262.416C350.689 261.95 350.353 260.553 349.51 260.205C348.665 259.855 347.428 260.597 346.598 260.364C345.769 260.131 345.027 258.91 344.11 258.735C343.192 258.56 342.203 259.666 341.271 259.666C340.34 259.666 339.35 258.619 338.448 258.735C337.545 258.852 336.832 260.189 335.958 260.364C335.085 260.539 333.834 259.855 333.047 260.205C332.261 260.553 331.854 261.95 331.054 262.416C330.253 262.881 328.885 262.416 328.143 263.026C327.4 263.637 327.444 265.034 326.79 265.675C326.134 266.314 324.708 266.3 324.141 267.027C323.572 267.754 323.98 269.137 323.529 269.937C323.077 270.737 321.665 271.057 321.317 271.915C320.967 272.774 321.709 273.98 321.476 274.825C321.243 275.669 320.021 276.396 319.847 277.313C319.672 278.229 320.778 279.203 320.778 280.134C320.778 281.066 319.73 282.07 319.847 283.045C319.963 284.019 321.229 284.645 321.476 285.532C321.724 286.42 320.967 287.656 321.317 288.441C321.665 289.227 323.063 289.635 323.529 290.42C323.994 291.205 323.529 292.602 324.141 293.33C324.751 294.057 326.149 294.028 326.79 294.668C327.43 295.308 327.415 296.763 328.143 297.33C328.87 297.898 330.253 297.475 331.054 297.941C331.854 298.406 332.174 299.803 333.033 300.153C333.892 300.501 335.099 299.759 335.944 299.992C336.788 300.225 337.516 301.448 338.433 301.607C339.35 301.767 340.325 300.691 341.257 300.691C342.189 300.691 343.192 301.723 344.095 301.607C344.997 301.491 345.696 300.225 346.584 299.992C347.471 299.759 348.709 300.501 349.494 300.153C350.281 299.803 350.689 298.392 351.474 297.941C352.26 297.49 353.657 297.941 354.385 297.316C355.113 296.691 355.084 295.322 355.725 294.668C356.365 294.013 357.821 294.057 358.388 293.33C358.955 292.602 358.533 291.221 358.999 290.42C359.465 289.62 360.862 289.285 361.212 288.441C361.56 287.598 360.818 286.362 361.051 285.532C361.284 284.703 362.507 283.961 362.667 283.045C362.827 282.128 361.765 281.109 361.765 280.164V280.15Z" fill="#85E4D0"/>
<path d="M258.745 442.169L260.783 441.834L264.131 441.281L261.888 435.463L265.47 438.139V433.222L270.84 435.011L274.887 429.629L276.677 433.222L279.805 426.05L281.597 433.222L286.531 429.192V436.35L293.255 432.771L293.691 436.35L298.174 430.079L299.528 435.899L303.559 431.869L303.108 436.8L309.832 433.672L306.689 439.041L312.511 438.589L309.832 442.62H323.718L314.301 443.973L331.33 446.649L269.501 447.988L278.015 443.973L248.44 444.409L258.745 442.169Z" fill="#263238"/>
<path opacity="0.7" d="M258.745 442.169L260.783 441.834L264.131 441.281L261.888 435.463L265.47 438.139V433.222L270.84 435.011L274.887 429.629L276.677 433.222L279.805 426.05L281.597 433.222L286.531 429.192V436.35L293.255 432.771L293.691 436.35L298.174 430.079L299.528 435.899L303.559 431.869L303.108 436.8L309.832 433.672L306.689 439.041L312.511 438.589L309.832 442.62H323.718L314.301 443.973L331.33 446.649L269.501 447.988L278.015 443.973L248.44 444.409L258.745 442.169Z" fill="white"/>
</g>
<defs>
<clipPath id="clip0_48_1105">
<rect width="563" height="477" fill="white"/>
</clipPath>
</defs>
</svg>
