<svg width="574" height="586" viewBox="0 0 574 586" fill="none" xmlns="http://www.w3.org/2000/svg">
<rect width="574" height="586" rx="18" fill="white"/>
<path d="M37.928 25.368H32.552V39H28.712V25.368H23.36V22.2H37.928V25.368ZM47.408 25.896C48.608 25.896 49.696 26.176 50.672 26.736C51.664 27.28 52.44 28.056 53 29.064C53.56 30.056 53.84 31.216 53.84 32.544C53.84 33.872 53.56 35.04 53 36.048C52.44 37.04 51.664 37.816 50.672 38.376C49.696 38.92 48.608 39.192 47.408 39.192C45.76 39.192 44.464 38.672 43.52 37.632V43.656H39.776V26.088H43.352V27.576C44.28 26.456 45.632 25.896 47.408 25.896ZM46.76 36.12C47.72 36.12 48.504 35.8 49.112 35.16C49.736 34.504 50.048 33.632 50.048 32.544C50.048 31.456 49.736 30.592 49.112 29.952C48.504 29.296 47.72 28.968 46.76 28.968C45.8 28.968 45.008 29.296 44.384 29.952C43.776 30.592 43.472 31.456 43.472 32.544C43.472 33.632 43.776 34.504 44.384 35.16C45.008 35.8 45.8 36.12 46.76 36.12ZM61.2691 25.896C63.2691 25.896 64.8051 26.376 65.8771 27.336C66.9491 28.28 67.4851 29.712 67.4851 31.632V39H63.9811V37.392C63.2771 38.592 61.9651 39.192 60.0451 39.192C59.0531 39.192 58.1891 39.024 57.4531 38.688C56.7331 38.352 56.1811 37.888 55.7971 37.296C55.4131 36.704 55.2211 36.032 55.2211 35.28C55.2211 34.08 55.6691 33.136 56.5651 32.448C57.4771 31.76 58.8771 31.416 60.7651 31.416H63.7411C63.7411 30.6 63.4931 29.976 62.9971 29.544C62.5011 29.096 61.7571 28.872 60.7651 28.872C60.0771 28.872 59.3971 28.984 58.7251 29.208C58.0691 29.416 57.5091 29.704 57.0451 30.072L55.7011 27.456C56.4051 26.96 57.2451 26.576 58.2211 26.304C59.2131 26.032 60.2291 25.896 61.2691 25.896ZM60.9811 36.672C61.6211 36.672 62.1891 36.528 62.6851 36.24C63.1811 35.936 63.5331 35.496 63.7411 34.92V33.6H61.1731C59.6371 33.6 58.8691 34.104 58.8691 35.112C58.8691 35.592 59.0531 35.976 59.4211 36.264C59.8051 36.536 60.3251 36.672 60.9811 36.672ZM80.6015 32.256C82.1215 32.768 82.8815 33.792 82.8815 35.328C82.8815 36.496 82.4415 37.4 81.5615 38.04C80.6815 38.68 79.3695 39 77.6255 39H70.7375V26.088H77.3375C78.9535 26.088 80.2175 26.384 81.1295 26.976C82.0415 27.552 82.4975 28.368 82.4975 29.424C82.4975 30.064 82.3295 30.632 81.9935 31.128C81.6735 31.608 81.2095 31.984 80.6015 32.256ZM74.1695 31.392H77.0015C78.3135 31.392 78.9695 30.928 78.9695 30C78.9695 29.088 78.3135 28.632 77.0015 28.632H74.1695V31.392ZM77.3135 36.456C78.6895 36.456 79.3775 35.984 79.3775 35.04C79.3775 34.544 79.2175 34.184 78.8975 33.96C78.5775 33.72 78.0735 33.6 77.3855 33.6H74.1695V36.456H77.3135ZM98.2192 32.592C98.2192 32.64 98.1952 32.976 98.1472 33.6H88.3792C88.5552 34.4 88.9712 35.032 89.6272 35.496C90.2832 35.96 91.0992 36.192 92.0752 36.192C92.7472 36.192 93.3392 36.096 93.8512 35.904C94.3792 35.696 94.8672 35.376 95.3152 34.944L97.3072 37.104C96.0912 38.496 94.3152 39.192 91.9792 39.192C90.5232 39.192 89.2352 38.912 88.1152 38.352C86.9952 37.776 86.1312 36.984 85.5232 35.976C84.9152 34.968 84.6112 33.824 84.6112 32.544C84.6112 31.28 84.9072 30.144 85.4992 29.136C86.1072 28.112 86.9312 27.32 87.9712 26.76C89.0272 26.184 90.2032 25.896 91.4992 25.896C92.7632 25.896 93.9072 26.168 94.9312 26.712C95.9552 27.256 96.7552 28.04 97.3312 29.064C97.9232 30.072 98.2192 31.248 98.2192 32.592ZM91.5232 28.728C90.6752 28.728 89.9632 28.968 89.3872 29.448C88.8112 29.928 88.4592 30.584 88.3312 31.416H94.6912C94.5632 30.6 94.2112 29.952 93.6352 29.472C93.0592 28.976 92.3552 28.728 91.5232 28.728ZM101.089 26.088H104.809V31.128H110.425V26.088H114.169V39H110.425V34.176H104.809V39H101.089V26.088ZM124.737 30.216C126.417 30.232 127.705 30.616 128.601 31.368C129.497 32.104 129.945 33.152 129.945 34.512C129.945 35.936 129.441 37.048 128.433 37.848C127.441 38.632 126.041 39.024 124.233 39.024L117.753 39V26.088H121.473V30.216H124.737ZM123.897 36.36C124.617 36.376 125.169 36.224 125.553 35.904C125.937 35.584 126.129 35.104 126.129 34.464C126.129 33.84 125.937 33.384 125.553 33.096C125.185 32.808 124.633 32.656 123.897 32.64L121.473 32.616V36.36H123.897ZM150.769 35.832V39H138.073V36.48L144.553 30.36C145.241 29.704 145.705 29.144 145.945 28.68C146.185 28.2 146.305 27.728 146.305 27.264C146.305 26.592 146.073 26.08 145.609 25.728C145.161 25.36 144.497 25.176 143.617 25.176C142.881 25.176 142.217 25.32 141.625 25.608C141.033 25.88 140.537 26.296 140.137 26.856L137.305 25.032C137.961 24.056 138.865 23.296 140.017 22.752C141.169 22.192 142.489 21.912 143.977 21.912C145.225 21.912 146.313 22.12 147.241 22.536C148.185 22.936 148.913 23.512 149.425 24.264C149.953 25 150.217 25.872 150.217 26.88C150.217 27.792 150.025 28.648 149.641 29.448C149.257 30.248 148.513 31.16 147.409 32.184L143.545 35.832H150.769ZM159.527 39.288C158.135 39.288 156.895 38.944 155.807 38.256C154.719 37.568 153.863 36.576 153.239 35.28C152.631 33.968 152.327 32.408 152.327 30.6C152.327 28.792 152.631 27.24 153.239 25.944C153.863 24.632 154.719 23.632 155.807 22.944C156.895 22.256 158.135 21.912 159.527 21.912C160.919 21.912 162.159 22.256 163.247 22.944C164.335 23.632 165.183 24.632 165.791 25.944C166.415 27.24 166.727 28.792 166.727 30.6C166.727 32.408 166.415 33.968 165.791 35.28C165.183 36.576 164.335 37.568 163.247 38.256C162.159 38.944 160.919 39.288 159.527 39.288ZM159.527 36C160.551 36 161.351 35.56 161.927 34.68C162.519 33.8 162.815 32.44 162.815 30.6C162.815 28.76 162.519 27.4 161.927 26.52C161.351 25.64 160.551 25.2 159.527 25.2C158.519 25.2 157.719 25.64 157.127 26.52C156.551 27.4 156.263 28.76 156.263 30.6C156.263 32.44 156.551 33.8 157.127 34.68C157.719 35.56 158.519 36 159.527 36ZM181.027 35.832V39H168.331V36.48L174.811 30.36C175.499 29.704 175.963 29.144 176.203 28.68C176.443 28.2 176.563 27.728 176.563 27.264C176.563 26.592 176.331 26.08 175.867 25.728C175.419 25.36 174.755 25.176 173.875 25.176C173.139 25.176 172.475 25.32 171.883 25.608C171.291 25.88 170.795 26.296 170.395 26.856L167.563 25.032C168.219 24.056 169.123 23.296 170.275 22.752C171.427 22.192 172.747 21.912 174.235 21.912C175.483 21.912 176.571 22.12 177.499 22.536C178.443 22.936 179.171 23.512 179.683 24.264C180.211 25 180.475 25.872 180.475 26.88C180.475 27.792 180.283 28.648 179.899 29.448C179.515 30.248 178.771 31.16 177.667 32.184L173.803 35.832H181.027ZM195.183 35.832V39H182.487V36.48L188.967 30.36C189.655 29.704 190.119 29.144 190.359 28.68C190.599 28.2 190.719 27.728 190.719 27.264C190.719 26.592 190.487 26.08 190.023 25.728C189.575 25.36 188.911 25.176 188.031 25.176C187.295 25.176 186.631 25.32 186.039 25.608C185.447 25.88 184.951 26.296 184.551 26.856L181.719 25.032C182.375 24.056 183.279 23.296 184.431 22.752C185.583 22.192 186.903 21.912 188.391 21.912C189.639 21.912 190.727 22.12 191.655 22.536C192.599 22.936 193.327 23.512 193.839 24.264C194.367 25 194.631 25.872 194.631 26.88C194.631 27.792 194.439 28.648 194.055 29.448C193.671 30.248 192.927 31.16 191.823 32.184L187.959 35.832H195.183Z" fill="black"/>
<rect x="99" y="95" width="380" height="45" rx="22.5" fill="#85E4D0"/>
<path d="M39.931 111.3V126H37.831V119.448H29.389V126H27.289V111.3H29.389V117.621H37.831V111.3H39.931ZM55.4986 124.236V128.583H53.6086V126H44.3056V128.583H42.3946V124.236H42.9826C43.6966 124.194 44.1866 123.69 44.4526 122.724C44.7186 121.758 44.9006 120.393 44.9986 118.629L45.1666 114.87H53.7976V124.236H55.4986ZM46.8466 118.776C46.7906 120.176 46.6716 121.338 46.4896 122.262C46.3216 123.172 46.0066 123.83 45.5446 124.236H51.7816V116.634H46.9516L46.8466 118.776Z" fill="black"/>
<path d="M118.952 111.3V126H116.894V113.127H108.368V126H106.289V111.3H118.952ZM123.2 114.87H125.216V119.595H131.558V114.87H133.574V126H131.558V121.338H125.216V126H123.2V114.87Z" fill="black"/>
<path d="M202.445 118.377C203.439 118.615 204.188 119.042 204.692 119.658C205.21 120.26 205.469 121.037 205.469 121.989C205.469 123.263 205 124.25 204.062 124.95C203.138 125.65 201.787 126 200.009 126H193.289V111.3H199.61C201.22 111.3 202.473 111.629 203.369 112.287C204.279 112.931 204.734 113.862 204.734 115.08C204.734 115.878 204.531 116.557 204.125 117.117C203.733 117.677 203.173 118.097 202.445 118.377ZM195.368 117.768H199.463C200.485 117.768 201.262 117.565 201.794 117.159C202.34 116.753 202.613 116.158 202.613 115.374C202.613 114.59 202.34 113.995 201.794 113.589C201.248 113.169 200.471 112.959 199.463 112.959H195.368V117.768ZM199.967 124.341C202.221 124.341 203.348 123.501 203.348 121.821C203.348 120.981 203.061 120.365 202.487 119.973C201.927 119.567 201.087 119.364 199.967 119.364H195.368V124.341H199.967ZM216.936 116.634H212.862V126H210.846V116.634H206.772V114.87H216.936V116.634Z" fill="black"/>
<path d="M280.862 126.168C279.392 126.168 278.062 125.846 276.872 125.202C275.696 124.544 274.772 123.648 274.1 122.514C273.428 121.366 273.092 120.078 273.092 118.65C273.092 117.222 273.428 115.941 274.1 114.807C274.772 113.659 275.703 112.763 276.893 112.119C278.083 111.461 279.413 111.132 280.883 111.132C282.031 111.132 283.081 111.328 284.033 111.72C284.985 112.098 285.797 112.665 286.469 113.421L285.104 114.744C283.998 113.582 282.619 113.001 280.967 113.001C279.875 113.001 278.888 113.246 278.006 113.736C277.124 114.226 276.431 114.905 275.927 115.773C275.437 116.627 275.192 117.586 275.192 118.65C275.192 119.714 275.437 120.68 275.927 121.548C276.431 122.402 277.124 123.074 278.006 123.564C278.888 124.054 279.875 124.299 280.967 124.299C282.605 124.299 283.984 123.711 285.104 122.535L286.469 123.858C285.797 124.614 284.978 125.188 284.012 125.58C283.06 125.972 282.01 126.168 280.862 126.168ZM294.927 114.765C296.005 114.765 296.971 115.003 297.825 115.479C298.679 115.955 299.344 116.62 299.82 117.474C300.31 118.328 300.555 119.315 300.555 120.435C300.555 121.555 300.31 122.549 299.82 123.417C299.344 124.271 298.679 124.936 297.825 125.412C296.971 125.888 296.005 126.126 294.927 126.126C294.129 126.126 293.394 125.972 292.722 125.664C292.064 125.356 291.504 124.908 291.042 124.32V130.074H289.026V114.87H290.958V116.634C291.406 116.018 291.973 115.556 292.659 115.248C293.345 114.926 294.101 114.765 294.927 114.765ZM294.759 124.362C295.473 124.362 296.11 124.201 296.67 123.879C297.244 123.543 297.692 123.081 298.014 122.493C298.35 121.891 298.518 121.205 298.518 120.435C298.518 119.665 298.35 118.986 298.014 118.398C297.692 117.796 297.244 117.334 296.67 117.012C296.11 116.69 295.473 116.529 294.759 116.529C294.059 116.529 293.422 116.697 292.848 117.033C292.288 117.355 291.84 117.81 291.504 118.398C291.182 118.986 291.021 119.665 291.021 120.435C291.021 121.205 291.182 121.891 291.504 122.493C291.826 123.081 292.274 123.543 292.848 123.879C293.422 124.201 294.059 124.362 294.759 124.362Z" fill="black"/>
<path d="M369.167 111.3V126H367.088V120.183C365.534 120.785 364.099 121.086 362.783 121.086C360.991 121.086 359.598 120.652 358.604 119.784C357.624 118.916 357.134 117.677 357.134 116.067V111.3H359.192V115.836C359.192 116.928 359.521 117.768 360.179 118.356C360.851 118.944 361.796 119.238 363.014 119.238C364.372 119.238 365.73 118.93 367.088 118.314V111.3H369.167ZM381.711 116.634H377.637V126H375.621V116.634H371.547V114.87H381.711V116.634Z" fill="black"/>
<path d="M453.952 111.3V126H451.894V113.127H443.368V126H441.289V111.3H453.952ZM466.495 116.634H462.421V126H460.405V116.634H456.331V114.87H466.495V116.634Z" fill="black"/>
<path d="M529.862 126.168C528.392 126.168 527.062 125.846 525.872 125.202C524.696 124.544 523.772 123.648 523.1 122.514C522.428 121.366 522.092 120.078 522.092 118.65C522.092 117.222 522.428 115.941 523.1 114.807C523.772 113.659 524.703 112.763 525.893 112.119C527.083 111.461 528.413 111.132 529.883 111.132C531.031 111.132 532.081 111.328 533.033 111.72C533.985 112.098 534.797 112.665 535.469 113.421L534.104 114.744C532.998 113.582 531.619 113.001 529.967 113.001C528.875 113.001 527.888 113.246 527.006 113.736C526.124 114.226 525.431 114.905 524.927 115.773C524.437 116.627 524.192 117.586 524.192 118.65C524.192 119.714 524.437 120.68 524.927 121.548C525.431 122.402 526.124 123.074 527.006 123.564C527.888 124.054 528.875 124.299 529.967 124.299C531.605 124.299 532.984 123.711 534.104 122.535L535.469 123.858C534.797 124.614 533.978 125.188 533.012 125.58C532.06 125.972 531.01 126.168 529.862 126.168ZM543.389 115.248C544.425 115.248 545.349 115.479 546.161 115.941C546.973 116.403 547.603 117.047 548.051 117.873C548.513 118.685 548.744 119.616 548.744 120.666C548.744 121.744 548.499 122.703 548.009 123.543C547.533 124.369 546.854 125.013 545.972 125.475C545.104 125.937 544.11 126.168 542.99 126.168C541.1 126.168 539.637 125.524 538.601 124.236C537.579 122.934 537.068 121.107 537.068 118.755C537.068 116.473 537.537 114.688 538.475 113.4C539.413 112.098 540.848 111.237 542.78 110.817L547.862 109.683L548.156 111.531L543.473 112.539C542.017 112.861 540.932 113.407 540.218 114.177C539.504 114.947 539.098 116.053 539 117.495C539.476 116.781 540.092 116.228 540.848 115.836C541.604 115.444 542.451 115.248 543.389 115.248ZM543.032 124.488C543.746 124.488 544.376 124.327 544.922 124.005C545.482 123.683 545.916 123.242 546.224 122.682C546.532 122.108 546.686 121.457 546.686 120.729C546.686 119.623 546.35 118.734 545.678 118.062C545.006 117.39 544.124 117.054 543.032 117.054C541.94 117.054 541.051 117.39 540.365 118.062C539.693 118.734 539.357 119.623 539.357 120.729C539.357 121.457 539.511 122.108 539.819 122.682C540.141 123.242 540.582 123.683 541.142 124.005C541.702 124.327 542.332 124.488 543.032 124.488Z" fill="black"/>
<path d="M40.166 186.3V201H38.654V187.644H35.189V186.3H40.166Z" fill="black"/>
<path d="M127.13 199.656V201H116.819V199.929L122.93 193.944C123.7 193.188 124.218 192.537 124.484 191.991C124.764 191.431 124.904 190.871 124.904 190.311C124.904 189.443 124.603 188.771 124.001 188.295C123.413 187.805 122.566 187.56 121.46 187.56C119.738 187.56 118.401 188.106 117.449 189.198L116.378 188.274C116.952 187.602 117.68 187.084 118.562 186.72C119.458 186.356 120.466 186.174 121.586 186.174C123.084 186.174 124.267 186.531 125.135 187.245C126.017 187.945 126.458 188.911 126.458 190.143C126.458 190.899 126.29 191.627 125.954 192.327C125.618 193.027 124.981 193.832 124.043 194.742L119.045 199.656H127.13Z" fill="black"/>
<path d="M204.09 192.6C205.63 192.684 206.799 193.104 207.597 193.86C208.409 194.602 208.815 195.575 208.815 196.779C208.815 197.619 208.612 198.368 208.206 199.026C207.8 199.67 207.198 200.181 206.4 200.559C205.602 200.937 204.629 201.126 203.481 201.126C202.417 201.126 201.409 200.958 200.457 200.622C199.519 200.272 198.763 199.81 198.189 199.236L198.924 198.039C199.414 198.543 200.065 198.956 200.877 199.278C201.689 199.586 202.557 199.74 203.481 199.74C204.685 199.74 205.616 199.481 206.274 198.963C206.932 198.431 207.261 197.703 207.261 196.779C207.261 195.869 206.932 195.155 206.274 194.637C205.616 194.119 204.622 193.86 203.292 193.86H202.242V192.747L206.316 187.644H198.798V186.3H208.248V187.371L204.09 192.6Z" fill="black"/>
<path d="M294.587 197.136H291.647V201H290.135V197.136H281.84V196.044L289.631 186.3H291.311L283.793 195.792H290.177V192.39H291.647V195.792H294.587V197.136Z" fill="black"/>
<path d="M370.956 192.327C373.084 192.327 374.631 192.712 375.597 193.482C376.577 194.238 377.067 195.302 377.067 196.674C377.067 197.528 376.864 198.291 376.458 198.963C376.066 199.635 375.471 200.167 374.673 200.559C373.875 200.937 372.895 201.126 371.733 201.126C370.683 201.126 369.682 200.958 368.73 200.622C367.792 200.272 367.036 199.81 366.462 199.236L367.197 198.039C367.687 198.543 368.331 198.956 369.129 199.278C369.927 199.586 370.788 199.74 371.712 199.74C372.93 199.74 373.868 199.467 374.526 198.921C375.198 198.375 375.534 197.647 375.534 196.737C375.534 195.729 375.156 194.966 374.4 194.448C373.658 193.93 372.398 193.671 370.62 193.671H367.491L368.247 186.3H376.29V187.644H369.57L369.066 192.327H370.956Z" fill="black"/>
<path d="M454.182 192.201C455.148 192.201 456.002 192.383 456.744 192.747C457.5 193.111 458.088 193.629 458.508 194.301C458.928 194.959 459.138 195.729 459.138 196.611C459.138 197.507 458.921 198.298 458.487 198.984C458.053 199.67 457.451 200.202 456.681 200.58C455.925 200.944 455.071 201.126 454.119 201.126C452.173 201.126 450.682 200.489 449.646 199.215C448.61 197.927 448.092 196.114 448.092 193.776C448.092 192.138 448.372 190.752 448.932 189.618C449.492 188.484 450.276 187.63 451.284 187.056C452.292 186.468 453.468 186.174 454.812 186.174C456.268 186.174 457.43 186.44 458.298 186.972L457.689 188.19C456.989 187.728 456.037 187.497 454.833 187.497C453.209 187.497 451.935 188.015 451.011 189.051C450.087 190.073 449.625 191.564 449.625 193.524C449.625 193.874 449.646 194.273 449.688 194.721C450.052 193.923 450.633 193.307 451.431 192.873C452.229 192.425 453.146 192.201 454.182 192.201ZM454.056 199.845C455.12 199.845 455.981 199.558 456.639 198.984C457.311 198.396 457.647 197.619 457.647 196.653C457.647 195.687 457.311 194.917 456.639 194.343C455.981 193.769 455.085 193.482 453.951 193.482C453.209 193.482 452.551 193.622 451.977 193.902C451.417 194.182 450.976 194.567 450.654 195.057C450.332 195.547 450.171 196.093 450.171 196.695C450.171 197.255 450.318 197.773 450.612 198.249C450.92 198.725 451.368 199.11 451.956 199.404C452.544 199.698 453.244 199.845 454.056 199.845Z" fill="black"/>
<path d="M540.466 186.3V187.371L534.313 201H532.675L538.723 187.644H531.163V190.395H529.672V186.3H540.466Z" fill="black"/>
<path d="M41.513 267.293C42.437 267.601 43.144 268.063 43.634 268.679C44.138 269.295 44.39 270.037 44.39 270.905C44.39 271.759 44.159 272.508 43.697 273.152C43.235 273.782 42.57 274.272 41.702 274.622C40.848 274.958 39.84 275.126 38.678 275.126C36.914 275.126 35.528 274.748 34.52 273.992C33.512 273.236 33.008 272.207 33.008 270.905C33.008 270.023 33.246 269.281 33.722 268.679C34.212 268.063 34.919 267.601 35.843 267.293C35.087 266.999 34.513 266.579 34.121 266.033C33.729 265.473 33.533 264.815 33.533 264.059C33.533 262.869 33.995 261.924 34.919 261.224C35.857 260.524 37.11 260.174 38.678 260.174C39.714 260.174 40.617 260.335 41.387 260.657C42.171 260.965 42.78 261.413 43.214 262.001C43.648 262.589 43.865 263.275 43.865 264.059C43.865 264.815 43.662 265.473 43.256 266.033C42.85 266.579 42.269 266.999 41.513 267.293ZM35.045 264.101C35.045 264.913 35.367 265.557 36.011 266.033C36.655 266.509 37.544 266.747 38.678 266.747C39.812 266.747 40.701 266.509 41.345 266.033C42.003 265.557 42.332 264.92 42.332 264.122C42.332 263.296 41.996 262.645 41.324 262.169C40.666 261.693 39.784 261.455 38.678 261.455C37.558 261.455 36.669 261.693 36.011 262.169C35.367 262.645 35.045 263.289 35.045 264.101ZM38.678 273.845C39.98 273.845 40.995 273.579 41.723 273.047C42.465 272.515 42.836 271.794 42.836 270.884C42.836 269.974 42.465 269.26 41.723 268.742C40.995 268.21 39.98 267.944 38.678 267.944C37.39 267.944 36.375 268.21 35.633 268.742C34.905 269.26 34.541 269.974 34.541 270.884C34.541 271.808 34.905 272.536 35.633 273.068C36.361 273.586 37.376 273.845 38.678 273.845Z" fill="black"/>
<path d="M121.67 260.174C123.616 260.174 125.107 260.818 126.143 262.106C127.179 263.38 127.697 265.186 127.697 267.524C127.697 269.162 127.417 270.548 126.857 271.682C126.297 272.816 125.513 273.677 124.505 274.265C123.497 274.839 122.321 275.126 120.977 275.126C119.521 275.126 118.359 274.86 117.491 274.328L118.1 273.11C118.8 273.572 119.752 273.803 120.956 273.803C122.58 273.803 123.854 273.292 124.778 272.27C125.702 271.234 126.164 269.736 126.164 267.776C126.164 267.412 126.143 267.013 126.101 266.579C125.737 267.377 125.156 268 124.358 268.448C123.56 268.882 122.643 269.099 121.607 269.099C120.641 269.099 119.78 268.917 119.024 268.553C118.282 268.189 117.701 267.678 117.281 267.02C116.861 266.348 116.651 265.571 116.651 264.689C116.651 263.793 116.868 263.002 117.302 262.316C117.736 261.63 118.331 261.105 119.087 260.741C119.857 260.363 120.718 260.174 121.67 260.174ZM121.838 267.818C122.58 267.818 123.231 267.678 123.791 267.398C124.365 267.118 124.813 266.733 125.135 266.243C125.457 265.753 125.618 265.207 125.618 264.605C125.618 264.045 125.464 263.527 125.156 263.051C124.862 262.575 124.421 262.19 123.833 261.896C123.245 261.602 122.545 261.455 121.733 261.455C120.669 261.455 119.801 261.749 119.129 262.337C118.471 262.911 118.142 263.681 118.142 264.647C118.142 265.613 118.471 266.383 119.129 266.957C119.801 267.531 120.704 267.818 121.838 267.818Z" fill="black"/>
<path d="M198.166 260.3V275H196.654V261.644H193.189V260.3H198.166ZM207.339 275.126C206.205 275.126 205.19 274.825 204.294 274.223C203.412 273.621 202.719 272.76 202.215 271.64C201.725 270.506 201.48 269.176 201.48 267.65C201.48 266.124 201.725 264.801 202.215 263.681C202.719 262.547 203.412 261.679 204.294 261.077C205.19 260.475 206.205 260.174 207.339 260.174C208.473 260.174 209.481 260.475 210.363 261.077C211.259 261.679 211.959 262.547 212.463 263.681C212.967 264.801 213.219 266.124 213.219 267.65C213.219 269.176 212.967 270.506 212.463 271.64C211.959 272.76 211.259 273.621 210.363 274.223C209.481 274.825 208.473 275.126 207.339 275.126ZM207.339 273.74C208.193 273.74 208.942 273.502 209.586 273.026C210.244 272.55 210.755 271.857 211.119 270.947C211.483 270.037 211.665 268.938 211.665 267.65C211.665 266.362 211.483 265.263 211.119 264.353C210.755 263.443 210.244 262.75 209.586 262.274C208.942 261.798 208.193 261.56 207.339 261.56C206.485 261.56 205.729 261.798 205.071 262.274C204.427 262.75 203.923 263.443 203.559 264.353C203.195 265.263 203.013 266.362 203.013 267.65C203.013 268.938 203.195 270.037 203.559 270.947C203.923 271.857 204.427 272.55 205.071 273.026C205.729 273.502 206.485 273.74 207.339 273.74Z" fill="black"/>
<path d="M283.166 260.3V275H281.654V261.644H278.189V260.3H283.166ZM290.554 260.3V275H289.042V261.644H285.577V260.3H290.554Z" fill="black"/>
<path d="M366.166 260.3V275H364.654V261.644H361.189V260.3H366.166ZM379.518 273.656V275H369.207V273.929L375.318 267.944C376.088 267.188 376.606 266.537 376.872 265.991C377.152 265.431 377.292 264.871 377.292 264.311C377.292 263.443 376.991 262.771 376.389 262.295C375.801 261.805 374.954 261.56 373.848 261.56C372.126 261.56 370.789 262.106 369.837 263.198L368.766 262.274C369.34 261.602 370.068 261.084 370.95 260.72C371.846 260.356 372.854 260.174 373.974 260.174C375.472 260.174 376.655 260.531 377.523 261.245C378.405 261.945 378.846 262.911 378.846 264.143C378.846 264.899 378.678 265.627 378.342 266.327C378.006 267.027 377.369 267.832 376.431 268.742L371.433 273.656H379.518Z" fill="black"/>
<path d="M448.166 260.3V275H446.654V261.644H443.189V260.3H448.166ZM456.478 266.6C458.018 266.684 459.187 267.104 459.985 267.86C460.797 268.602 461.203 269.575 461.203 270.779C461.203 271.619 461 272.368 460.594 273.026C460.188 273.67 459.586 274.181 458.788 274.559C457.99 274.937 457.017 275.126 455.869 275.126C454.805 275.126 453.797 274.958 452.845 274.622C451.907 274.272 451.151 273.81 450.577 273.236L451.312 272.039C451.802 272.543 452.453 272.956 453.265 273.278C454.077 273.586 454.945 273.74 455.869 273.74C457.073 273.74 458.004 273.481 458.662 272.963C459.32 272.431 459.649 271.703 459.649 270.779C459.649 269.869 459.32 269.155 458.662 268.637C458.004 268.119 457.01 267.86 455.68 267.86H454.63V266.747L458.704 261.644H451.186V260.3H460.636V261.371L456.478 266.6Z" fill="black"/>
<path d="M531.166 260.3V275H529.654V261.644H526.189V260.3H531.166ZM546.975 271.136H544.035V275H542.523V271.136H534.228V270.044L542.019 260.3H543.699L536.181 269.792H542.565V266.39H544.035V269.792H546.975V271.136Z" fill="black"/>
<path d="M34.166 334.3V349H32.654V335.644H29.189V334.3H34.166ZM41.3439 340.327C43.4719 340.327 45.0189 340.712 45.9849 341.482C46.9649 342.238 47.4549 343.302 47.4549 344.674C47.4549 345.528 47.2519 346.291 46.8459 346.963C46.4539 347.635 45.8589 348.167 45.0609 348.559C44.2629 348.937 43.2829 349.126 42.1209 349.126C41.0709 349.126 40.0699 348.958 39.1179 348.622C38.1799 348.272 37.4239 347.81 36.8499 347.236L37.5849 346.039C38.0749 346.543 38.7189 346.956 39.5169 347.278C40.3149 347.586 41.1759 347.74 42.0999 347.74C43.3179 347.74 44.2559 347.467 44.9139 346.921C45.5859 346.375 45.9219 345.647 45.9219 344.737C45.9219 343.729 45.5439 342.966 44.7879 342.448C44.0459 341.93 42.7859 341.671 41.0079 341.671H37.8789L38.6349 334.3H46.6779V335.644H39.9579L39.4539 340.327H41.3439Z" fill="black"/>
<path d="M117.166 334.3V349H115.654V335.644H112.189V334.3H117.166ZM126.57 340.201C127.536 340.201 128.39 340.383 129.132 340.747C129.888 341.111 130.476 341.629 130.896 342.301C131.316 342.959 131.526 343.729 131.526 344.611C131.526 345.507 131.309 346.298 130.875 346.984C130.441 347.67 129.839 348.202 129.069 348.58C128.313 348.944 127.459 349.126 126.507 349.126C124.561 349.126 123.07 348.489 122.034 347.215C120.998 345.927 120.48 344.114 120.48 341.776C120.48 340.138 120.76 338.752 121.32 337.618C121.88 336.484 122.664 335.63 123.672 335.056C124.68 334.468 125.856 334.174 127.2 334.174C128.656 334.174 129.818 334.44 130.686 334.972L130.077 336.19C129.377 335.728 128.425 335.497 127.221 335.497C125.597 335.497 124.323 336.015 123.399 337.051C122.475 338.073 122.013 339.564 122.013 341.524C122.013 341.874 122.034 342.273 122.076 342.721C122.44 341.923 123.021 341.307 123.819 340.873C124.617 340.425 125.534 340.201 126.57 340.201ZM126.444 347.845C127.508 347.845 128.369 347.558 129.027 346.984C129.699 346.396 130.035 345.619 130.035 344.653C130.035 343.687 129.699 342.917 129.027 342.343C128.369 341.769 127.473 341.482 126.339 341.482C125.597 341.482 124.939 341.622 124.365 341.902C123.805 342.182 123.364 342.567 123.042 343.057C122.72 343.547 122.559 344.093 122.559 344.695C122.559 345.255 122.706 345.773 123 346.249C123.308 346.725 123.756 347.11 124.344 347.404C124.932 347.698 125.632 347.845 126.444 347.845Z" fill="black"/>
<path d="M199.166 334.3V349H197.654V335.644H194.189V334.3H199.166ZM212.854 334.3V335.371L206.701 349H205.063L211.111 335.644H203.551V338.395H202.06V334.3H212.854Z" fill="black"/>
<path d="M282.166 334.3V349H280.654V335.644H277.189V334.3H282.166ZM293.901 341.293C294.825 341.601 295.532 342.063 296.022 342.679C296.526 343.295 296.778 344.037 296.778 344.905C296.778 345.759 296.547 346.508 296.085 347.152C295.623 347.782 294.958 348.272 294.09 348.622C293.236 348.958 292.228 349.126 291.066 349.126C289.302 349.126 287.916 348.748 286.908 347.992C285.9 347.236 285.396 346.207 285.396 344.905C285.396 344.023 285.634 343.281 286.11 342.679C286.6 342.063 287.307 341.601 288.231 341.293C287.475 340.999 286.901 340.579 286.509 340.033C286.117 339.473 285.921 338.815 285.921 338.059C285.921 336.869 286.383 335.924 287.307 335.224C288.245 334.524 289.498 334.174 291.066 334.174C292.102 334.174 293.005 334.335 293.775 334.657C294.559 334.965 295.168 335.413 295.602 336.001C296.036 336.589 296.253 337.275 296.253 338.059C296.253 338.815 296.05 339.473 295.644 340.033C295.238 340.579 294.657 340.999 293.901 341.293ZM287.433 338.101C287.433 338.913 287.755 339.557 288.399 340.033C289.043 340.509 289.932 340.747 291.066 340.747C292.2 340.747 293.089 340.509 293.733 340.033C294.391 339.557 294.72 338.92 294.72 338.122C294.72 337.296 294.384 336.645 293.712 336.169C293.054 335.693 292.172 335.455 291.066 335.455C289.946 335.455 289.057 335.693 288.399 336.169C287.755 336.645 287.433 337.289 287.433 338.101ZM291.066 347.845C292.368 347.845 293.383 347.579 294.111 347.047C294.853 346.515 295.224 345.794 295.224 344.884C295.224 343.974 294.853 343.26 294.111 342.742C293.383 342.21 292.368 341.944 291.066 341.944C289.778 341.944 288.763 342.21 288.021 342.742C287.293 343.26 286.929 343.974 286.929 344.884C286.929 345.808 287.293 346.536 288.021 347.068C288.749 347.586 289.764 347.845 291.066 347.845Z" fill="black"/>
<path d="M367.166 334.3V349H365.654V335.644H362.189V334.3H367.166ZM375.058 334.174C377.004 334.174 378.495 334.818 379.531 336.106C380.567 337.38 381.085 339.186 381.085 341.524C381.085 343.162 380.805 344.548 380.245 345.682C379.685 346.816 378.901 347.677 377.893 348.265C376.885 348.839 375.709 349.126 374.365 349.126C372.909 349.126 371.747 348.86 370.879 348.328L371.488 347.11C372.188 347.572 373.14 347.803 374.344 347.803C375.968 347.803 377.242 347.292 378.166 346.27C379.09 345.234 379.552 343.736 379.552 341.776C379.552 341.412 379.531 341.013 379.489 340.579C379.125 341.377 378.544 342 377.746 342.448C376.948 342.882 376.031 343.099 374.995 343.099C374.029 343.099 373.168 342.917 372.412 342.553C371.67 342.189 371.089 341.678 370.669 341.02C370.249 340.348 370.039 339.571 370.039 338.689C370.039 337.793 370.256 337.002 370.69 336.316C371.124 335.63 371.719 335.105 372.475 334.741C373.245 334.363 374.106 334.174 375.058 334.174ZM375.226 341.818C375.968 341.818 376.619 341.678 377.179 341.398C377.753 341.118 378.201 340.733 378.523 340.243C378.845 339.753 379.006 339.207 379.006 338.605C379.006 338.045 378.852 337.527 378.544 337.051C378.25 336.575 377.809 336.19 377.221 335.896C376.633 335.602 375.933 335.455 375.121 335.455C374.057 335.455 373.189 335.749 372.517 336.337C371.859 336.911 371.53 337.681 371.53 338.647C371.53 339.613 371.859 340.383 372.517 340.957C373.189 341.531 374.092 341.818 375.226 341.818Z" fill="black"/>
<path d="M452.13 347.656V349H441.819V347.929L447.93 341.944C448.7 341.188 449.218 340.537 449.484 339.991C449.764 339.431 449.904 338.871 449.904 338.311C449.904 337.443 449.603 336.771 449.001 336.295C448.413 335.805 447.566 335.56 446.46 335.56C444.738 335.56 443.401 336.106 442.449 337.198L441.378 336.274C441.952 335.602 442.68 335.084 443.562 334.72C444.458 334.356 445.466 334.174 446.586 334.174C448.084 334.174 449.267 334.531 450.135 335.245C451.017 335.945 451.458 336.911 451.458 338.143C451.458 338.899 451.29 339.627 450.954 340.327C450.618 341.027 449.981 341.832 449.043 342.742L444.045 347.656H452.13ZM459.605 349.126C458.471 349.126 457.456 348.825 456.56 348.223C455.678 347.621 454.985 346.76 454.481 345.64C453.991 344.506 453.746 343.176 453.746 341.65C453.746 340.124 453.991 338.801 454.481 337.681C454.985 336.547 455.678 335.679 456.56 335.077C457.456 334.475 458.471 334.174 459.605 334.174C460.739 334.174 461.747 334.475 462.629 335.077C463.525 335.679 464.225 336.547 464.729 337.681C465.233 338.801 465.485 340.124 465.485 341.65C465.485 343.176 465.233 344.506 464.729 345.64C464.225 346.76 463.525 347.621 462.629 348.223C461.747 348.825 460.739 349.126 459.605 349.126ZM459.605 347.74C460.459 347.74 461.208 347.502 461.852 347.026C462.51 346.55 463.021 345.857 463.385 344.947C463.749 344.037 463.931 342.938 463.931 341.65C463.931 340.362 463.749 339.263 463.385 338.353C463.021 337.443 462.51 336.75 461.852 336.274C461.208 335.798 460.459 335.56 459.605 335.56C458.751 335.56 457.995 335.798 457.337 336.274C456.693 336.75 456.189 337.443 455.825 338.353C455.461 339.263 455.279 340.362 455.279 341.65C455.279 342.938 455.461 344.037 455.825 344.947C456.189 345.857 456.693 346.55 457.337 347.026C457.995 347.502 458.751 347.74 459.605 347.74Z" fill="black"/>
<path d="M536.13 347.656V349H525.819V347.929L531.93 341.944C532.7 341.188 533.218 340.537 533.484 339.991C533.764 339.431 533.904 338.871 533.904 338.311C533.904 337.443 533.603 336.771 533.001 336.295C532.413 335.805 531.566 335.56 530.46 335.56C528.738 335.56 527.401 336.106 526.449 337.198L525.378 336.274C525.952 335.602 526.68 335.084 527.562 334.72C528.458 334.356 529.466 334.174 530.586 334.174C532.084 334.174 533.267 334.531 534.135 335.245C535.017 335.945 535.458 336.911 535.458 338.143C535.458 338.899 535.29 339.627 534.954 340.327C534.618 341.027 533.981 341.832 533.043 342.742L528.045 347.656H536.13ZM541.902 334.3V349H540.39V335.644H536.925V334.3H541.902Z" fill="black"/>
<path d="M38.13 420.656V422H27.819V420.929L33.93 414.944C34.7 414.188 35.218 413.537 35.484 412.991C35.764 412.431 35.904 411.871 35.904 411.311C35.904 410.443 35.603 409.771 35.001 409.295C34.413 408.805 33.566 408.56 32.46 408.56C30.738 408.56 29.401 409.106 28.449 410.198L27.378 409.274C27.952 408.602 28.68 408.084 29.562 407.72C30.458 407.356 31.466 407.174 32.586 407.174C34.084 407.174 35.267 407.531 36.135 408.245C37.017 408.945 37.458 409.911 37.458 411.143C37.458 411.899 37.29 412.627 36.954 413.327C36.618 414.027 35.981 414.832 35.043 415.742L30.045 420.656H38.13ZM49.8655 420.656V422H39.5545V420.929L45.6655 414.944C46.4355 414.188 46.9535 413.537 47.2195 412.991C47.4995 412.431 47.6395 411.871 47.6395 411.311C47.6395 410.443 47.3385 409.771 46.7365 409.295C46.1485 408.805 45.3015 408.56 44.1955 408.56C42.4735 408.56 41.1365 409.106 40.1845 410.198L39.1135 409.274C39.6875 408.602 40.4155 408.084 41.2975 407.72C42.1935 407.356 43.2015 407.174 44.3215 407.174C45.8195 407.174 47.0025 407.531 47.8705 408.245C48.7525 408.945 49.1935 409.911 49.1935 411.143C49.1935 411.899 49.0255 412.627 48.6895 413.327C48.3535 414.027 47.7165 414.832 46.7785 415.742L41.7805 420.656H49.8655Z" fill="black"/>
<path d="M121.13 420.656V422H110.819V420.929L116.93 414.944C117.7 414.188 118.218 413.537 118.484 412.991C118.764 412.431 118.904 411.871 118.904 411.311C118.904 410.443 118.603 409.771 118.001 409.295C117.413 408.805 116.566 408.56 115.46 408.56C113.738 408.56 112.401 409.106 111.449 410.198L110.378 409.274C110.952 408.602 111.68 408.084 112.562 407.72C113.458 407.356 114.466 407.174 115.586 407.174C117.084 407.174 118.267 407.531 119.135 408.245C120.017 408.945 120.458 409.911 120.458 411.143C120.458 411.899 120.29 412.627 119.954 413.327C119.618 414.027 118.981 414.832 118.043 415.742L113.045 420.656H121.13ZM127.826 413.6C129.366 413.684 130.535 414.104 131.333 414.86C132.145 415.602 132.551 416.575 132.551 417.779C132.551 418.619 132.348 419.368 131.942 420.026C131.536 420.67 130.934 421.181 130.136 421.559C129.338 421.937 128.365 422.126 127.217 422.126C126.153 422.126 125.145 421.958 124.193 421.622C123.255 421.272 122.499 420.81 121.925 420.236L122.66 419.039C123.15 419.543 123.801 419.956 124.613 420.278C125.425 420.586 126.293 420.74 127.217 420.74C128.421 420.74 129.352 420.481 130.01 419.963C130.668 419.431 130.997 418.703 130.997 417.779C130.997 416.869 130.668 416.155 130.01 415.637C129.352 415.119 128.358 414.86 127.028 414.86H125.978V413.747L130.052 408.644H122.534V407.3H131.984V408.371L127.826 413.6Z" fill="black"/>
<path d="M202.13 420.656V422H191.819V420.929L197.93 414.944C198.7 414.188 199.218 413.537 199.484 412.991C199.764 412.431 199.904 411.871 199.904 411.311C199.904 410.443 199.603 409.771 199.001 409.295C198.413 408.805 197.566 408.56 196.46 408.56C194.738 408.56 193.401 409.106 192.449 410.198L191.378 409.274C191.952 408.602 192.68 408.084 193.562 407.72C194.458 407.356 195.466 407.174 196.586 407.174C198.084 407.174 199.267 407.531 200.135 408.245C201.017 408.945 201.458 409.911 201.458 411.143C201.458 411.899 201.29 412.627 200.954 413.327C200.618 414.027 199.981 414.832 199.043 415.742L194.045 420.656H202.13ZM215.83 418.136H212.89V422H211.378V418.136H203.083V417.044L210.874 407.3H212.554L205.036 416.792H211.42V413.39H212.89V416.792H215.83V418.136Z" fill="black"/>
<path d="M286.13 420.656V422H275.819V420.929L281.93 414.944C282.7 414.188 283.218 413.537 283.484 412.991C283.764 412.431 283.904 411.871 283.904 411.311C283.904 410.443 283.603 409.771 283.001 409.295C282.413 408.805 281.566 408.56 280.46 408.56C278.738 408.56 277.401 409.106 276.449 410.198L275.378 409.274C275.952 408.602 276.68 408.084 277.562 407.72C278.458 407.356 279.466 407.174 280.586 407.174C282.084 407.174 283.267 407.531 284.135 408.245C285.017 408.945 285.458 409.911 285.458 411.143C285.458 411.899 285.29 412.627 284.954 413.327C284.618 414.027 283.981 414.832 283.043 415.742L278.045 420.656H286.13ZM291.692 413.327C293.82 413.327 295.367 413.712 296.333 414.482C297.313 415.238 297.803 416.302 297.803 417.674C297.803 418.528 297.6 419.291 297.194 419.963C296.802 420.635 296.207 421.167 295.409 421.559C294.611 421.937 293.631 422.126 292.469 422.126C291.419 422.126 290.418 421.958 289.466 421.622C288.528 421.272 287.772 420.81 287.198 420.236L287.933 419.039C288.423 419.543 289.067 419.956 289.865 420.278C290.663 420.586 291.524 420.74 292.448 420.74C293.666 420.74 294.604 420.467 295.262 419.921C295.934 419.375 296.27 418.647 296.27 417.737C296.27 416.729 295.892 415.966 295.136 415.448C294.394 414.93 293.134 414.671 291.356 414.671H288.227L288.983 407.3H297.026V408.644H290.306L289.802 413.327H291.692Z" fill="black"/>
<path d="M370.13 420.656V422H359.819V420.929L365.93 414.944C366.7 414.188 367.218 413.537 367.484 412.991C367.764 412.431 367.904 411.871 367.904 411.311C367.904 410.443 367.603 409.771 367.001 409.295C366.413 408.805 365.566 408.56 364.46 408.56C362.738 408.56 361.401 409.106 360.449 410.198L359.378 409.274C359.952 408.602 360.68 408.084 361.562 407.72C362.458 407.356 363.466 407.174 364.586 407.174C366.084 407.174 367.267 407.531 368.135 408.245C369.017 408.945 369.458 409.911 369.458 411.143C369.458 411.899 369.29 412.627 368.954 413.327C368.618 414.027 367.981 414.832 367.043 415.742L362.045 420.656H370.13ZM377.836 413.201C378.802 413.201 379.656 413.383 380.398 413.747C381.154 414.111 381.742 414.629 382.162 415.301C382.582 415.959 382.792 416.729 382.792 417.611C382.792 418.507 382.575 419.298 382.141 419.984C381.707 420.67 381.105 421.202 380.335 421.58C379.579 421.944 378.725 422.126 377.773 422.126C375.827 422.126 374.336 421.489 373.3 420.215C372.264 418.927 371.746 417.114 371.746 414.776C371.746 413.138 372.026 411.752 372.586 410.618C373.146 409.484 373.93 408.63 374.938 408.056C375.946 407.468 377.122 407.174 378.466 407.174C379.922 407.174 381.084 407.44 381.952 407.972L381.343 409.19C380.643 408.728 379.691 408.497 378.487 408.497C376.863 408.497 375.589 409.015 374.665 410.051C373.741 411.073 373.279 412.564 373.279 414.524C373.279 414.874 373.3 415.273 373.342 415.721C373.706 414.923 374.287 414.307 375.085 413.873C375.883 413.425 376.8 413.201 377.836 413.201ZM377.71 420.845C378.774 420.845 379.635 420.558 380.293 419.984C380.965 419.396 381.301 418.619 381.301 417.653C381.301 416.687 380.965 415.917 380.293 415.343C379.635 414.769 378.739 414.482 377.605 414.482C376.863 414.482 376.205 414.622 375.631 414.902C375.071 415.182 374.63 415.567 374.308 416.057C373.986 416.547 373.825 417.093 373.825 417.695C373.825 418.255 373.972 418.773 374.266 419.249C374.574 419.725 375.022 420.11 375.61 420.404C376.198 420.698 376.898 420.845 377.71 420.845Z" fill="black"/>
<path d="M453.13 420.656V422H442.819V420.929L448.93 414.944C449.7 414.188 450.218 413.537 450.484 412.991C450.764 412.431 450.904 411.871 450.904 411.311C450.904 410.443 450.603 409.771 450.001 409.295C449.413 408.805 448.566 408.56 447.46 408.56C445.738 408.56 444.401 409.106 443.449 410.198L442.378 409.274C442.952 408.602 443.68 408.084 444.562 407.72C445.458 407.356 446.466 407.174 447.586 407.174C449.084 407.174 450.267 407.531 451.135 408.245C452.017 408.945 452.458 409.911 452.458 411.143C452.458 411.899 452.29 412.627 451.954 413.327C451.618 414.027 450.981 414.832 450.043 415.742L445.045 420.656H453.13ZM465.12 407.3V408.371L458.967 422H457.329L463.377 408.644H455.817V411.395H454.326V407.3H465.12Z" fill="black"/>
<path d="M535.13 420.656V422H524.819V420.929L530.93 414.944C531.7 414.188 532.218 413.537 532.484 412.991C532.764 412.431 532.904 411.871 532.904 411.311C532.904 410.443 532.603 409.771 532.001 409.295C531.413 408.805 530.566 408.56 529.46 408.56C527.738 408.56 526.401 409.106 525.449 410.198L524.378 409.274C524.952 408.602 525.68 408.084 526.562 407.72C527.458 407.356 528.466 407.174 529.586 407.174C531.084 407.174 532.267 407.531 533.135 408.245C534.017 408.945 534.458 409.911 534.458 411.143C534.458 411.899 534.29 412.627 533.954 413.327C533.618 414.027 532.981 414.832 532.043 415.742L527.045 420.656H535.13ZM545.249 414.293C546.173 414.601 546.88 415.063 547.37 415.679C547.874 416.295 548.126 417.037 548.126 417.905C548.126 418.759 547.895 419.508 547.433 420.152C546.971 420.782 546.306 421.272 545.438 421.622C544.584 421.958 543.576 422.126 542.414 422.126C540.65 422.126 539.264 421.748 538.256 420.992C537.248 420.236 536.744 419.207 536.744 417.905C536.744 417.023 536.982 416.281 537.458 415.679C537.948 415.063 538.655 414.601 539.579 414.293C538.823 413.999 538.249 413.579 537.857 413.033C537.465 412.473 537.269 411.815 537.269 411.059C537.269 409.869 537.731 408.924 538.655 408.224C539.593 407.524 540.846 407.174 542.414 407.174C543.45 407.174 544.353 407.335 545.123 407.657C545.907 407.965 546.516 408.413 546.95 409.001C547.384 409.589 547.601 410.275 547.601 411.059C547.601 411.815 547.398 412.473 546.992 413.033C546.586 413.579 546.005 413.999 545.249 414.293ZM538.781 411.101C538.781 411.913 539.103 412.557 539.747 413.033C540.391 413.509 541.28 413.747 542.414 413.747C543.548 413.747 544.437 413.509 545.081 413.033C545.739 412.557 546.068 411.92 546.068 411.122C546.068 410.296 545.732 409.645 545.06 409.169C544.402 408.693 543.52 408.455 542.414 408.455C541.294 408.455 540.405 408.693 539.747 409.169C539.103 409.645 538.781 410.289 538.781 411.101ZM542.414 420.845C543.716 420.845 544.731 420.579 545.459 420.047C546.201 419.515 546.572 418.794 546.572 417.884C546.572 416.974 546.201 416.26 545.459 415.742C544.731 415.21 543.716 414.944 542.414 414.944C541.126 414.944 540.111 415.21 539.369 415.742C538.641 416.26 538.277 416.974 538.277 417.884C538.277 418.808 538.641 419.536 539.369 420.068C540.097 420.586 541.112 420.845 542.414 420.845Z" fill="black"/>
<path d="M38.13 494.656V496H27.819V494.929L33.93 488.944C34.7 488.188 35.218 487.537 35.484 486.991C35.764 486.431 35.904 485.871 35.904 485.311C35.904 484.443 35.603 483.771 35.001 483.295C34.413 482.805 33.566 482.56 32.46 482.56C30.738 482.56 29.401 483.106 28.449 484.198L27.378 483.274C27.952 482.602 28.68 482.084 29.562 481.72C30.458 481.356 31.466 481.174 32.586 481.174C34.084 481.174 35.267 481.531 36.135 482.245C37.017 482.945 37.458 483.911 37.458 485.143C37.458 485.899 37.29 486.627 36.954 487.327C36.618 488.027 35.981 488.832 35.043 489.742L30.045 494.656H38.13ZM44.4055 481.174C46.3515 481.174 47.8425 481.818 48.8785 483.106C49.9145 484.38 50.4325 486.186 50.4325 488.524C50.4325 490.162 50.1525 491.548 49.5925 492.682C49.0325 493.816 48.2485 494.677 47.2405 495.265C46.2325 495.839 45.0565 496.126 43.7125 496.126C42.2565 496.126 41.0945 495.86 40.2265 495.328L40.8355 494.11C41.5355 494.572 42.4875 494.803 43.6915 494.803C45.3155 494.803 46.5895 494.292 47.5135 493.27C48.4375 492.234 48.8995 490.736 48.8995 488.776C48.8995 488.412 48.8785 488.013 48.8365 487.579C48.4725 488.377 47.8915 489 47.0935 489.448C46.2955 489.882 45.3785 490.099 44.3425 490.099C43.3765 490.099 42.5155 489.917 41.7595 489.553C41.0175 489.189 40.4365 488.678 40.0165 488.02C39.5965 487.348 39.3865 486.571 39.3865 485.689C39.3865 484.793 39.6035 484.002 40.0375 483.316C40.4715 482.63 41.0665 482.105 41.8225 481.741C42.5925 481.363 43.4535 481.174 44.4055 481.174ZM44.5735 488.818C45.3155 488.818 45.9665 488.678 46.5265 488.398C47.1005 488.118 47.5485 487.733 47.8705 487.243C48.1925 486.753 48.3535 486.207 48.3535 485.605C48.3535 485.045 48.1995 484.527 47.8915 484.051C47.5975 483.575 47.1565 483.19 46.5685 482.896C45.9805 482.602 45.2805 482.455 44.4685 482.455C43.4045 482.455 42.5365 482.749 41.8645 483.337C41.2065 483.911 40.8775 484.681 40.8775 485.647C40.8775 486.613 41.2065 487.383 41.8645 487.957C42.5365 488.531 43.4395 488.818 44.5735 488.818Z" fill="black"/>
<path d="M115.09 487.6C116.63 487.684 117.799 488.104 118.597 488.86C119.409 489.602 119.815 490.575 119.815 491.779C119.815 492.619 119.612 493.368 119.206 494.026C118.8 494.67 118.198 495.181 117.4 495.559C116.602 495.937 115.629 496.126 114.481 496.126C113.417 496.126 112.409 495.958 111.457 495.622C110.519 495.272 109.763 494.81 109.189 494.236L109.924 493.039C110.414 493.543 111.065 493.956 111.877 494.278C112.689 494.586 113.557 494.74 114.481 494.74C115.685 494.74 116.616 494.481 117.274 493.963C117.932 493.431 118.261 492.703 118.261 491.779C118.261 490.869 117.932 490.155 117.274 489.637C116.616 489.119 115.622 488.86 114.292 488.86H113.242V487.747L117.316 482.644H109.798V481.3H119.248V482.371L115.09 487.6ZM127.605 496.126C126.471 496.126 125.456 495.825 124.56 495.223C123.678 494.621 122.985 493.76 122.481 492.64C121.991 491.506 121.746 490.176 121.746 488.65C121.746 487.124 121.991 485.801 122.481 484.681C122.985 483.547 123.678 482.679 124.56 482.077C125.456 481.475 126.471 481.174 127.605 481.174C128.739 481.174 129.747 481.475 130.629 482.077C131.525 482.679 132.225 483.547 132.729 484.681C133.233 485.801 133.485 487.124 133.485 488.65C133.485 490.176 133.233 491.506 132.729 492.64C132.225 493.76 131.525 494.621 130.629 495.223C129.747 495.825 128.739 496.126 127.605 496.126ZM127.605 494.74C128.459 494.74 129.208 494.502 129.852 494.026C130.51 493.55 131.021 492.857 131.385 491.947C131.749 491.037 131.931 489.938 131.931 488.65C131.931 487.362 131.749 486.263 131.385 485.353C131.021 484.443 130.51 483.75 129.852 483.274C129.208 482.798 128.459 482.56 127.605 482.56C126.751 482.56 125.995 482.798 125.337 483.274C124.693 483.75 124.189 484.443 123.825 485.353C123.461 486.263 123.279 487.362 123.279 488.65C123.279 489.938 123.461 491.037 123.825 491.947C124.189 492.857 124.693 493.55 125.337 494.026C125.995 494.502 126.751 494.74 127.605 494.74Z" fill="black"/>
<path d="M200.09 487.6C201.63 487.684 202.799 488.104 203.597 488.86C204.409 489.602 204.815 490.575 204.815 491.779C204.815 492.619 204.612 493.368 204.206 494.026C203.8 494.67 203.198 495.181 202.4 495.559C201.602 495.937 200.629 496.126 199.481 496.126C198.417 496.126 197.409 495.958 196.457 495.622C195.519 495.272 194.763 494.81 194.189 494.236L194.924 493.039C195.414 493.543 196.065 493.956 196.877 494.278C197.689 494.586 198.557 494.74 199.481 494.74C200.685 494.74 201.616 494.481 202.274 493.963C202.932 493.431 203.261 492.703 203.261 491.779C203.261 490.869 202.932 490.155 202.274 489.637C201.616 489.119 200.622 488.86 199.292 488.86H198.242V487.747L202.316 482.644H194.798V481.3H204.248V482.371L200.09 487.6ZM210.82 481.3V496H209.308V482.644H205.843V481.3H210.82Z" fill="black"/>
<path opacity="0.4" d="M287.166 481.3V496H285.654V482.644H282.189V481.3H287.166Z" fill="black"/>
<path opacity="0.4" d="M377.13 494.656V496H366.819V494.929L372.93 488.944C373.7 488.188 374.218 487.537 374.484 486.991C374.764 486.431 374.904 485.871 374.904 485.311C374.904 484.443 374.603 483.771 374.001 483.295C373.413 482.805 372.566 482.56 371.46 482.56C369.738 482.56 368.401 483.106 367.449 484.198L366.378 483.274C366.952 482.602 367.68 482.084 368.562 481.72C369.458 481.356 370.466 481.174 371.586 481.174C373.084 481.174 374.267 481.531 375.135 482.245C376.017 482.945 376.458 483.911 376.458 485.143C376.458 485.899 376.29 486.627 375.954 487.327C375.618 488.027 374.981 488.832 374.043 489.742L369.045 494.656H377.13Z" fill="black"/>
<path opacity="0.4" d="M454.09 487.6C455.63 487.684 456.799 488.104 457.597 488.86C458.409 489.602 458.815 490.575 458.815 491.779C458.815 492.619 458.612 493.368 458.206 494.026C457.8 494.67 457.198 495.181 456.4 495.559C455.602 495.937 454.629 496.126 453.481 496.126C452.417 496.126 451.409 495.958 450.457 495.622C449.519 495.272 448.763 494.81 448.189 494.236L448.924 493.039C449.414 493.543 450.065 493.956 450.877 494.278C451.689 494.586 452.557 494.74 453.481 494.74C454.685 494.74 455.616 494.481 456.274 493.963C456.932 493.431 457.261 492.703 457.261 491.779C457.261 490.869 456.932 490.155 456.274 489.637C455.616 489.119 454.622 488.86 453.292 488.86H452.242V487.747L456.316 482.644H448.798V481.3H458.248V482.371L454.09 487.6Z" fill="black"/>
<path opacity="0.4" d="M543.587 492.136H540.647V496H539.135V492.136H530.84V491.044L538.631 481.3H540.311L532.793 490.792H539.177V487.39H540.647V490.792H543.587V492.136Z" fill="black"/>
<g opacity="0.4">
<path d="M37.956 559.327C40.084 559.327 41.631 559.712 42.597 560.482C43.577 561.238 44.067 562.302 44.067 563.674C44.067 564.528 43.864 565.291 43.458 565.963C43.066 566.635 42.471 567.167 41.673 567.559C40.875 567.937 39.895 568.126 38.733 568.126C37.683 568.126 36.682 567.958 35.73 567.622C34.792 567.272 34.036 566.81 33.462 566.236L34.197 565.039C34.687 565.543 35.331 565.956 36.129 566.278C36.927 566.586 37.788 566.74 38.712 566.74C39.93 566.74 40.868 566.467 41.526 565.921C42.198 565.375 42.534 564.647 42.534 563.737C42.534 562.729 42.156 561.966 41.4 561.448C40.658 560.93 39.398 560.671 37.62 560.671H34.491L35.247 553.3H43.29V554.644H36.57L36.066 559.327H37.956Z" fill="black"/>
<path d="M122.182 561.201C123.148 561.201 124.002 561.383 124.744 561.747C125.5 562.111 126.088 562.629 126.508 563.301C126.928 563.959 127.138 564.729 127.138 565.611C127.138 566.507 126.921 567.298 126.487 567.984C126.053 568.67 125.451 569.202 124.681 569.58C123.925 569.944 123.071 570.126 122.119 570.126C120.173 570.126 118.682 569.489 117.646 568.215C116.61 566.927 116.092 565.114 116.092 562.776C116.092 561.138 116.372 559.752 116.932 558.618C117.492 557.484 118.276 556.63 119.284 556.056C120.292 555.468 121.468 555.174 122.812 555.174C124.268 555.174 125.43 555.44 126.298 555.972L125.689 557.19C124.989 556.728 124.037 556.497 122.833 556.497C121.209 556.497 119.935 557.015 119.011 558.051C118.087 559.073 117.625 560.564 117.625 562.524C117.625 562.874 117.646 563.273 117.688 563.721C118.052 562.923 118.633 562.307 119.431 561.873C120.229 561.425 121.146 561.201 122.182 561.201ZM122.056 568.845C123.12 568.845 123.981 568.558 124.639 567.984C125.311 567.396 125.647 566.619 125.647 565.653C125.647 564.687 125.311 563.917 124.639 563.343C123.981 562.769 123.085 562.482 121.951 562.482C121.209 562.482 120.551 562.622 119.977 562.902C119.417 563.182 118.976 563.567 118.654 564.057C118.332 564.547 118.171 565.093 118.171 565.695C118.171 566.255 118.318 566.773 118.612 567.249C118.92 567.725 119.368 568.11 119.956 568.404C120.544 568.698 121.244 568.845 122.056 568.845Z" fill="black"/>
<path d="M209.466 554.3V555.371L203.313 569H201.675L207.723 555.644H200.163V558.395H198.672V554.3H209.466Z" fill="black"/>
<path d="M290.513 561.293C291.437 561.601 292.144 562.063 292.634 562.679C293.138 563.295 293.39 564.037 293.39 564.905C293.39 565.759 293.159 566.508 292.697 567.152C292.235 567.782 291.57 568.272 290.702 568.622C289.848 568.958 288.84 569.126 287.678 569.126C285.914 569.126 284.528 568.748 283.52 567.992C282.512 567.236 282.008 566.207 282.008 564.905C282.008 564.023 282.246 563.281 282.722 562.679C283.212 562.063 283.919 561.601 284.843 561.293C284.087 560.999 283.513 560.579 283.121 560.033C282.729 559.473 282.533 558.815 282.533 558.059C282.533 556.869 282.995 555.924 283.919 555.224C284.857 554.524 286.11 554.174 287.678 554.174C288.714 554.174 289.617 554.335 290.387 554.657C291.171 554.965 291.78 555.413 292.214 556.001C292.648 556.589 292.865 557.275 292.865 558.059C292.865 558.815 292.662 559.473 292.256 560.033C291.85 560.579 291.269 560.999 290.513 561.293ZM284.045 558.101C284.045 558.913 284.367 559.557 285.011 560.033C285.655 560.509 286.544 560.747 287.678 560.747C288.812 560.747 289.701 560.509 290.345 560.033C291.003 559.557 291.332 558.92 291.332 558.122C291.332 557.296 290.996 556.645 290.324 556.169C289.666 555.693 288.784 555.455 287.678 555.455C286.558 555.455 285.669 555.693 285.011 556.169C284.367 556.645 284.045 557.289 284.045 558.101ZM287.678 567.845C288.98 567.845 289.995 567.579 290.723 567.047C291.465 566.515 291.836 565.794 291.836 564.884C291.836 563.974 291.465 563.26 290.723 562.742C289.995 562.21 288.98 561.944 287.678 561.944C286.39 561.944 285.375 562.21 284.633 562.742C283.905 563.26 283.541 563.974 283.541 564.884C283.541 565.808 283.905 566.536 284.633 567.068C285.361 567.586 286.376 567.845 287.678 567.845Z" fill="black"/>
<path d="M370.67 554.174C372.616 554.174 374.107 554.818 375.143 556.106C376.179 557.38 376.697 559.186 376.697 561.524C376.697 563.162 376.417 564.548 375.857 565.682C375.297 566.816 374.513 567.677 373.505 568.265C372.497 568.839 371.321 569.126 369.977 569.126C368.521 569.126 367.359 568.86 366.491 568.328L367.1 567.11C367.8 567.572 368.752 567.803 369.956 567.803C371.58 567.803 372.854 567.292 373.778 566.27C374.702 565.234 375.164 563.736 375.164 561.776C375.164 561.412 375.143 561.013 375.101 560.579C374.737 561.377 374.156 562 373.358 562.448C372.56 562.882 371.643 563.099 370.607 563.099C369.641 563.099 368.78 562.917 368.024 562.553C367.282 562.189 366.701 561.678 366.281 561.02C365.861 560.348 365.651 559.571 365.651 558.689C365.651 557.793 365.868 557.002 366.302 556.316C366.736 555.63 367.331 555.105 368.087 554.741C368.857 554.363 369.718 554.174 370.67 554.174ZM370.838 561.818C371.58 561.818 372.231 561.678 372.791 561.398C373.365 561.118 373.813 560.733 374.135 560.243C374.457 559.753 374.618 559.207 374.618 558.605C374.618 558.045 374.464 557.527 374.156 557.051C373.862 556.575 373.421 556.19 372.833 555.896C372.245 555.602 371.545 555.455 370.733 555.455C369.669 555.455 368.801 555.749 368.129 556.337C367.471 556.911 367.142 557.681 367.142 558.647C367.142 559.613 367.471 560.383 368.129 560.957C368.801 561.531 369.704 561.818 370.838 561.818Z" fill="black"/>
<path d="M448.166 554.3V569H446.654V555.644H443.189V554.3H448.166ZM457.339 569.126C456.205 569.126 455.19 568.825 454.294 568.223C453.412 567.621 452.719 566.76 452.215 565.64C451.725 564.506 451.48 563.176 451.48 561.65C451.48 560.124 451.725 558.801 452.215 557.681C452.719 556.547 453.412 555.679 454.294 555.077C455.19 554.475 456.205 554.174 457.339 554.174C458.473 554.174 459.481 554.475 460.363 555.077C461.259 555.679 461.959 556.547 462.463 557.681C462.967 558.801 463.219 560.124 463.219 561.65C463.219 563.176 462.967 564.506 462.463 565.64C461.959 566.76 461.259 567.621 460.363 568.223C459.481 568.825 458.473 569.126 457.339 569.126ZM457.339 567.74C458.193 567.74 458.942 567.502 459.586 567.026C460.244 566.55 460.755 565.857 461.119 564.947C461.483 564.037 461.665 562.938 461.665 561.65C461.665 560.362 461.483 559.263 461.119 558.353C460.755 557.443 460.244 556.75 459.586 556.274C458.942 555.798 458.193 555.56 457.339 555.56C456.485 555.56 455.729 555.798 455.071 556.274C454.427 556.75 453.923 557.443 453.559 558.353C453.195 559.263 453.013 560.362 453.013 561.65C453.013 562.938 453.195 564.037 453.559 564.947C453.923 565.857 454.427 566.55 455.071 567.026C455.729 567.502 456.485 567.74 457.339 567.74Z" fill="black"/>
<path d="M533.166 554.3V569H531.654V555.644H528.189V554.3H533.166ZM540.554 554.3V569H539.042V555.644H535.577V554.3H540.554Z" fill="black"/>
</g>
</svg>
