<svg width="163" height="199" viewBox="0 0 163 199" fill="none" xmlns="http://www.w3.org/2000/svg">
<path fill-rule="evenodd" clip-rule="evenodd" d="M27 17H125.427C130.95 17 135.427 21.4771 135.427 27V49.9298L152.427 63.8941V27C152.427 12.0883 140.339 0 125.427 0H27C12.0883 0 0 12.0883 0 27V171.243C0 186.155 12.0883 198.243 27 198.243H125.427C140.339 198.243 152.427 186.155 152.427 171.243V134.896L135.427 149.191V171.243C135.427 176.766 130.95 181.243 125.427 181.243H27C21.4771 181.243 17 176.766 17 171.243V27C17 21.4772 21.4772 17 27 17Z" fill="#468479"/>
<rect x="44.9351" y="76.6541" width="66.0811" height="45.8162" rx="12" fill="#468479"/>
<path d="M158.592 95.3307C160.912 97.3257 160.912 100.918 158.592 102.913L107.822 146.575C104.581 149.363 99.5622 147.06 99.5622 142.784L99.5622 55.4592C99.5622 51.1835 104.581 48.8803 107.822 51.6682L158.592 95.3307Z" fill="#468479"/>
</svg>
