<svg width="59" height="48" viewBox="0 0 59 48" fill="none" xmlns="http://www.w3.org/2000/svg">
<path d="M54.5625 15.591H50.8652V11.8934C50.8652 9.63375 49.0268 7.79534 46.7671 7.79534H43.0695V4.09811C43.0695 1.83097 41.2303 0 38.9716 0H4.09811C1.84403 0.000114572 0 1.82524 0 4.09811V28.3108C0 30.5704 1.83842 32.4089 4.09811 32.4089H7.79545V36.1064C7.79545 38.3661 9.63387 40.2045 11.8936 40.2045H15.5909V43.9019C15.5909 46.1616 17.4293 48 19.689 48H54.5627C56.8224 48 58.6608 46.1616 58.6608 43.9019V19.689C58.6607 17.4294 56.8222 15.591 54.5625 15.591ZM36.0135 4.09238L21.5349 18.2817L7.05658 4.09273L36.0135 4.09238ZM4.09261 28.3108L4.09341 6.91898L20.1026 22.6083C20.8983 23.3882 22.1717 23.388 22.9671 22.6083L38.9765 6.91886L38.9719 28.3163L4.09261 28.3108ZM11.8881 36.1062V32.4089H38.9719C41.2316 32.4089 43.0698 30.5706 43.0698 28.3108V11.8886L46.7726 11.8898C46.7726 11.8898 46.7727 11.891 46.7727 11.8936L46.7672 36.1117L11.8881 36.1062ZM54.5625 43.9072L19.6835 43.9017V40.2043H46.7673C49.027 40.2043 50.8654 38.3659 50.8654 36.1062V19.6842L54.5682 19.6852C54.5682 19.6852 54.5683 19.6865 54.5683 19.689L54.5625 43.9072Z" fill="#2E363E"/>
</svg>
