<svg width="929" height="898" viewBox="0 0 929 898" fill="none" xmlns="http://www.w3.org/2000/svg">
<path d="M787.333 59.7084C783.399 69.6935 781.085 80.2431 780.479 90.9584H752.833V90.1875C752.833 89.4792 752.979 88.7709 753.062 88.1042C753.401 84.4316 754.014 80.7895 754.896 77.2084C756.321 71.3154 758.382 65.5944 761.042 60.1459C761.085 60.0083 761.176 59.8907 761.298 59.8143C761.42 59.7379 761.566 59.7077 761.708 59.7292H787.375L787.333 59.7084Z" fill="#EBEBEB"/>
<path d="M786.5 129.563H761.042C760.91 129.578 760.778 129.547 760.668 129.474C760.557 129.402 760.476 129.293 760.437 129.167C757.531 123.047 755.431 116.576 754.187 109.917C753.572 106.702 753.155 103.453 752.937 100.188C752.949 100.077 752.949 99.965 752.937 99.8542V99.0834H753.354H779.917C780.417 99.0834 780.396 99.0834 780.437 99.5834C780.604 101.813 780.75 104.042 780.958 106.25C781.31 109.754 781.881 113.233 782.667 116.667C783.577 120.914 784.789 125.091 786.292 129.167C786.417 129.271 786.437 129.396 786.5 129.563Z" fill="#EBEBEB"/>
<path d="M893.5 137.604L893.292 137.979C891.138 141.282 888.728 144.41 886.083 147.333C882.894 150.933 879.348 154.199 875.5 157.083C868.097 162.75 859.704 166.988 850.75 169.583C847.273 170.589 843.729 171.348 840.146 171.854L839.104 172.021H838.5L837.917 171.646L838.583 171.167C846.339 165.882 853.126 159.299 858.646 151.708C861.765 147.416 864.511 142.865 866.854 138.104C866.896 137.976 866.982 137.867 867.096 137.795C867.21 137.722 867.345 137.692 867.479 137.708H893.5V137.604Z" fill="#EBEBEB"/>
<path d="M868.042 90.9375H832.312V59.6875H860.208C860.331 59.6729 860.455 59.7027 860.559 59.7714C860.662 59.8401 860.737 59.9433 860.771 60.0625C863.337 65.9378 865.245 72.0795 866.458 78.375C867.094 81.6465 867.553 84.9499 867.833 88.2709C867.896 89.1459 867.979 89.9792 868.042 90.9375Z" fill="#EBEBEB"/>
<path d="M867.833 99.2917C867.833 100.021 867.833 100.75 867.729 101.375C867.562 103.125 867.458 104.854 867.208 106.604C866.875 108.979 866.5 111.375 866.021 113.75C864.962 118.967 863.413 124.073 861.396 129C861.365 129.144 861.282 129.271 861.162 129.356C861.043 129.441 860.895 129.477 860.75 129.458H832V99.2917H867.833Z" fill="#EBEBEB"/>
<path d="M824.25 59.8958V91.1458H789.354C789.354 90.3333 789.354 89.5625 789.5 88.7917C789.687 87.0417 789.812 85.2917 790.104 83.5625C790.521 80.8958 790.979 78.25 791.541 75.625C792.713 70.3537 794.402 65.2108 796.583 60.2708C796.625 60.1483 796.708 60.0441 796.818 59.9758C796.929 59.9074 797.059 59.8792 797.187 59.8958H824.271H824.25Z" fill="#EBEBEB"/>
<path d="M824.291 99.6875C824.291 109.507 824.291 119.313 824.291 129.104V129.563H796.396C796.259 129.578 796.121 129.544 796.007 129.468C795.893 129.392 795.809 129.278 795.771 129.146C793.655 124.072 792.063 118.794 791.021 113.396C790.5 110.604 790.104 107.813 789.75 105.063C789.521 103.229 789.479 101.375 789.354 99.5209C789.354 99.5209 789.354 99.5209 789.354 99.3334H823.833C824.208 99.25 824.291 99.3542 824.291 99.6875Z" fill="#EBEBEB"/>
<path d="M905.958 91.1667H876.667C876.074 80.3842 873.767 69.765 869.833 59.7083H897.125C897.262 59.6866 897.402 59.7146 897.521 59.7871C897.639 59.8597 897.728 59.9721 897.771 60.1042C900.895 66.2532 903.166 72.7997 904.521 79.5625C905.239 83.1939 905.719 86.8684 905.958 90.5625V91.1667Z" fill="#EBEBEB"/>
<path d="M905.979 99.0417C905.979 99.7501 905.979 100.438 905.875 101.125C905.302 109.912 903.187 118.53 899.625 126.583L898.375 129.292C898.347 129.383 898.288 129.462 898.208 129.515C898.128 129.568 898.033 129.592 897.937 129.583H870.646C870.979 128.646 871.312 127.75 871.625 126.833C874.346 118.752 875.985 110.345 876.5 101.833C876.5 101 876.604 100.167 876.646 99.3126C876.646 99.1042 876.646 98.9792 876.937 99.0001C877.027 99.0106 877.118 99.0106 877.208 99.0001L905.979 99.0417Z" fill="#EBEBEB"/>
<path d="M892.708 51.7292V51.8542H866.667C866.538 51.8698 866.408 51.8438 866.296 51.7801C866.183 51.7163 866.094 51.6182 866.042 51.5C862.63 44.697 858.359 38.3604 853.333 32.6459C850.358 29.3542 847.087 26.3416 843.562 23.6459C841.812 22.3125 840 21.0417 838.229 19.75L837.937 19.5417L838.292 19.2917C838.292 19.125 838.292 18.9584 838.104 18.7292C849.041 19.9893 859.578 23.5887 869 29.2828C878.422 34.977 886.508 42.6325 892.708 51.7292V51.7292Z" fill="#EBEBEB"/>
<path d="M819.292 171.563C819.048 171.637 818.796 171.679 818.542 171.688C815.732 171.322 812.949 170.779 810.208 170.063C805.077 168.757 800.098 166.913 795.354 164.563C789.92 161.859 784.829 158.516 780.187 154.604C776.883 151.852 773.835 148.805 771.083 145.5C769.021 143 767.121 140.369 765.396 137.625V137.396H789.667C789.796 137.388 789.925 137.422 790.034 137.494C790.143 137.565 790.226 137.669 790.271 137.792C794.922 147.418 801.298 156.11 809.083 163.438C812.172 166.335 815.481 168.988 818.979 171.375L819.292 171.563Z" fill="#EBEBEB"/>
<path d="M818.979 19.5C817.875 20.2917 816.604 21.2083 815.354 22.1458C811.202 25.3953 807.341 28.9991 803.812 32.9167C799.022 38.1224 794.939 43.9363 791.667 50.2083C791.458 50.6042 791.292 51.0208 791.062 51.3958C791.023 51.4612 790.968 51.5161 790.903 51.556C790.837 51.5958 790.764 51.6195 790.687 51.625H766.062C772.051 42.7798 779.832 35.293 788.902 29.6508C797.972 24.0086 808.127 20.3372 818.708 18.875L818.542 19.1875L818.979 19.5Z" fill="#EBEBEB"/>
<path d="M857.375 137.625C854.102 143.407 850.143 148.772 845.583 153.604C841.554 157.931 837.03 161.77 832.104 165.042V137.625H857.375Z" fill="#EBEBEB"/>
<path d="M824.25 137.646V164.521C814.158 157.597 805.843 148.389 799.979 137.646H824.25Z" fill="#EBEBEB"/>
<path d="M856.583 51.6042H832.312V26C837.297 29.2438 841.871 33.077 845.937 37.4167C849.962 41.7696 853.529 46.5236 856.583 51.6042V51.6042Z" fill="#EBEBEB"/>
<path d="M824.25 26.7917V51.7917H800.937C806.648 41.7513 814.632 33.1891 824.25 26.7917V26.7917Z" fill="#EBEBEB"/>
<path d="M666.187 167.896L663.583 165.417L664.5 164.417L667.125 166.917L666.187 167.896Z" fill="#A6A6A6"/>
<path d="M654.292 311.271V309.917C656.729 309.917 659.146 309.708 661.479 309.479L661.625 310.833C659.208 311.062 656.75 311.208 654.292 311.271ZM645.167 311.125C642.771 310.979 640.333 310.771 637.896 310.479L638.042 309.146C640.458 309.417 642.875 309.646 645.229 309.771L645.167 311.125ZM670.604 309.437L670.333 308.104C672.708 307.625 675.062 307 677.292 306.312L677.708 307.604C675.417 308.313 673.042 308.937 670.604 309.437ZM628.937 309.125C626.604 308.688 624.208 308.188 621.812 307.625L622.125 306.292C624.5 306.854 626.875 307.354 629.187 307.792L628.937 309.125ZM613 305.292C610.708 304.604 608.375 303.875 606.062 303.083L606.479 301.792C608.792 302.583 611.104 303.313 613.375 303.979L613 305.292ZM686.292 304.292L685.708 303.063C687.859 302.045 689.947 300.897 691.958 299.625L692.687 300.771C690.587 302.075 688.409 303.251 686.167 304.292H686.292ZM597.5 299.958C595.271 299.083 593 298.167 590.771 297.188L591.312 295.958C593.542 296.917 595.792 297.833 598 298.708L597.5 299.958ZM700.042 295.208L699.125 294.208C700.895 292.609 702.539 290.874 704.042 289.021L705.104 289.875C703.527 291.775 701.814 293.557 699.979 295.208H700.042ZM582.479 293.417C580.396 292.396 578.167 291.333 575.958 290.167L576.583 288.979C578.771 290.104 580.917 291.063 583.062 292.208L582.479 293.417ZM567.896 285.854C565.812 284.667 563.729 283.438 561.646 282.208L562.333 281.042C564.417 282.271 566.5 283.479 568.583 284.688L567.896 285.854ZM710.104 282.25L708.917 281.604C710.051 279.509 711.019 277.329 711.812 275.083L713.104 275.521C712.286 277.837 711.29 280.087 710.125 282.25H710.104ZM553.854 277.396C551.771 276.063 549.792 274.729 547.812 273.354L548.583 272.25C550.555 273.639 552.555 274.972 554.583 276.25L553.854 277.396ZM540.396 268.083C538.458 266.646 536.521 265.188 534.604 263.708L535.437 262.646C537.333 264.104 539.271 265.563 541.208 267L540.396 268.083ZM715.396 266.646L714.062 266.417C714.464 264.06 714.715 261.68 714.812 259.292H716.167C716.077 261.756 715.833 264.212 715.437 266.646H715.396ZM527.542 258.042C525.667 256.5 523.792 254.938 521.958 253.354L522.854 252.313C524.687 253.896 526.521 255.458 528.396 256.979L527.542 258.042ZM714.562 250.333C714.333 248 714 245.604 713.542 243.208L714.854 242.958C715.333 245.396 715.687 247.833 715.917 250.208L714.562 250.333ZM515.146 247.354C513.354 245.729 511.583 244.083 509.812 242.437L510.729 241.458C512.5 243.104 514.271 244.729 516.062 246.333L515.146 247.354ZM503.25 236.208C501.5 234.521 499.771 232.833 498.062 231.125L499 230.146L504.187 235.229L503.25 236.208ZM711.354 234.479C710.667 232.25 709.875 229.958 708.979 227.688L710.25 227.188C711.146 229.5 711.958 231.833 712.646 234.083L711.354 234.479ZM491.646 224.688L486.583 219.479L487.562 218.542C489.257 220.292 490.944 222.021 492.625 223.729L491.646 224.688ZM705.396 219.417C704.375 217.333 703.312 215.125 702.083 213L703.271 212.333C704.458 214.417 705.583 216.667 706.625 218.813L705.396 219.417ZM480.396 212.958L475.375 207.708L476.354 206.771L481.375 212.021L480.396 212.958ZM697.562 205.25C696.292 203.167 694.937 201.229 693.542 199.229L694.646 198.458C696.062 200.542 697.437 202.625 698.708 204.521L697.562 205.25ZM469.125 201.083L464.125 195.833L465.104 194.896L470.104 200.167L469.125 201.083ZM688.083 192.063C686.646 190.188 685.104 188.313 683.542 186.438L684.583 185.563C686.167 187.438 687.708 189.354 689.167 191.229L688.083 192.063ZM457.792 189.417L452.75 184.208L453.708 183.25L458.771 188.479L457.792 189.417ZM677.583 179.625C675.979 177.875 674.333 176.125 672.625 174.375L673.667 173.313C675.403 175.076 677.069 176.847 678.667 178.625L677.583 179.625ZM446.333 177.729L441.229 172.604L442.167 171.646L447.312 176.771L446.333 177.729ZM434.75 166.25C433.042 164.583 431.292 162.917 429.521 161.229L430.458 160.25C432.229 161.917 433.979 163.604 435.708 165.271L434.75 166.25ZM422.917 155.042C421.146 153.417 419.375 151.792 417.562 150.167L418.458 149.146L423.833 154.042L422.917 155.042ZM410.833 144.146C409.021 142.563 407.187 141 405.333 139.438L406.208 138.396C408.083 139.979 409.917 141.542 411.729 143.125L410.833 144.146ZM398.333 133.729L392.667 129.188L393.521 128.125C395.437 129.646 397.312 131.167 399.187 132.688L398.333 133.729ZM385.521 123.646C383.625 122.188 381.687 120.75 379.729 119.292L380.521 118.208C382.5 119.667 384.437 121.104 386.333 122.563L385.521 123.646ZM372.375 114C370.437 112.625 368.458 111.229 366.437 109.833L367.208 108.708C369.292 110.104 371.208 111.479 373.167 112.875L372.375 114ZM358.917 104.813C356.937 103.479 354.896 102.167 352.854 100.854L353.583 99.7292C355.667 101.042 357.75 102.354 359.667 103.667L358.917 104.813ZM345.167 96.0625C343.083 94.8125 341 93.5625 338.917 92.3333L339.604 91.1667C341.687 92.3958 343.771 93.6459 345.854 94.9167L345.167 96.0625ZM331.125 87.7292L324.875 84.2084L325.521 83L331.875 86.5625L331.125 87.7292ZM316.833 79.8959C314.75 78.7709 312.667 77.6667 310.417 76.5417L311.021 75.3333L317.479 78.6875L316.833 79.8959ZM302.25 72.4792C300.167 71.4375 297.937 70.3958 295.729 69.3333L296.312 68.1042C298.521 69.1458 300.708 70.1875 302.854 71.2708L302.25 72.4792ZM287.625 65.3958L281.021 62.3959L281.583 61.1667C283.812 62.1667 286.021 63.25 288.187 64.1458L287.625 65.3958ZM272.708 58.7292L266.021 55.9167L266.542 54.6667L273.25 57.4792L272.708 58.7292Z" fill="#A6A6A6"/>
<path d="M257.208 52.4792L253.833 51.1458L254.333 49.875L257.708 51.2083L257.208 52.4792Z" fill="#A6A6A6"/>
<path d="M261.5 26.5417L273.458 59.375L248.354 39.7709L152.417 4.97919L261.5 26.5417Z" fill="#DBDBDB"/>
<path d="M245.146 47.4167L273.458 59.375L248.354 39.7709L245.146 47.4167Z" fill="#C7C7C7"/>
<path d="M248.354 39.7709L152.417 4.97919L231.104 81.7709L248.354 39.7709Z" fill="#EBEBEB"/>
<path d="M261.5 26.5417L301.375 0.791687L152.417 4.97919L261.5 26.5417Z" fill="#EBEBEB"/>
<path d="M307 708.729L306.562 708.563L304.229 707.646L304.708 706.396L307.062 707.333L311.229 708.958L310.75 710.208L307 708.729ZM296.021 704.292C293.792 703.375 291.625 702.458 289.479 701.521L290.021 700.313L296.521 703.083L296.021 704.292ZM319.125 713.313L319.583 712.063L326.25 714.438L325.812 715.688L319.125 713.313ZM334.187 718.583L334.604 717.333L341.333 719.563L340.917 720.833L334.187 718.583ZM281.396 697.917C279.208 696.917 277.062 695.833 274.979 694.896L275.542 693.708C277.625 694.708 279.708 695.792 281.937 696.708L281.396 697.917ZM349.354 723.542L349.75 722.271L356.5 724.354L356.125 725.625L349.354 723.542ZM267.021 690.938C264.937 689.854 262.854 688.75 260.771 687.646L261.417 686.458C263.444 687.569 265.528 688.674 267.667 689.771L267.021 690.938ZM364.604 728.208L364.979 726.917L371.771 729L371.396 730.271L364.604 728.208ZM253.021 683.292C250.937 682.083 248.854 680.854 246.937 679.625L247.646 678.5C249.604 679.729 251.625 680.938 253.687 682.146L253.021 683.292ZM379.917 732.521L380.292 731.25L387.104 733.125L386.75 734.417L379.917 732.521ZM395.312 736.688L395.646 735.417L397.437 735.875L402.5 737.167L402.187 738.458L397.104 737.167L395.312 736.688ZM239.5 674.708C237.521 673.354 235.562 671.979 233.687 670.542L234.458 669.479C236.333 670.833 238.271 672.208 240.229 673.542L239.5 674.708ZM410.833 740.438L411.125 739.146C413.417 739.646 415.729 740.104 418.062 740.563L417.812 741.854C415.542 741.438 413.25 740.958 410.896 740.458L410.833 740.438ZM426.542 743.417L426.771 742.104C429.083 742.5 431.417 742.875 433.75 743.208L433.562 744.521C431.271 744.146 428.937 743.833 426.604 743.438L426.542 743.417ZM226.646 665.208C224.75 663.667 222.917 662.125 221.208 660.604L222.104 659.625C223.792 661.125 225.604 662.646 227.479 664.167L226.646 665.208ZM442.417 745.729L442.562 744.417C444.917 744.708 447.25 744.958 449.583 745.208L449.458 746.542C447.104 746.229 444.75 746.021 442.417 745.729ZM214.812 654.563C213.125 652.854 211.479 651.125 209.937 649.375L210.937 648.5C212.458 650.208 214.083 651.938 215.75 653.646L214.812 654.563ZM458.271 747.417V746.083C460.625 746.292 462.958 746.479 465.312 746.625V747.958C462.979 747.75 460.625 747.583 458.271 747.375V747.417ZM474.167 748.479V747.146L481.229 747.458V748.771L474.167 748.479ZM204.312 642.458C202.875 640.542 201.5 638.583 200.146 636.625L201.25 635.896C202.5 637.833 203.854 639.771 205.292 641.646L204.312 642.458ZM490.146 748.958V747.646H497.208V748.979L490.146 748.958ZM195.708 628.938C194.604 626.854 193.625 624.667 192.646 622.5L193.875 621.979C194.792 624.063 195.812 626.25 196.896 628.229L195.708 628.938ZM506.125 749V747.667C508.5 747.667 510.854 747.667 513.208 747.542V748.875C510.854 748.917 508.479 748.979 506.104 749H506.125ZM522.083 748.583V747.25L529.167 746.917V748.25L522.083 748.583ZM189.542 614.146C188.829 611.848 188.321 609.491 188.021 607.104L189.354 606.958C189.635 609.261 190.123 611.535 190.812 613.75L189.542 614.146ZM538 747.729V746.396L545.062 745.896V747.208L538 747.729ZM553.917 746.458L553.792 745.146L560.854 744.458L560.979 745.771C558.674 746.076 556.319 746.306 553.917 746.458ZM188.25 598.083C188.548 596.487 189.001 594.924 189.604 593.417C189.887 592.706 190.207 592.011 190.562 591.333L191.75 591.917C191.417 592.583 191.104 593.292 190.833 594C190.268 595.444 189.835 596.936 189.542 598.458L188.25 598.083ZM569.729 744.813L569.562 743.5L576.604 742.646L576.771 743.958L569.729 744.813ZM585.562 742.729L585.375 741.417C587.792 741.083 590.125 740.75 592.396 740.396L592.583 741.708C590.333 742.063 588.062 742.458 585.646 742.792L585.562 742.729ZM196.771 584.771L195.792 583.875C197.427 582.113 199.211 580.496 201.125 579.042L201.917 580.104C200.069 581.508 198.348 583.069 196.771 584.771V584.771ZM601.437 740.417L601.229 739.104L608.208 737.917L608.437 739.229L601.437 740.417ZM617.187 737.646L616.937 736.333C619.437 735.854 621.771 735.417 623.896 734.979L624.167 736.292L617.187 737.646ZM209.271 575.396L208.646 574.25C210.738 573.101 212.886 572.058 215.083 571.125L215.604 572.354C213.375 573.313 211.167 574.313 209.271 575.396ZM632.854 734.479L632.562 733.167C637.062 732.188 639.479 731.583 639.5 731.563L639.812 732.854C639.812 732.854 637.375 733.458 632.854 734.458V734.479ZM223.833 569.146L223.417 567.896C225.5 567.167 227.875 566.479 230.229 565.813L230.583 567.104C228.25 567.813 225.979 568.5 223.833 569.146ZM239.167 564.979L238.896 563.688C241.167 563.208 243.521 562.771 245.896 562.375L246.104 563.688C243.75 564.208 241.417 564.646 239.167 565.125V564.979ZM254.854 562.417L254.687 561.104C257.042 560.813 259.417 560.563 261.771 560.354L261.875 561.688C259.542 562.021 257.187 562.271 254.917 562.563L254.854 562.417ZM270.687 561.104V559.771C273.083 559.667 275.479 559.604 277.812 559.583V560.917C275.458 561.083 273.083 561.146 270.687 561.25V561.104Z" fill="#A6A6A6"/>
<path d="M660.458 707.271L639.667 732.188L667.771 722.979L762.604 722.792L660.458 707.271Z" fill="#DBDBDB"/>
<path d="M668.167 730.667L639.667 732.188L667.771 722.979L668.167 730.667Z" fill="#C7C7C7"/>
<path d="M667.771 722.979L762.604 722.792L669.604 765.125L667.771 722.979Z" fill="#EBEBEB"/>
<path d="M660.458 707.271L633.708 672.188L762.604 722.792L660.458 707.271Z" fill="#EBEBEB"/>
<path d="M61.7709 772.375L169.938 771.875L278.125 771.688L494.5 771.333L710.875 771.688L819.063 771.854L927.229 772.375L819.063 772.875L710.875 773.063L494.5 773.417L278.125 773.063L169.938 772.875L61.7709 772.375Z" fill="#263238"/>
<path d="M848.396 114.854H140.604V662.875H848.396V114.854Z" fill="#C7C7C7"/>
<path d="M848.396 662.875H140.604V97.3334H694.375L848.396 234.875V662.875Z" fill="#EBEBEB"/>
<path d="M343.187 195.313V251.771H330.542V171.583H340.479L386.312 229.417V171.688H399.083V251.771H388.667L343.187 195.313Z" fill="#6DA59A"/>
<path d="M472.187 240.604V251.771H417.188V171.583H471.167V182.771H429.917V205.688H465.729V216.104H429.917V240.604H472.187Z" fill="#6DA59A"/>
<path d="M513.75 171.917H525.75L535.583 199.146L545.521 171.917H557.375L543.708 207.625L555.687 237.104L580.687 171.583H594.5L561.396 251.771H550.563L535.646 215.854L520.625 251.771H509.792L476.688 171.583H490.458L515.458 237.104L527.437 207.625L513.75 171.917Z" fill="#6DA59A"/>
<path d="M649.542 190.438C648.55 189.432 647.445 188.545 646.25 187.792C644.66 186.759 642.98 185.874 641.229 185.146C639.215 184.258 637.123 183.56 634.979 183.063C632.669 182.537 630.307 182.271 627.937 182.271C622.576 182.271 618.639 183.25 616.125 185.208C614.888 186.159 613.897 187.394 613.237 188.808C612.577 190.222 612.267 191.774 612.333 193.333C612.263 195.018 612.675 196.687 613.521 198.146C614.465 199.513 615.722 200.634 617.188 201.417C619.166 202.485 621.264 203.317 623.438 203.896C625.924 204.632 628.819 205.403 632.125 206.208C635.859 207.09 639.539 208.19 643.146 209.5C646.129 210.538 648.938 212.019 651.479 213.896C653.709 215.575 655.509 217.76 656.729 220.271C658.053 223.156 658.695 226.307 658.604 229.479C658.702 233.122 657.909 236.734 656.292 240C654.82 242.86 652.675 245.32 650.042 247.167C647.218 249.09 644.06 250.468 640.729 251.229C636.99 252.12 633.156 252.553 629.312 252.521C623.316 252.536 617.354 251.608 611.646 249.771C606.079 247.986 600.863 245.251 596.229 241.688L601.979 230.833C603.259 232.062 604.654 233.165 606.146 234.125C608.192 235.419 610.346 236.534 612.583 237.458C615.177 238.512 617.844 239.375 620.563 240.042C623.478 240.775 626.473 241.138 629.479 241.125C633.488 241.355 637.48 240.453 641 238.521C642.303 237.721 643.368 236.585 644.083 235.233C644.797 233.88 645.136 232.361 645.062 230.833C645.123 229.018 644.589 227.234 643.542 225.75C642.37 224.262 640.883 223.053 639.188 222.208C636.993 221.061 634.69 220.133 632.312 219.438C629.583 218.604 626.5 217.729 623.042 216.833C619.507 215.927 616.029 214.814 612.625 213.5C609.953 212.516 607.456 211.109 605.229 209.333C603.335 207.746 601.813 205.762 600.771 203.521C599.689 200.967 599.171 198.21 599.25 195.438C599.191 191.839 599.961 188.275 601.5 185.021C602.986 182.032 605.122 179.413 607.75 177.354C610.482 175.203 613.611 173.61 616.958 172.667C620.701 171.579 624.582 171.046 628.479 171.083C633.601 171.029 638.69 171.904 643.5 173.667C647.803 175.259 651.869 177.432 655.583 180.125L649.542 190.438Z" fill="#6DA59A"/>
<path d="M750.688 147.604H172.25V132.354H733.604L750.688 147.604Z" fill="#C7C7C7"/>
<path d="M729.104 128.354H172.25V125.313H725.729L729.104 128.354Z" fill="#C7C7C7"/>
<path d="M760.438 156.313H172.25V153.292H757.042L760.438 156.313Z" fill="#C7C7C7"/>
<path d="M816.771 270.604H172.25V285.833H816.771V270.604Z" fill="#C7C7C7"/>
<path d="M816.771 263.583H172.25V266.604H816.771V263.583Z" fill="#C7C7C7"/>
<path d="M816.771 291.562H172.25V294.563H816.771V291.562Z" fill="#C7C7C7"/>
<path d="M285.687 171.583H172.229V251.792H285.687V171.583Z" fill="#C7C7C7"/>
<path d="M816.75 206.604V251.771H703.312V171.604H777.562L816.75 206.604Z" fill="#C7C7C7"/>
<path d="M361.104 552.083H627.896V347.083H361.104V552.083Z" fill="#6DA59A"/>
<path opacity="0.2" d="M389.771 395.146C388.79 400.145 389.441 405.327 391.629 409.928C393.816 414.529 397.423 418.305 401.919 420.701C406.415 423.096 411.562 423.984 416.6 423.233C421.639 422.482 426.303 420.133 429.906 416.531C433.508 412.928 435.857 408.264 436.608 403.225C437.359 398.187 436.471 393.04 434.076 388.544C431.68 384.048 427.904 380.441 423.303 378.254C418.702 376.066 413.52 375.415 408.521 376.396C403.889 377.31 399.633 379.581 396.295 382.92C392.956 386.258 390.685 390.514 389.771 395.146V395.146Z" fill="black"/>
<path opacity="0.2" d="M435.083 508.813H627.896L531.479 400.708L435.083 508.813Z" fill="black"/>
<path d="M361.104 508.917H520.292L440.687 438.5L361.104 508.917Z" fill="#6DA59A"/>
<path opacity="0.3" d="M361.104 508.917H520.292L440.687 438.5L361.104 508.917Z" fill="black"/>
<path d="M627.896 508.812H361.104V552.083H627.896V508.812Z" fill="#6DA59A"/>
<path opacity="0.3" d="M627.896 508.812H361.104V552.083H627.896V508.812Z" fill="black"/>
<path d="M574.687 313.167H361.104V320.313H574.687V313.167Z" fill="#A6A6A6"/>
<path d="M513.896 328.667H361.104V335.813H513.896V328.667Z" fill="#A6A6A6"/>
<path d="M330.542 313.292H172.25V320.438H330.542V313.292Z" fill="#A6A6A6"/>
<path d="M330.417 347.062H172.125V354.208H330.417V347.062Z" fill="#DBDBDB"/>
<path d="M330.417 360.396H172.125V367.542H330.417V360.396Z" fill="#DBDBDB"/>
<path d="M330.417 373.729H172.125V380.875H330.417V373.729Z" fill="#DBDBDB"/>
<path d="M330.417 387.062H172.125V394.208H330.417V387.062Z" fill="#DBDBDB"/>
<path d="M330.417 400.396H172.125V407.542H330.417V400.396Z" fill="#DBDBDB"/>
<path d="M330.417 413.708H172.125V420.854H330.417V413.708Z" fill="#DBDBDB"/>
<path d="M330.417 427.042H172.125V434.188H330.417V427.042Z" fill="#DBDBDB"/>
<path d="M330.417 440.375H172.125V447.521H330.417V440.375Z" fill="#DBDBDB"/>
<path d="M264.833 453.708H172.125V460.854H264.833V453.708Z" fill="#DBDBDB"/>
<path d="M330.417 480.375H172.125V487.521H330.417V480.375Z" fill="#DBDBDB"/>
<path d="M330.417 493.708H172.125V500.854H330.417V493.708Z" fill="#DBDBDB"/>
<path d="M330.417 507.021H172.125V514.167H330.417V507.021Z" fill="#DBDBDB"/>
<path d="M330.417 520.354H172.125V527.5H330.417V520.354Z" fill="#DBDBDB"/>
<path d="M264.833 533.688H172.125V540.833H264.833V533.688Z" fill="#DBDBDB"/>
<path d="M285.5 328.792H172.25V335.938H285.5V328.792Z" fill="#A6A6A6"/>
<path d="M816.75 313.292H658.458V320.438H816.75V313.292Z" fill="#A6A6A6"/>
<path d="M816.625 347.062H658.333V354.208H816.625V347.062Z" fill="#DBDBDB"/>
<path d="M816.625 360.396H658.333V367.542H816.625V360.396Z" fill="#DBDBDB"/>
<path d="M816.625 373.729H658.333V380.875H816.625V373.729Z" fill="#DBDBDB"/>
<path d="M751.667 387.062H658.333V394.208H751.667V387.062Z" fill="#DBDBDB"/>
<path d="M816.625 413.708H658.333V420.854H816.625V413.708Z" fill="#DBDBDB"/>
<path d="M816.625 427.042H658.333V434.188H816.625V427.042Z" fill="#DBDBDB"/>
<path d="M816.625 440.375H658.333V447.521H816.625V440.375Z" fill="#DBDBDB"/>
<path d="M816.625 453.708H658.333V460.854H816.625V453.708Z" fill="#DBDBDB"/>
<path d="M751.667 467.042H658.333V474.188H751.667V467.042Z" fill="#DBDBDB"/>
<path d="M816.625 493.708H658.333V500.854H816.625V493.708Z" fill="#DBDBDB"/>
<path d="M816.625 507.021H658.333V514.167H816.625V507.021Z" fill="#DBDBDB"/>
<path d="M816.625 520.354H658.333V527.5H816.625V520.354Z" fill="#DBDBDB"/>
<path d="M816.625 533.688H658.333V540.833H816.625V533.688Z" fill="#DBDBDB"/>
<path d="M751.667 547.021H658.333V554.167H751.667V547.021Z" fill="#DBDBDB"/>
<path d="M771.708 328.792H658.458V335.938H771.708V328.792Z" fill="#A6A6A6"/>
<path d="M330.542 574.604H172.25V581.75H330.542V574.604Z" fill="#A6A6A6"/>
<path d="M330.417 608.396H172.125V615.542H330.417V608.396Z" fill="#DBDBDB"/>
<path d="M330.417 621.729H172.125V628.875H330.417V621.729Z" fill="#DBDBDB"/>
<path d="M330.417 635.042H172.125V642.188H330.417V635.042Z" fill="#DBDBDB"/>
<path d="M330.417 648.375H172.125V655.521H330.417V648.375Z" fill="#DBDBDB"/>
<path d="M285.5 590.125H172.25V597.271H285.5V590.125Z" fill="#A6A6A6"/>
<path d="M627.896 574.604H361.688V581.75H627.896V574.604Z" fill="#A6A6A6"/>
<path d="M627.687 608.396H361.479V615.542H627.687V608.396Z" fill="#DBDBDB"/>
<path d="M627.687 621.729H361.479V628.875H627.687V621.729Z" fill="#DBDBDB"/>
<path d="M627.687 635.042H361.479V642.188H627.687V635.042Z" fill="#DBDBDB"/>
<path d="M627.687 648.375H361.479V655.521H627.687V648.375Z" fill="#DBDBDB"/>
<path d="M552.125 590.125H361.688V597.271H552.125V590.125Z" fill="#A6A6A6"/>
<path d="M816.75 574.604H658.458V581.75H816.75V574.604Z" fill="#A6A6A6"/>
<path d="M816.625 608.396H658.333V615.542H816.625V608.396Z" fill="#DBDBDB"/>
<path d="M816.625 621.729H658.333V628.875H816.625V621.729Z" fill="#DBDBDB"/>
<path d="M816.625 635.042H658.333V642.188H816.625V635.042Z" fill="#DBDBDB"/>
<path d="M751.667 648.375H658.333V655.521H751.667V648.375Z" fill="#DBDBDB"/>
<path d="M771.708 590.125H658.458V597.271H771.708V590.125Z" fill="#A6A6A6"/>
<path d="M694.375 97.3334L698.312 235.625L848.396 234.875L694.375 97.3334Z" fill="#DBDBDB"/>
<path d="M816.729 650.833C816.729 650.833 783.583 643.313 765.333 626.583C747.083 609.854 737.021 579.854 737.021 579.854C749.615 582.263 762.032 585.52 774.188 589.604C778.733 594.3 782.527 599.669 785.438 605.521C785.712 601.734 785.712 597.933 785.438 594.146C789.678 595.983 793.646 598.395 797.229 601.313C812.458 614.5 816.729 650.833 816.729 650.833Z" fill="#6DA59A"/>
<path d="M757.792 594.417C753.271 591.292 748.667 588.292 744.188 585.125C744.13 585.089 744.088 585.032 744.073 584.965C744.057 584.899 744.068 584.829 744.104 584.771C744.14 584.713 744.198 584.672 744.264 584.656C744.33 584.64 744.4 584.652 744.458 584.688C753 589.792 761.417 595.229 769.458 600.958C772.292 603.042 775.083 605.125 777.792 607.208L777.208 606.229C776.229 604.563 775.125 602.938 774.125 601.292C772.039 597.973 769.683 594.83 767.083 591.896C767.083 591.792 767.083 591.646 767.25 591.75C769.833 594.729 772.417 597.667 774.771 600.833C775.896 602.333 776.854 603.875 777.917 605.479C778.438 606.292 778.938 607.125 779.396 607.979C779.563 608.25 779.75 608.542 779.896 608.833C784.187 612.188 788.354 615.708 792.396 619.417C794.826 621.708 797.194 624.076 799.5 626.521C798.229 622.521 797.104 618.458 795.625 614.521C795.625 614.375 795.792 614.313 795.833 614.521C797.271 618.688 798.854 622.854 800 627.021C802.542 629.799 804.958 632.646 807.25 635.563L807.125 635.021C806.75 633.458 806.354 631.896 805.938 630.354C805.146 627.354 804.25 624.375 803.25 621.438C801.399 615.321 798.432 609.6 794.5 604.563C794.5 604.438 794.5 604.292 794.667 604.396C800.875 612.14 805.223 621.206 807.375 630.896C807.722 632.285 808.056 633.674 808.375 635.063C808.542 635.813 808.75 636.583 808.875 637.354C809.875 638.708 810.854 640.083 811.792 641.521C817.429 650.198 822.11 659.46 825.75 669.146C829.888 679.985 833.428 691.044 836.354 702.271C836.354 702.479 836.104 702.563 836.021 702.271C829.542 682.875 822.917 663.208 811.833 645.875C809.479 642.208 806.938 638.688 804.25 635.271C798.763 634.923 793.347 633.844 788.146 632.063C782.452 630.151 777.021 627.534 771.979 624.271C769.063 622.375 766.417 620.104 763.646 618.021C763.627 618.014 763.611 618.003 763.597 617.989C763.583 617.975 763.573 617.957 763.568 617.938C763.562 617.919 763.562 617.899 763.565 617.88C763.569 617.86 763.577 617.842 763.589 617.826C763.601 617.811 763.617 617.798 763.635 617.79C763.653 617.782 763.673 617.778 763.692 617.778C763.712 617.779 763.731 617.784 763.749 617.794C763.766 617.803 763.781 617.817 763.792 617.833C768.412 621.574 773.521 624.665 778.979 627.021C784.317 629.487 789.905 631.373 795.646 632.646C798.104 633.167 800.583 633.563 803.062 633.896C799.994 630.126 796.733 626.517 793.292 623.083C792.167 621.958 791.021 620.896 789.875 619.813C786.006 617.105 781.899 614.755 777.604 612.792C772.188 610.167 766.833 607.396 761.458 604.646C758.438 603.104 755.417 601.542 752.354 600.042C752.229 600.042 752.354 599.792 752.479 599.854C757.937 602.479 763.458 604.938 768.958 607.458C774.125 609.833 779.375 612.208 784.333 615L784.958 615.375C780.472 611.458 775.84 607.715 771.063 604.146C766.771 600.813 762.313 597.563 757.792 594.417Z" fill="#263238"/>
<path d="M759.687 611.521C762.375 612.688 765.125 613.75 767.792 614.979C770.458 616.208 773.125 617.771 775.729 619.313C775.854 619.313 775.729 619.542 775.625 619.479C772.979 618.229 770.312 617.042 767.687 615.729C765.062 614.417 762.354 612.938 759.604 611.729C759.479 611.667 759.542 611.458 759.687 611.521Z" fill="#263238"/>
<path d="M924.396 483.729C918.268 491.634 914.797 501.274 914.479 511.271C914.479 514.229 914.833 518.375 915.187 523.25C906.918 528.047 899.59 534.309 893.562 541.729C900.164 537.931 907.729 536.136 915.333 536.563C915.157 539.888 914.733 543.196 914.062 546.458C909.239 546.476 904.464 547.424 900 549.25C904.358 549.2 908.679 550.058 912.687 551.771C906.771 570.521 889.208 589.875 840.729 598.083C835.586 575.027 838.62 550.899 849.312 529.833C863.917 501.25 924.396 483.729 924.396 483.729Z" fill="#6DA59A"/>
<path d="M824.021 678.5C824.854 670.472 825.903 662.465 827.167 654.479C829.619 638.505 832.88 622.665 836.937 607.021C838.843 599.674 841.18 592.446 843.938 585.375C843.799 584.088 843.743 582.794 843.771 581.5C843.771 579.958 843.771 578.396 843.771 576.833C843.771 573.729 843.958 570.583 844.229 567.542C844.722 561.408 845.718 555.325 847.208 549.354C848.083 545.896 849.125 542.5 850.125 539.083C850.135 539.061 850.151 539.042 850.171 539.029C850.191 539.016 850.215 539.008 850.24 539.008C850.264 539.008 850.288 539.016 850.308 539.029C850.328 539.042 850.344 539.061 850.354 539.083C848.744 545.043 847.547 551.106 846.771 557.229C845.897 563.265 845.355 569.343 845.146 575.438C845.146 577.104 845.042 578.771 845.042 580.438C845.042 581.146 845.042 581.854 845.042 582.521C847.43 576.727 850.157 571.078 853.208 565.604C858.156 556.934 863.726 548.635 869.875 540.771C869.881 539.854 870.014 538.943 870.271 538.063C870.5 536.979 870.729 535.979 870.979 534.813C871.479 532.604 872.021 530.396 872.625 528.208C873.833 523.813 875.437 519.563 876.792 515.229C876.792 515.202 876.803 515.175 876.822 515.156C876.842 515.136 876.868 515.125 876.896 515.125C876.923 515.125 876.95 515.136 876.969 515.156C876.989 515.175 877 515.202 877 515.229C875.708 519.521 874.917 523.979 873.875 528.333L872.437 534.833L871.75 538.083C871.75 538.083 871.75 538.25 871.75 538.333C873.708 535.847 875.708 533.41 877.75 531.021C887.021 520.167 897.167 510.188 907.396 500.188C908.646 498.979 909.937 497.771 911.208 496.583L911.354 496.729C901.604 506.917 891.979 517.229 882.875 527.979C880.708 530.535 878.576 533.125 876.479 535.75L879.792 533.563C882.625 531.729 885.479 529.917 888.417 528.271C891.354 526.625 894.333 525.021 897.354 523.521C900.375 522.021 903.771 520.729 906.771 518.979C906.917 518.979 907.021 519.125 906.896 519.167C903.829 520.588 900.869 522.231 898.042 524.083C895.083 525.833 892.146 527.583 889.25 529.438C886.354 531.292 883.521 533.021 880.708 534.854C878.333 536.396 876.021 538.063 873.563 539.479C867.948 546.702 862.765 554.249 858.042 562.083C855.104 567.02 852.42 572.103 850 577.313L851.75 576.563L856.187 574.604C859.042 573.333 861.896 572.104 864.771 570.854C870.208 568.479 875.729 566.313 881.062 563.709C884.075 562.303 886.985 560.688 889.771 558.875C889.896 558.875 890 559 889.875 559.084C879.937 565.938 868.792 570.771 857.771 575.625L853 577.708C851.687 578.292 850.375 578.938 849.042 579.438C845.779 586.728 843.036 594.24 840.833 601.917C836.496 617.359 832.977 633.02 830.292 648.833C827.5 664.667 825.625 680.604 824.167 696.625C823.979 698.708 823.812 700.625 823.583 702.604C823.556 702.753 823.478 702.888 823.362 702.985C823.246 703.082 823.099 703.135 822.948 703.135C822.797 703.135 822.65 703.082 822.534 702.985C822.418 702.888 822.34 702.753 822.312 702.604C822.333 694.729 823.167 686.583 824.021 678.5Z" fill="#263238"/>
<path d="M853.521 544.583C854.417 539.646 855.729 534.833 857.063 530C857.063 529.854 857.313 530 857.271 530C856.042 534.75 855.188 539.563 854.271 544.375C853.354 549.188 852.563 554.208 851.875 559.146C851.875 559.146 851.729 559.146 851.75 559.146C852.06 554.262 852.651 549.4 853.521 544.583V544.583Z" fill="#263238"/>
<path d="M874.417 557.958C877.787 555.734 881.309 553.75 884.958 552.021C886.729 551.104 888.521 550.229 890.312 549.375C892.104 548.521 894.083 547.729 895.917 546.813C896.042 546.813 896.146 546.938 896.021 547C894.25 547.896 892.562 548.979 890.812 549.917C889.062 550.854 887.25 552 885.437 552.854C881.951 554.889 878.363 556.746 874.687 558.417C874.628 558.438 874.563 558.438 874.504 558.417C874.444 558.396 874.394 558.354 874.362 558.3C874.33 558.246 874.318 558.182 874.328 558.119C874.338 558.057 874.369 558 874.417 557.958V557.958Z" fill="#263238"/>
<path opacity="0.1" d="M816.125 593.417C816.125 593.417 785.458 586.083 771.375 565.521C757.917 545.875 753.583 512.375 753.229 509.438C753.792 512.125 760.104 541.396 781 555.042C796.979 565.479 812.417 574.063 816.125 593.417Z" fill="#263238"/>
<path d="M787.813 540.417C793.261 545.436 797.182 551.892 799.125 559.042C799.125 559.042 799.125 559.146 799.021 559.042C796.772 552.055 792.878 545.71 787.667 540.542C787.563 540.5 787.708 540.333 787.813 540.417Z" fill="#263238"/>
<path d="M816.125 593.417C816.125 593.417 785.458 586.083 771.375 565.521C757.917 545.875 753.583 512.375 753.229 509.438C753.234 509.368 753.234 509.299 753.229 509.229C753.229 509.229 767.937 530.063 783.396 535.458C798.854 540.854 820.542 559.229 816.125 593.417Z" fill="#6DA59A"/>
<path d="M758.625 520.75C761.376 526.382 764.545 531.799 768.104 536.958C771.679 541.859 775.929 546.229 780.729 549.938C784.896 553.25 789.292 556.188 793.521 559.5V559.354C792.729 558.167 791.875 557.021 791.021 555.917C789.25 553.667 787.333 551.542 785.396 549.458C781.583 545.292 777.708 541.271 774.292 536.792C772.391 534.324 770.744 531.672 769.375 528.875C769.375 528.729 769.521 528.667 769.583 528.875C774.562 539.292 784.5 545.875 791.583 554.625C792.583 555.875 793.542 557.167 794.417 558.5C795.123 559.472 795.717 560.52 796.187 561.625C800.056 564.74 803.551 568.291 806.604 572.208C806.343 570.195 805.932 568.203 805.375 566.25C804.654 563.523 803.56 560.908 802.125 558.479C802.108 558.454 802.102 558.424 802.108 558.395C802.114 558.365 802.131 558.34 802.156 558.323C802.181 558.306 802.212 558.3 802.241 558.306C802.27 558.312 802.296 558.329 802.312 558.354C803.795 560.78 804.997 563.366 805.896 566.063C806.529 568.218 806.9 570.443 807 572.688V572.688C808.521 574.752 809.913 576.909 811.167 579.146C811.042 578.479 810.917 577.833 810.771 577.167C810.167 574.125 809.5 571.063 808.687 568.063C807.242 561.917 804.747 556.067 801.312 550.771C801.312 550.771 801.417 550.542 801.5 550.646C805.01 555.869 807.76 561.565 809.667 567.563C810.646 570.563 811.437 573.625 812.125 576.708C812.458 578.229 812.75 579.729 813.042 581.25C813.187 582.042 813.375 582.833 813.5 583.646C816.543 590.337 818.909 597.317 820.562 604.479C823.575 617.256 825.76 630.213 827.104 643.271C828.673 656.935 829.368 670.685 829.187 684.438C829.187 686.167 829.042 687.875 828.958 689.604C828.958 690.042 828.271 690.104 828.25 689.604C827.938 682.792 827.771 675.979 827.375 669.188C826.979 662.396 826.375 655.604 825.646 648.813C824.242 635.511 822.107 622.296 819.25 609.229C816.771 598.021 813.542 586.729 807.417 576.896C804.364 572.017 800.64 567.592 796.354 563.75C792.042 559.896 787.354 556.5 782.813 552.938C778.194 549.453 773.998 545.439 770.313 540.979C766.563 536.033 763.298 530.738 760.562 525.167L758.354 521C758.375 520.75 758.562 520.625 758.625 520.75Z" fill="#263238"/>
<path d="M763.917 525.25C765.928 529.376 768.211 533.364 770.75 537.188C770.75 537.188 770.75 537.375 770.604 537.188C767.978 533.399 765.672 529.4 763.708 525.229C763.646 525.188 763.854 525.125 763.917 525.25Z" fill="#263238"/>
<path d="M928.667 579.854C928.667 579.854 929.146 623.438 903.083 636.104C877.021 648.771 863.063 638.188 845.354 642.354C846.042 641.313 858.688 623.146 878.792 618.146C899.479 612.896 922.396 598.021 928.667 579.854Z" fill="#6DA59A"/>
<path opacity="0.1" d="M928.667 579.854C928.667 579.854 929.146 623.438 903.083 636.104C877.021 648.771 863.063 638.188 845.354 642.354C854.716 637.901 864.72 634.948 875 633.604C891.438 631.646 922.833 620.875 928.667 579.854Z" fill="black"/>
<path d="M843.646 643.104C846.767 640.281 850.274 637.917 854.063 636.083C854.625 635.813 855.188 635.604 855.771 635.354C856.354 635.104 856.333 634.688 856.646 634.354C857.417 633.541 858.231 632.769 859.083 632.042C860.72 630.628 862.477 629.359 864.333 628.25C868.646 625.708 873.375 623.938 877.792 621.583C877.917 621.583 878.042 621.708 877.917 621.771C875.729 622.917 873.604 624.167 871.479 625.396C869.354 626.625 867.313 627.75 865.229 629.042C863.416 630.207 861.689 631.502 860.063 632.917C859.604 633.313 859.167 633.75 858.729 634.188C861.608 633.225 864.544 632.446 867.521 631.854C872.292 630.896 877.125 630.208 881.896 629.188C884.225 628.687 886.526 628.068 888.792 627.333C890.875 625.583 893.125 623.854 895.167 621.979C897.647 619.704 899.907 617.2 901.917 614.5C901.933 614.475 901.959 614.458 901.988 614.452C902.018 614.446 902.048 614.452 902.073 614.469C902.098 614.485 902.115 614.511 902.121 614.54C902.127 614.57 902.121 614.6 902.104 614.625C898.939 618.898 895.359 622.848 891.417 626.417C892.542 625.979 893.646 625.521 894.75 625.021C903.693 621.032 911.379 614.679 916.979 606.646C916.979 606.542 917.25 606.646 917.167 606.771C912.428 613.693 906.315 619.565 899.208 624.021C895.644 626.245 891.834 628.048 887.854 629.396C883.234 630.828 878.522 631.942 873.75 632.729C869.072 633.491 864.456 634.591 859.938 636.021C855.778 637.421 851.868 639.475 848.354 642.104C841.719 647.26 836.37 653.885 832.729 661.458C828.071 671.516 825.168 682.297 824.146 693.333C824.146 693.792 823.354 693.792 823.396 693.333C824.625 674.896 829.521 655.833 843.646 643.104Z" fill="#263238"/>
<path d="M873.875 628.896C875.237 626.865 877.075 625.199 879.229 624.042C881.702 622.755 883.875 620.958 885.604 618.771C885.604 618.646 885.896 618.771 885.792 618.896C884.231 620.892 882.326 622.592 880.167 623.917C877.802 625.179 875.718 626.908 874.042 629C874.042 629 873.813 629 873.875 628.896Z" fill="#263238"/>
<path d="M860.042 675.271L858.875 699.25L855.229 772.458H800.562L796.938 699.25L795.75 675.271H860.042Z" fill="#37474F"/>
<path d="M860.042 675.271L858.875 699.25H796.938L795.75 675.271H860.042Z" fill="#263238"/>
<path d="M863.896 665.271H791.917V688.125H863.896V665.271Z" fill="#37474F"/>
<path d="M275 897.208C374.63 897.208 455.396 885.764 455.396 871.646C455.396 857.528 374.63 846.083 275 846.083C175.37 846.083 94.6041 857.528 94.6041 871.646C94.6041 885.764 175.37 897.208 275 897.208Z" fill="#EBEBEB"/>
<path d="M387.854 872.875C383.021 874.438 245.542 872.646 240.354 869.25C238.271 868 237.458 847.958 237.042 823.708V822.938C237.042 817.938 236.896 812.792 236.875 807.583C236.875 806.854 236.875 806.146 236.875 805.5L243.542 734.188L335.521 735.104L326.438 805.771V808.563L325.875 823.146V824.646C325.875 824.646 378.188 848.875 383.5 853.208C388.813 857.542 392.667 871.354 387.854 872.875Z" fill="#D3766A"/>
<path d="M387.854 872.875C383.021 874.437 245.542 872.646 240.354 869.25C238.271 868 237.458 847.958 237.042 823.708V822.937C237.042 817.937 236.896 812.792 236.875 807.583C236.875 806.854 236.875 806.146 236.875 805.5L326.458 805.771V808.563L325.896 823.146V824.646C325.896 824.646 378.208 848.875 383.521 853.208C388.833 857.542 392.667 871.354 387.854 872.875Z" fill="#EBEBEB"/>
<path d="M388.75 873.313C383.875 874.875 244.521 873.021 239.25 869.604C237.167 868.313 236.312 848 235.917 823.417L325.771 824.354C325.771 824.354 378.792 848.938 384.104 853.313C389.417 857.688 393.646 871.667 388.75 873.313Z" fill="#455A64"/>
<path opacity="0.1" d="M304.187 873.063C271.646 872.313 241.687 871.083 239.25 869.521C237.167 868.229 236.312 847.917 235.917 823.333L256.208 823.542L304.187 873.063Z" fill="black"/>
<path d="M386.833 867.625C363.479 866.75 269.208 865.396 246.063 866.292C245.875 866.292 245.875 866.417 246.063 866.438C269.188 867.813 363.458 868.417 386.833 868.021C387.313 868 387.333 867.646 386.833 867.625Z" fill="#263238"/>
<path d="M334.792 826.729C325.437 826.458 314.562 829.625 308.646 837.146C308.417 837.438 308.833 837.771 309.125 837.625C317.355 833.448 326.008 830.166 334.937 827.833C335.05 827.781 335.143 827.694 335.203 827.585C335.263 827.476 335.287 827.351 335.271 827.228C335.254 827.104 335.199 826.989 335.113 826.9C335.027 826.81 334.914 826.75 334.792 826.729Z" fill="#263238"/>
<path d="M341.979 829.563C332.625 829.313 321.75 832.479 315.833 839.979C315.604 840.271 316.021 840.583 316.292 840.458C324.526 836.276 333.187 832.993 342.125 830.667C342.228 830.607 342.31 830.518 342.362 830.411C342.415 830.304 342.434 830.184 342.419 830.066C342.403 829.948 342.353 829.838 342.275 829.748C342.197 829.658 342.094 829.594 341.979 829.563V829.563Z" fill="#263238"/>
<path d="M349.146 832.542C339.812 832.292 328.917 835.438 323 842.958C322.771 843.25 323.208 843.563 323.479 843.417C331.718 839.288 340.371 836.041 349.292 833.729C349.449 833.71 349.592 833.629 349.69 833.504C349.788 833.379 349.832 833.22 349.813 833.063C349.793 832.905 349.712 832.762 349.587 832.664C349.462 832.566 349.303 832.522 349.146 832.542Z" fill="#263238"/>
<path d="M252.292 844.146C241.875 844.021 241.625 860.333 252.125 860.438C262.625 860.542 262.812 844.292 252.292 844.146Z" fill="#263238"/>
<path d="M331.792 823.417H232.771C232.771 823.417 252.708 592.167 251.938 588.104C250.938 582.938 245.104 559.521 237.354 528.958C234.917 519.375 232.292 509.125 229.563 498.479C222.167 469.708 214.042 438.271 206.938 410.979C196.313 370 188 338.063 188 338.063H271.917C271.917 338.063 281.688 369.063 294.021 409.417C314.104 474.958 340.937 565.188 343.583 587.125C347.833 622.542 331.792 823.417 331.792 823.417Z" fill="#263238"/>
<path d="M327.396 806.521C312.271 806.208 316.625 806.083 301.5 805.938C294.104 805.938 245.458 805.438 238.542 806.583C238.396 806.583 238.396 806.854 238.542 806.896C245.458 808.042 294.104 807.604 301.5 807.542C316.625 807.396 312.271 807.271 327.396 806.958C327.454 806.958 327.509 806.935 327.55 806.894C327.591 806.853 327.615 806.798 327.615 806.74C327.615 806.682 327.591 806.626 327.55 806.585C327.509 806.544 327.454 806.521 327.396 806.521Z" fill="#37474F"/>
<path d="M270.563 573.979C267.313 559.667 262.458 545.646 258.25 531.583C249.667 503.042 241.028 474.514 232.333 446C228 431.736 223.653 417.479 219.292 403.229C217.063 396.042 214.854 388.833 212.604 381.667C210.354 374.5 207.896 367.667 205.896 360.583C205.104 357.688 204.646 359.271 205.688 362.938C207.771 370.333 209.854 377.708 211.938 385.083C216.188 399.667 220.479 414.25 224.813 428.833C233.396 457.833 242.049 486.82 250.771 515.792L263.896 559.354C266.105 566.266 267.887 573.307 269.229 580.438C270.406 587.891 270.699 595.457 270.104 602.979C269.167 618.146 267.417 633.271 265.938 648.375C264.458 663.479 263.125 678.667 261.771 693.813C258.993 723.965 256.215 754.111 253.438 784.25C253.083 788.063 252.75 791.875 252.458 795.708C252.458 796.979 254.292 796.896 254.417 795.708C257.688 765.896 260.188 736 262.979 706.125C265.771 676.25 268.563 646.729 271.313 617.021C272 609.563 272.792 602.083 272.813 594.583C272.837 587.653 272.082 580.741 270.563 573.979Z" fill="#37474F"/>
<path d="M262.333 338.063C256.521 383.146 245.417 467.646 237.333 528.958C218.417 454.667 187.979 338.063 187.979 338.063H262.333Z" fill="#37474F"/>
<path d="M282.958 874.208C278.146 875.771 140.646 874.5 135.458 871.125C133.375 869.875 132.479 849.833 131.979 825.583V824.813C131.854 819.813 131.771 814.667 131.75 809.458C131.75 808.729 131.75 808.021 131.75 807.375C131.437 772.354 133.958 736.042 133.958 736.042L223.833 736.625L221.312 807.292V810.083L220.812 824.667V826.188C220.812 826.188 273.042 850.188 278.375 854.563C283.708 858.938 287.771 872.646 282.958 874.208Z" fill="#D3766A"/>
<path d="M282.958 874.208C278.146 875.771 140.646 874.5 135.458 871.125C133.375 869.875 132.479 849.833 131.979 825.583V824.812C131.854 819.812 131.771 814.667 131.75 809.458C131.75 808.729 131.75 808.021 131.75 807.375H221.333V810.167L220.833 824.75V826.271C220.833 826.271 273.042 850.187 278.375 854.562C283.708 858.937 287.771 872.646 282.958 874.208Z" fill="#EBEBEB"/>
<path d="M284.562 874.688C279.667 876.25 140.312 874.396 135.042 870.979C132.958 869.688 132.125 849.375 131.708 824.792L221.562 825.729C221.562 825.729 274.604 850.292 279.896 854.688C285.187 859.083 289.458 873.125 284.562 874.688Z" fill="#455A64"/>
<path d="M282.646 869.146C259.292 868.271 165 866.896 141.854 867.813C141.667 867.813 141.667 867.938 141.854 867.958C164.979 869.333 259.271 870.042 282.625 869.521C283.125 869.458 283.125 869.146 282.646 869.146Z" fill="#263238"/>
<path d="M230.604 828.167C221.25 827.917 210.354 831.083 204.458 838.583C204.229 838.875 204.646 839.188 204.917 839.063C213.151 834.88 221.812 831.597 230.75 829.271C230.853 829.211 230.935 829.122 230.987 829.015C231.04 828.908 231.059 828.788 231.044 828.67C231.028 828.553 230.978 828.442 230.9 828.352C230.822 828.263 230.719 828.198 230.604 828.167V828.167Z" fill="#263238"/>
<path d="M237.771 831.083C228.437 830.833 217.542 833.979 211.625 841.5C211.396 841.792 211.833 842.104 212.104 841.958C220.338 837.791 228.99 834.508 237.917 832.167C238.022 832.111 238.107 832.024 238.161 831.918C238.215 831.812 238.236 831.692 238.22 831.574C238.204 831.456 238.152 831.346 238.072 831.259C237.992 831.171 237.887 831.11 237.771 831.083V831.083Z" fill="#263238"/>
<path d="M244.958 834C235.604 833.729 224.729 836.896 218.813 844.417C218.583 844.708 219 845.042 219.292 844.896C227.521 840.719 236.175 837.437 245.104 835.104C245.217 835.052 245.31 834.965 245.37 834.856C245.43 834.747 245.454 834.622 245.437 834.499C245.421 834.375 245.366 834.26 245.28 834.171C245.193 834.081 245.081 834.021 244.958 834V834Z" fill="#263238"/>
<path d="M269.167 338.063C269.167 338.063 267.229 378.229 258.042 410.021C257.292 412.646 256.5 415.229 255.625 417.708C247.207 421.133 239.118 425.317 231.458 430.208C231.458 430.208 230.479 462.521 229.521 498.542C228.437 538.813 227.437 583.729 227.562 593.271C228.396 628.917 223.104 824.917 223.104 824.917L124.104 825.313C124.104 825.313 142 606.375 141.875 593.313C141.687 572.313 146.667 479.542 150.521 411.896C152.833 370.208 154.917 338.063 154.917 338.063H269.167Z" fill="#263238"/>
<path d="M219.708 807.25C204.583 807 208.937 806.854 193.812 806.771C186.396 806.771 137.771 806.521 130.854 807.687C130.708 807.687 130.708 807.979 130.854 808C137.771 809.125 186.417 808.479 193.812 808.375C208.937 808.167 204.583 808.062 219.708 807.687C219.755 807.673 219.796 807.644 219.825 807.604C219.854 807.565 219.869 807.518 219.869 807.469C219.869 807.42 219.854 807.372 219.825 807.333C219.796 807.294 219.755 807.265 219.708 807.25Z" fill="#37474F"/>
<path d="M163.125 352.479C161.313 407.708 159.375 462.896 156.875 518.146C154.375 573.396 151.042 628.917 146.458 684.188C143.854 715.042 141.417 758.479 138.125 789.271C138.125 789.479 138.417 789.563 138.458 789.271C145.667 734.479 149.688 666.729 153.229 611.604C156.771 556.479 159.167 501.188 161.042 446.063C162.104 414.813 162.917 383.563 163.854 352.313C163.833 351.938 163.25 351.979 163.125 352.479Z" fill="#37474F"/>
<path d="M259.75 415.333C249.903 419.432 240.436 424.388 231.458 430.146C231.399 430.193 231.357 430.26 231.34 430.335C231.324 430.409 231.334 430.487 231.368 430.556C231.402 430.624 231.459 430.679 231.528 430.71C231.598 430.742 231.676 430.748 231.75 430.729C241.292 426.083 251.042 421.625 260.333 416.458C260.483 416.381 260.595 416.248 260.646 416.087C260.696 415.927 260.682 415.753 260.604 415.604C260.527 415.455 260.393 415.343 260.233 415.292C260.073 415.241 259.899 415.256 259.75 415.333Z" fill="#37474F"/>
<path d="M260.312 381.271C259.646 384.771 258.792 388.271 258.042 391.688C257.292 395.104 256.792 398.333 255.958 401.563C255.25 404.723 253.652 407.614 251.354 409.896C250.062 411.083 248.646 412.146 247.187 413.229C246.458 413.833 245.646 414.396 244.875 415C244.875 414.521 245.062 414.063 245.146 413.583L245.833 409.583C246.333 406.604 246.812 403.646 247.25 400.667C248.146 394.833 248.979 388.938 250.187 383.146C250.187 382.917 249.896 382.833 249.833 383.146C248.375 388.875 246.771 394.542 245.5 400.313C244.875 403.146 242.667 417.146 242.562 418.125C242.458 419.104 242.375 420.208 242.333 421.208C242.208 422.246 242.208 423.296 242.333 424.333C242.349 424.385 242.38 424.43 242.423 424.462C242.467 424.495 242.519 424.512 242.573 424.512C242.627 424.512 242.679 424.495 242.722 424.462C242.765 424.43 242.797 424.385 242.812 424.333V424.333C243.227 423.357 243.527 422.337 243.708 421.292C243.958 420.292 244.187 419.208 244.354 418.271C244.354 417.896 244.479 417.521 244.521 417.146C245.896 416.313 247.187 415.208 248.479 414.271C249.771 413.333 251.271 412.292 252.646 411.188C255.075 409.137 256.825 406.399 257.667 403.333C258.523 400.043 259.081 396.682 259.333 393.292C259.771 389.313 260.083 385.313 260.646 381.354C260.708 381.125 260.354 381.021 260.312 381.271Z" fill="#37474F"/>
<path d="M229.042 229.563C251.812 278.25 288.875 337.458 309.104 338.542C312.604 338.708 326.708 337.063 332.458 323.958C342.187 301.833 351.396 257.667 352.75 236.646C353.354 227.333 290.771 217.771 288.854 227.563C286.146 241.292 284.687 256.042 283.208 255.875C280.729 255.583 270.437 240.125 246.25 214.438C216.187 182.438 220.583 211.396 229.042 229.563Z" fill="#F7A9A0"/>
<path d="M361.917 211.479C360.313 224.583 346.5 250.104 340.792 254.958C335.083 259.813 290.958 237.896 289.458 230.271C287.958 222.646 296.854 179.021 306.5 169.604C316.146 160.188 363.604 197.896 361.917 211.479Z" fill="#F7A9A0"/>
<path d="M289.667 222.563C286.946 212.243 282.735 202.375 277.167 193.271C270.146 182.667 258.417 167.708 264.062 163.708C275.479 155.521 304.479 192.875 304.479 192.875C304.479 192.875 314.646 211.396 304.042 220.521C302.066 222.151 299.678 223.205 297.141 223.565C294.605 223.925 292.018 223.578 289.667 222.563Z" fill="#F7A9A0"/>
<path d="M317.125 213.479L332.312 206.542L312.25 162.583L293.021 171.354L317.125 213.479Z" fill="#6DA59A"/>
<path d="M293.021 171.333L302.208 187.417L317.125 213.479L332.312 206.563L312.25 162.583L293.021 171.333Z" fill="#6DA59A"/>
<path opacity="0.1" d="M293.021 171.333L302.208 187.417L319.896 179.354L312.25 162.583L293.021 171.333Z" fill="black"/>
<path d="M294.206 178.619L318.107 167.716L309.825 149.558L285.923 160.461L294.206 178.619Z" fill="#6DA59A"/>
<path d="M266.875 161.167L286.292 154.542L272.896 125.146L255.167 135.479L266.875 161.167Z" fill="#6DA59A"/>
<path d="M279.792 114.979L299.583 158.354L332.437 147.854L417.042 141.458L369.542 37.3125L309.25 97.0208L279.792 114.979Z" fill="#6DA59A"/>
<path d="M378.167 96.2292C391.333 125.146 409.562 145.125 418.854 140.896C428.146 136.667 424.979 109.792 411.792 80.8958C398.604 52 380.396 31.9792 371.104 36.2292C361.812 40.4792 364.979 67.3958 378.167 96.2292Z" fill="#6DA59A"/>
<path opacity="0.2" d="M416.642 133.813C424.252 130.341 420.934 106.727 409.23 81.0696C397.527 55.4118 381.869 37.4263 374.259 40.8978C366.648 44.3693 369.967 67.9832 381.67 93.641C393.374 119.299 409.031 137.284 416.642 133.813Z" fill="black"/>
<path d="M383.917 92.5834C385.479 96 387.104 99.2917 388.771 102.396C390.862 102.936 393.063 102.873 395.12 102.215C397.176 101.556 399.005 100.329 400.393 98.6747C401.781 97.0205 402.673 95.0071 402.965 92.8673C403.256 90.7275 402.936 88.5489 402.042 86.5834L399.792 81.6458C398.898 79.6926 397.471 78.0311 395.676 76.8522C393.88 75.6733 391.789 75.0248 389.641 74.9813C387.494 74.9378 385.377 75.501 383.536 76.6062C381.694 77.7114 380.201 79.3137 379.229 81.2292C380.583 84.9375 382.167 88.75 383.917 92.5834Z" fill="#6DA59A"/>
<path d="M283.854 168.417L321.417 155.625L295.479 98.7917L261.208 118.75L283.854 168.417Z" fill="#6DA59A"/>
<path opacity="0.2" d="M283.854 168.417L321.417 155.625L295.479 98.7917L261.208 118.75L283.854 168.417Z" fill="black"/>
<path opacity="0.2" d="M367.917 46.6667C366.872 50.8675 366.604 55.2237 367.125 59.5209C367.531 63.8244 368.284 68.0882 369.375 72.2709C369.854 74.3542 370.521 76.4375 371.125 78.5209C371.729 80.6042 372.5 82.6875 373.208 84.625C373.917 86.5625 374.729 88.6667 375.583 90.6459C376.438 92.625 377.25 94.625 378.167 96.5834C381.732 104.48 386.014 112.032 390.958 119.146C393.443 122.674 396.231 125.978 399.292 129.021C402.324 132.118 405.972 134.545 410 136.146C406.099 134.347 402.605 131.774 399.729 128.583C396.761 125.497 394.077 122.15 391.708 118.583C386.938 111.468 382.791 103.954 379.313 96.125C375.629 88.3866 372.604 80.3511 370.271 72.1042C369.077 68.0144 368.22 63.8338 367.708 59.6042C367.02 55.3127 367.091 50.9338 367.917 46.6667V46.6667Z" fill="black"/>
<path d="M405.271 26.875C403.458 29.2708 401.792 31.7292 400.125 34.1875C398.458 36.6458 396.875 39.1875 395.292 41.7083C393.708 44.2292 392.167 46.7708 390.708 49.375L388.521 53.2708C387.833 54.5833 387.104 55.875 386.438 57.2292C387.354 56.0417 388.187 54.8125 389.083 53.6042L391.583 49.9167C393.271 47.4583 394.854 44.9375 396.437 42.4167C398.021 39.8958 399.542 37.3333 401 34.75C402.458 32.1667 403.937 29.5625 405.271 26.875Z" fill="#263238"/>
<path d="M411.042 115.375C414.417 115.375 417.771 115.25 421.125 115.083C424.479 114.917 427.812 114.667 431.167 114.417C434.521 114.167 437.854 113.833 441.187 113.438L446.187 112.833C447.854 112.583 449.521 112.375 451.187 112.083C449.5 112.083 447.812 112.083 446.146 112.083L441.104 112.313C437.75 112.458 434.396 112.729 431.062 112.979C427.729 113.229 424.375 113.563 421.042 113.958C417.708 114.354 414.354 114.833 411.042 115.375Z" fill="#263238"/>
<path d="M467.958 88.5417C463.104 89.3959 458.271 90.4167 453.375 91.4375C448.479 92.4584 443.729 93.5209 438.938 94.6667C434.146 95.8125 429.333 96.9584 424.563 98.2084L417.396 100.104C415.021 100.771 412.625 101.396 410.271 102.188C412.708 101.771 415.125 101.271 417.542 100.813L424.792 99.3125C429.625 98.2917 434.438 97.2292 439.229 96.0625C444.021 94.8959 448.833 93.7709 453.604 92.5209C458.375 91.2709 463.25 89.9792 467.958 88.5417Z" fill="#263238"/>
<path d="M432.187 20.9167C428.792 24.6042 425.5 28.375 422.229 32.1667C418.958 35.9584 415.75 39.7917 412.542 43.625C409.333 47.4584 406.292 51.375 403.083 55.2917L398.458 61.2084C396.937 63.2917 395.396 65.1667 393.938 67.2084C395.646 65.375 397.292 63.4792 398.958 61.625L403.896 55.9584C407.187 52.1875 410.375 48.3334 413.583 44.5C416.792 40.6667 419.938 36.75 423.021 32.8125C426.104 28.875 429.229 24.9584 432.187 20.9167Z" fill="#263238"/>
<path d="M403.646 84.1875C409 81.9792 414.271 79.6459 419.562 77.2917C424.854 74.9375 429.979 72.4792 435.312 70.0833C440.646 67.6875 445.729 65.125 450.958 62.5833L458.729 58.7292C461.292 57.3958 463.875 56.125 466.437 54.75C463.75 55.8333 461.104 57 458.437 58.125L450.521 61.6458C445.229 64 440.104 66.4583 434.75 68.8542C429.396 71.25 424.333 73.8125 419.125 76.3542C413.917 78.8958 408.75 81.4792 403.646 84.1875Z" fill="#263238"/>
<path d="M294.5 187.063C297.354 193.438 303.25 186.417 303.25 186.417C303.25 186.417 297.208 198.583 302.708 204.021C308.208 209.458 314.833 200.521 315.312 199.854C315 200.5 309.75 211.813 315.833 216.729C321.917 221.646 327.5 211.875 327.833 211.229C327.729 211.938 326.5 221.25 332 223.917C341.417 228.521 345.208 204.771 352.292 200.104C352.292 200.104 361.562 211.167 361.896 211.438C361.896 211.438 366.062 188.938 359.167 179.75C358.19 178.401 356.783 177.425 355.178 176.982C353.572 176.539 351.864 176.655 350.333 177.313C350.333 177.313 352.417 170.208 347.792 166.188C345.396 164.104 339.958 166.188 339.958 166.188C340.353 164.557 340.292 162.849 339.782 161.25C339.271 159.652 338.33 158.225 337.062 157.125C333.562 154.479 328.729 156.896 328.729 156.896C328.729 156.896 327.562 150.646 323.125 149.167C314.146 146 288.458 173.313 294.5 187.063Z" fill="#F7A9A0"/>
<path d="M340.062 166C340.062 166 340.062 165.729 339.875 165.813C327.727 173.84 318.858 185.954 314.875 199.958C314.75 200.458 315.125 201.021 315.312 200.458C318.458 191.083 331.021 174.104 340.062 166Z" fill="#263238"/>
<path d="M327.979 212.354C332.021 198.708 340.042 187.729 349.896 177.625C350.021 177.5 349.896 177.333 349.687 177.417C343.437 181.042 337.917 188.125 334.021 194.083C330.291 199.476 328.049 205.756 327.521 212.292C327.5 212.479 327.833 212.646 327.979 212.354Z" fill="#263238"/>
<path d="M303.083 186.479C302.896 186.958 303.792 186.708 303.625 187.167C302.937 189.25 299.792 201.583 303.625 203.958C306.75 205.854 311.458 202.979 312.833 201.167L316.312 196.583L314.646 202.083C313.883 204.523 313.517 207.069 313.562 209.625C313.535 210.791 313.753 211.95 314.201 213.026C314.65 214.103 315.319 215.073 316.167 215.875C316.968 216.627 318.003 217.081 319.099 217.161C320.196 217.241 321.286 216.941 322.187 216.313C324.18 214.859 325.771 212.923 326.812 210.688L329.875 204.625L328.958 211.333C328.719 213.201 328.719 215.091 328.958 216.958C329.101 218.744 329.767 220.447 330.875 221.854C331.398 222.464 332.08 222.916 332.846 223.159C333.611 223.402 334.43 223.426 335.208 223.229C336.887 222.528 338.332 221.365 339.375 219.875C341.676 216.682 343.717 213.31 345.479 209.792C346.437 208.062 347.396 206.292 348.437 204.583C349.389 202.809 350.71 201.26 352.312 200.042C350.886 201.416 349.734 203.049 348.917 204.854C348.021 206.625 347.208 208.437 346.375 210.25C344.819 213.963 342.914 217.521 340.687 220.875C339.504 222.71 337.809 224.158 335.812 225.042C334.677 225.41 333.46 225.438 332.309 225.124C331.157 224.809 330.123 224.165 329.333 223.271C327.916 221.565 327.038 219.477 326.812 217.271C326.543 215.196 326.543 213.095 326.812 211.021L328.896 211.667C327.71 214.322 325.849 216.62 323.5 218.333C322.175 219.257 320.567 219.685 318.958 219.542C317.414 219.343 315.964 218.691 314.792 217.667C313.707 216.63 312.853 215.376 312.286 213.987C311.718 212.597 311.451 211.104 311.5 209.604C311.465 206.772 311.909 203.955 312.812 201.271L314.604 202.188C312.771 204.438 307.854 208.229 302.625 205.896C296.25 202 301.875 188.813 303.083 186.479Z" fill="#263238"/>
<path d="M303.312 186.417C302.19 187.296 300.939 187.999 299.604 188.5C299.068 188.719 298.484 188.794 297.91 188.718C297.337 188.641 296.793 188.415 296.333 188.063C295.442 187.137 294.841 185.971 294.604 184.708C294.271 183.354 293.979 181.896 293.75 180.375C293.212 181.84 292.992 183.402 293.104 184.958C293.112 185.819 293.291 186.669 293.631 187.46C293.97 188.25 294.464 188.965 295.083 189.563C295.831 190.15 296.739 190.499 297.688 190.562C298.581 190.568 299.46 190.33 300.229 189.875C301.603 189.085 302.684 187.872 303.312 186.417V186.417Z" fill="#263238"/>
<path d="M362.896 253.5L288.687 225.167C288.687 225.167 283.625 254.667 282.75 254.813C281.875 254.958 260.187 223.458 236.917 204.063C213.646 184.667 216.75 208.792 223.812 229.063C232.875 255.125 270.625 337.125 287.854 342.854C305.083 348.583 331.604 336.604 335.437 329.333C340.708 319.313 362.896 253.5 362.896 253.5Z" fill="#37474F"/>
<path opacity="0.1" d="M239.146 206.021V264.583H238.563C237.271 261.729 236 258.958 234.812 256.25V202.479L236.896 204.104L239.146 206.021Z" fill="black"/>
<path d="M353.271 262.479C350.812 261.167 327.646 252.729 322.562 251L307.333 245.833C302.083 244.083 296.917 242.021 291.437 240.667C291.392 240.662 291.346 240.672 291.307 240.696C291.268 240.72 291.237 240.756 291.221 240.798C291.204 240.841 291.202 240.888 291.215 240.932C291.228 240.976 291.255 241.015 291.292 241.042C296.333 243.354 301.708 245.042 306.917 246.958L322.292 252.604C327.437 254.458 350.542 262.313 353.187 262.833C353.417 262.896 353.437 262.563 353.271 262.479Z" fill="#263238"/>
<path opacity="0.1" d="M319.5 339.979C309.729 343.854 297.354 346.083 287.833 342.917C270.604 337.208 232.875 255.208 223.771 229.146C219.333 216.417 216.437 202.063 220.687 198.146L319.5 339.979Z" fill="black"/>
<path d="M282.771 255.188C282.271 259.187 282 263.208 281.792 267.229C281.583 271.25 281.521 275.292 281.542 279.313C281.562 283.333 281.687 287.375 282.021 291.396C282.288 295.423 282.795 299.43 283.542 303.396C283.542 301.312 283.396 299.375 283.396 297.375C283.396 295.375 283.396 293.354 283.271 291.354L283.167 279.313L283.042 267.25V261.229C282.875 259.208 282.875 257.208 282.771 255.188Z" fill="#263238"/>
<path d="M279.187 356.646C277.396 358.938 150.021 368.146 149.333 367.396C147.396 365.313 168.667 230.979 195.646 205.938C201.458 200.563 225.125 199.688 228.437 200.667C232.208 201.833 243.854 218.667 249.604 232.646C261.167 260.563 280.771 354.563 279.187 356.646Z" fill="#EBEBEB"/>
<path d="M222.771 233.125L226.104 220.583L235.208 226.229L233.625 236.646L226.167 238.146L222.771 233.125Z" fill="#263238"/>
<path d="M226.167 238.146L228.562 323.021L246.396 349.875L252.396 317.813L233.625 236.646L226.167 238.146Z" fill="#263238"/>
<path d="M293.479 384.375C293.479 384.375 276.812 385.646 254.271 387.229C251.812 379.5 246.271 360.583 245.937 360.625C245.75 361.083 241.896 380.458 240.812 388.208C219.021 389.729 194.354 391.438 174.896 392.625C155.437 393.813 140.917 394.479 140.104 393.979C139.292 393.479 146.979 366.292 147.729 362.333C153.437 331.083 162.854 268.958 172.875 245.104C177.28 234.26 182.59 223.807 188.75 213.854C189.375 212.896 189.958 212 190.5 211.208L194.5 205.396L237.771 272.813C237.771 271.417 234.125 205.979 234.125 205.979C245.843 220.541 255.124 236.906 261.604 254.438C273.479 287.333 279.062 336.542 283.958 359.792C283.937 359.792 293.417 383.896 293.479 384.375Z" fill="#37474F"/>
<path d="M237.75 272.812C238.854 280.083 239.729 287.396 240.583 294.688C241.437 301.979 242.167 309.271 242.875 316.625C243.583 323.979 244.187 331.208 244.687 338.604L245.417 349.604C245.583 353.271 245.833 356.938 245.938 360.625C245.354 356.979 244.917 353.333 244.396 349.688L243.083 338.75C242.229 331.438 241.5 324.167 240.812 316.813C240.125 309.458 239.479 302.229 239 294.833C238.521 287.438 238 280.167 237.75 272.812Z" fill="#263238"/>
<path d="M236.333 299.063C236.42 299.779 236.294 300.505 235.97 301.15C235.646 301.794 235.139 302.329 234.513 302.687C233.886 303.045 233.168 303.21 232.448 303.162C231.728 303.114 231.038 302.854 230.465 302.416C229.892 301.978 229.461 301.38 229.226 300.698C228.991 300.015 228.963 299.279 229.145 298.581C229.326 297.882 229.71 297.253 230.247 296.772C230.785 296.291 231.453 295.979 232.167 295.875C232.65 295.805 233.143 295.832 233.616 295.955C234.089 296.078 234.533 296.294 234.921 296.591C235.309 296.888 235.634 297.26 235.877 297.684C236.119 298.109 236.275 298.577 236.333 299.063V299.063Z" fill="#263238"/>
<path d="M234.021 323.958C236.046 323.958 237.687 322.317 237.687 320.292C237.687 318.267 236.046 316.625 234.021 316.625C231.996 316.625 230.354 318.267 230.354 320.292C230.354 322.317 231.996 323.958 234.021 323.958Z" fill="#263238"/>
<path d="M239 340.604C239.087 341.32 238.96 342.046 238.636 342.691C238.313 343.336 237.806 343.871 237.179 344.229C236.553 344.587 235.835 344.752 235.115 344.704C234.395 344.656 233.705 344.396 233.132 343.958C232.559 343.519 232.128 342.921 231.893 342.239C231.658 341.557 231.63 340.821 231.811 340.122C231.993 339.424 232.377 338.795 232.914 338.314C233.452 337.832 234.119 337.52 234.833 337.417C235.317 337.349 235.808 337.379 236.28 337.503C236.752 337.627 237.195 337.844 237.582 338.14C237.97 338.437 238.295 338.807 238.538 339.23C238.781 339.653 238.938 340.12 239 340.604Z" fill="#263238"/>
<path d="M185.104 213.646C141.208 250.396 82.6666 330.792 90.3333 349C98.9166 369.25 160.104 317.75 160.208 314.438C160.208 311.917 184.854 262 203.354 225.75C221.854 189.5 195.958 204.562 185.104 213.646Z" fill="#F7A9A0"/>
<path d="M160.625 314.542C162.875 309.167 196.042 243.417 205.812 222.542C215.583 201.667 209.083 194.313 185.417 212C161.75 229.688 107.667 291.167 93.3958 325.229C79.6666 358.021 97.0625 359.688 121.521 346.333C141.542 335.375 160.625 314.542 160.625 314.542Z" fill="#37474F"/>
<path opacity="0.1" d="M100.604 347.167V354.063C99.1645 354.23 97.7103 354.23 96.2708 354.063V347.208L100.604 347.167Z" fill="black"/>
<path d="M187.583 260.417C188.432 258.826 189.459 257.337 190.646 255.979C191.796 254.61 193.088 253.367 194.5 252.271C193.646 253.852 192.619 255.334 191.437 256.688C190.293 258.068 189.001 259.319 187.583 260.417V260.417Z" fill="#263238"/>
<path d="M164.562 304.958C166.771 299.854 169.125 294.833 171.521 289.833C173.917 284.833 176.417 279.896 178.875 274.917C181.333 269.938 183.938 265.063 186.563 260.188C189.188 255.313 191.833 250.438 194.646 245.604C192.438 250.688 190.063 255.708 187.688 260.708C185.313 265.708 182.771 270.646 180.333 275.625C177.896 280.604 175.271 285.479 172.646 290.354C170.021 295.229 167.417 300.167 164.562 304.958Z" fill="#263238"/>
<path d="M225.75 220.125C218.396 222.604 202.667 211.5 196.583 202.646C196.187 202.021 196.583 195.208 196.583 186.875C196.583 181.833 196.583 176.208 196 171.104L228.833 175.917C227.593 182.492 227.166 189.195 227.563 195.875C227.631 196.582 227.77 197.28 227.979 197.958C227.993 198.069 227.993 198.181 227.979 198.292C229.062 202.229 232.771 217.729 225.75 220.125Z" fill="#F7A9A0"/>
<path d="M227.958 197.958C227.958 197.958 227.958 198.167 227.958 198.292C226.883 198.545 225.789 198.712 224.687 198.792C206.063 200.083 199.562 177.75 198.125 171.417L206.333 172.625L228.75 175.938C227.509 182.506 227.082 189.202 227.479 195.875C227.578 196.582 227.739 197.279 227.958 197.958Z" fill="#263238"/>
<path d="M227.667 196.5L224.312 216.521L196.354 198.313L191.5 207.188C191.5 207.188 221.958 239.292 221.729 237.583L225.896 220.063L239.25 228.708L232.292 201.188L227.667 196.5Z" fill="#EBEBEB"/>
<path d="M236.542 214.854C235.25 210.354 234.062 205.771 232.562 201.333C232.562 201.188 232.229 201.167 232.229 201.333C232.229 205.958 237.354 223.146 238.25 227.333C237.687 226.958 225.979 219.854 225.917 220.021C224.812 222.896 221.75 235.667 221.625 236.792C216.812 231.708 198.583 213.313 193.167 208.667C193.135 208.647 193.097 208.639 193.06 208.643C193.023 208.648 192.988 208.665 192.962 208.691C192.935 208.717 192.919 208.752 192.914 208.789C192.91 208.826 192.918 208.864 192.937 208.896C197.417 214.417 221.646 239.25 221.917 239.104C223.621 233.013 225.012 226.838 226.083 220.604C228.167 222.25 240.229 230.521 240.104 229.833C239.179 224.782 237.989 219.782 236.542 214.854V214.854Z" fill="#263238"/>
<path d="M188.833 134C186.375 145.958 195.646 178.979 204.625 185.688C217.625 195.438 237.354 194.646 245.229 179.438C252.875 164.625 240.021 121.813 230.146 115.854C215.604 107.042 192.417 116.333 188.833 134Z" fill="#F7A9A0"/>
<path d="M220.583 151.979C220.583 151.979 220.437 152.125 220.583 152.229C221.25 154.438 221.667 157.083 219.854 158.479C219.854 158.479 219.854 158.625 219.854 158.479C222.167 157.458 221.583 153.958 220.583 151.979Z" fill="#263238"/>
<path d="M217.958 150.208C214.292 150.917 216 158.167 219.396 157.521C222.792 156.875 221.021 149.604 217.958 150.208Z" fill="#263238"/>
<path d="M233.042 148.854C233.042 148.854 233.25 148.854 233.271 149C233.708 151.271 234.625 153.792 236.833 154.063V154.188C234.271 154.417 233.104 151.063 233.042 148.854Z" fill="#263238"/>
<path d="M234.5 146.042C238.063 144.917 240.042 152.104 236.75 153.146C233.458 154.188 231.521 146.979 234.5 146.042Z" fill="#263238"/>
<path d="M215.062 148.938C215.876 148.284 216.655 147.589 217.396 146.854C218.345 146.281 219.078 145.409 219.479 144.375C219.536 144.032 219.477 143.679 219.311 143.374C219.145 143.068 218.881 142.827 218.562 142.688C217.891 142.499 217.18 142.494 216.506 142.673C215.832 142.853 215.218 143.21 214.729 143.708C213.631 144.591 212.891 145.842 212.646 147.229C212.611 147.53 212.658 147.834 212.782 148.11C212.906 148.386 213.101 148.624 213.348 148.799C213.595 148.974 213.885 149.079 214.186 149.103C214.488 149.127 214.791 149.07 215.062 148.938V148.938Z" fill="#263238"/>
<path d="M236.958 141.104C235.938 141.167 234.916 141.167 233.896 141.104C232.816 141.224 231.727 140.99 230.792 140.438C230.529 140.207 230.351 139.895 230.287 139.551C230.223 139.207 230.276 138.852 230.438 138.542C230.841 137.973 231.391 137.523 232.029 137.241C232.667 136.959 233.37 136.854 234.063 136.938C235.489 136.872 236.888 137.349 237.979 138.271C238.201 138.495 238.356 138.777 238.424 139.085C238.492 139.393 238.472 139.714 238.365 140.01C238.258 140.307 238.069 140.567 237.82 140.761C237.571 140.955 237.272 141.074 236.958 141.104V141.104Z" fill="#263238"/>
<path d="M223.5 165.708C224.278 166.468 225.206 167.057 226.225 167.437C227.244 167.817 228.331 167.981 229.417 167.917C230.36 167.886 231.293 167.717 232.188 167.417L232.708 167.229L233.188 167.042C233.3 166.984 233.392 166.893 233.451 166.781C233.511 166.669 233.535 166.542 233.521 166.417V166.417C233.533 166.341 233.533 166.264 233.521 166.188V166.188V166C233.167 164.25 232.396 161.646 232.396 161.646C233.083 161.813 236.563 162.521 236.396 161.646C234.386 153.89 231.594 146.358 228.063 139.167C227.958 138.938 227.583 139.167 227.667 139.313C229.5 146.5 232.583 153.313 234.542 160.5C233.269 160.227 231.964 160.143 230.667 160.25C230.438 160.375 232.271 165.229 232.375 166.021C230.991 166.499 229.524 166.692 228.063 166.588C226.602 166.484 225.178 166.086 223.875 165.417C223.458 165.375 223.333 165.563 223.5 165.708Z" fill="#263238"/>
<path d="M231.146 167.292C230.401 168.678 229.31 169.848 227.979 170.688C227.243 171.12 226.393 171.317 225.542 171.25C223.687 171.063 223.458 169.438 223.458 167.979C223.51 167.207 223.657 166.444 223.896 165.708C226.078 167.005 228.621 167.561 231.146 167.292V167.292Z" fill="#263238"/>
<path d="M227.979 170.688C227.243 171.12 226.393 171.317 225.542 171.25C223.687 171.063 223.458 169.438 223.458 167.979C224.408 167.841 225.377 168.034 226.201 168.528C227.025 169.021 227.653 169.784 227.979 170.688V170.688Z" fill="#FF98B9"/>
<path d="M241.333 128.479C231.042 139.646 211.438 130.812 211.438 130.812C211.009 133.717 209.655 136.406 207.575 138.478C205.495 140.55 202.802 141.895 199.896 142.313C199.896 142.313 202.229 163.542 196.792 164.75C188.458 166.604 179.438 139 180.792 132.854C182.146 126.708 188.854 123.688 188.854 123.688C188.848 120.152 190.189 116.748 192.604 114.167C197.292 108.542 218.188 110 218.188 110C218.712 107.129 219.896 104.419 221.646 102.083C222.065 101.509 222.595 101.025 223.206 100.66C223.816 100.296 224.494 100.059 225.199 99.9639C225.903 99.8686 226.62 99.9167 227.306 100.106C227.991 100.294 228.631 100.62 229.188 101.062C228.506 102.826 228.228 104.719 228.375 106.604C228.792 112.854 233.729 111.75 232.417 106.271C232.002 104.203 230.855 102.354 229.188 101.062C230.813 96.8958 234.521 94.8125 237.375 96.1875C242.563 98.5833 249.896 119.146 241.333 128.479Z" fill="#263238"/>
<path d="M218.5 163.521C216.64 163.77 214.747 163.491 213.037 162.717C211.328 161.942 209.87 160.704 208.83 159.141C207.79 157.579 207.21 155.756 207.155 153.88C207.101 152.004 207.574 150.15 208.521 148.53C209.469 146.91 210.852 145.589 212.514 144.716C214.175 143.844 216.049 143.455 217.92 143.596C219.792 143.736 221.586 144.399 223.099 145.509C224.613 146.619 225.784 148.132 226.479 149.875V149.875C227.048 151.291 227.286 152.818 227.174 154.339C227.062 155.861 226.604 157.336 225.834 158.653C225.063 159.97 224.002 161.094 222.731 161.937C221.46 162.781 220.013 163.323 218.5 163.521V163.521ZM216.042 144.979C215.328 145.087 214.629 145.276 213.958 145.542C211.928 146.374 210.292 147.949 209.382 149.945C208.472 151.941 208.357 154.209 209.061 156.288C209.764 158.366 211.233 160.098 213.169 161.131C215.104 162.164 217.361 162.421 219.479 161.849C221.597 161.277 223.417 159.919 224.57 158.052C225.722 156.186 226.12 153.95 225.682 151.8C225.244 149.65 224.003 147.748 222.212 146.481C220.421 145.214 218.215 144.677 216.042 144.979V144.979Z" fill="#455A64"/>
<path d="M240.333 157.833C236.521 158.146 232.729 154.521 231.687 149.5C231.149 147.059 231.382 144.511 232.354 142.208C232.727 141.212 233.347 140.327 234.157 139.638C234.967 138.948 235.94 138.477 236.983 138.268C238.026 138.06 239.105 138.121 240.118 138.446C241.131 138.77 242.044 139.349 242.771 140.125C244.568 141.868 245.784 144.123 246.25 146.583C247.333 151.979 244.958 157 240.917 157.875L240.333 157.833ZM237.771 139.333H237.271C236.44 139.545 235.671 139.952 235.03 140.521C234.389 141.09 233.892 141.804 233.583 142.604C232.707 144.64 232.502 146.903 233 149.063C233.937 153.75 237.396 157.042 240.729 156.354C244.062 155.667 245.937 151.333 245 146.625C244.597 144.45 243.526 142.455 241.937 140.917C241.385 140.369 240.722 139.944 239.993 139.671C239.264 139.398 238.485 139.283 237.708 139.333H237.771Z" fill="#455A64"/>
<path d="M226.437 151.063L225.354 150.292C226.5 148.688 229.521 146.125 232.5 148.083L231.792 149.208C229.083 147.479 226.542 150.938 226.437 151.063Z" fill="#455A64"/>
<path d="M183.792 164.563L182.5 164.271C182.625 163.646 183.958 158.292 186.667 157.083C189.375 155.875 207.083 153.167 207.854 153.042L208.063 154.375C202.938 155.167 189.208 157.438 187.229 158.313C185.25 159.188 184.083 163.104 183.792 164.563Z" fill="#455A64"/>
<path d="M200.042 158.917C200.042 158.917 191.229 148.938 186.604 152.208C181.979 155.479 189.479 170.521 195.5 172.021C196.259 172.266 197.059 172.356 197.854 172.284C198.648 172.212 199.419 171.981 200.122 171.603C200.824 171.226 201.443 170.71 201.942 170.087C202.44 169.464 202.807 168.747 203.021 167.979L200.042 158.917Z" fill="#F7A9A0"/>
<path d="M188.875 156.458V156.625C193.042 157.812 195.667 161.312 197.604 164.958C197.322 164.58 196.961 164.267 196.546 164.041C196.132 163.815 195.673 163.682 195.202 163.65C194.731 163.619 194.258 163.689 193.817 163.858C193.376 164.026 192.976 164.288 192.646 164.625C192.646 164.625 192.646 164.875 192.792 164.833C193.483 164.51 194.259 164.415 195.007 164.561C195.756 164.707 196.439 165.087 196.958 165.646C197.831 166.553 198.593 167.56 199.229 168.646C199.458 168.979 200.104 168.646 199.917 168.312C199.292 163.125 194.5 156.354 188.875 156.458Z" fill="#263238"/>
<path d="M194.896 210.812C194.479 214.979 193.938 218.979 193.458 223.042C192.979 227.104 192.375 231.187 191.833 235.25L191.042 234.396C193.958 234.146 196.896 233.854 199.813 233.667L208.583 233.042L210.208 232.917L209.521 234.396C206.813 240.146 204.167 245.896 201.354 251.604L200.958 250.292C207.917 254.292 214.938 258.188 221.792 262.292C228.646 266.396 235.646 270.438 242.458 274.792C235.271 271.188 228.167 267.458 221.083 263.667C214 259.875 206.979 256 199.938 252.146L199.125 251.708L199.521 250.854C202.167 245.083 204.979 239.396 207.75 233.687L208.667 235.042L199.896 235.563C196.958 235.75 194.021 235.833 191.104 235.979H190.146L190.313 235.063C191.042 231.021 191.729 226.979 192.396 222.958C193.063 218.938 194.063 214.813 194.896 210.812Z" fill="#263238"/>
<path d="M233.625 206.646C234.917 208.167 236.167 209.708 237.417 211.271C238.667 212.833 239.938 214.354 241.146 215.938L248.5 225.375L249.417 226.563L247.896 226.771L239.354 227.958L239.833 226.188C243.479 229.021 247.125 231.854 250.729 234.75L251.208 235.146L251.104 235.75C249.812 242.25 248.424 248.743 246.937 255.229C245.521 261.729 244.042 268.208 242.417 274.646C243.333 268.063 244.375 261.5 245.5 254.958C246.625 248.417 247.771 241.875 249.021 235.354L249.375 236.354C245.729 233.521 242.125 230.625 238.521 227.75L236.625 226.25L239.021 225.979L247.583 225.021L246.979 226.417L240.333 216.625C239.188 215 238.104 213.313 237 211.667C235.896 210.021 234.687 208.333 233.625 206.646Z" fill="#263238"/>
<path d="M260.583 234.563L242.271 348.167L224.604 345.854L237.354 231.521L260.583 234.563Z" fill="#263238"/>
<path d="M253.375 199.375C250.958 199.056 248.501 199.216 246.146 199.846C243.791 200.477 241.583 201.565 239.648 203.049C237.714 204.533 236.09 206.383 234.871 208.495C233.651 210.606 232.86 212.937 232.542 215.354L231.708 221.729C231.413 223.992 231.566 226.29 232.159 228.494C232.752 230.697 233.773 232.762 235.164 234.571C236.554 236.38 238.288 237.897 240.265 239.036C242.243 240.175 244.425 240.913 246.688 241.208L249.021 241.521C251.283 241.816 253.582 241.663 255.785 241.071C257.989 240.478 260.054 239.457 261.863 238.066C263.672 236.675 265.189 234.941 266.328 232.964C267.466 230.987 268.205 228.804 268.5 226.542L269.333 220.188C269.653 217.773 269.493 215.319 268.864 212.967C268.234 210.614 267.148 208.408 265.666 206.475C264.184 204.543 262.336 202.921 260.227 201.703C258.118 200.484 255.79 199.693 253.375 199.375V199.375Z" fill="#A6A6A6"/>
<path d="M270.317 222.476L231.193 217.353L230.668 221.361L269.793 226.484L270.317 222.476Z" fill="#C7C7C7"/>
<path d="M269.085 240.825L228.422 234.821L222.676 273.732L263.339 279.737L269.085 240.825Z" fill="#6DA59A"/>
<path d="M239.083 249.521C238.093 251.258 237.39 253.143 237 255.104L232 254.354V254.208C232 254.083 232 253.958 232 253.833C232.171 253.16 232.387 252.499 232.646 251.854C233.084 250.808 233.628 249.81 234.271 248.875H234.396L239.042 249.583L239.083 249.521Z" fill="white"/>
<path d="M236.958 262.396L232.354 261.688C231.981 260.478 231.771 259.224 231.729 257.958C231.687 257.348 231.687 256.735 231.729 256.125V255.917L236.687 256.667C236.687 256.667 236.687 256.667 236.687 256.771C236.687 257.188 236.687 257.604 236.583 258.021C236.479 258.438 236.583 259.354 236.583 260C236.642 260.805 236.753 261.605 236.917 262.396H236.958Z" fill="white"/>
<path d="M256.5 266.875C256.002 267.426 255.466 267.941 254.896 268.417C254.199 268.983 253.453 269.485 252.667 269.917C251.894 270.336 251.085 270.685 250.25 270.958C249.432 271.21 248.596 271.398 247.75 271.521C247.059 271.611 246.363 271.646 245.667 271.625H245.354H245.479C247.031 270.865 248.441 269.843 249.646 268.604C250.345 267.899 250.98 267.132 251.542 266.313C251.561 266.303 251.583 266.298 251.604 266.298C251.626 266.298 251.647 266.303 251.667 266.313L256.396 267.042L256.5 266.875Z" fill="white"/>
<path d="M253.104 257.563L246.583 256.646L247.458 250.875L252.542 251.646C252.857 252.802 253.039 253.99 253.083 255.188C253.083 255.813 253.083 256.438 253.083 257.063C253.125 257.229 253.125 257.375 253.104 257.563Z" fill="white"/>
<path d="M252.833 259.083C252.843 259.222 252.843 259.361 252.833 259.5C252.833 259.813 252.688 260.125 252.604 260.438C252.521 260.75 252.333 261.313 252.167 261.729C251.828 262.663 251.403 263.563 250.896 264.417C250.896 264.417 250.896 264.417 250.75 264.417L245.562 263.625L246.396 258.042L252.833 259.083Z" fill="white"/>
<path d="M245.896 250.604L245.021 256.375L238.562 255.396C238.562 255.25 238.562 255.104 238.562 254.958C238.562 254.813 238.708 254.333 238.812 254.021C238.917 253.708 239.125 253.063 239.313 252.583C239.671 251.644 240.125 250.743 240.667 249.896C240.667 249.896 240.667 249.896 240.792 249.896L245.708 250.646L245.896 250.604Z" fill="white"/>
<path d="M244.771 257.938L243.958 263.375L238.896 262.625C238.87 262.621 238.845 262.609 238.827 262.59C238.808 262.571 238.796 262.547 238.792 262.521C238.543 261.525 238.396 260.505 238.354 259.479C238.354 258.958 238.354 258.417 238.354 257.896C238.354 257.375 238.354 257.208 238.354 256.854L244.604 257.813C244.604 257.813 244.792 257.875 244.771 257.938Z" fill="white"/>
<path d="M260.104 258.729L254.687 257.917C254.886 255.91 254.759 253.883 254.312 251.917V251.917L259.271 252.667C259.271 252.667 259.271 252.667 259.375 252.667C259.789 253.898 260.027 255.181 260.083 256.479C260.126 257.173 260.126 257.869 260.083 258.563L260.104 258.729Z" fill="white"/>
<path d="M259.875 260.104C259.875 260.243 259.875 260.368 259.875 260.479C259.875 260.979 259.625 261.438 259.479 261.917C259.103 263.007 258.599 264.049 257.979 265.021L257.688 265.479C257.688 265.479 257.688 265.479 257.583 265.479L252.625 264.729L252.896 264.25C253.314 263.431 253.669 262.581 253.958 261.708C254.173 261.081 254.347 260.441 254.479 259.792C254.522 259.641 254.556 259.488 254.583 259.333V259.333L259.875 260.104Z" fill="white"/>
<path d="M258.75 251L254.021 250.271C254.005 250.28 253.987 250.285 253.969 250.285C253.95 250.285 253.932 250.28 253.917 250.271C253.479 248.921 252.87 247.632 252.104 246.438C251.643 245.751 251.128 245.103 250.562 244.5L249.667 243.646V243.542C251.298 243.963 252.842 244.669 254.229 245.625C256.168 247.004 257.723 248.854 258.75 251Z" fill="white"/>
<path d="M241.854 271.083H241.708C241.197 270.937 240.695 270.756 240.208 270.542C239.293 270.166 238.426 269.684 237.625 269.104C236.695 268.462 235.848 267.706 235.104 266.854C234.566 266.255 234.085 265.606 233.667 264.917C233.356 264.393 233.078 263.85 232.833 263.292V263.292L237.25 263.958C237.557 264.954 237.962 265.917 238.458 266.833C238.918 267.675 239.447 268.477 240.042 269.229C240.526 269.856 241.063 270.442 241.646 270.979L241.854 271.083Z" fill="white"/>
<path d="M246.042 242.979L245.313 243.375C244.448 243.85 243.632 244.409 242.875 245.042C241.837 245.861 240.918 246.822 240.146 247.896L240 248.104H239.771L235.458 247.458C236.814 245.994 238.462 244.831 240.296 244.045C242.13 243.259 244.109 242.867 246.104 242.896V242.896L246.042 242.979Z" fill="white"/>
<path d="M249.833 265.875C249.066 266.851 248.184 267.732 247.208 268.5C246.341 269.183 245.397 269.763 244.396 270.229L245.167 265.167L249.833 265.875Z" fill="white"/>
<path d="M243.708 264.979L242.958 269.938C241.29 268.374 240.012 266.44 239.229 264.292L243.708 264.979Z" fill="white"/>
<path d="M252.083 249.979L247.604 249.292L248.333 244.563C249.123 245.304 249.822 246.136 250.417 247.042C251.079 247.956 251.638 248.941 252.083 249.979V249.979Z" fill="white"/>
<path d="M246.812 244.479L246.104 249.104L241.812 248.458C243.142 246.756 244.855 245.393 246.812 244.479V244.479Z" fill="white"/>
<path d="M91.7083 351.292C105.062 359.625 133.375 353.521 194.771 340.875C203.25 339.125 202.25 274.917 193.083 276.292C181.562 278.063 137.208 287.417 134.042 288.521C107.417 297.771 82.6666 345.563 91.7083 351.292Z" fill="#F7A9A0"/>
<path d="M269.167 265.438C270.132 267.234 270.524 269.284 270.29 271.31C270.055 273.337 269.205 275.242 267.854 276.771C270.926 278.375 273.337 281.008 274.667 284.208C276.75 289.938 268.646 295.708 268.646 295.708C271.475 298.039 273.537 301.168 274.562 304.688C275.979 310.375 268.667 317.354 268.667 317.354C270.083 320.935 270.165 324.906 268.896 328.542C265.104 338.104 249.667 341.042 239.875 342.854C230.083 344.667 200.479 341.021 194.771 340.875L182 278.083C182 278.083 223.5 257 235.333 256.396C245.271 255.875 265.208 258.729 269.167 265.438Z" fill="#F7A9A0"/>
<path d="M267.229 275.854C256.479 273.771 245.75 275.146 234.938 275.854C234.888 275.854 234.84 275.874 234.805 275.909C234.77 275.944 234.75 275.992 234.75 276.042C234.75 276.091 234.77 276.139 234.805 276.174C234.84 276.209 234.888 276.229 234.938 276.229C245.667 275.438 256.417 276.771 267.146 276.417C267.417 276.354 267.521 275.896 267.229 275.854Z" fill="#263238"/>
<path d="M268.271 294.917C265.788 294.705 263.288 294.817 260.833 295.25C258.208 295.542 255.604 295.896 252.979 296.271C247.75 297.042 242.562 297.917 237.375 298.958C237.146 298.958 237.146 299.354 237.375 299.333C242.583 298.583 247.792 297.896 253.042 297.375C255.667 297.097 258.292 296.847 260.917 296.625C263.404 296.573 265.877 296.244 268.292 295.646C268.373 295.624 268.445 295.575 268.495 295.508C268.545 295.44 268.571 295.357 268.569 295.273C268.567 295.189 268.536 295.108 268.482 295.043C268.428 294.979 268.353 294.934 268.271 294.917V294.917Z" fill="#263238"/>
<path d="M268.438 317.375C266.187 317.214 263.925 317.439 261.75 318.042L254.625 319.188C249.875 319.938 245.104 320.667 240.333 321.271C240.104 321.271 240.125 321.667 240.333 321.646C245.208 321.083 250.063 320.583 254.917 319.979C257.313 319.688 259.687 319.375 262.062 319.042C264.26 318.96 266.426 318.487 268.458 317.646C268.485 317.633 268.507 317.613 268.521 317.587C268.536 317.562 268.543 317.533 268.54 317.503C268.538 317.474 268.527 317.446 268.509 317.423C268.49 317.4 268.466 317.384 268.438 317.375V317.375Z" fill="#263238"/>
<path d="M185.625 275.104L159.229 352.479C159.229 352.479 104.208 362 91.4375 352.229C83.1041 345.792 106.5 295.75 136.687 287.813L185.625 275.104Z" fill="#37474F"/>
<path d="M106.417 311.063C112.025 302.984 119.238 296.148 127.604 290.979C138.687 284.271 178 276.396 185.542 274.979C185.687 274.979 185.792 275.188 185.542 275.229C179.458 277.021 137.625 286.646 128.104 292.292C120.06 297.572 112.789 303.946 106.5 311.229C106.521 311.354 106.333 311.208 106.417 311.063Z" fill="#263238"/>
<path d="M141.771 348.875C144.229 340.354 147.146 331.979 150.104 323.604C153.063 315.229 155.979 306.938 159.125 298.604C160.896 293.917 162.646 289.208 164.604 284.583C164.604 284.458 164.854 284.583 164.833 284.583C162.375 293.104 159.479 301.5 156.5 309.875C153.521 318.25 150.646 326.542 147.604 334.875C145.875 339.583 144.063 344.271 142.125 348.896C142.104 349.229 141.708 349.125 141.771 348.875Z" fill="#263238"/>
<path d="M147.5 354.167C151.354 353.167 155.271 352.625 159.125 352.083L158.813 352.375C159.417 350.854 160.042 349.354 160.792 347.896C160.493 349.498 160.111 351.084 159.646 352.646V352.875H159.375C155.508 353.805 151.539 354.239 147.562 354.167H147.5Z" fill="#263238"/>
<path d="M76.6875 82.0626C76.6864 90.4871 79.0264 98.7462 83.4464 105.918C87.8663 113.09 94.1923 118.893 101.718 122.678C109.244 126.464 117.674 128.084 126.068 127.357C134.461 126.63 142.487 123.586 149.25 118.563L171.583 124.25L162.313 103.417C165.544 97.3197 167.344 90.5671 167.578 83.6709C167.812 76.7746 166.473 69.9156 163.662 63.6137C160.851 57.3119 156.643 51.7326 151.355 47.2988C146.068 42.865 139.841 39.6931 133.146 38.0233C126.451 36.3536 119.463 36.23 112.713 37.6618C105.963 39.0936 99.6275 42.0433 94.1868 46.2872C88.746 50.5312 84.3428 55.9581 81.3108 62.1565C78.2789 68.355 76.6978 75.1623 76.6875 82.0626V82.0626Z" fill="#6DA59A"/>
<path d="M76.6874 82.0625C76.7486 90.4707 79.1353 98.6979 83.5833 105.833C84.6797 107.612 85.8906 109.316 87.2083 110.938C88.5631 112.521 90.0175 114.018 91.5624 115.417C94.6232 118.252 98.0924 120.612 101.854 122.417C107.446 125.223 113.58 126.78 119.833 126.979C121.916 127.103 124.006 127.068 126.083 126.875C134.347 126.071 142.224 122.984 148.833 117.958L149.125 117.75H149.479L171.75 123.313L170.687 124.583L161.333 103.875L161.125 103.438L161.354 103C164.513 97.047 166.3 90.4625 166.583 83.7292C166.855 76.9705 165.586 70.2386 162.875 64.0417C160.11 57.8597 156.038 52.351 150.937 47.8959C145.766 43.4666 139.653 40.2746 133.062 38.5625C126.455 36.8215 119.541 36.5936 112.833 37.8959C106.117 39.2631 99.7903 42.1099 94.3124 46.2292C88.8501 50.4749 84.4249 55.9072 81.3714 62.1152C78.3179 68.3232 76.7162 75.1443 76.6874 82.0625V82.0625ZM76.6874 82.0625C76.7092 75.1623 78.2886 68.3561 81.3079 62.1515C84.3272 55.947 88.7085 50.5042 94.1249 46.2292C102.377 39.7041 112.615 36.2031 123.134 36.3092C133.654 36.4154 143.819 40.1223 151.937 46.8125C157.349 51.3447 161.665 57.0425 164.562 63.4792C167.454 69.9187 168.827 76.936 168.578 83.9902C168.329 91.0445 166.463 97.9473 163.125 104.167V103.292L172.312 124.125L173.083 125.875L171.25 125.375L149.021 119.542L149.646 119.417C142.751 124.445 134.592 127.453 126.083 128.104C124.004 128.277 121.913 128.277 119.833 128.104C109.222 127.47 99.1641 123.153 91.3958 115.896C89.8518 114.48 88.4042 112.963 87.0624 111.354C85.7464 109.722 84.5423 108.003 83.4583 106.208C79.0006 98.9457 76.6558 90.5841 76.6874 82.0625V82.0625Z" fill="#263238"/>
<path d="M104.458 83.9584C104.458 84.7495 104.224 85.5229 103.784 86.1807C103.345 86.8385 102.72 87.3511 101.989 87.6539C101.258 87.9566 100.454 88.0359 99.6779 87.8815C98.902 87.7272 98.1892 87.3462 97.6298 86.7868C97.0704 86.2274 96.6895 85.5147 96.5351 84.7387C96.3808 83.9628 96.46 83.1585 96.7627 82.4276C97.0655 81.6967 97.5782 81.072 98.236 80.6325C98.8938 80.193 99.6671 79.9584 100.458 79.9584C100.984 79.9584 101.504 80.0618 101.989 80.2629C102.474 80.4639 102.915 80.7585 103.287 81.1299C103.658 81.5014 103.953 81.9423 104.154 82.4276C104.355 82.9129 104.458 83.4331 104.458 83.9584V83.9584Z" fill="#263238"/>
<path d="M125.437 83.9584C125.437 84.7504 125.202 85.5246 124.762 86.1828C124.321 86.841 123.695 87.3537 122.963 87.6558C122.231 87.958 121.426 88.0359 120.649 87.8799C119.873 87.7239 119.16 87.3408 118.602 86.7793C118.043 86.2179 117.664 85.5032 117.512 84.7259C117.36 83.9486 117.442 83.1437 117.748 82.4131C118.054 81.6826 118.57 81.0593 119.23 80.6223C119.891 80.1853 120.666 79.9542 121.458 79.9584C121.983 79.9584 122.502 80.062 122.986 80.2632C123.47 80.4645 123.91 80.7595 124.279 81.1312C124.649 81.5029 124.942 81.944 125.141 82.4292C125.339 82.9144 125.44 83.4341 125.437 83.9584V83.9584Z" fill="#263238"/>
<path d="M146.438 83.9584C146.437 84.7486 146.203 85.5211 145.765 86.1785C145.326 86.8358 144.703 87.3485 143.973 87.6518C143.243 87.9552 142.44 88.0356 141.665 87.883C140.889 87.7303 140.177 87.3514 139.616 86.7941C139.056 86.2367 138.674 85.526 138.517 84.7514C138.36 83.9769 138.436 83.1733 138.736 82.442C139.036 81.7107 139.545 81.0846 140.2 80.6426C140.855 80.2006 141.626 79.9625 142.417 79.9584C142.944 79.9556 143.466 80.0571 143.954 80.2569C144.442 80.4566 144.885 80.7508 145.259 81.1225C145.632 81.4943 145.929 81.9361 146.131 82.4228C146.333 82.9095 146.438 83.4313 146.438 83.9584V83.9584Z" fill="#263238"/>
<path d="M311.604 274.25C308.489 278.853 306.807 284.275 306.771 289.833C306.771 309.604 328.479 325.625 355.229 325.625C381.979 325.625 403.667 309.604 403.667 289.833C403.667 270.063 382 254.063 355.229 254.063C343.369 253.883 331.737 257.336 321.896 263.958L305.229 259.792L311.604 274.25Z" fill="#FFFEFD"/>
<path d="M311.604 274.25C308.758 278.655 307.18 283.758 307.042 289C307.012 294.218 308.456 299.338 311.208 303.771C316.954 312.491 325.629 318.868 335.667 321.75C345.573 324.869 356.087 325.548 366.312 323.729C371.412 322.89 376.365 321.326 381.021 319.083C385.651 316.893 389.877 313.934 393.521 310.333C397.172 306.774 399.897 302.375 401.458 297.521C402.995 292.685 403.068 287.502 401.667 282.625C400.165 277.75 397.506 273.311 393.917 269.688C390.287 266.027 386.06 263.011 381.417 260.771C376.8 258.513 371.892 256.907 366.833 256C361.75 255.022 356.566 254.665 351.396 254.938C340.993 255.338 330.902 258.596 322.229 264.354L322.042 264.479H321.833L305.167 260.021L305.458 259.667L311.604 274.25ZM311.604 274.25L304.917 259.813L304.708 259.354L305.208 259.479L321.875 263.5H321.479C330.257 257.446 340.54 253.942 351.187 253.375C361.838 252.578 372.514 254.537 382.187 259.063C387.028 261.364 391.433 264.487 395.208 268.292C399.061 272.115 401.921 276.82 403.542 282C405.098 287.256 405.047 292.857 403.396 298.083C401.696 303.235 398.781 307.901 394.896 311.688C391.057 315.429 386.612 318.493 381.75 320.75C376.925 323.027 371.806 324.618 366.542 325.479C361.307 326.371 355.984 326.629 350.687 326.25C345.39 325.835 340.163 324.771 335.125 323.083C330.073 321.419 325.314 318.973 321.021 315.833C316.682 312.734 313.041 308.76 310.333 304.167C307.669 299.537 306.356 294.254 306.542 288.917C306.827 283.651 308.581 278.571 311.604 274.25V274.25Z" fill="#263238"/>
<path d="M372.646 289.833C372.65 288.841 372.948 287.873 373.502 287.05C374.056 286.227 374.842 285.586 375.76 285.21C376.677 284.833 377.686 284.736 378.659 284.932C379.631 285.128 380.524 285.608 381.224 286.311C381.924 287.014 382.4 287.909 382.592 288.882C382.785 289.856 382.684 290.864 382.303 291.78C381.923 292.697 381.279 293.48 380.454 294.03C379.629 294.581 378.659 294.875 377.667 294.875C377.006 294.875 376.351 294.745 375.74 294.491C375.13 294.237 374.575 293.866 374.109 293.397C373.642 292.929 373.273 292.373 373.022 291.761C372.771 291.15 372.643 290.494 372.646 289.833V289.833Z" fill="#263238"/>
<path d="M350.187 289.833C350.187 288.836 350.483 287.862 351.037 287.032C351.591 286.203 352.378 285.557 353.3 285.176C354.221 284.794 355.235 284.694 356.213 284.889C357.191 285.083 358.089 285.563 358.794 286.268C359.499 286.973 359.979 287.872 360.174 288.85C360.368 289.828 360.269 290.842 359.887 291.763C359.505 292.684 358.859 293.471 358.03 294.025C357.201 294.579 356.226 294.875 355.229 294.875C354.566 294.878 353.909 294.749 353.296 294.497C352.684 294.245 352.127 293.873 351.658 293.405C351.189 292.936 350.818 292.379 350.566 291.766C350.313 291.153 350.185 290.496 350.187 289.833V289.833Z" fill="#263238"/>
<path d="M327.833 289.833C327.837 288.841 328.135 287.873 328.69 287.05C329.244 286.227 330.029 285.586 330.947 285.21C331.865 284.833 332.874 284.736 333.846 284.932C334.819 285.128 335.712 285.608 336.412 286.311C337.112 287.014 337.588 287.909 337.78 288.882C337.972 289.856 337.871 290.864 337.491 291.78C337.11 292.697 336.467 293.48 335.641 294.03C334.816 294.581 333.846 294.875 332.854 294.875C332.193 294.875 331.538 294.745 330.928 294.491C330.317 294.237 329.763 293.866 329.296 293.397C328.83 292.929 328.461 292.373 328.209 291.761C327.958 291.15 327.831 290.494 327.833 289.833V289.833Z" fill="#263238"/>
<path d="M823.177 447.995L840.3 432.577L750.33 332.655L733.207 348.073L823.177 447.995Z" fill="#C7C7C7"/>
<path d="M864.521 502.729L890.417 479.417L827.583 409.625L801.688 432.938L864.521 502.729Z" fill="#263238"/>
<path d="M655.625 370.229C635.257 366.207 616.539 356.236 601.837 341.577C587.135 326.917 577.11 308.228 573.03 287.871C568.949 267.515 570.996 246.406 578.912 227.212C586.828 208.019 600.257 191.604 617.502 180.043C634.746 168.481 655.032 162.293 675.793 162.26C696.555 162.226 716.86 168.35 734.141 179.856C751.423 191.362 764.904 207.734 772.882 226.902C780.859 246.069 782.974 267.172 778.958 287.542C773.547 314.85 757.52 338.896 734.397 354.399C711.273 369.902 682.943 375.595 655.625 370.229V370.229ZM657.958 358.437C675.996 361.996 694.685 360.126 711.66 353.064C728.635 346.001 743.134 334.063 753.325 318.76C763.515 303.457 768.939 285.476 768.91 267.09C768.881 248.704 763.4 230.74 753.161 215.469C742.922 200.199 728.385 188.307 711.388 181.298C694.39 174.289 675.696 172.478 657.67 176.094C639.643 179.71 623.094 188.59 610.114 201.612C597.134 214.634 588.308 231.212 584.75 249.25C580.008 273.434 585.053 298.512 598.778 318.981C612.502 339.45 633.785 353.64 657.958 358.437V358.437Z" fill="#37474F"/>
<path d="M780.958 241.417C787.525 267.787 783.968 295.66 770.991 319.536C758.014 343.412 736.558 361.557 710.859 370.39C685.159 379.223 657.082 378.102 632.169 367.249C607.255 356.395 587.314 336.598 576.282 311.763C565.249 286.928 563.926 258.86 572.573 233.098C581.221 207.335 599.21 185.75 622.992 172.601C646.775 159.452 674.621 155.694 701.038 162.07C727.455 168.446 750.522 184.492 765.688 207.042C772.756 217.515 777.925 229.151 780.958 241.417V241.417ZM577 291.542C582.98 315.926 597.752 337.244 618.483 351.408C639.214 365.571 664.445 371.581 689.335 368.287C714.225 364.992 737.022 352.624 753.354 333.555C769.686 314.486 778.403 290.058 777.833 264.958C777.263 239.857 767.446 215.851 750.264 197.543C733.083 179.235 709.748 167.915 684.734 165.754C659.72 163.593 634.789 170.743 614.722 185.833C594.656 200.923 580.867 222.89 576 247.521C573.122 262.092 573.463 277.116 577 291.542V291.542ZM769.271 244.292C773.117 259.977 772.949 276.378 768.783 291.981C764.617 307.584 756.586 321.886 745.433 333.566C734.28 345.247 720.364 353.929 704.97 358.811C689.576 363.693 673.2 364.618 657.354 361.5V361.5C641.845 358.453 627.326 351.627 615.086 341.626C602.846 331.626 593.261 318.76 587.183 304.17C581.104 289.579 578.719 273.714 580.239 257.982C581.758 242.249 587.136 227.134 595.894 213.976C604.653 200.819 616.522 190.025 630.45 182.552C644.378 175.079 659.935 171.158 675.741 171.136C691.547 171.113 707.115 174.991 721.064 182.424C735.013 189.858 746.913 200.617 755.708 213.75C761.971 223.065 766.56 233.4 769.271 244.292V244.292ZM658.563 355.354C678.977 359.406 700.164 356.252 718.513 346.431C736.863 336.609 751.238 320.728 759.188 301.494C767.139 282.26 768.172 260.864 762.113 240.953C756.054 221.043 743.277 203.85 725.96 192.305C708.643 180.76 687.858 175.579 667.149 177.644C646.439 179.709 627.086 188.892 612.39 203.629C597.693 218.365 588.563 237.743 586.554 258.458C584.545 279.173 589.783 299.944 601.375 317.229C614.638 337.007 635.204 350.718 658.563 355.354V355.354Z" fill="#37474F"/>
<g opacity="0.2">
<path opacity="0.2" d="M586.75 262.562C585.831 280.201 590.162 297.717 599.197 312.894C608.232 328.071 621.564 340.229 637.507 347.83C653.451 355.431 671.29 358.134 688.77 355.597C706.25 353.06 722.585 345.397 735.71 333.577C748.835 321.757 758.16 306.311 762.507 289.191C766.854 272.071 766.027 254.047 760.131 237.398C754.235 220.748 743.535 206.22 729.383 195.651C715.231 185.083 698.264 178.947 680.625 178.021C668.91 177.406 657.188 179.105 646.129 183.021C635.07 186.937 624.891 192.993 616.173 200.844C607.456 208.695 600.37 218.186 595.322 228.776C590.273 239.366 587.361 250.847 586.75 262.562V262.562Z" fill="white"/>
<path opacity="0.2" d="M589 287.729C594.417 310.649 608.657 330.507 628.629 342.99C648.601 355.472 672.691 359.571 695.667 354.396L589 287.729Z" fill="#EBEBEB"/>
<path opacity="0.2" d="M615.333 201.542L761.458 292.813C763.478 286.035 764.688 279.042 765.063 271.979C765.503 263.852 764.802 255.703 762.979 247.771L655.104 180.375C640.256 183.914 626.563 191.202 615.333 201.542Z" fill="#EBEBEB"/>
<path opacity="0.2" d="M587.667 253.688L726.854 340.625C731.664 337.283 736.136 333.48 740.208 329.271L592 236.688C589.983 242.193 588.532 247.889 587.667 253.688Z" fill="#EBEBEB"/>
<path opacity="0.2" d="M607 210.438L757.208 304.188C757.667 303.208 758.104 302.104 758.521 301.208L609.083 207.979C608.417 208.729 607.688 209.583 607 210.438Z" fill="#EBEBEB"/>
<path opacity="0.2" d="M685.104 178.375L751.771 220.042C750.375 217.771 748.833 215.563 747.229 213.417L693.063 179.542C690.333 179.021 687.771 178.625 685.104 178.375Z" fill="#EBEBEB"/>
</g>
<path d="M658.042 337.083C648.44 334.93 639.384 330.824 631.438 325.021C627.389 322.133 623.635 318.853 620.229 315.229C616.843 311.548 613.809 307.559 611.167 303.312C606.018 294.712 602.745 285.12 601.563 275.167C600.43 265.394 601.173 255.495 603.75 246C603.648 255.51 604.527 265.004 606.375 274.333C607.368 278.878 608.719 283.336 610.417 287.667C612.046 291.98 614.09 296.124 616.521 300.042C621.358 307.978 627.403 315.112 634.438 321.187C641.644 327.408 649.568 332.744 658.042 337.083V337.083Z" fill="white"/>
</svg>
