<svg width="53" height="51" viewBox="0 0 53 51" fill="none" xmlns="http://www.w3.org/2000/svg">
<rect x="24" y="39" width="5" height="9" rx="2.5" fill="#B57E7E"/>
<path d="M23.459 3.55893C25.0557 1.69025 27.9443 1.69025 29.541 3.55893L36.8832 12.1515C39.1014 14.7474 37.2567 18.75 33.8422 18.75H19.1578C15.7433 18.75 13.8986 14.7474 16.1168 12.1515L23.459 3.55893Z" fill="#85E4D0"/>
<path d="M22.9369 9.64755C24.5354 7.74405 27.4646 7.74405 29.0631 9.64755L41.2652 24.1776C43.4508 26.7801 41.6006 30.75 38.2021 30.75H13.7979C10.3994 30.75 8.54923 26.7801 10.7348 24.1776L22.9369 9.64755Z" fill="#6DA59A"/>
<path d="M23.3845 16.8689C24.9856 14.8806 28.0144 14.8806 29.6155 16.8689L44.2085 34.9913C46.3158 37.6082 44.453 41.5 41.093 41.5H11.907C8.54702 41.5 6.68418 37.6082 8.7915 34.9913L23.3845 16.8689Z" fill="#468479"/>
</svg>
