<svg width="1786" height="1331" viewBox="0 0 1786 1331" fill="none" xmlns="http://www.w3.org/2000/svg">
<path d="M1785.71 1169.29H0V1170.18H1785.71V1169.29Z" fill="#EBEBEB"/>
<path d="M846.429 1010H156.821C151.419 1009.99 146.241 1007.84 142.425 1004.01C138.608 1000.19 136.464 995.009 136.464 989.607V20.2143C136.511 14.8429 138.676 9.70707 142.487 5.92221C146.299 2.13735 151.45 0.00920138 156.821 0H846.429C851.837 0 857.024 2.14853 860.849 5.97293C864.673 9.79733 866.821 14.9843 866.821 20.3929V989.607C866.821 995.016 864.673 1000.2 860.849 1004.03C857.024 1007.85 851.837 1010 846.429 1010V1010ZM156.821 0.714288C151.656 0.723749 146.705 2.78238 143.056 6.43831C139.407 10.0942 137.357 15.0487 137.357 20.2143V989.607C137.357 994.773 139.407 999.727 143.056 1003.38C146.705 1007.04 151.656 1009.1 156.821 1009.11H846.429C851.597 1009.1 856.552 1007.04 860.207 1003.39C863.862 999.73 865.919 994.776 865.929 989.607V20.2143C865.919 15.0455 863.862 10.091 860.207 6.43613C856.552 2.78122 851.597 0.723729 846.429 0.714288H156.821Z" fill="#EBEBEB"/>
<path d="M1618.96 1010H929.321C923.916 1009.99 918.734 1007.84 914.912 1004.02C911.09 1000.19 908.938 995.013 908.928 989.607V20.2143C908.985 14.8397 911.157 9.70385 914.974 5.91997C918.792 2.1361 923.946 0.00910104 929.321 0H1618.96C1624.33 0.0185875 1629.47 2.15089 1633.28 5.93474C1637.08 9.7186 1639.24 14.8491 1639.29 20.2143V989.607C1639.29 995.003 1637.15 1000.18 1633.34 1004C1629.53 1007.82 1624.36 1009.98 1618.96 1010V1010ZM929.321 0.714288C924.152 0.723729 919.198 2.78122 915.543 6.43613C911.888 10.091 909.831 15.0455 909.821 20.2143V989.607C909.831 994.776 911.888 999.73 915.543 1003.39C919.198 1007.04 924.152 1009.1 929.321 1009.11H1618.96C1624.13 1009.1 1629.09 1007.04 1632.74 1003.39C1636.4 999.73 1638.45 994.776 1638.46 989.607V20.2143C1638.45 15.0455 1636.4 10.091 1632.74 6.43613C1629.09 2.78122 1624.13 0.723729 1618.96 0.714288H929.321Z" fill="#EBEBEB"/>
<path d="M276 1203.29H183.143V1204.18H276V1203.29Z" fill="#EBEBEB"/>
<path d="M679.214 1193.61H518.393V1194.5H679.214V1193.61Z" fill="#EBEBEB"/>
<path d="M496.679 1236.46H279.571V1237.36H496.679V1236.46Z" fill="#EBEBEB"/>
<path d="M1602.57 1230.46H1533.89V1231.36H1602.57V1230.46Z" fill="#EBEBEB"/>
<path d="M1502.07 1230.46H1304.61V1231.36H1502.07V1230.46Z" fill="#EBEBEB"/>
<path d="M1184 1215.39H918.036V1216.29H1184V1215.39Z" fill="#EBEBEB"/>
<path d="M1564.14 706.464H1436.68V1169.29H1564.14V706.464Z" fill="#E6E6E6"/>
<path d="M1436.68 706.464H965.607V1169.29H1436.68V706.464Z" fill="#F5F5F5"/>
<path d="M1412.04 1169.29V731.143H990.321V1169.29H1412.04Z" fill="#E6E6E6"/>
<path d="M1412 731.107H1165.18V1169.25H1412V731.107Z" fill="#E0E0E0"/>
<path d="M1420.21 872.714V723.536H976.929V872.714H1420.21Z" fill="#F5F5F5"/>
<path d="M1386.75 856.821H1010.36V739.286H1386.75V856.821ZM1017.86 849.393H1379.36V746.821H1017.86V849.393Z" fill="white"/>
<path d="M1333.39 587.321H1217.21V706.179H1333.39V587.321Z" fill="#E6E6E6"/>
<path d="M1064.54 706.178H1217.21V587.321H1064.54V706.178Z" fill="#F0F0F0"/>
<g style="mix-blend-mode:multiply" opacity="0.7">
<path d="M1333.39 572.679H1064.54V590.5H1333.39V572.679Z" fill="#E6E6E6"/>
</g>
<path d="M1339.25 570.857H1217.21V587.357H1339.25V570.857Z" fill="#E6E6E6"/>
<path d="M1058.64 587.321H1217.18V570.821H1058.64V587.321Z" fill="#F0F0F0"/>
<path d="M1472.71 653.25H1377.68V706.179H1472.71V653.25Z" fill="#EBEBEB"/>
<path d="M1252.79 706.143H1377.68V653.214H1252.79V706.143Z" fill="#F5F5F5"/>
<g style="mix-blend-mode:multiply" opacity="0.7">
<path d="M1472.68 641.25H1252.75V655.857H1472.68V641.25Z" fill="#E6E6E6"/>
</g>
<path d="M1477.5 639.75H1377.68V653.25H1477.5V639.75Z" fill="#EBEBEB"/>
<path d="M1247.96 653.214H1377.68V639.714H1247.96V653.214Z" fill="#F5F5F5"/>
<path d="M1095.21 557.857H1462.39V70.6429L1095.21 70.6429V557.857Z" fill="#E6E6E6"/>
<path d="M1067.32 557.857H1450.18V70.6429L1067.32 70.6429V557.857Z" fill="#F5F5F5"/>
<path d="M1407.5 529.357H1110.07C1106.28 529.357 1102.65 527.852 1099.97 525.173C1097.29 522.494 1095.79 518.86 1095.79 515.071V113.357C1095.79 109.568 1097.29 105.935 1099.97 103.256C1102.65 100.577 1106.28 99.0714 1110.07 99.0714H1407.5C1411.29 99.0714 1414.92 100.577 1417.6 103.256C1420.28 105.935 1421.79 109.568 1421.79 113.357V515.107C1421.78 518.89 1420.27 522.514 1417.59 525.186C1414.91 527.857 1411.28 529.357 1407.5 529.357ZM1110.07 106.286C1108.18 106.286 1106.36 107.038 1105.02 108.378C1103.68 109.717 1102.93 111.534 1102.93 113.429V515.107C1102.93 517.002 1103.68 518.818 1105.02 520.158C1106.36 521.497 1108.18 522.25 1110.07 522.25H1407.5C1409.39 522.25 1411.21 521.497 1412.55 520.158C1413.89 518.818 1414.64 517.002 1414.64 515.107V113.357C1414.64 111.463 1413.89 109.646 1412.55 108.306C1411.21 106.967 1409.39 106.214 1407.5 106.214L1110.07 106.286Z" fill="white"/>
<path d="M233.679 1105.89H752.071L752.071 82.8214L233.679 82.8214L233.679 1105.89Z" fill="#E6E6E6"/>
<path d="M222.214 1105.89H746.714L746.714 82.8214L222.214 82.8214L222.214 1105.89Z" fill="#F5F5F5"/>
<path d="M792.071 74.0357H193.679C192.501 73.9986 191.383 73.5044 190.563 72.6578C189.743 71.8112 189.285 70.6786 189.286 69.5V69.5C189.286 68.2971 189.764 67.1434 190.614 66.2928C191.465 65.4422 192.618 64.9643 193.821 64.9643H792.071C793.274 64.9643 794.428 65.4422 795.279 66.2928C796.129 67.1434 796.607 68.2971 796.607 69.5C796.607 70.0956 796.49 70.6854 796.262 71.2357C796.034 71.786 795.7 72.2861 795.279 72.7072C794.857 73.1284 794.357 73.4625 793.807 73.6904C793.257 73.9184 792.667 74.0357 792.071 74.0357V74.0357Z" fill="#E6E6E6"/>
<path d="M233.679 1123.18H752.071V1105.89H233.679V1123.18Z" fill="#E6E6E6"/>
<path d="M201 1123.18H700.357V1105.89H201V1123.18Z" fill="#F5F5F5"/>
<path d="M730.607 1085.04L730.607 103.75L238.286 103.75L238.286 1085.04H730.607Z" fill="#FAFAFA"/>
<path d="M559.607 1085L521.643 103.75H453.357L491.321 1085H559.607Z" fill="white"/>
<path d="M472 1085L434.036 103.75H402.321L440.286 1085H472Z" fill="white"/>
<path d="M240.321 507.429L240.321 100.929H238.286L238.286 507.429H240.321Z" fill="#E6E6E6"/>
<path opacity="0.4" d="M274.071 51.1429H199.607V1048H274.071V51.1429Z" fill="#E0E0E0"/>
<path opacity="0.4" d="M357.071 51.1429H282.607V1048H357.071V51.1429Z" fill="#E0E0E0"/>
<path opacity="0.4" d="M308 60.0714H233.536V1056.93H308V60.0714Z" fill="#E0E0E0"/>
<path opacity="0.4" d="M691.786 51.1429H617.321V1048H691.786V51.1429Z" fill="#E0E0E0"/>
<path opacity="0.4" d="M774.821 51.1429H700.357V1048H774.821V51.1429Z" fill="#E0E0E0"/>
<path opacity="0.4" d="M725.714 60.0714H651.25V1056.93H725.714V60.0714Z" fill="#E0E0E0"/>
<path d="M892.857 1330.57C1275.29 1330.57 1585.32 1312.47 1585.32 1290.14C1585.32 1267.81 1275.29 1249.71 892.857 1249.71C510.42 1249.71 200.393 1267.81 200.393 1290.14C200.393 1312.47 510.42 1330.57 892.857 1330.57Z" fill="#F5F5F5"/>
<path d="M1300 171.429C1271.18 158.714 1237.82 151.536 1221.11 178.857C1210.14 196.714 1204.68 233.214 1185.39 252.857C1183.77 254.306 1182.46 256.075 1181.55 258.054C1180.64 260.033 1180.15 262.179 1180.11 264.357C1180.09 264.631 1180.09 264.905 1180.11 265.179C1180.43 276.179 1189.25 290.893 1211.93 296.321C1207.4 293.389 1203.53 289.545 1200.57 285.036C1209.91 289.072 1219.97 291.186 1230.14 291.25C1256.86 290.964 1277.39 293 1289.64 299.357C1301.89 305.714 1324.18 277.929 1323.18 265.286C1328 272.429 1333.89 265.286 1335.79 247.714C1340.96 202.536 1326.29 165.5 1300 171.429Z" fill="#263238"/>
<path d="M1234.39 312.643C1229.77 312.636 1225.26 311.26 1221.43 308.689C1217.59 306.118 1214.6 302.468 1212.84 298.199C1211.08 293.931 1210.62 289.236 1211.52 284.707C1212.43 280.179 1214.66 276.02 1217.93 272.757C1221.19 269.494 1225.36 267.273 1229.88 266.375C1234.41 265.476 1239.11 265.941 1243.38 267.71C1247.64 269.479 1251.29 272.473 1253.85 276.313C1256.42 280.153 1257.79 284.668 1257.79 289.286C1257.78 295.484 1255.31 301.425 1250.92 305.804C1246.54 310.183 1240.59 312.643 1234.39 312.643V312.643ZM1234.39 267.643C1230.11 267.643 1225.93 268.912 1222.37 271.29C1218.81 273.668 1216.04 277.049 1214.4 281.003C1212.76 284.958 1212.33 289.31 1213.17 293.508C1214 297.706 1216.06 301.563 1219.09 304.59C1222.12 307.616 1225.97 309.678 1230.17 310.513C1234.37 311.348 1238.72 310.919 1242.68 309.281C1246.63 307.643 1250.01 304.869 1252.39 301.31C1254.77 297.751 1256.04 293.566 1256.04 289.286C1256.04 283.546 1253.76 278.041 1249.7 273.982C1245.64 269.923 1240.13 267.643 1234.39 267.643V267.643Z" fill="#82CEC1"/>
<path d="M1210.25 393.857C1201.36 411.339 1191.41 428.264 1180.46 444.536C1174.94 452.89 1168.98 460.949 1162.61 468.679C1155.88 477.235 1148.1 484.914 1139.46 491.536C1137.82 492.78 1136.06 493.868 1134.21 494.786C1131.95 495.917 1129.55 496.745 1127.07 497.25C1122.2 498.162 1117.18 497.793 1112.5 496.179C1105.91 493.68 1100.01 489.653 1095.29 484.429C1091.48 480.382 1088.04 475.995 1085.04 471.321C1082.14 466.893 1079.57 462.464 1077.21 458C1068.21 440.41 1061.03 421.945 1055.79 402.893L1071.39 397.036C1079.64 413.539 1088.87 429.532 1099.04 444.929C1103.6 451.947 1108.98 458.397 1115.07 464.143C1116.84 465.946 1119.02 467.293 1121.43 468.071C1121.86 468.071 1121.43 467.821 1120.93 467.893C1120.43 467.964 1120.5 467.893 1120.46 467.893C1120.43 467.893 1120.25 467.893 1121.14 467.25C1127.18 461.716 1132.6 455.55 1137.32 448.857C1142.57 441.714 1147.61 434.107 1152.54 426.393C1157.46 418.679 1162.11 410.607 1166.82 402.607C1171.54 394.607 1176 386.321 1180.32 378.429L1210.25 393.857Z" fill="#B55B52"/>
<path d="M1200.36 346.893C1186.36 346.393 1161.57 397.393 1161.57 397.393L1188.25 457.143C1188.25 457.143 1240.57 388.286 1234.68 371.036C1228.57 353 1220.79 347.607 1200.36 346.893Z" fill="#82CEC1"/>
<path opacity="0.6" d="M1200.36 346.893C1186.36 346.393 1161.57 397.393 1161.57 397.393L1188.25 457.143C1188.25 457.143 1240.57 388.286 1234.68 371.036C1228.57 353 1220.79 347.607 1200.36 346.893Z" fill="white"/>
<path d="M1069.14 373.071L1073.29 409.964L1063.57 416.75C1050.25 413.679 1044.68 393.25 1044.68 393.25L1038.68 380.143C1037.39 377.314 1037 374.16 1037.56 371.103C1038.11 368.046 1039.59 365.231 1041.79 363.036L1044.5 360.357C1045.75 359.086 1047.26 358.104 1048.93 357.483C1050.6 356.862 1052.39 356.616 1054.16 356.762C1055.94 356.909 1057.66 357.445 1059.21 358.331C1060.75 359.218 1062.08 360.434 1063.11 361.893L1067 367.464C1068.17 369.124 1068.91 371.052 1069.14 373.071V373.071Z" fill="#B55B52"/>
<path d="M1268.07 1262.36H1235.14L1232.14 1186.07H1265.11L1268.07 1262.36Z" fill="#B55B52"/>
<path d="M1232.14 1258.54H1269.18C1269.79 1258.53 1270.38 1258.76 1270.83 1259.18C1271.28 1259.6 1271.54 1260.17 1271.57 1260.79L1272.82 1290.07C1272.8 1291.62 1272.18 1293.1 1271.09 1294.19C1269.99 1295.29 1268.51 1295.91 1266.96 1295.93C1254.07 1295.71 1247.93 1294.96 1231.64 1294.96C1221.64 1294.96 1198.61 1296 1184.79 1296C1170.96 1296 1171.57 1282.32 1177.46 1281.07C1203.86 1275.54 1217 1267.89 1226.43 1260.57C1228.06 1259.28 1230.07 1258.57 1232.14 1258.54V1258.54Z" fill="#263238"/>
<g opacity="0.2">
<path opacity="0.2" d="M1232.14 1186.11L1233.68 1225.43H1266.64L1265.11 1186.11H1232.14Z" fill="black"/>
</g>
<path d="M1187.14 363.214C1186.43 384.036 1190.04 432.679 1211.93 545.964L1345.68 541.964C1342.11 491.393 1340.89 458.821 1359.04 363.857C1359.6 360.93 1359.56 357.918 1358.91 355.008C1358.25 352.099 1357.01 349.355 1355.25 346.949C1353.49 344.542 1351.25 342.524 1348.68 341.021C1346.1 339.518 1343.25 338.563 1340.29 338.214C1330.46 337.071 1318.5 336 1306.43 335.786C1286.17 334.941 1265.88 335.55 1245.71 337.607C1230.25 339.464 1213.57 342.679 1202.61 345C1198.36 345.862 1194.53 348.127 1191.72 351.43C1188.92 354.734 1187.3 358.884 1187.14 363.214V363.214Z" fill="#82CEC1"/>
<path opacity="0.7" d="M1187.14 363.214C1186.43 384.036 1190.04 432.679 1211.93 545.964L1345.68 541.964C1342.11 491.393 1340.89 458.821 1359.04 363.857C1359.6 360.93 1359.56 357.918 1358.91 355.008C1358.25 352.099 1357.01 349.355 1355.25 346.949C1353.49 344.542 1351.25 342.524 1348.68 341.021C1346.1 339.518 1343.25 338.563 1340.29 338.214C1330.46 337.071 1318.5 336 1306.43 335.786C1286.17 334.941 1265.88 335.55 1245.71 337.607C1230.25 339.464 1213.57 342.679 1202.61 345C1198.36 345.862 1194.53 348.127 1191.72 351.43C1188.92 354.734 1187.3 358.884 1187.14 363.214V363.214Z" fill="white"/>
<path d="M1298.36 267.571C1295.11 287.25 1292.36 323.143 1306.43 335.786C1295.86 352.45 1279.2 364.329 1260 368.893C1229.18 353.25 1245.71 337.607 1245.71 337.607C1267.36 331.75 1266.32 315.607 1262.07 300.536L1298.36 267.571Z" fill="#B55B52"/>
<path d="M1260.04 368.893L1264.04 361.071L1285.43 365.929L1260.04 368.893Z" fill="#82CEC1"/>
<path d="M1264.04 361.071C1270.89 357.929 1302.71 337.214 1303.96 330.75C1310.16 331.611 1316.23 333.218 1322.04 335.536C1322.04 335.536 1316.32 361.071 1285.43 378.393C1283.28 374.167 1280.26 370.441 1276.57 367.457C1272.89 364.473 1268.62 362.298 1264.04 361.071V361.071Z" fill="white"/>
<path d="M1260.04 368.893L1258.25 361.071L1245.11 362L1260.04 368.893Z" fill="#82CEC1"/>
<path d="M1258.25 361.071C1247.54 353.929 1251.54 339.286 1252.57 332.821C1247.21 333.365 1241.96 334.664 1236.96 336.679C1236.96 336.679 1220.86 351.464 1236.46 378.536C1241.92 370.764 1249.48 364.706 1258.25 361.071Z" fill="white"/>
<path opacity="0.2" d="M1283.57 281.036L1262.14 300.5C1263.2 303.997 1263.94 307.583 1264.36 311.214C1272.64 309.786 1283.82 300.286 1284.43 291.571C1284.78 288.037 1284.49 284.467 1283.57 281.036V281.036Z" fill="black"/>
<path d="M1308.75 225.857C1307.32 258.5 1307.39 272.286 1291.21 289.393C1266.86 315 1226.93 306.107 1218.68 273.679C1211.18 244.464 1214.82 195.964 1246.54 182.429C1253.51 179.417 1261.15 178.238 1268.71 179.004C1276.27 179.771 1283.51 182.457 1289.74 186.807C1295.98 191.158 1300.99 197.029 1304.32 203.863C1307.65 210.697 1309.17 218.268 1308.75 225.857V225.857Z" fill="#B55B52"/>
<path d="M1285.43 191.321C1274.46 209.714 1258.86 186.321 1246.43 200.321C1236.46 211.536 1220.14 199.75 1210.71 231.75C1214 204.25 1218.61 179.929 1246.71 171.857C1264.04 166.857 1297.18 164.964 1285.43 191.321Z" fill="#263238"/>
<path d="M1291.04 178.571C1281.43 185.25 1271.57 194.857 1272.75 206.607C1273.93 218.357 1290.79 213.214 1293.04 221.464C1295.29 229.714 1282.96 247.071 1300.86 248.786C1321.29 237.393 1327 234.893 1323.29 217.393C1319.57 199.893 1306.64 176.25 1291.04 178.571Z" fill="#263238"/>
<path d="M1211.64 545.964C1211.64 545.964 1198.71 789.286 1198.04 889.286C1197.36 993.357 1226.61 1217.86 1226.61 1217.86H1271.14C1271.14 1217.86 1262.68 991 1269.54 888.357C1277 776.464 1303.04 543.071 1303.04 543.071L1211.64 545.964Z" fill="#82CEC1"/>
<path d="M1274.89 1219.39H1222.61L1220.46 1202.71L1279.21 1200.68L1274.89 1219.39Z" fill="#263238"/>
<path opacity="0.2" d="M1293.64 630.429C1288.86 624.429 1282.54 627.571 1274.29 644.714C1246.14 703.107 1260.43 796.214 1272.46 849.857C1277.89 783 1286.82 695.036 1293.64 630.429Z" fill="black"/>
<path d="M1253.57 238.357C1253.57 241 1252.25 243.179 1250.5 243.214C1248.75 243.25 1247.32 241.107 1247.29 238.464C1247.25 235.821 1248.61 233.607 1250.32 233.571C1252.04 233.536 1253.57 235.714 1253.57 238.357Z" fill="#263238"/>
<path d="M1223.64 238.107C1223.64 240.75 1222.29 242.929 1220.57 242.964C1218.86 243 1217.39 240.857 1217.32 238.214C1217.25 235.571 1218.68 233.357 1220.39 233.357C1222.11 233.357 1223.57 235.429 1223.64 238.107Z" fill="#263238"/>
<path d="M1221.18 233.464L1214.75 231.75C1214.75 231.75 1218.11 236.679 1221.18 233.464Z" fill="#263238"/>
<path d="M1234.07 240.536C1231.82 246.649 1228.73 252.419 1224.89 257.679C1226.26 258.624 1227.82 259.258 1229.46 259.536C1231.11 259.814 1232.79 259.728 1234.39 259.286L1234.07 240.536Z" fill="#A02724"/>
<path d="M1250.36 268.036C1249.06 268.267 1247.75 268.387 1246.43 268.393C1246.33 268.398 1246.23 268.382 1246.13 268.346C1246.04 268.311 1245.95 268.256 1245.87 268.186C1245.8 268.116 1245.74 268.032 1245.7 267.938C1245.66 267.845 1245.64 267.744 1245.64 267.643C1245.64 267.441 1245.72 267.246 1245.86 267.1C1246 266.953 1246.19 266.866 1246.39 266.857C1249.7 266.873 1252.97 266.108 1255.93 264.625C1258.89 263.142 1261.46 260.982 1263.43 258.321C1263.55 258.176 1263.72 258.08 1263.91 258.05C1264.09 258.02 1264.29 258.058 1264.45 258.158C1264.61 258.258 1264.73 258.413 1264.78 258.594C1264.84 258.775 1264.83 258.97 1264.75 259.143C1263.06 261.504 1260.92 263.507 1258.45 265.033C1255.97 266.56 1253.23 267.58 1250.36 268.036Z" fill="#263238"/>
<path d="M1318.04 256.607C1316.74 259.458 1314.9 262.026 1312.62 264.165C1310.33 266.304 1307.64 267.971 1304.71 269.071C1296.86 271.964 1292.25 265.107 1294 257.321C1295.46 250.179 1301.14 240.393 1309.46 240.857C1311.24 241.001 1312.95 241.585 1314.44 242.555C1315.93 243.525 1317.16 244.852 1318.01 246.415C1318.86 247.978 1319.31 249.728 1319.31 251.507C1319.32 253.287 1318.88 255.04 1318.04 256.607Z" fill="#B55B52"/>
<path d="M1304.25 312.643C1299.63 312.643 1295.11 311.273 1291.27 308.706C1287.43 306.14 1284.44 302.492 1282.67 298.224C1280.9 293.956 1280.44 289.26 1281.34 284.729C1282.24 280.198 1284.47 276.036 1287.73 272.77C1291 269.503 1295.16 267.279 1299.69 266.377C1304.22 265.476 1308.92 265.939 1313.19 267.706C1317.46 269.474 1321.1 272.468 1323.67 276.309C1326.24 280.15 1327.61 284.666 1327.61 289.286C1327.6 295.477 1325.13 301.413 1320.76 305.791C1316.38 310.169 1310.44 312.633 1304.25 312.643ZM1304.25 267.643C1299.97 267.636 1295.78 268.899 1292.22 271.273C1288.65 273.647 1285.87 277.024 1284.23 280.979C1282.59 284.933 1282.15 289.285 1282.98 293.486C1283.81 297.687 1285.87 301.546 1288.9 304.577C1291.92 307.607 1295.78 309.672 1299.98 310.51C1304.18 311.348 1308.53 310.921 1312.49 309.284C1316.45 307.647 1319.83 304.873 1322.21 301.314C1324.59 297.754 1325.86 293.568 1325.86 289.286C1325.85 283.555 1323.57 278.061 1319.52 274.005C1315.47 269.949 1309.98 267.662 1304.25 267.643Z" fill="#82CEC1"/>
<path d="M1265.43 224C1265.1 224.053 1264.77 224.002 1264.47 223.854C1264.18 223.707 1263.94 223.47 1263.79 223.179C1260.43 216.786 1251.21 215.536 1251.11 215.536C1250.72 215.456 1250.37 215.231 1250.14 214.905C1249.91 214.579 1249.81 214.177 1249.86 213.781C1249.92 213.385 1250.12 213.025 1250.43 212.774C1250.74 212.523 1251.14 212.399 1251.54 212.429C1251.96 212.429 1262.43 213.929 1266.54 221.714C1266.64 221.897 1266.7 222.098 1266.72 222.305C1266.74 222.512 1266.72 222.721 1266.66 222.92C1266.6 223.119 1266.5 223.305 1266.37 223.466C1266.24 223.627 1266.08 223.76 1265.89 223.857L1265.43 224Z" fill="#263238"/>
<path d="M1214.29 221.429C1214.02 221.482 1213.74 221.464 1213.49 221.376C1213.23 221.289 1213 221.134 1212.82 220.929C1212.68 220.774 1212.58 220.592 1212.51 220.395C1212.45 220.198 1212.42 219.99 1212.44 219.783C1212.45 219.576 1212.51 219.375 1212.61 219.191C1212.71 219.007 1212.84 218.845 1213 218.714C1214.85 217.063 1217.06 215.877 1219.46 215.256C1221.86 214.635 1224.37 214.596 1226.79 215.143C1227.18 215.267 1227.52 215.541 1227.72 215.908C1227.92 216.275 1227.97 216.705 1227.86 217.107C1227.8 217.303 1227.7 217.485 1227.58 217.643C1227.45 217.801 1227.29 217.933 1227.11 218.029C1226.93 218.125 1226.73 218.185 1226.53 218.205C1226.33 218.224 1226.12 218.203 1225.93 218.143V218.143C1224.01 217.73 1222.02 217.784 1220.12 218.3C1218.23 218.816 1216.48 219.778 1215.04 221.107C1214.82 221.273 1214.56 221.383 1214.29 221.429Z" fill="#263238"/>
<path d="M1379.5 377.75C1385.5 394.929 1390.79 412.071 1395.57 429.607C1398 438.357 1400.32 447.179 1402.29 456.214C1403.25 460.75 1404.21 465.321 1405.04 470.071C1405.94 475.138 1406.53 480.255 1406.82 485.393V487.643V490.286C1406.82 491.857 1406.61 492.821 1406.46 494.143C1406.25 496.607 1405.93 498.857 1405.61 501.286C1404.96 505.893 1404.21 510.393 1403.46 514.857C1401.96 523.821 1400.18 532.714 1398.39 541.464C1394.82 559.071 1390.57 576.536 1385.79 593.929L1369.32 591.214C1370.29 573.357 1371.64 555.5 1373.07 537.643L1375.21 511.179C1375.54 506.786 1375.82 502.429 1376.07 498.179C1376.07 496.036 1376.32 493.893 1376.36 491.893C1376.36 490.964 1376.36 489.714 1376.36 489.071V488.357V487.286C1375.84 483.537 1375.12 479.817 1374.21 476.143C1373.29 472.107 1372.21 468 1371.07 463.857C1368.75 455.571 1366.29 447.179 1363.75 438.857L1347.71 388.571L1379.5 377.75Z" fill="#B55B52"/>
<path d="M1340.29 338.214C1384.14 343.643 1392.82 397.214 1399.07 410.679L1356.04 446.786C1356.04 446.786 1328.79 400.964 1324.82 383.179C1320.71 364.643 1324.43 336.25 1340.29 338.214Z" fill="#82CEC1"/>
<path opacity="0.7" d="M1340.29 338.214C1384.14 343.643 1392.82 397.214 1399.07 410.679L1356.04 446.786C1356.04 446.786 1328.79 400.964 1324.82 383.179C1320.71 364.643 1324.43 336.25 1340.29 338.214Z" fill="white"/>
<path d="M1219.14 1264.29C1216.39 1264.56 1213.63 1263.84 1211.36 1262.25C1210.87 1261.76 1210.51 1261.15 1210.33 1260.48C1210.15 1259.81 1210.15 1259.1 1210.32 1258.43C1210.4 1257.99 1210.58 1257.57 1210.84 1257.21C1211.11 1256.85 1211.46 1256.56 1211.86 1256.36C1216.11 1254.14 1228.57 1260.86 1229.96 1261.64C1230.1 1261.72 1230.21 1261.83 1230.27 1261.98C1230.34 1262.12 1230.36 1262.28 1230.32 1262.43C1230.27 1262.6 1230.18 1262.75 1230.06 1262.87C1229.93 1262.99 1229.78 1263.07 1229.61 1263.11C1226.16 1263.81 1222.66 1264.2 1219.14 1264.29ZM1213.96 1257.46C1213.45 1257.43 1212.93 1257.53 1212.46 1257.75C1212.3 1257.83 1212.17 1257.94 1212.06 1258.09C1211.95 1258.23 1211.88 1258.4 1211.86 1258.57C1211.75 1259.01 1211.75 1259.47 1211.86 1259.9C1211.97 1260.34 1212.19 1260.74 1212.5 1261.07C1214.32 1262.89 1219.64 1263.18 1227.14 1261.96C1223.05 1259.7 1218.59 1258.19 1213.96 1257.5V1257.46Z" fill="#82CEC1"/>
<path d="M1229.46 1263.14H1229.14C1225.39 1261.36 1218.43 1254.25 1219.36 1250.54C1219.57 1249.64 1220.32 1248.54 1222.5 1248.32C1223.25 1248.23 1224.02 1248.3 1224.74 1248.54C1225.46 1248.77 1226.12 1249.16 1226.68 1249.68C1230.46 1253.25 1230.25 1262 1230.25 1262.36C1230.25 1262.5 1230.22 1262.64 1230.15 1262.77C1230.08 1262.89 1229.98 1263 1229.86 1263.07C1229.74 1263.13 1229.6 1263.16 1229.46 1263.14V1263.14ZM1222.96 1249.79H1222.5C1221.07 1249.79 1220.89 1250.5 1220.86 1250.68C1220.25 1252.93 1224.96 1258.5 1228.71 1260.93C1228.82 1257.29 1227.71 1253.73 1225.57 1250.79C1225.23 1250.45 1224.82 1250.19 1224.37 1250.02C1223.92 1249.85 1223.44 1249.77 1222.96 1249.79V1249.79Z" fill="#82CEC1"/>
<path d="M1467.86 1249.93L1435.64 1256.86L1408.82 1184.61L1441.04 1177.68L1467.86 1249.93Z" fill="#B55B52"/>
<path d="M1433.64 1253.57L1469.82 1245.75C1470.45 1245.6 1471.1 1245.69 1471.67 1245.99C1472.23 1246.3 1472.67 1246.79 1472.89 1247.39L1483.61 1275.07C1483.85 1275.77 1483.94 1276.52 1483.88 1277.25C1483.81 1277.99 1483.59 1278.71 1483.22 1279.36C1482.86 1280 1482.36 1280.56 1481.76 1281C1481.16 1281.44 1480.48 1281.74 1479.75 1281.89C1467.07 1284.39 1460.86 1284.96 1444.93 1288.39C1435.14 1290.5 1417.82 1297.14 1404.04 1296.18C1390.25 1295.21 1390.29 1281.5 1396.11 1280.68C1422.18 1276.93 1421.89 1265.68 1428.75 1256.71C1429.97 1255.13 1431.7 1254.02 1433.64 1253.57V1253.57Z" fill="#263238"/>
<path d="M1429.71 1260.14C1427 1260.97 1424.08 1260.87 1421.43 1259.86C1420.81 1259.51 1420.29 1259.02 1419.91 1258.43C1419.52 1257.84 1419.28 1257.17 1419.21 1256.46C1419.13 1256.04 1419.16 1255.6 1419.31 1255.19C1419.45 1254.78 1419.7 1254.42 1420.04 1254.14C1423.61 1251.14 1437.89 1254.89 1439.43 1255.36C1439.59 1255.39 1439.74 1255.47 1439.85 1255.59C1439.96 1255.72 1440.02 1255.87 1440.04 1256.04C1440.04 1256.2 1440.01 1256.36 1439.92 1256.5C1439.84 1256.64 1439.72 1256.75 1439.57 1256.82C1436.39 1258.23 1433.09 1259.34 1429.71 1260.14V1260.14ZM1422.57 1254.75C1422.08 1254.83 1421.62 1255.03 1421.21 1255.32C1421.09 1255.44 1420.99 1255.58 1420.93 1255.74C1420.88 1255.91 1420.86 1256.08 1420.89 1256.25C1420.93 1256.71 1421.08 1257.16 1421.33 1257.55C1421.58 1257.94 1421.92 1258.27 1422.32 1258.5C1424.68 1259.82 1430.07 1259 1436.93 1256.29C1432.22 1254.93 1427.31 1254.41 1422.43 1254.75H1422.57Z" fill="#82CEC1"/>
<path d="M1439.29 1256.86C1435.04 1255.96 1425.86 1250.68 1425.61 1246.89C1425.61 1246 1425.93 1244.82 1428 1244.14C1428.74 1243.9 1429.52 1243.81 1430.29 1243.87C1431.06 1243.94 1431.82 1244.17 1432.5 1244.54C1437.32 1247.04 1440.07 1255.5 1440.18 1255.86C1440.22 1255.99 1440.22 1256.12 1440.19 1256.26C1440.16 1256.39 1440.09 1256.51 1440 1256.61C1439.92 1256.72 1439.81 1256.8 1439.68 1256.84C1439.55 1256.89 1439.42 1256.89 1439.29 1256.86V1256.86ZM1428.57 1245.5H1428.11C1426.75 1245.96 1426.79 1246.54 1426.79 1246.71C1426.79 1248.96 1433.32 1253.32 1437.79 1254.82C1436.64 1251.24 1434.42 1248.1 1431.43 1245.82C1430.61 1245.42 1429.68 1245.31 1428.79 1245.5H1428.57Z" fill="#82CEC1"/>
<g opacity="0.2">
<path opacity="0.2" d="M1408.82 1184.64L1422.64 1221.89L1454.86 1214.93L1441.04 1177.68L1408.82 1184.64Z" fill="black"/>
</g>
<path d="M1345.68 541.964C1377.82 592.964 1368.79 780.536 1373.86 880.679C1404 969.5 1457.18 1206.64 1457.18 1206.64L1413.64 1216.04C1413.64 1216.04 1317.61 980.679 1297.68 880.143C1275.68 769.179 1248.89 541.964 1248.89 541.964H1345.68Z" fill="#82CEC1"/>
<path d="M1460.43 1207.57L1409.36 1218.61L1404 1202.68L1461 1188.29L1460.43 1207.57Z" fill="#263238"/>
<path d="M1251.18 233.714L1244.75 232C1244.75 232 1248.11 236.929 1251.18 233.714Z" fill="#263238"/>
<path d="M1347.43 534.071L1351.21 545.929C1351.71 546.857 1350.64 547.821 1349.07 547.893L1211.43 551.964C1210.25 551.964 1209.21 551.464 1209.14 550.679L1207.57 538.75C1207.57 537.929 1208.46 537.214 1209.79 537.143L1345.21 533.143C1345.63 533.089 1346.06 533.146 1346.45 533.309C1346.84 533.472 1347.17 533.735 1347.43 534.071Z" fill="#263238"/>
<path d="M1329.68 549.75H1333.25C1333.96 549.75 1334.5 549.357 1334.46 548.893L1332.29 533.393C1332.29 532.929 1331.57 532.571 1330.86 532.607H1327.29C1326.57 532.607 1326.04 533 1326.11 533.464L1328.25 548.964C1328.32 549.429 1328.96 549.786 1329.68 549.75Z" fill="#82CEC1"/>
<path d="M1221.68 552.964H1225.25C1225.96 552.964 1226.5 552.571 1226.43 552.107L1224.29 536.607C1224.29 536.143 1223.57 535.786 1222.86 535.821H1219.29C1218.57 535.821 1218.04 536.214 1218.07 536.679L1220.25 552.179C1220.32 552.643 1220.96 553 1221.68 552.964Z" fill="#82CEC1"/>
<path d="M1275.68 551.357H1279.25C1279.96 551.357 1280.5 550.964 1280.43 550.5L1278.29 535C1278.29 534.536 1277.57 534.179 1276.86 534.214H1273.29C1272.57 534.214 1272.04 534.607 1272.11 535.071L1274.25 550.571C1274.32 551.036 1275 551.393 1275.68 551.357Z" fill="#82CEC1"/>
<path d="M1371.43 585.714L1347.32 611.893L1380.79 613.357C1380.79 613.75 1391.68 595.5 1384.86 583.5L1371.43 585.714Z" fill="#B55B52"/>
<path d="M1356.11 639.286H1365.82C1367.96 639.268 1370.04 638.565 1371.75 637.279C1373.46 635.993 1374.71 634.193 1375.32 632.143L1380.86 613.393L1347.39 611.929L1346.04 628.571C1345.94 629.948 1346.13 631.33 1346.6 632.629C1347.06 633.929 1347.79 635.118 1348.74 636.124C1349.68 637.129 1350.82 637.929 1352.09 638.473C1353.36 639.017 1354.73 639.294 1356.11 639.286V639.286Z" fill="#B55B52"/>
<path d="M501.179 1258.71L470.429 1258.25L472.357 1186.75L503.107 1187.21L501.179 1258.71Z" fill="#FFC3BD"/>
<path d="M470.071 1254.68L503.679 1255.21C504.274 1255.2 504.852 1255.42 505.296 1255.81C505.74 1256.21 506.017 1256.76 506.071 1257.36L509 1284.86C509.049 1285.55 508.954 1286.25 508.721 1286.9C508.488 1287.56 508.122 1288.16 507.645 1288.66C507.169 1289.17 506.593 1289.57 505.953 1289.85C505.313 1290.12 504.624 1290.26 503.929 1290.25C491.821 1289.86 474.393 1288.89 459.143 1288.64C441.286 1288.36 443.071 1289.11 422.179 1288.64C409.536 1288.46 407.5 1275.61 412.929 1274.36C437.607 1269.46 440.107 1269.21 462.393 1256.68C464.733 1255.35 467.381 1254.66 470.071 1254.68Z" fill="#263238"/>
<path d="M462.964 337.857C455.821 360.214 448 382.286 439.821 404.25C435.75 415.25 431.607 426.214 427.286 437.143C422.964 448.071 418.643 459 414.071 469.929C413.036 472.536 411.571 475.679 410.286 478.607C409 481.536 407.571 484.357 406.179 487.143C404.786 489.929 403.321 492.679 401.821 495.357C400.321 498.036 398.893 500.75 397.357 503.357C391.429 514.071 384.893 523.929 378.429 533.929C365.286 553.821 351.357 572.786 336.357 591.286L316.929 578.571L347.75 516.286C357.932 496.435 366.831 475.953 374.393 454.964L396.107 388.857C403.25 366.786 410.929 344.679 418.679 322.821L462.964 337.857Z" fill="#FFC3BD"/>
<path d="M483.643 323.536C476.107 348.321 450.071 410.214 450.071 410.214L390.393 368.571C390.393 368.571 400.893 328.286 424.5 309.321C458 282.429 493.357 291.571 483.643 323.536Z" fill="#263238"/>
<path opacity="0.2" d="M448.143 343.679C426.179 349 409.536 371.143 412.214 383.821L450.071 410.214C450.071 410.214 458.179 379.107 472.5 358.393C464.286 350 454.5 342.143 448.143 343.679Z" fill="black"/>
<path d="M438.5 400C440.643 398.395 442.628 396.589 444.429 394.607C444.429 394.607 400.107 363.714 388.929 363.393C386.984 365.748 385.844 368.664 385.679 371.714C385.679 371.714 424.393 400.464 438.5 400Z" fill="#82CEC1"/>
<path d="M327.821 568.036L298.143 587.179L321.893 613C321.893 613 346.893 601.321 342.429 578.857L327.821 568.036Z" fill="#FFC3BD"/>
<path d="M285.714 617.143L300.357 624.571C301.558 625.178 302.906 625.432 304.246 625.306C305.585 625.179 306.862 624.677 307.929 623.857L322.036 613.143L298.286 587.321L283.321 606.607C282.714 607.433 282.292 608.379 282.082 609.383C281.873 610.386 281.883 611.423 282.11 612.422C282.336 613.421 282.776 614.36 283.398 615.175C284.02 615.989 284.81 616.661 285.714 617.143V617.143Z" fill="#FFC3BD"/>
<path opacity="0.2" d="M472.357 1186.75L471.357 1223.61L502.143 1224.11L503.143 1187.25L472.357 1186.75Z" fill="black"/>
<path d="M611.5 308.25C582.75 425.357 594.143 549.643 592.107 574.786L427.179 572.107C416.464 442.25 427.179 357 433.893 319.286C435.111 312.605 438.458 306.497 443.434 301.875C448.41 297.253 454.747 294.365 461.5 293.643L463.536 293.429C468.036 292.964 472.893 292.571 477.821 292.286C480.607 292.107 483.464 292.036 486.321 291.964C509.782 292.369 533.201 294.11 556.464 297.179C560.857 297.714 565.357 298.393 569.679 299.107C574 299.821 577.679 300.5 581.393 301.25C598.429 304.571 611.5 308.25 611.5 308.25Z" fill="#263238"/>
<path opacity="0.2" d="M578.321 358.464C575.786 369.821 581.143 421.5 593.464 434.25C594.429 417.714 595.929 400.429 598.107 382.75L578.321 358.464Z" fill="black"/>
<path d="M552.464 217.857C547.25 240 541.321 280.893 556.536 297.071C543.857 308.321 527.179 322.857 500.5 320.107C478.75 317.893 479.071 301.036 486.464 291.857C511.821 287.75 511.857 269.071 508.107 251.286L552.464 217.857Z" fill="#FFC3BD"/>
<path opacity="0.2" d="M548.071 242.857L529.786 235.214L522.964 240.357C523.679 242.857 521.857 251.929 522.964 254.643C526.107 262.214 538.714 266.179 546.857 264.893C546.726 257.528 547.131 250.163 548.071 242.857V242.857Z" fill="black"/>
<path d="M535.714 122.179C522.893 131.679 522.857 132.893 509.429 130.286C496 127.679 458.036 113.821 468.143 146.607C436.214 148.464 440.714 182.071 455 201C469.286 219.929 483.571 221.75 485.214 237.286C487.286 255.536 518.179 259.071 522.5 248.821L566.607 211.179C581.25 212.071 567.107 188.214 574.357 174.5C575.482 172.37 576.088 170.005 576.125 167.597C576.162 165.189 575.63 162.806 574.571 160.643C578.686 158.668 582.181 155.605 584.679 151.786C599.429 130.107 556.536 106.893 535.714 122.179Z" fill="#263238"/>
<path d="M485.714 188.643C489.571 218.964 490.286 236.893 506.714 251.393C531.393 273.179 568.107 256.429 573.393 225.5C578.143 197.643 571.036 152.75 540.393 142.857C533.613 140.663 526.387 140.226 519.392 141.587C512.397 142.947 505.861 146.061 500.398 150.636C494.934 155.211 490.721 161.098 488.153 167.745C485.585 174.392 484.746 181.583 485.714 188.643V188.643Z" fill="#FFC3BD"/>
<path d="M488.75 152.643C504.714 149.071 519.357 167.571 510.714 180.429C502.071 193.286 520.5 209.286 501.179 217.571C487.679 223.357 481.143 209.321 474.607 199.714C464.571 185.036 471.75 156.393 488.75 152.643Z" fill="#263238"/>
<path d="M473.143 148.75C492.643 159.25 497.393 169.464 526.357 159.464C543.464 153.607 547.786 167.071 569.786 162.321C574.036 136.357 543.75 130.607 528.464 133.464C513.179 136.321 473.143 148.75 473.143 148.75Z" fill="#263238"/>
<path d="M473.143 153.964C472.553 153.93 471.974 153.797 471.429 153.571C450.536 146.429 450.821 130.679 450.857 130C450.931 128.633 451.528 127.346 452.526 126.408C453.524 125.47 454.845 124.953 456.214 124.964C457.578 125.011 458.87 125.591 459.812 126.579C460.753 127.567 461.269 128.885 461.25 130.25C461.25 130.786 461.571 139.25 474.75 143.714C475.914 144.116 476.898 144.917 477.528 145.975C478.158 147.033 478.393 148.28 478.192 149.494C477.991 150.709 477.367 151.813 476.429 152.612C475.492 153.41 474.303 153.852 473.071 153.857L473.143 153.964Z" fill="#263238"/>
<path d="M480.786 218.107C484.458 224.011 490.1 228.426 496.714 230.571C504.643 232.714 506.536 224.036 502.571 215.25C499 207.357 490.607 196.714 483.464 198.464C476.321 200.214 475.714 210.357 480.786 218.107Z" fill="#FFC3BD"/>
<path d="M522.786 878.143C521.536 723.107 555.857 574.214 555.857 574.214L427.286 572.143C427.286 572.143 442.071 796.071 447.214 890C452.571 987.5 460.036 1216.46 460.036 1216.46L512.214 1217.25C512.214 1217.25 530 1000.5 522.786 878.143Z" fill="#82CEC1"/>
<path opacity="0.2" d="M527.893 659.5C491.25 709.679 507.714 804.036 522.75 870.714C523.335 797.175 529.592 723.791 541.464 651.214L527.893 659.5Z" fill="black"/>
<path d="M456.786 1217.43L518.857 1218.39L522.357 1198.29L453.179 1196.14L456.786 1217.43Z" fill="#263238"/>
<path d="M535.929 196.036C535.929 198.5 537.536 200.429 539.143 200.286C540.75 200.143 541.964 198.071 541.786 195.571C541.607 193.071 540.179 191.179 538.571 191.321C536.964 191.464 535.714 193.536 535.929 196.036Z" fill="#263238"/>
<path d="M565.071 193.929C565.25 196.429 566.679 198.321 568.321 198.214C569.964 198.107 571.107 195.964 570.964 193.5C570.821 191.036 569.357 189.107 567.714 189.214C566.071 189.321 564.929 191.464 565.071 193.929Z" fill="#263238"/>
<path d="M556.536 194.321C559.99 201.687 564.449 208.538 569.786 214.679C565.678 219.071 558.071 217.75 558.071 217.75L556.536 194.321Z" fill="#ED847E"/>
<path d="M541.607 225C538.824 224.869 536.097 224.168 533.597 222.939C531.096 221.71 528.875 219.981 527.071 217.857C526.99 217.7 526.966 217.519 527.005 217.346C527.044 217.174 527.143 217.02 527.284 216.914C527.425 216.807 527.599 216.753 527.776 216.762C527.953 216.772 528.121 216.843 528.25 216.964C530.291 219.275 532.85 221.069 535.718 222.198C538.586 223.328 541.682 223.762 544.75 223.464C544.847 223.454 544.944 223.464 545.037 223.494C545.13 223.523 545.215 223.571 545.289 223.634C545.363 223.698 545.422 223.776 545.465 223.863C545.507 223.951 545.531 224.046 545.536 224.143C545.546 224.336 545.481 224.526 545.354 224.672C545.228 224.818 545.05 224.91 544.857 224.929C543.777 225.024 542.691 225.048 541.607 225V225Z" fill="#263238"/>
<path d="M528.857 186.464C528.603 186.465 528.354 186.39 528.143 186.25C527.979 186.146 527.839 186.009 527.73 185.849C527.621 185.688 527.546 185.507 527.509 185.317C527.472 185.126 527.474 184.93 527.516 184.741C527.557 184.551 527.637 184.372 527.75 184.214C528.974 182.235 530.653 180.577 532.647 179.378C534.641 178.179 536.892 177.474 539.214 177.321C539.603 177.321 539.975 177.476 540.25 177.75C540.524 178.025 540.678 178.397 540.678 178.786C540.678 179.174 540.524 179.546 540.25 179.821C539.975 180.096 539.603 180.25 539.214 180.25V180.25C537.374 180.396 535.595 180.977 534.024 181.946C532.453 182.915 531.135 184.243 530.178 185.821C530.034 186.035 529.836 186.208 529.604 186.321C529.372 186.434 529.114 186.483 528.857 186.464Z" fill="#263238"/>
<path d="M571.75 179.071C571.508 179.076 571.269 179.023 571.052 178.917C570.835 178.812 570.646 178.657 570.5 178.464C569.474 176.954 568.096 175.716 566.484 174.857C564.872 173.998 563.076 173.545 561.25 173.536C561.058 173.545 560.865 173.517 560.684 173.452C560.503 173.387 560.336 173.287 560.193 173.158C560.05 173.028 559.935 172.872 559.853 172.698C559.77 172.524 559.723 172.335 559.714 172.143C559.695 171.76 559.826 171.385 560.079 171.098C560.333 170.811 560.689 170.635 561.071 170.607C563.383 170.595 565.664 171.145 567.717 172.209C569.769 173.272 571.533 174.819 572.857 176.714C572.976 176.868 573.063 177.045 573.114 177.233C573.164 177.421 573.176 177.617 573.149 177.81C573.123 178.003 573.058 178.189 572.959 178.356C572.859 178.524 572.728 178.67 572.571 178.786C572.326 178.949 572.043 179.047 571.75 179.071V179.071Z" fill="#263238"/>
<path d="M464.5 1257.43C464.622 1257.38 464.73 1257.31 464.811 1257.21C464.893 1257.11 464.946 1256.99 464.964 1256.86C464.988 1256.71 464.967 1256.55 464.903 1256.41C464.84 1256.27 464.737 1256.15 464.607 1256.07C463.214 1255.36 450.929 1248.93 447.143 1250.89C446.793 1251.09 446.497 1251.37 446.279 1251.7C446.061 1252.04 445.929 1252.42 445.893 1252.82V1252.82C445.814 1253.48 445.893 1254.15 446.123 1254.77C446.353 1255.39 446.727 1255.94 447.214 1256.39C450.536 1259.43 459.393 1258.36 464.393 1257.46L464.5 1257.43ZM448.107 1252.07C450.429 1251.29 457.107 1253.96 461.964 1256.36C455.143 1257.39 450.071 1257.04 448.214 1255.32C447.89 1255.03 447.642 1254.66 447.493 1254.25C447.343 1253.84 447.297 1253.4 447.357 1252.96C447.353 1252.8 447.394 1252.64 447.476 1252.5C447.558 1252.37 447.678 1252.25 447.821 1252.18L448.107 1252.07Z" fill="#82CEC1"/>
<path d="M464.5 1257.43H464.679C464.782 1257.36 464.865 1257.26 464.921 1257.15C464.977 1257.04 465.005 1256.91 465 1256.79C465 1256.43 464.25 1248.11 460.393 1244.82C459.844 1244.34 459.203 1243.98 458.51 1243.75C457.816 1243.52 457.084 1243.44 456.357 1243.5V1243.5C454.357 1243.68 453.75 1244.71 453.607 1245.5C453 1249.07 460.25 1255.79 463.929 1257.5C464.122 1257.53 464.32 1257.51 464.5 1257.43ZM455.75 1245C455.999 1244.97 456.251 1244.97 456.5 1245V1245C457.034 1244.95 457.571 1245.01 458.081 1245.18C458.59 1245.34 459.061 1245.61 459.464 1245.96C461.711 1248.68 463.07 1252.02 463.357 1255.54C459.607 1253.21 454.679 1247.89 455.036 1245.82C455.071 1245.54 455.143 1245.21 455.75 1245V1245Z" fill="#82CEC1"/>
<path d="M720.75 1258.71L689.857 1258.25L670.071 1186.75L701 1187.21L720.75 1258.71Z" fill="#FFC3BD"/>
<path d="M687.679 1254.68L721.393 1255.21C722.02 1255.23 722.626 1255.45 723.121 1255.83C723.617 1256.22 723.975 1256.75 724.143 1257.36L731.786 1284.86C731.988 1285.49 732.033 1286.17 731.918 1286.83C731.802 1287.49 731.53 1288.11 731.123 1288.64C730.716 1289.17 730.187 1289.59 729.581 1289.87C728.975 1290.15 728.31 1290.28 727.643 1290.25C715.464 1289.86 711.5 1288.89 696.214 1288.64C678.357 1288.36 686.714 1289.11 665.75 1288.64C653.071 1288.46 648.857 1275.68 654.071 1274.36C670.571 1270.79 673.929 1263.96 680.393 1256.68C681.407 1255.87 682.576 1255.27 683.829 1254.93C685.082 1254.58 686.392 1254.5 687.679 1254.68V1254.68Z" fill="#263238"/>
<path opacity="0.2" d="M670.071 1186.75L680.286 1223.61L711.214 1224.11L701 1187.25L670.071 1186.75Z" fill="black"/>
<path d="M643.464 880.321C625.964 741.75 612.893 605.75 592.107 574.786L483.143 573.036C483.143 573.036 546.179 798.036 567.464 890.464C589.536 986.428 666.214 1207.14 666.214 1207.14L715.929 1207.86C715.929 1207.86 676.107 987.5 643.464 880.321Z" fill="#82CEC1"/>
<path d="M659.357 1217.43L721.393 1218.39L724.893 1198.29L655.75 1196.14L659.357 1217.43Z" fill="#263238"/>
<path d="M689.607 1257.14C689.743 1257.16 689.881 1257.13 690.002 1257.07C690.123 1257.01 690.222 1256.91 690.286 1256.79C690.373 1256.66 690.42 1256.51 690.42 1256.36C690.42 1256.2 690.373 1256.05 690.286 1255.93C689.25 1254.75 679.929 1244.46 675.679 1245.21C675.279 1245.27 674.9 1245.42 674.58 1245.67C674.261 1245.91 674.011 1246.24 673.857 1246.61V1246.61C673.541 1247.19 673.376 1247.84 673.376 1248.5C673.376 1249.16 673.541 1249.81 673.857 1250.39C675.928 1254.39 684.571 1256.43 689.607 1257.29V1257.14ZM676.071 1246.43C678.536 1246.43 683.893 1251.32 687.607 1255.21C680.857 1253.86 676.214 1251.64 675.036 1249.5C674.832 1249.11 674.726 1248.69 674.726 1248.25C674.726 1247.81 674.832 1247.39 675.036 1247C675.089 1246.85 675.184 1246.71 675.31 1246.61C675.437 1246.51 675.589 1246.45 675.75 1246.43H676.071Z" fill="#82CEC1"/>
<path d="M689.607 1257.14H689.821C689.944 1257.1 690.054 1257.03 690.141 1256.94C690.229 1256.85 690.291 1256.73 690.321 1256.61C690.321 1256.29 692.643 1248.25 690.321 1243.82C689.971 1243.18 689.492 1242.62 688.915 1242.17C688.337 1241.72 687.673 1241.39 686.964 1241.21V1241.21C685.036 1240.68 684.107 1241.43 683.714 1242.14C681.929 1245.18 686.429 1254.04 689.286 1256.93C689.371 1257.03 689.482 1257.1 689.607 1257.14V1257.14ZM685.643 1242.5H686.429C686.945 1242.64 687.427 1242.88 687.845 1243.21C688.263 1243.54 688.608 1243.96 688.857 1244.43C690.046 1247.75 690.183 1251.35 689.25 1254.75C686.5 1251.18 683.714 1244.61 684.786 1242.75C684.875 1242.59 685.015 1242.47 685.183 1242.39C685.351 1242.32 685.538 1242.31 685.714 1242.36L685.643 1242.5Z" fill="#82CEC1"/>
<path d="M624.571 341.643L625.821 344.464L627.321 347.679L630.393 354.25C632.571 358.643 634.857 363 637.25 367.286C642 375.964 647.107 384.429 652.571 392.571C657.976 400.729 663.805 408.597 670.036 416.143C673.071 419.964 676.464 423.286 679.607 427.107L684.679 432.25L687.214 434.857L687.536 435.179C687.536 435.179 687.536 435.179 687.286 435.179C687.036 435.179 686.393 435.179 686.5 435.179C687.094 435.442 687.755 435.517 688.393 435.393C691.703 434.955 694.923 433.99 697.929 432.536C706.243 428.459 714.118 423.541 721.429 417.857C737.677 405.383 753.18 391.968 767.857 377.679L786 391.964C780.035 401.347 773.561 410.396 766.607 419.071C759.617 427.85 752.103 436.198 744.107 444.071C735.604 452.651 726.122 460.203 715.857 466.571C709.614 470.397 702.821 473.239 695.714 475C691.117 476.065 686.381 476.403 681.679 476C676.093 475.492 670.678 473.813 665.786 471.071C664.607 470.321 663.357 469.571 662.214 468.75L660.536 467.5L659.714 466.857L659.321 466.5L655.964 463.643L649.321 457.929C645.107 453.893 640.75 449.964 636.893 445.643C628.89 437.291 621.468 428.401 614.679 419.036C607.87 409.789 601.644 400.127 596.036 390.107C593.25 385.071 590.607 380 588.071 374.786C586.821 372.179 585.536 369.571 584.5 366.893L582.75 362.786L580.964 358.214L624.571 341.643Z" fill="#FFC3BD"/>
<path d="M611.5 308.25C640.071 317.036 653.179 380.75 653.179 380.75L609.679 418.964C592.833 401.705 579.663 381.208 570.964 358.714C556.286 319.357 577.036 297.571 611.5 308.25Z" fill="#263238"/>
<path d="M655.286 381.929C654.49 379.364 653.462 376.878 652.214 374.5C652.214 374.5 608.214 405.893 604.179 416.286C605.744 418.91 608.11 420.963 610.929 422.143C610.929 422.143 650.857 395.286 655.286 381.929Z" fill="#82CEC1"/>
<path d="M762.75 384.464L779.429 358.107L804.179 386.143C804.179 386.143 786.321 408.179 772.964 400.429L762.75 384.464Z" fill="#FFC3BD"/>
<path d="M810.964 350.714L818.107 362C819.473 364.17 820.015 366.759 819.635 369.295C819.255 371.831 817.978 374.147 816.036 375.821L804.286 386.143L779.536 358.107L796 347.393C797.196 346.612 798.535 346.078 799.94 345.822C801.345 345.566 802.787 345.594 804.181 345.903C805.576 346.212 806.894 346.797 808.059 347.624C809.223 348.45 810.211 349.501 810.964 350.714Z" fill="#FFC3BD"/>
<path d="M1173.11 426.571C1156.74 410.185 1137.3 397.194 1115.9 388.343C1094.49 379.493 1071.55 374.959 1048.39 375H972.964V391.929C954.668 400.59 937.997 412.333 923.679 426.643C907.156 410.082 887.495 396.985 865.847 388.117C844.199 379.249 821 374.79 797.607 375H722.214V392.571C696.865 404.816 674.816 422.951 657.909 445.461C641.003 467.97 629.731 494.2 625.035 521.957C620.34 549.714 622.357 578.192 630.919 605.01C639.481 631.828 654.339 656.206 674.25 676.107L847.464 849.321H846.643V925.536H901.357C915.65 925.535 929.358 919.857 939.464 909.75L1173.11 676.107C1189.5 659.726 1202.5 640.276 1211.37 618.868C1220.24 597.459 1224.81 574.513 1224.81 551.339C1224.81 528.166 1220.24 505.219 1211.37 483.811C1202.5 462.403 1189.5 442.952 1173.11 426.571V426.571Z" fill="#82CEC1"/>
<path opacity="0.2" d="M1173.11 426.571C1156.74 410.185 1137.3 397.194 1115.9 388.343C1094.49 379.493 1071.55 374.959 1048.39 375H972.964V391.929C954.668 400.59 937.997 412.333 923.679 426.643C907.156 410.082 887.495 396.985 865.847 388.117C844.199 379.249 821 374.79 797.607 375H722.214V392.571C696.865 404.816 674.816 422.951 657.909 445.461C641.003 467.97 629.731 494.2 625.035 521.957C620.34 549.714 622.357 578.192 630.919 605.01C639.481 631.828 654.339 656.206 674.25 676.107L847.464 849.321H846.643V925.536H901.357C915.65 925.535 929.358 919.857 939.464 909.75L1173.11 676.107C1189.5 659.726 1202.5 640.276 1211.37 618.868C1220.24 597.459 1224.81 574.513 1224.81 551.339C1224.81 528.166 1220.24 505.219 1211.37 483.811C1202.5 462.403 1189.5 442.952 1173.11 426.571V426.571Z" fill="black"/>
<path d="M1096.07 426.571C1062.99 393.5 1018.13 374.922 971.357 374.922C924.582 374.922 879.722 393.5 846.643 426.571C813.457 394.001 768.753 375.851 722.255 376.07C675.757 376.289 631.226 394.859 598.349 427.741C565.471 460.623 546.908 505.157 546.695 551.655C546.483 598.153 564.639 642.855 597.214 676.036L846.643 925.464L1096.07 676.036C1112.45 659.656 1125.45 640.21 1134.31 618.809C1143.18 597.407 1147.74 574.469 1147.74 551.304C1147.74 528.139 1143.18 505.2 1134.31 483.799C1125.45 462.397 1112.45 442.951 1096.07 426.571V426.571Z" fill="#82CEC1"/>
<path d="M735.036 826.486L732.511 829.011L771.073 867.574L773.599 865.049L735.036 826.486Z" fill="#82CEC1"/>
<path d="M788.767 880.288L786.242 882.813L803.819 900.39L806.344 897.864L788.767 880.288Z" fill="#82CEC1"/>
<path opacity="0.2" d="M1096.07 426.571C1062.99 393.5 1018.13 374.922 971.357 374.922C924.582 374.922 879.722 393.5 846.643 426.571C813.457 394.001 768.753 375.851 722.255 376.07C675.757 376.289 631.226 394.859 598.349 427.741C565.471 460.623 546.908 505.157 546.695 551.655C546.483 598.153 564.639 642.855 597.214 676.036L846.643 925.464L1096.07 676.036C1112.45 659.656 1125.45 640.21 1134.31 618.809C1143.18 597.407 1147.74 574.469 1147.74 551.304C1147.74 528.139 1143.18 505.2 1134.31 483.799C1125.45 462.397 1112.45 442.951 1096.07 426.571V426.571Z" fill="black"/>
<path d="M622.929 650.286C609.93 637.287 599.619 621.856 592.584 604.872C585.55 587.889 581.929 569.686 581.929 551.304C581.929 532.921 585.55 514.718 592.584 497.735C599.619 480.752 609.93 465.32 622.929 452.321C635.927 439.323 651.359 429.012 668.342 421.977C685.325 414.943 703.528 411.322 721.911 411.322C740.293 411.322 758.496 414.943 775.479 421.977C792.463 429.012 807.894 439.323 820.893 452.321L846.643 478.072L872.393 452.321C885.391 439.323 900.823 429.012 917.806 421.977C934.79 414.943 952.992 411.322 971.375 411.322C989.758 411.322 1007.96 414.943 1024.94 421.977C1041.93 429.012 1057.36 439.323 1070.36 452.321C1083.36 465.32 1093.67 480.752 1100.7 497.735C1107.74 514.718 1111.36 532.921 1111.36 551.304C1111.36 569.686 1107.74 587.889 1100.7 604.872C1093.67 621.856 1083.36 637.287 1070.36 650.286L846.643 874L622.929 650.286Z" fill="#82CEC1"/>
<path d="M664.857 527.214H726.357V543.393H705.714V592.857H685.464V543.572H664.857V527.214Z" fill="white"/>
<path d="M735.714 527.214H755.964V550H778.071V527.107H798.393V592.857H778.071V566.393H755.964V592.857H735.714V527.214Z" fill="white"/>
<path d="M851.928 581.857H828.964L825.786 592.571H805.107L829.714 527.107H851.786L876.393 592.857H855.214L851.928 581.857ZM847.75 567.571L840.607 544.036L833.464 567.571H847.75Z" fill="white"/>
<path d="M882.964 527.214H901.857L926.5 563.429V527.214H945.571V592.857H926.5L902 556.893V592.857H882.964V527.214Z" fill="white"/>
<path d="M959.107 527.214H979.357V551.964L1000.54 527.214H1027.43L1003.57 551.929L1028.57 592.857H1003.57L989.75 565.929L979.321 576.893V592.857H959.071L959.107 527.214Z" fill="white"/>
<path d="M736.714 636.964H759.179L772.357 659.071L785.571 636.964H807.929L782.464 675V702.429H762.214V675L736.714 636.964Z" fill="white"/>
<path d="M806.429 669.75C805.981 665.198 806.547 660.603 808.085 656.295C809.623 651.986 812.095 648.072 815.325 644.832C818.554 641.593 822.461 639.108 826.764 637.556C831.067 636.004 835.66 635.424 840.214 635.857C851.107 635.857 859.536 638.786 865.429 644.643C868.493 647.923 870.856 651.794 872.372 656.019C873.889 660.244 874.528 664.734 874.25 669.214C874.498 675.707 873.175 682.164 870.393 688.036C867.888 692.873 863.995 696.853 859.214 699.464C853.606 702.367 847.347 703.781 841.036 703.572C834.726 703.778 828.451 702.557 822.679 700C817.73 697.536 813.636 693.641 810.929 688.822C807.745 682.983 806.191 676.396 806.429 669.75ZM826.643 669.75C826.163 674.78 827.424 679.823 830.214 684.036C831.515 685.397 833.078 686.481 834.809 687.221C836.54 687.961 838.403 688.343 840.286 688.343C842.168 688.343 844.032 687.961 845.763 687.221C847.494 686.481 849.057 685.397 850.357 684.036C852.714 681.214 853.929 676.143 853.929 668.786C854.383 664.004 853.116 659.217 850.357 655.286C849.093 653.872 847.53 652.757 845.782 652.022C844.034 651.287 842.144 650.95 840.25 651.036C838.392 650.964 836.543 651.315 834.841 652.064C833.139 652.813 831.63 653.939 830.429 655.357C827.522 659.591 826.184 664.707 826.643 669.822V669.75Z" fill="white"/>
<path d="M927.75 636.964H947.964V675.964C947.99 679.697 947.374 683.405 946.143 686.929C944.953 690.318 943.011 693.395 940.464 695.929C938.188 698.306 935.422 700.158 932.357 701.357C927.766 702.945 922.927 703.695 918.071 703.571C914.585 703.542 911.103 703.315 907.643 702.893C904.351 702.588 901.142 701.68 898.179 700.214C895.525 698.8 893.172 696.883 891.25 694.571C889.29 692.396 887.816 689.827 886.929 687.036C885.778 683.454 885.152 679.725 885.071 675.964V636.964H905.25V676.893C905.166 678.418 905.384 679.945 905.893 681.386C906.402 682.826 907.191 684.152 908.214 685.286C910.519 687.209 913.426 688.263 916.429 688.263C919.431 688.263 922.338 687.209 924.643 685.286C925.681 684.154 926.479 682.824 926.989 681.375C927.498 679.927 927.709 678.39 927.607 676.857L927.75 636.964Z" fill="white"/>
</svg>
